<?xml version="1.0" encoding="UTF-8"?>
<svg xmlns="http://www.w3.org/2000/svg" xmlns:xlink="http://www.w3.org/1999/xlink" width="25px" height="px" viewBox="0 0 24 24" version="1.1">
<g id="surface1">
<path style=" stroke:none;fill-rule:evenodd;fill:rgb(100%,84.313725%,29.411765%);fill-opacity:1;" d="M 11 6 C 8.179688 6.679688 5.878906 8.75 4.863281 11.523438 C 5.203125 8.34375 7.355469 5.585938 10.457031 4.796875 C 12.996094 4.164062 15.671875 4.949219 17.492188 6.863281 C 15.519531 5.726562 13.191406 5.417969 11 6 Z M 11 6 "/>
<path style=" stroke:none;fill-rule:nonzero;fill:rgb(95.294118%,44.313725%,17.647059%);fill-opacity:1;" d="M 20.574219 14.316406 C 20.773438 13.605469 20.882812 12.871094 20.898438 12.128906 L 22.414062 11.355469 L 23.992188 10.535156 L 22.273438 10.117188 L 20.636719 9.714844 C 20.453125 8.996094 20.183594 8.300781 19.828125 7.652344 L 20.742188 6.222656 L 21.703125 4.726562 L 20 5.226562 L 18.371094 5.699219 C 17.851562 5.175781 17.269531 4.71875 16.640625 4.339844 L 16.722656 2.648438 L 16.8125 0.878906 L 15.578125 2.171875 L 14.398438 3.375 C 13.683594 3.183594 12.949219 3.078125 12.210938 3.066406 L 11.453125 1.570312 L 10.625 0 L 10.191406 1.722656 L 9.777344 3.355469 C 9.058594 3.542969 8.367188 3.820312 7.714844 4.183594 L 6.296875 3.277344 L 4.800781 2.335938 L 5.304688 4.035156 L 5.769531 5.660156 C 5.238281 6.179688 4.777344 6.765625 4.390625 7.402344 L 2.699219 7.332031 L 0.933594 7.257812 L 2.195312 8.480469 L 3.40625 9.644531 C 3.207031 10.359375 3.097656 11.097656 3.082031 11.839844 L 1.578125 12.613281 L 0 13.445312 L 1.71875 13.863281 L 3.355469 14.261719 C 3.539062 14.984375 3.8125 15.675781 4.164062 16.328125 L 3.25 17.753906 L 2.292969 19.25 L 3.992188 18.75 L 5.621094 18.277344 C 6.140625 18.804688 6.722656 19.261719 7.351562 19.640625 L 7.269531 21.332031 L 7.179688 23.097656 L 8.414062 21.808594 L 9.601562 20.589844 C 10.308594 20.785156 11.042969 20.890625 11.777344 20.902344 L 12.546875 22.402344 L 13.355469 23.972656 L 13.792969 22.25 L 14.203125 20.609375 C 14.917969 20.421875 15.613281 20.140625 16.261719 19.78125 L 17.683594 20.679688 L 19.171875 21.628906 L 18.695312 19.929688 L 18.230469 18.304688 C 18.761719 17.785156 19.222656 17.199219 19.609375 16.5625 L 21.300781 16.632812 L 23.066406 16.707031 L 21.804688 15.484375 Z M 11.988281 19.871094 C 8.855469 19.910156 6.011719 18.007812 4.789062 15.0625 C 3.5625 12.117188 4.203125 8.707031 6.40625 6.433594 C 8.609375 4.15625 11.9375 3.464844 14.835938 4.679688 C 17.734375 5.898438 19.625 8.78125 19.625 11.980469 C 19.648438 16.3125 16.230469 19.847656 11.988281 19.871094 Z M 11.988281 19.871094 "/>
<path style=" stroke:none;fill-rule:nonzero;fill:rgb(100%,78.431373%,17.254902%);fill-opacity:1;" d="M 11.988281 4.089844 C 8.855469 4.050781 6.011719 5.953125 4.789062 8.898438 C 3.5625 11.84375 4.203125 15.253906 6.402344 17.527344 C 8.605469 19.804688 11.9375 20.496094 14.832031 19.28125 C 17.730469 18.066406 19.625 15.183594 19.625 11.980469 C 19.652344 7.648438 16.230469 4.113281 11.988281 4.089844 Z M 11 6 C 8.179688 6.679688 5.878906 8.75 4.863281 11.523438 C 5.203125 8.34375 7.355469 5.585938 10.457031 4.796875 C 12.996094 4.164062 15.671875 4.949219 17.492188 6.863281 C 15.519531 5.726562 13.191406 5.417969 11 6 Z M 11 6 "/>
</g>
</svg>
