<?xml version="1.0" encoding="UTF-8"?>
<svg xmlns="http://www.w3.org/2000/svg" xmlns:xlink="http://www.w3.org/1999/xlink" width="25px" height="px" viewBox="0 0 24 20" version="1.1">
<g id="surface1">
<path style=" stroke:none;fill-rule:nonzero;fill:rgb(86.666667%,86.666667%,86.666667%);fill-opacity:1;" d="M 19.941406 12.46875 C 19.820312 12.46875 19.707031 12.46875 19.589844 12.480469 C 19.042969 10.824219 17.53125 9.707031 15.828125 9.710938 C 15.671875 9.710938 15.402344 9.710938 15.144531 9.75 C 14.242188 8.949219 13.089844 8.507812 11.898438 8.511719 C 9.285156 8.511719 7.160156 10.425781 6.707031 13.121094 C 5.582031 13.859375 4.84375 15.089844 4.84375 16.292969 C 4.867188 18.421875 6.5625 20.128906 8.636719 20.113281 L 19.941406 20.113281 C 22.09375 20.113281 23.910156 18.363281 23.910156 16.292969 C 23.910156 14.222656 22.09375 12.46875 19.941406 12.46875 Z M 19.941406 12.46875 "/>
<path style=" stroke:none;fill-rule:evenodd;fill:rgb(80%,80%,80%);fill-opacity:1;" d="M 22.390625 18.109375 C 22.179688 18.566406 21.898438 18.992188 21.5625 19.363281 C 22.253906 19.011719 22.8125 18.4375 23.148438 17.726562 C 23.90625 16.058594 23.167969 14.136719 21.46875 13.308594 C 22.820312 14.257812 23.242188 16.257812 22.390625 18.109375 Z M 22.390625 18.109375 "/>
<path style=" stroke:none;fill-rule:nonzero;fill:rgb(95.294118%,44.313725%,17.647059%);fill-opacity:1;" d="M 16.910156 11.84375 C 17.074219 11.253906 17.167969 10.640625 17.179688 10.027344 L 18.414062 9.378906 L 19.707031 8.703125 L 18.292969 8.355469 L 16.953125 8.023438 C 16.800781 7.429688 16.578125 6.859375 16.285156 6.324219 L 17.042969 5.144531 L 17.828125 3.894531 L 16.421875 4.320312 L 15.085938 4.710938 C 14.660156 4.277344 14.183594 3.898438 13.667969 3.585938 L 13.738281 2.1875 L 13.808594 0.722656 L 12.796875 1.78125 L 11.832031 2.792969 C 11.242188 2.628906 10.640625 2.542969 10.03125 2.53125 L 9.394531 1.296875 L 8.730469 0 L 8.035156 2.78125 C 7.445312 2.9375 6.878906 3.167969 6.34375 3.464844 L 5.175781 2.71875 L 3.953125 1.9375 L 4.351562 3.34375 L 4.730469 4.675781 C 4.296875 5.105469 3.917969 5.589844 3.601562 6.117188 L 2.214844 6.058594 L 0.757812 6.003906 L 1.804688 7.011719 L 2.800781 7.980469 C 2.632812 8.570312 2.542969 9.183594 2.53125 9.796875 L 1.296875 10.445312 L 0 11.121094 L 1.414062 11.46875 L 2.757812 11.800781 C 2.90625 12.394531 3.132812 12.96875 3.425781 13.507812 L 2.667969 14.6875 L 1.882812 15.917969 L 3.285156 15.503906 L 4.625 15.113281 C 5.050781 15.546875 5.527344 15.925781 6.046875 16.238281 L 5.976562 17.640625 L 5.902344 19.101562 L 6.914062 18.042969 L 7.882812 17.03125 C 8.46875 17.191406 9.074219 17.28125 9.679688 17.289062 L 10.316406 18.53125 L 10.980469 19.828125 L 11.335938 18.402344 L 11.675781 17.042969 C 12.261719 16.890625 12.832031 16.660156 13.367188 16.363281 L 14.535156 17.113281 L 15.757812 17.890625 L 15.359375 16.484375 L 14.980469 15.144531 C 15.414062 14.710938 15.792969 14.226562 16.109375 13.703125 L 17.496094 13.757812 L 18.953125 13.820312 L 17.90625 12.808594 Z M 16.910156 11.84375 "/>
<path style=" stroke:none;fill-rule:nonzero;fill:rgb(100%,78.431373%,17.254902%);fill-opacity:1;" d="M 16.128906 9.910156 C 16.085938 13.464844 13.257812 16.308594 9.804688 16.28125 C 6.347656 16.25 3.566406 13.355469 3.582031 9.804688 C 3.59375 6.25 6.398438 3.378906 9.851562 3.375 C 13.339844 3.398438 16.152344 6.324219 16.128906 9.910156 Z M 16.128906 9.910156 "/>
<path style=" stroke:none;fill-rule:evenodd;fill:rgb(100%,84.313725%,29.411765%);fill-opacity:1;" d="M 9.042969 4.964844 C 6.722656 5.523438 4.828125 7.238281 3.988281 9.53125 C 4.238281 6.871094 6.074219 4.648438 8.589844 3.96875 C 10.675781 3.445312 12.871094 4.09375 14.371094 5.675781 C 12.75 4.738281 10.839844 4.484375 9.042969 4.964844 Z M 9.042969 4.964844 "/>
</g>
</svg>
