<?xml version="1.0" encoding="UTF-8"?>
<svg xmlns="http://www.w3.org/2000/svg" xmlns:xlink="http://www.w3.org/1999/xlink" width="25px" height="px" viewBox="0 0 25 19" version="1.1">
<g id="surface1">
<path style=" stroke:none;fill-rule:nonzero;fill:rgb(95.294118%,44.313725%,17.647059%);fill-opacity:1;" d="M 22.609375 9.945312 C 22.746094 9.449219 22.824219 8.9375 22.835938 8.421875 L 23.878906 7.878906 L 24.976562 7.308594 L 23.78125 7.015625 L 22.636719 6.738281 C 22.507812 6.238281 22.320312 5.761719 22.074219 5.3125 L 22.707031 4.320312 L 23.378906 3.285156 L 22.195312 3.628906 L 21.070312 3.960938 C 20.707031 3.597656 20.304688 3.28125 19.871094 3.019531 L 19.925781 1.847656 L 19.988281 0.621094 L 19.132812 1.496094 L 18.316406 2.34375 C 17.820312 2.210938 17.308594 2.136719 16.796875 2.128906 L 16.261719 1.089844 L 15.699219 0 L 15.402344 1.195312 L 15.113281 2.34375 C 14.617188 2.476562 14.136719 2.671875 13.683594 2.921875 L 12.699219 2.28125 L 11.667969 1.625 L 12.003906 2.796875 L 12.324219 3.921875 C 11.957031 4.285156 11.636719 4.691406 11.371094 5.132812 L 10.195312 5.085938 L 8.96875 5.03125 L 9.863281 5.890625 L 10.703125 6.703125 C 10.5625 7.199219 10.488281 7.710938 10.476562 8.226562 L 9.429688 8.769531 L 8.339844 9.339844 L 9.53125 9.632812 L 10.675781 9.910156 C 10.804688 10.410156 10.992188 10.886719 11.238281 11.335938 L 10.601562 12.328125 L 9.917969 13.371094 L 11.101562 13.023438 L 12.230469 12.691406 C 12.589844 13.054688 12.992188 13.371094 13.429688 13.628906 L 13.371094 14.804688 L 13.304688 16.042969 L 14.160156 15.152344 L 14.984375 14.308594 C 15.480469 14.441406 15.988281 14.515625 16.503906 14.523438 L 17.035156 15.5625 L 17.597656 16.65625 L 17.890625 15.453125 L 18.1875 14.308594 C 18.683594 14.175781 19.164062 13.984375 19.613281 13.734375 L 20.597656 14.363281 L 21.628906 15.023438 L 21.296875 13.847656 L 20.976562 12.71875 C 21.339844 12.359375 21.664062 11.953125 21.929688 11.511719 L 23.101562 11.558594 L 24.332031 11.609375 L 23.445312 10.761719 Z M 22.609375 9.945312 "/>
<path style=" stroke:none;fill-rule:nonzero;fill:rgb(100%,78.431373%,17.254902%);fill-opacity:1;" d="M 21.945312 8.324219 C 21.910156 11.308594 19.523438 13.703125 16.605469 13.675781 C 13.6875 13.652344 11.339844 11.222656 11.351562 8.238281 C 11.363281 5.253906 13.730469 2.839844 16.648438 2.839844 C 19.59375 2.855469 21.964844 5.3125 21.945312 8.324219 Z M 21.945312 8.324219 "/>
<path style=" stroke:none;fill-rule:evenodd;fill:rgb(100%,84.313725%,29.411765%);fill-opacity:1;" d="M 15.960938 4.167969 C 14.003906 4.640625 12.402344 6.078125 11.695312 8.003906 C 11.90625 5.765625 13.464844 3.898438 15.597656 3.332031 C 17.355469 2.894531 19.214844 3.4375 20.476562 4.765625 C 19.105469 3.976562 17.484375 3.761719 15.960938 4.167969 Z M 15.960938 4.167969 "/>
<path style=" stroke:none;fill-rule:nonzero;fill:rgb(86.666667%,86.666667%,86.666667%);fill-opacity:1;" d="M 16.390625 10.835938 C 16.265625 10.835938 16.136719 10.835938 16.011719 10.847656 C 15.421875 9.054688 13.777344 7.84375 11.925781 7.84375 C 11.679688 7.847656 11.429688 7.863281 11.183594 7.890625 C 10.207031 7.023438 8.953125 6.546875 7.660156 6.550781 C 4.816406 6.550781 2.523438 8.617188 2.023438 11.527344 C 0.796875 12.328125 0 13.660156 0 14.957031 C 0.0234375 17.257812 1.867188 19.101562 4.113281 19.082031 L 16.390625 19.082031 C 18.730469 19.082031 20.707031 17.207031 20.707031 14.957031 C 20.707031 12.710938 18.730469 10.835938 16.390625 10.835938 Z M 16.390625 10.835938 "/>
<path style=" stroke:none;fill-rule:evenodd;fill:rgb(80%,80%,80%);fill-opacity:1;" d="M 19.328125 16.917969 C 19.097656 17.414062 18.796875 17.871094 18.429688 18.273438 C 19.179688 17.894531 19.785156 17.269531 20.152344 16.5 C 20.984375 14.703125 20.171875 12.625 18.316406 11.71875 C 19.792969 12.757812 20.257812 14.921875 19.328125 16.917969 Z M 19.328125 16.917969 "/>
</g>
</svg>
