<?xml version="1.0" encoding="UTF-8"?>
<svg xmlns="http://www.w3.org/2000/svg" xmlns:xlink="http://www.w3.org/1999/xlink" width="25px" height="px" viewBox="0 0 24 17" version="1.1">
<g id="surface1">
<path style=" stroke:none;fill-rule:evenodd;fill:rgb(80%,80%,80%);fill-opacity:1;" d="M 22.261719 14.472656 C 21.996094 15.042969 21.644531 15.566406 21.21875 16.023438 C 22.089844 15.59375 22.792969 14.878906 23.21875 13.996094 C 24.183594 11.933594 23.242188 9.550781 21.128906 8.507812 C 22.800781 9.703125 23.332031 12.179688 22.261719 14.472656 Z M 22.261719 14.472656 "/>
<path style=" stroke:none;fill-rule:nonzero;fill:rgb(86.666667%,86.666667%,86.666667%);fill-opacity:1;" d="M 18.882812 7.496094 C 18.734375 7.496094 18.585938 7.496094 18.441406 7.511719 C 17.769531 5.453125 15.875 4.0625 13.746094 4.058594 C 13.457031 4.0625 13.171875 4.078125 12.886719 4.113281 C 11.757812 3.117188 10.316406 2.574219 8.824219 2.582031 C 5.554688 2.582031 2.898438 4.953125 2.328125 8.289062 C 0.917969 9.210938 0 10.734375 0 12.21875 C 0.0234375 14.859375 2.148438 16.980469 4.738281 16.953125 L 18.882812 16.953125 C 21.574219 16.953125 23.851562 14.789062 23.851562 12.222656 C 23.851562 9.65625 21.574219 7.496094 18.882812 7.496094 Z M 21.230469 16.023438 C 21.652344 15.566406 22.003906 15.042969 22.273438 14.472656 C 23.34375 12.179688 22.808594 9.691406 21.121094 8.507812 C 23.234375 9.5625 24.175781 11.933594 23.21875 13.996094 C 22.792969 14.878906 22.09375 15.59375 21.230469 16.023438 Z M 21.230469 16.023438 "/>
<path style=" stroke:none;fill-rule:evenodd;fill:rgb(100%,84.313725%,29.411765%);fill-opacity:1;" d="M 13.738281 4.066406 C 14.089844 4.066406 14.441406 4.105469 14.785156 4.179688 C 16.433594 3.4375 18.328125 3.515625 19.914062 4.402344 C 18.742188 3.171875 17.019531 2.667969 15.386719 3.074219 C 14.6875 3.253906 14.039062 3.59375 13.492188 4.070312 Z M 13.738281 4.066406 "/>
<path style=" stroke:none;fill-rule:nonzero;fill:rgb(95.294118%,44.313725%,17.647059%);fill-opacity:1;" d="M 22.015625 8.585938 C 22.0625 8.320312 22.089844 8.046875 22.09375 7.773438 L 23.0625 7.273438 L 24.078125 6.742188 L 22.972656 6.476562 L 21.929688 6.210938 C 21.8125 5.746094 21.636719 5.300781 21.40625 4.882812 L 21.984375 3.984375 L 22.605469 3.023438 L 21.507812 3.34375 L 20.464844 3.648438 C 20.128906 3.3125 19.753906 3.019531 19.351562 2.773438 L 19.402344 1.6875 L 19.460938 0.554688 L 18.679688 1.375 L 17.921875 2.171875 C 17.460938 2.046875 16.988281 1.980469 16.511719 1.976562 L 16 1.007812 L 15.484375 0 L 15.207031 1.101562 L 14.945312 2.164062 C 14.484375 2.285156 14.035156 2.464844 13.617188 2.695312 L 12.703125 2.105469 L 11.738281 1.5 L 12.050781 2.589844 L 12.347656 3.628906 C 12.332031 3.648438 12.316406 3.664062 12.296875 3.679688 C 12.492188 3.816406 12.683594 3.945312 12.875 4.117188 C 13.792969 3.160156 15.050781 2.621094 16.363281 2.621094 C 19.089844 2.648438 21.28125 4.910156 21.273438 7.683594 C 21.273438 7.824219 21.273438 7.949219 21.253906 8.089844 "/>
<path style=" stroke:none;fill-rule:nonzero;fill:rgb(100%,78.431373%,17.254902%);fill-opacity:1;" d="M 16.363281 2.621094 C 15.050781 2.621094 13.796875 3.160156 12.878906 4.117188 C 13.089844 4.09375 13.300781 4.078125 13.480469 4.070312 C 14.035156 3.59375 14.6875 3.25 15.390625 3.074219 C 17.023438 2.667969 18.746094 3.175781 19.917969 4.402344 C 18.335938 3.519531 16.4375 3.4375 14.789062 4.183594 C 16.496094 4.558594 17.886719 5.824219 18.441406 7.515625 C 18.585938 7.515625 18.734375 7.5 18.882812 7.5 C 19.707031 7.5 20.519531 7.703125 21.253906 8.09375 C 21.253906 7.960938 21.273438 7.828125 21.273438 7.6875 C 21.285156 4.910156 19.089844 2.648438 16.363281 2.621094 Z M 16.363281 2.621094 "/>
</g>
</svg>
