<?xml version="1.0" encoding="UTF-8"?>
<svg xmlns="http://www.w3.org/2000/svg" xmlns:xlink="http://www.w3.org/1999/xlink" width="25px" height="px" viewBox="0 0 24 16" version="1.1">
<g id="surface1">
<path style=" stroke:none;fill-rule:nonzero;fill:rgb(60%,60%,60%);fill-opacity:1;" d="M 20.902344 3.539062 C 20.808594 3.539062 20.714844 3.539062 20.621094 3.539062 C 20.199219 2.097656 19.007812 1.066406 17.632812 1.066406 C 17.449219 1.070312 17.265625 1.082031 17.085938 1.105469 C 16.402344 0.402344 15.476562 0.00390625 14.507812 0 C 12.429688 0 10.738281 1.707031 10.378906 4.109375 C 9.480469 4.765625 8.933594 5.8125 8.898438 6.941406 C 8.898438 8.820312 10.25 10.351562 11.910156 10.351562 L 20.902344 10.351562 C 22.613281 10.351562 24.0625 8.792969 24.0625 6.941406 C 24.0625 5.089844 22.613281 3.539062 20.902344 3.539062 Z M 20.902344 3.539062 "/>
<path style=" stroke:none;fill-rule:nonzero;fill:rgb(86.666667%,86.666667%,86.666667%);fill-opacity:1;" d="M 17.214844 7.328125 C 17.078125 7.328125 16.957031 7.328125 16.8125 7.347656 C 16.195312 5.453125 14.46875 4.175781 12.527344 4.175781 C 12.265625 4.175781 12.003906 4.195312 11.742188 4.226562 C 10.714844 3.308594 9.402344 2.804688 8.042969 2.8125 C 5.066406 2.8125 2.640625 4.992188 2.125 8.058594 C 0.835938 8.917969 0 10.308594 0 11.679688 C 0.0273438 14.105469 1.960938 16.054688 4.324219 16.03125 L 17.214844 16.03125 C 19.667969 16.03125 21.742188 14.039062 21.742188 11.679688 C 21.742188 9.320312 19.660156 7.328125 17.214844 7.328125 Z M 17.214844 7.328125 "/>
<path style=" stroke:none;fill-rule:evenodd;fill:rgb(80%,80%,80%);fill-opacity:1;" d="M 19.859375 13.78125 C 19.601562 14.332031 19.265625 14.839844 18.859375 15.285156 C 19.691406 14.867188 20.363281 14.171875 20.769531 13.316406 C 21.695312 11.308594 20.792969 8.996094 18.75 7.988281 C 20.375 9.144531 20.886719 11.554688 19.859375 13.78125 Z M 19.859375 13.78125 "/>
</g>
</svg>
