<?xml version="1.0" encoding="UTF-8"?>
<svg xmlns="http://www.w3.org/2000/svg" xmlns:xlink="http://www.w3.org/1999/xlink" width="25px" height="px" viewBox="0 0 25 15" version="1.1">
<g id="surface1">
<path style=" stroke:none;fill-rule:nonzero;fill:rgb(60%,60%,60%);fill-opacity:1;" d="M 19.804688 5.152344 C 19.652344 5.152344 19.496094 5.152344 19.34375 5.167969 C 18.632812 3.011719 16.648438 1.554688 14.410156 1.554688 C 14.109375 1.558594 13.808594 1.574219 13.511719 1.605469 C 12.332031 0.566406 10.816406 -0.0078125 9.253906 0 C 5.835938 0 3.039062 2.484375 2.445312 5.988281 C 0.964844 6.949219 0 8.546875 0 10.113281 C 0.03125 12.878906 2.257812 15.09375 4.972656 15.070312 L 19.804688 15.070312 C 22.632812 15.070312 25.019531 12.800781 25.019531 10.113281 C 25.019531 7.421875 22.632812 5.152344 19.804688 5.152344 Z M 19.804688 5.152344 "/>
<path style=" stroke:none;fill-rule:evenodd;fill:rgb(46.666667%,46.666667%,46.666667%);fill-opacity:1;" d="M 23.027344 12.355469 C 22.746094 12.953125 22.378906 13.5 21.941406 13.980469 C 22.84375 13.527344 23.578125 12.78125 24.019531 11.855469 C 25.027344 9.691406 24.042969 7.191406 21.820312 6.101562 C 23.585938 7.351562 24.148438 9.953125 23.027344 12.355469 Z M 23.027344 12.355469 "/>
</g>
</svg>
