<?xml version="1.0" encoding="UTF-8"?>
<svg xmlns="http://www.w3.org/2000/svg" xmlns:xlink="http://www.w3.org/1999/xlink" width="25px" height="px" viewBox="0 0 24 21" version="1.1">
<g id="surface1">
<path style=" stroke:none;fill-rule:nonzero;fill:rgb(86.666667%,86.666667%,86.666667%);fill-opacity:1;" d="M 19.089844 5.046875 C 18.9375 5.046875 18.792969 5.046875 18.644531 5.0625 C 17.964844 2.949219 16.050781 1.519531 13.894531 1.515625 C 13.605469 1.519531 13.316406 1.535156 13.027344 1.570312 C 11.886719 0.550781 10.429688 -0.0078125 8.917969 0 C 5.617188 0 2.929688 2.433594 2.355469 5.859375 C 0.929688 6.800781 0 8.371094 0 9.898438 C 0.0273438 12.609375 2.171875 14.78125 4.792969 14.757812 L 19.089844 14.757812 C 21.8125 14.757812 24.113281 12.546875 24.113281 9.898438 C 24.113281 7.253906 21.8125 5.046875 19.089844 5.046875 Z M 19.089844 5.046875 "/>
<path style=" stroke:none;fill-rule:evenodd;fill:rgb(80%,80%,80%);fill-opacity:1;" d="M 22.507812 12.210938 C 22.238281 12.792969 21.878906 13.332031 21.453125 13.800781 C 22.332031 13.363281 23.042969 12.632812 23.472656 11.726562 C 24.449219 9.609375 23.496094 7.160156 21.363281 6.09375 C 23.050781 7.3125 23.589844 9.855469 22.507812 12.210938 Z M 22.507812 12.210938 "/>
<path style=" stroke:none;fill-rule:nonzero;fill:rgb(0%,73.72549%,83.137255%);fill-opacity:1;" d="M 7.164062 12.667969 C 7.148438 12.667969 5.671875 14.070312 5.515625 14.664062 C 5.351562 15.257812 5.6875 15.875 6.261719 16.042969 C 6.835938 16.210938 7.433594 15.867188 7.59375 15.273438 C 7.753906 14.664062 7.183594 12.671875 7.164062 12.667969 Z M 7.164062 12.667969 "/>
<path style=" stroke:none;fill-rule:nonzero;fill:rgb(0%,73.72549%,83.137255%);fill-opacity:1;" d="M 11.078125 17.570312 C 11.0625 17.570312 9.582031 18.972656 9.421875 19.566406 C 9.304688 19.957031 9.402344 20.378906 9.675781 20.675781 C 9.949219 20.96875 10.359375 21.085938 10.738281 20.976562 C 11.121094 20.871094 11.414062 20.558594 11.507812 20.160156 C 11.652344 19.566406 11.078125 17.574219 11.078125 17.570312 Z M 11.078125 17.570312 "/>
<path style=" stroke:none;fill-rule:nonzero;fill:rgb(0%,73.72549%,83.137255%);fill-opacity:1;" d="M 15.945312 14.375 C 15.929688 14.375 14.453125 15.777344 14.292969 16.371094 C 14.136719 16.964844 14.472656 17.582031 15.046875 17.742188 C 15.625 17.90625 16.21875 17.558594 16.375 16.964844 C 16.535156 16.363281 15.964844 14.378906 15.945312 14.375 Z M 15.945312 14.375 "/>
</g>
</svg>
