<?xml version="1.0" encoding="UTF-8"?>
<svg xmlns="http://www.w3.org/2000/svg" xmlns:xlink="http://www.w3.org/1999/xlink" width="25px" height="px" viewBox="0 0 25 22" version="1.1">
<g id="surface1">
<path style=" stroke:none;fill-rule:nonzero;fill:rgb(60%,60%,60%);fill-opacity:1;" d="M 21.664062 3.621094 C 21.566406 3.621094 21.472656 3.621094 21.371094 3.621094 C 20.933594 2.144531 19.695312 1.09375 18.257812 1.09375 C 18.070312 1.09375 17.878906 1.109375 17.691406 1.132812 C 16.976562 0.410156 16.011719 0.00390625 15.003906 0 C 12.839844 0 11.078125 1.746094 10.703125 4.203125 C 9.765625 4.875 9.195312 5.945312 9.160156 7.101562 C 9.160156 9.023438 10.570312 10.589844 12.296875 10.589844 L 21.664062 10.589844 C 23.449219 10.589844 24.953125 8.996094 24.953125 7.101562 C 24.953125 5.207031 23.449219 3.621094 21.664062 3.621094 Z M 21.664062 3.621094 "/>
<path style=" stroke:none;fill-rule:nonzero;fill:rgb(86.666667%,86.666667%,86.666667%);fill-opacity:1;" d="M 17.832031 7.496094 C 17.695312 7.496094 17.554688 7.5 17.417969 7.511719 C 16.777344 5.585938 14.988281 4.292969 12.976562 4.292969 C 12.710938 4.296875 12.441406 4.3125 12.179688 4.34375 C 11.117188 3.410156 9.753906 2.898438 8.347656 2.90625 C 5.261719 2.90625 2.761719 5.125 2.230469 8.246094 C 0.867188 9.101562 0 10.527344 0 11.921875 C 0.0273438 14.390625 2.03125 16.371094 4.476562 16.351562 L 17.832031 16.351562 C 20.378906 16.351562 22.527344 14.320312 22.527344 11.921875 C 22.527344 9.523438 20.378906 7.496094 17.832031 7.496094 Z M 17.832031 7.496094 "/>
<path style=" stroke:none;fill-rule:evenodd;fill:rgb(80%,80%,80%);fill-opacity:1;" d="M 20.78125 14.027344 C 20.53125 14.558594 20.203125 15.050781 19.804688 15.480469 C 20.613281 15.070312 21.269531 14.402344 21.664062 13.582031 C 22.574219 11.648438 21.6875 9.417969 19.683594 8.445312 C 21.277344 9.5625 21.792969 11.882812 20.78125 14.027344 Z M 20.78125 14.027344 "/>
<path style=" stroke:none;fill-rule:nonzero;fill:rgb(0%,73.72549%,83.137255%);fill-opacity:1;" d="M 6.613281 14.546875 C 6.597656 14.546875 5.21875 15.824219 5.070312 16.367188 C 4.9375 16.902344 5.253906 17.449219 5.78125 17.597656 C 6.3125 17.742188 6.859375 17.433594 7.015625 16.902344 C 7.164062 16.367188 6.628906 14.550781 6.613281 14.546875 Z M 6.613281 14.546875 "/>
<path style=" stroke:none;fill-rule:nonzero;fill:rgb(0%,73.72549%,83.137255%);fill-opacity:1;" d="M 10.253906 19.011719 C 10.238281 19.011719 8.859375 20.289062 8.710938 20.832031 C 8.609375 21.183594 8.703125 21.566406 8.957031 21.828125 C 9.214844 22.089844 9.589844 22.195312 9.941406 22.097656 C 10.292969 22.003906 10.566406 21.722656 10.65625 21.367188 C 10.804688 20.832031 10.269531 19.015625 10.253906 19.011719 Z M 10.253906 19.011719 "/>
<path style=" stroke:none;fill-rule:nonzero;fill:rgb(0%,73.72549%,83.137255%);fill-opacity:1;" d="M 14.816406 16.097656 C 14.804688 16.097656 13.421875 17.375 13.273438 17.917969 C 13.171875 18.269531 13.265625 18.652344 13.519531 18.914062 C 13.773438 19.175781 14.152344 19.28125 14.503906 19.183594 C 14.855469 19.089844 15.128906 18.808594 15.21875 18.453125 C 15.367188 17.917969 14.832031 16.097656 14.816406 16.097656 Z M 14.816406 16.097656 "/>
</g>
</svg>
