<?xml version="1.0" encoding="UTF-8"?>
<svg xmlns="http://www.w3.org/2000/svg" xmlns:xlink="http://www.w3.org/1999/xlink" width="25px" height="px" viewBox="0 0 25 22" version="1.1">
<g id="surface1">
<path style=" stroke:none;fill-rule:nonzero;fill:rgb(86.666667%,86.666667%,86.666667%);fill-opacity:1;" d="M 21.738281 3.609375 C 21.640625 3.609375 21.542969 3.609375 21.445312 3.609375 C 21.011719 2.144531 19.769531 1.09375 18.351562 1.09375 C 18.160156 1.09375 17.972656 1.105469 17.78125 1.128906 C 17.066406 0.40625 16.097656 0 15.085938 0 C 12.929688 0 11.171875 1.742188 10.792969 4.195312 C 9.859375 4.867188 9.289062 5.9375 9.253906 7.089844 C 9.253906 9.007812 10.660156 10.578125 12.386719 10.578125 L 21.738281 10.578125 C 23.519531 10.578125 25.023438 8.984375 25.023438 7.089844 C 25.023438 5.195312 23.519531 3.609375 21.738281 3.609375 Z M 21.738281 3.609375 "/>
<path style=" stroke:none;fill-rule:nonzero;fill:rgb(60%,60%,60%);fill-opacity:1;" d="M 17.902344 7.484375 C 17.761719 7.484375 17.636719 7.484375 17.484375 7.5 C 16.84375 5.570312 15.050781 4.265625 13.03125 4.261719 C 12.761719 4.265625 12.488281 4.285156 12.21875 4.3125 C 11.148438 3.378906 9.78125 2.867188 8.363281 2.871094 C 5.269531 2.871094 2.746094 5.097656 2.210938 8.238281 C 0.871094 9.09375 0 10.527344 0 11.929688 C 0.03125 14.402344 2.039062 16.386719 4.496094 16.367188 L 17.902344 16.367188 C 20.453125 16.367188 22.605469 14.335938 22.605469 11.929688 C 22.605469 9.519531 20.453125 7.484375 17.902344 7.484375 Z M 17.902344 7.484375 "/>
<path style=" stroke:none;fill-rule:evenodd;fill:rgb(46.666667%,46.666667%,46.666667%);fill-opacity:1;" d="M 20.652344 14.070312 C 20.386719 14.636719 20.039062 15.15625 19.617188 15.613281 C 20.480469 15.179688 21.179688 14.472656 21.601562 13.597656 C 22.5625 11.550781 21.621094 9.1875 19.5 8.15625 C 21.1875 9.339844 21.722656 11.804688 20.652344 14.070312 Z M 20.652344 14.070312 "/>
<path style=" stroke:none;fill-rule:nonzero;fill:rgb(0%,73.72549%,83.137255%);fill-opacity:1;" d="M 6.648438 14.5 C 6.636719 14.5 5.253906 15.777344 5.105469 16.320312 C 5.003906 16.671875 5.097656 17.054688 5.351562 17.316406 C 5.605469 17.582031 5.984375 17.683594 6.335938 17.589844 C 6.6875 17.492188 6.960938 17.214844 7.050781 16.855469 C 7.207031 16.316406 6.671875 14.503906 6.648438 14.5 Z M 6.648438 14.5 "/>
<path style=" stroke:none;fill-rule:nonzero;fill:rgb(0%,73.72549%,83.137255%);fill-opacity:1;" d="M 10.296875 18.964844 C 10.296875 18.964844 8.902344 20.242188 8.753906 20.785156 C 8.652344 21.136719 8.746094 21.519531 9 21.78125 C 9.257812 22.046875 9.632812 22.148438 9.984375 22.054688 C 10.335938 21.957031 10.609375 21.679688 10.699219 21.320312 C 10.847656 20.785156 10.3125 18.972656 10.296875 18.964844 Z M 10.296875 18.964844 "/>
<path style=" stroke:none;fill-rule:nonzero;fill:rgb(0%,73.72549%,83.137255%);fill-opacity:1;" d="M 14.863281 16.054688 C 14.847656 16.054688 13.464844 17.332031 13.316406 17.875 C 13.203125 18.402344 13.519531 18.929688 14.039062 19.070312 C 14.554688 19.214844 15.09375 18.921875 15.261719 18.410156 C 15.410156 17.875 14.878906 16.058594 14.863281 16.054688 Z M 14.863281 16.054688 "/>
</g>
</svg>
