<?xml version="1.0" encoding="UTF-8"?>
<svg xmlns="http://www.w3.org/2000/svg" xmlns:xlink="http://www.w3.org/1999/xlink" width="25px" height="px" viewBox="0 0 24 21" version="1.1">
<g id="surface1">
<path style=" stroke:none;fill-rule:nonzero;fill:rgb(60%,60%,60%);fill-opacity:1;" d="M 19.089844 5.046875 C 18.9375 5.046875 18.792969 5.046875 18.644531 5.0625 C 17.964844 2.949219 16.050781 1.519531 13.894531 1.515625 C 13.605469 1.519531 13.320312 1.535156 13.03125 1.570312 C 11.890625 0.550781 10.429688 -0.0078125 8.917969 0 C 5.617188 0 2.929688 2.433594 2.355469 5.859375 C 0.929688 6.800781 0 8.371094 0 9.898438 C 0.0273438 12.609375 2.171875 14.78125 4.792969 14.757812 L 19.089844 14.757812 C 21.8125 14.757812 24.113281 12.546875 24.113281 9.898438 C 24.113281 7.253906 21.8125 5.046875 19.089844 5.046875 Z M 19.089844 5.046875 "/>
<path style=" stroke:none;fill-rule:evenodd;fill:rgb(46.666667%,46.666667%,46.666667%);fill-opacity:1;" d="M 22.242188 12.210938 C 21.972656 12.792969 21.617188 13.332031 21.1875 13.800781 C 22.066406 13.363281 22.777344 12.632812 23.207031 11.726562 C 24.183594 9.609375 23.234375 7.160156 21.097656 6.09375 C 22.785156 7.3125 23.324219 9.855469 22.242188 12.210938 Z M 22.242188 12.210938 "/>
<path style=" stroke:none;fill-rule:nonzero;fill:rgb(0%,73.72549%,83.137255%);fill-opacity:1;" d="M 7.082031 12.78125 C 7.0625 12.78125 5.585938 14.179688 5.425781 14.773438 C 5.308594 15.164062 5.40625 15.589844 5.679688 15.882812 C 5.953125 16.175781 6.363281 16.292969 6.742188 16.1875 C 7.125 16.078125 7.417969 15.765625 7.511719 15.367188 C 7.667969 14.773438 7.097656 12.78125 7.082031 12.78125 Z M 7.082031 12.78125 "/>
<path style=" stroke:none;fill-rule:nonzero;fill:rgb(0%,73.72549%,83.137255%);fill-opacity:1;" d="M 10.976562 17.679688 C 10.960938 17.679688 9.484375 19.078125 9.324219 19.675781 C 9.167969 20.269531 9.503906 20.882812 10.078125 21.046875 C 10.652344 21.210938 11.246094 20.863281 11.40625 20.269531 C 11.566406 19.675781 10.996094 17.683594 10.976562 17.679688 Z M 10.976562 17.679688 "/>
<path style=" stroke:none;fill-rule:nonzero;fill:rgb(0%,73.72549%,83.137255%);fill-opacity:1;" d="M 15.859375 14.484375 C 15.84375 14.484375 14.367188 15.886719 14.207031 16.480469 C 14.085938 16.871094 14.183594 17.300781 14.457031 17.597656 C 14.730469 17.894531 15.140625 18.011719 15.523438 17.898438 C 15.90625 17.789062 16.203125 17.472656 16.289062 17.074219 C 16.449219 16.476562 15.875 14.488281 15.859375 14.484375 Z M 15.859375 14.484375 "/>
</g>
</svg>
