<?xml version="1.0" encoding="UTF-8"?>
<svg xmlns="http://www.w3.org/2000/svg" xmlns:xlink="http://www.w3.org/1999/xlink" width="25px" height="px" viewBox="0 0 25 23" version="1.1">
<g id="surface1">
<path style=" stroke:none;fill-rule:nonzero;fill:rgb(60%,60%,60%);fill-opacity:1;" d="M 21.769531 3.648438 C 21.675781 3.648438 21.578125 3.648438 21.480469 3.648438 C 21.042969 2.164062 19.800781 1.101562 18.367188 1.101562 C 18.175781 1.105469 17.988281 1.117188 17.796875 1.140625 C 17.085938 0.414062 16.121094 0.00390625 15.113281 0 C 12.945312 0 11.1875 1.761719 10.8125 4.238281 C 9.875 4.914062 9.304688 5.996094 9.269531 7.164062 C 9.269531 9.101562 10.675781 10.679688 12.40625 10.679688 L 21.769531 10.679688 C 23.554688 10.679688 25.0625 9.074219 25.0625 7.164062 C 25.0625 5.253906 23.554688 3.648438 21.769531 3.648438 Z M 21.769531 3.648438 "/>
<path style=" stroke:none;fill-rule:nonzero;fill:rgb(86.666667%,86.666667%,86.666667%);fill-opacity:1;" d="M 17.929688 7.558594 C 17.789062 7.558594 17.664062 7.558594 17.511719 7.578125 C 16.871094 5.625 15.074219 4.308594 13.046875 4.308594 C 12.773438 4.308594 12.503906 4.328125 12.230469 4.359375 C 11.164062 3.414062 9.792969 2.894531 8.378906 2.902344 C 5.277344 2.902344 2.753906 5.148438 2.210938 8.3125 C 0.871094 9.199219 0 10.632812 0 12.050781 C 0.0273438 14.550781 2.042969 16.5625 4.503906 16.539062 L 17.929688 16.539062 C 20.488281 16.539062 22.648438 14.480469 22.648438 12.050781 C 22.648438 9.617188 20.480469 7.558594 17.929688 7.558594 Z M 17.929688 7.558594 "/>
<path style=" stroke:none;fill-rule:evenodd;fill:rgb(80%,80%,80%);fill-opacity:1;" d="M 20.6875 14.214844 C 20.417969 14.785156 20.070312 15.308594 19.644531 15.769531 C 20.511719 15.335938 21.210938 14.621094 21.636719 13.738281 C 22.601562 11.667969 21.660156 9.28125 19.527344 8.238281 C 21.222656 9.433594 21.757812 11.917969 20.6875 14.214844 Z M 20.6875 14.214844 "/>
<path style=" stroke:none;fill-rule:nonzero;fill:rgb(0%,73.72549%,83.137255%);fill-opacity:1;" d="M 5.585938 19.480469 C 5.457031 19.972656 4.96875 20.273438 4.484375 20.160156 C 4.007812 20.011719 3.730469 19.503906 3.863281 19.015625 C 4.128906 18.011719 5.992188 14.414062 5.992188 14.414062 C 5.992188 14.414062 5.875 18.347656 5.585938 19.480469 Z M 5.585938 19.480469 "/>
<path style=" stroke:none;fill-rule:nonzero;fill:rgb(0%,73.72549%,83.137255%);fill-opacity:1;" d="M 8.742188 22.339844 C 8.667969 22.660156 8.425781 22.914062 8.113281 23.003906 C 7.800781 23.09375 7.464844 23 7.238281 22.765625 C 7.011719 22.53125 6.929688 22.1875 7.019531 21.871094 C 7.289062 20.871094 9.148438 17.273438 9.148438 17.273438 C 9.148438 17.273438 9.042969 21.195312 8.742188 22.339844 Z M 8.742188 22.339844 "/>
<path style=" stroke:none;fill-rule:nonzero;fill:rgb(0%,73.72549%,83.137255%);fill-opacity:1;" d="M 13.242188 19.480469 C 13.175781 19.8125 12.933594 20.078125 12.617188 20.171875 C 12.300781 20.265625 11.957031 20.171875 11.726562 19.929688 C 11.496094 19.6875 11.417969 19.332031 11.523438 19.015625 C 11.789062 18.011719 13.652344 14.414062 13.652344 14.414062 C 13.652344 14.414062 13.546875 18.347656 13.242188 19.480469 Z M 13.242188 19.480469 "/>
<path style=" stroke:none;fill-rule:nonzero;fill:rgb(0%,73.72549%,83.137255%);fill-opacity:1;" d="M 16.5625 22.378906 C 16.503906 22.710938 16.265625 22.984375 15.945312 23.082031 C 15.625 23.179688 15.277344 23.089844 15.042969 22.84375 C 14.8125 22.597656 14.734375 22.238281 14.847656 21.917969 C 15.113281 20.917969 16.972656 17.316406 16.972656 17.316406 C 16.972656 17.316406 16.867188 21.230469 16.5625 22.378906 Z M 16.5625 22.378906 "/>
</g>
</svg>
