<?xml version="1.0" encoding="UTF-8"?>
<svg xmlns="http://www.w3.org/2000/svg" xmlns:xlink="http://www.w3.org/1999/xlink" width="25px" height="px" viewBox="0 0 24 22" version="1.1">
<g id="surface1">
<path style=" stroke:none;fill-rule:nonzero;fill:rgb(60%,60%,60%);fill-opacity:1;" d="M 20.902344 3.574219 C 20.808594 3.574219 20.714844 3.574219 20.621094 3.574219 C 20.199219 2.121094 19.007812 1.078125 17.632812 1.078125 C 17.449219 1.082031 17.265625 1.09375 17.085938 1.117188 C 16.402344 0.40625 15.476562 0.00390625 14.507812 0 C 12.429688 0 10.738281 1.726562 10.378906 4.152344 C 9.480469 4.816406 8.933594 5.875 8.898438 7.015625 C 8.898438 8.914062 10.25 10.460938 11.910156 10.460938 L 20.902344 10.460938 C 22.613281 10.460938 24.0625 8.886719 24.0625 7.015625 C 24.0625 5.144531 22.613281 3.574219 20.902344 3.574219 Z M 20.902344 3.574219 "/>
<path style=" stroke:none;fill-rule:nonzero;fill:rgb(86.666667%,86.666667%,86.666667%);fill-opacity:1;" d="M 17.214844 7.40625 C 17.078125 7.40625 16.957031 7.40625 16.8125 7.425781 C 16.195312 5.511719 14.46875 4.222656 12.527344 4.21875 C 12.265625 4.222656 12.003906 4.238281 11.742188 4.269531 C 10.714844 3.34375 9.402344 2.835938 8.042969 2.839844 C 5.066406 2.839844 2.640625 5.042969 2.125 8.144531 C 0.835938 9.011719 0 10.417969 0 11.804688 C 0.0273438 14.253906 1.960938 16.222656 4.324219 16.199219 L 17.214844 16.199219 C 19.667969 16.199219 21.742188 14.1875 21.742188 11.804688 C 21.742188 9.421875 19.660156 7.40625 17.214844 7.40625 Z M 17.214844 7.40625 "/>
<path style=" stroke:none;fill-rule:evenodd;fill:rgb(80%,80%,80%);fill-opacity:1;" d="M 19.859375 13.925781 C 19.601562 14.484375 19.265625 14.996094 18.859375 15.449219 C 19.691406 15.023438 20.363281 14.324219 20.769531 13.457031 C 21.695312 11.429688 20.792969 9.089844 18.75 8.070312 C 20.375 9.242188 20.886719 11.675781 19.859375 13.925781 Z M 19.859375 13.925781 "/>
<path style=" stroke:none;fill-rule:nonzero;fill:rgb(100%,89.411765%,12.156863%);fill-opacity:1;" d="M 15.246094 14.589844 L 18.402344 14.589844 L 17.121094 16.78125 L 18.441406 16.78125 L 15.726562 20.417969 L 16.265625 18.25 L 13.726562 18.25 Z M 15.246094 14.589844 "/>
<path style=" stroke:none;fill-rule:nonzero;fill:rgb(0%,73.72549%,83.137255%);fill-opacity:1;" d="M 5.488281 14.398438 C 5.488281 14.398438 4.140625 15.664062 4 16.203125 C 3.875 16.734375 4.179688 17.273438 4.6875 17.417969 C 5.195312 17.558594 5.722656 17.257812 5.875 16.734375 C 6.019531 16.203125 5.503906 14.402344 5.488281 14.398438 Z M 5.488281 14.398438 "/>
<path style=" stroke:none;fill-rule:nonzero;fill:rgb(0%,73.72549%,83.137255%);fill-opacity:1;" d="M 7.988281 18.820312 C 7.972656 18.820312 6.644531 20.085938 6.5 20.625 C 6.375 21.15625 6.679688 21.695312 7.191406 21.835938 C 7.699219 21.980469 8.226562 21.679688 8.378906 21.15625 C 8.519531 20.636719 8.003906 18.835938 7.988281 18.820312 Z M 7.988281 18.820312 "/>
<path style=" stroke:none;fill-rule:nonzero;fill:rgb(0%,73.72549%,83.137255%);fill-opacity:1;" d="M 11.953125 15.941406 C 11.9375 15.941406 10.609375 17.207031 10.464844 17.746094 C 10.339844 18.277344 10.648438 18.816406 11.15625 18.960938 C 11.664062 19.101562 12.191406 18.800781 12.34375 18.277344 C 12.484375 17.757812 11.96875 15.945312 11.953125 15.941406 Z M 11.953125 15.941406 "/>
</g>
</svg>
