<?xml version="1.0" encoding="UTF-8"?>
<svg xmlns="http://www.w3.org/2000/svg" xmlns:xlink="http://www.w3.org/1999/xlink" width="25px" height="px" viewBox="0 0 25 22" version="1.1">
<g id="surface1">
<path style=" stroke:none;fill-rule:nonzero;fill:rgb(60%,60%,60%);fill-opacity:1;" d="M 19.804688 5.097656 C 19.652344 5.097656 19.496094 5.097656 19.34375 5.117188 C 18.632812 2.980469 16.648438 1.539062 14.410156 1.539062 C 14.109375 1.539062 13.808594 1.558594 13.511719 1.589844 C 12.332031 0.558594 10.816406 -0.0078125 9.253906 0 C 5.835938 0 3.039062 2.460938 2.445312 5.925781 C 0.964844 6.875 0 8.457031 0 10.007812 C 0.03125 12.742188 2.257812 14.9375 4.972656 14.914062 L 19.804688 14.914062 C 22.632812 14.914062 25.019531 12.667969 25.019531 10.007812 C 25.019531 7.34375 22.632812 5.097656 19.804688 5.097656 Z M 19.804688 5.097656 "/>
<path style=" stroke:none;fill-rule:evenodd;fill:rgb(46.666667%,46.666667%,46.666667%);fill-opacity:1;" d="M 23.027344 12.226562 C 22.746094 12.816406 22.378906 13.359375 21.941406 13.835938 C 22.84375 13.386719 23.578125 12.644531 24.019531 11.730469 C 25.027344 9.589844 24.042969 7.117188 21.820312 6.039062 C 23.585938 7.277344 24.148438 9.851562 23.027344 12.226562 Z M 23.027344 12.226562 "/>
<path style=" stroke:none;fill-rule:nonzero;fill:rgb(0%,73.72549%,83.137255%);fill-opacity:1;" d="M 4.300781 18.003906 C 4.164062 18.539062 3.625 18.867188 3.085938 18.742188 C 2.5625 18.582031 2.257812 18.027344 2.402344 17.492188 C 2.695312 16.398438 4.757812 12.472656 4.757812 12.472656 C 4.757812 12.472656 4.636719 16.75 4.300781 18.003906 Z M 4.300781 18.003906 "/>
<path style=" stroke:none;fill-rule:nonzero;fill:rgb(0%,73.72549%,83.137255%);fill-opacity:1;" d="M 7.011719 21.113281 C 6.875 21.65625 6.328125 21.984375 5.789062 21.855469 C 5.261719 21.691406 4.957031 21.136719 5.101562 20.601562 C 5.394531 19.507812 7.472656 15.582031 7.472656 15.582031 C 7.472656 15.582031 7.34375 19.859375 7.011719 21.113281 Z M 7.011719 21.113281 "/>
<path style=" stroke:none;fill-rule:nonzero;fill:rgb(0%,73.72549%,83.137255%);fill-opacity:1;" d="M 11.195312 18.003906 C 11.117188 18.359375 10.851562 18.648438 10.503906 18.75 C 10.15625 18.847656 9.78125 18.75 9.527344 18.484375 C 9.273438 18.222656 9.183594 17.84375 9.292969 17.492188 C 9.585938 16.398438 11.664062 12.472656 11.664062 12.472656 C 11.664062 12.472656 11.527344 16.75 11.195312 18.003906 Z M 11.195312 18.003906 "/>
<path style=" stroke:none;fill-rule:nonzero;fill:rgb(0%,73.72549%,83.137255%);fill-opacity:1;" d="M 14.078125 21.15625 C 13.996094 21.507812 13.730469 21.792969 13.382812 21.890625 C 13.035156 21.992188 12.664062 21.890625 12.410156 21.628906 C 12.160156 21.371094 12.070312 20.992188 12.175781 20.644531 C 12.464844 19.546875 14.527344 15.621094 14.527344 15.621094 C 14.527344 15.621094 14.40625 19.902344 14.078125 21.15625 Z M 14.078125 21.15625 "/>
<path style=" stroke:none;fill-rule:nonzero;fill:rgb(100%,89.411765%,12.156863%);fill-opacity:1;" d="M 16.839844 13.894531 L 20.46875 13.894531 L 18.992188 16.339844 L 20.515625 16.339844 L 17.390625 20.402344 L 18.011719 17.980469 L 15.085938 17.980469 Z M 16.839844 13.894531 "/>
</g>
</svg>
