<?xml version="1.0" encoding="UTF-8"?>
<svg xmlns="http://www.w3.org/2000/svg" xmlns:xlink="http://www.w3.org/1999/xlink" width="25px" height="px" viewBox="0 0 24 22" version="1.1">
<g id="surface1">
<path style=" stroke:none;fill-rule:nonzero;fill:rgb(86.666667%,86.666667%,86.666667%);fill-opacity:1;" d="M 20.175781 11.21875 C 20.0625 11.21875 19.949219 11.222656 19.839844 11.234375 C 19.316406 9.628906 17.863281 8.542969 16.230469 8.539062 C 16.007812 8.539062 15.789062 8.554688 15.570312 8.578125 C 14.707031 7.800781 13.601562 7.367188 12.453125 7.371094 C 9.945312 7.371094 7.902344 9.222656 7.464844 11.832031 C 6.378906 12.550781 5.671875 13.746094 5.671875 14.914062 C 5.695312 16.976562 7.328125 18.628906 9.316406 18.609375 L 20.175781 18.609375 C 22.246094 18.609375 24 16.914062 24 14.910156 C 24 12.90625 22.257812 11.21875 20.175781 11.21875 Z M 20.175781 11.21875 "/>
<path style=" stroke:none;fill-rule:nonzero;fill:rgb(95.294118%,44.313725%,17.647059%);fill-opacity:1;" d="M 14.460938 10.203125 C 14.601562 9.695312 14.679688 9.167969 14.691406 8.640625 L 15.753906 8.082031 L 16.863281 7.496094 L 15.65625 7.199219 L 14.5 6.914062 C 14.375 6.402344 14.183594 5.910156 13.933594 5.449219 L 14.570312 4.433594 L 15.246094 3.367188 L 14.046875 3.722656 L 12.90625 4.058594 C 12.539062 3.679688 12.128906 3.351562 11.679688 3.078125 L 11.742188 1.875 L 11.800781 0.613281 L 10.941406 1.539062 L 10.117188 2.410156 C 9.613281 2.269531 9.097656 2.195312 8.578125 2.1875 L 8.035156 1.117188 L 7.464844 0 L 7.160156 1.226562 L 6.871094 2.398438 C 6.367188 2.53125 5.882812 2.730469 5.425781 2.984375 L 4.425781 2.339844 L 3.382812 1.664062 L 3.722656 2.878906 L 4.046875 4.03125 C 3.675781 4.40625 3.351562 4.824219 3.078125 5.28125 L 1.890625 5.230469 L 0.648438 5.175781 L 1.542969 6.054688 L 2.390625 6.886719 C 2.25 7.394531 2.175781 7.921875 2.164062 8.449219 L 1.101562 9.007812 L 0 9.582031 L 1.207031 9.878906 L 2.359375 10.167969 C 2.488281 10.679688 2.679688 11.171875 2.929688 11.632812 L 2.292969 12.644531 L 1.609375 13.710938 L 2.808594 13.359375 L 3.949219 13.019531 C 4.316406 13.394531 4.722656 13.722656 5.167969 13.992188 L 5.109375 15.195312 L 5.046875 16.457031 L 5.914062 15.546875 L 6.738281 14.664062 C 7.242188 14.804688 7.757812 14.878906 8.277344 14.886719 L 8.820312 15.953125 L 9.386719 17.070312 L 9.695312 15.84375 L 9.980469 14.683594 C 10.488281 14.546875 10.972656 14.351562 11.429688 14.09375 L 12.425781 14.738281 L 13.472656 15.417969 L 13.132812 14.207031 L 12.808594 13.046875 C 13.179688 12.675781 13.503906 12.257812 13.777344 11.804688 L 14.960938 11.855469 L 16.207031 11.90625 L 15.3125 11.027344 Z M 14.460938 10.203125 "/>
<path style=" stroke:none;fill-rule:nonzero;fill:rgb(100%,78.431373%,17.254902%);fill-opacity:1;" d="M 13.792969 8.539062 C 13.757812 11.601562 11.339844 14.054688 8.382812 14.027344 C 5.429688 14.003906 3.050781 11.511719 3.0625 8.449219 C 3.074219 5.390625 5.472656 2.914062 8.425781 2.914062 C 11.410156 2.933594 13.808594 5.453125 13.792969 8.539062 Z M 13.792969 8.539062 "/>
<path style=" stroke:none;fill-rule:evenodd;fill:rgb(100%,84.313725%,29.411765%);fill-opacity:1;" d="M 7.730469 4.277344 C 5.75 4.761719 4.132812 6.238281 3.417969 8.210938 C 3.632812 5.917969 5.199219 4.007812 7.351562 3.417969 C 9.132812 2.964844 11.015625 3.527344 12.296875 4.890625 C 10.90625 4.082031 9.273438 3.863281 7.730469 4.277344 Z M 7.730469 4.277344 "/>
<path style=" stroke:none;fill-rule:nonzero;fill:rgb(100%,89.411765%,12.156863%);fill-opacity:1;" d="M 18.441406 17.199219 L 20.785156 17.199219 L 19.828125 18.824219 L 20.8125 18.824219 L 18.792969 21.523438 L 19.195312 19.917969 L 17.304688 19.917969 Z M 18.441406 17.199219 "/>
<path style=" stroke:none;fill-rule:nonzero;fill:rgb(25.490196%,74.901961%,96.862745%);fill-opacity:1;" d="M 17.921875 3.554688 C 18.90625 3.113281 20.039062 3.273438 20.871094 3.972656 C 21.703125 4.667969 22.089844 5.789062 21.875 6.871094 L 22.539062 7.144531 L 20.757812 8.332031 L 20.230469 6.207031 L 20.871094 6.464844 C 20.957031 5.53125 20.371094 4.675781 19.492188 4.457031 C 18.613281 4.238281 17.714844 4.722656 17.382812 5.59375 L 16.394531 5.191406 C 16.675781 4.457031 17.222656 3.867188 17.921875 3.554688 Z M 17.921875 3.554688 "/>
<path style=" stroke:none;fill-rule:nonzero;fill:rgb(0%,73.72549%,83.137255%);fill-opacity:1;" d="M 8.183594 16.636719 C 8.171875 16.636719 7.203125 17.554688 7.101562 17.945312 C 7.03125 18.199219 7.097656 18.472656 7.273438 18.660156 C 7.453125 18.847656 7.714844 18.925781 7.960938 18.855469 C 8.207031 18.789062 8.398438 18.589844 8.464844 18.335938 C 8.566406 17.945312 8.195312 16.636719 8.183594 16.636719 Z M 8.183594 16.636719 "/>
<path style=" stroke:none;fill-rule:nonzero;fill:rgb(0%,73.72549%,83.137255%);fill-opacity:1;" d="M 10.734375 19.851562 C 10.722656 19.851562 9.757812 20.769531 9.652344 21.171875 C 9.582031 21.425781 9.648438 21.699219 9.828125 21.886719 C 10.003906 22.074219 10.265625 22.148438 10.511719 22.082031 C 10.757812 22.015625 10.953125 21.816406 11.015625 21.558594 C 11.121094 21.160156 10.746094 19.855469 10.734375 19.851562 Z M 10.734375 19.851562 "/>
<path style=" stroke:none;fill-rule:nonzero;fill:rgb(0%,73.72549%,83.137255%);fill-opacity:1;" d="M 13.933594 17.757812 C 13.921875 17.757812 12.957031 18.675781 12.851562 19.078125 C 12.78125 19.328125 12.847656 19.601562 13.027344 19.792969 C 13.203125 19.980469 13.464844 20.054688 13.710938 19.988281 C 13.957031 19.921875 14.152344 19.722656 14.214844 19.464844 C 14.320312 19.066406 13.945312 17.757812 13.933594 17.757812 Z M 13.933594 17.757812 "/>
</g>
</svg>
