<?xml version="1.0" encoding="UTF-8"?>
<svg xmlns="http://www.w3.org/2000/svg" xmlns:xlink="http://www.w3.org/1999/xlink" width="25px" height="px" viewBox="0 0 25 25" version="1.1">
<g id="surface1">
<path style=" stroke:none;fill-rule:nonzero;fill:rgb(95.294118%,44.313725%,17.647059%);fill-opacity:1;" d="M 22.800781 11.171875 C 22.933594 10.710938 23.003906 10.238281 23.015625 9.761719 L 24.023438 9.257812 L 25.082031 8.726562 L 23.929688 8.460938 L 22.84375 8.195312 C 22.71875 7.730469 22.535156 7.285156 22.300781 6.863281 L 22.914062 5.949219 L 23.558594 4.988281 L 22.414062 5.308594 L 21.328125 5.613281 C 20.980469 5.277344 20.589844 4.984375 20.167969 4.738281 L 20.222656 3.652344 L 20.28125 2.515625 L 19.46875 3.339844 L 18.679688 4.121094 C 18.199219 4 17.707031 3.933594 17.210938 3.925781 L 16.691406 2.960938 L 16.148438 1.953125 L 15.863281 3.0625 L 15.589844 4.125 C 15.109375 4.246094 14.644531 4.425781 14.207031 4.65625 L 13.257812 4.078125 L 12.226562 3.484375 L 12.550781 4.574219 L 12.863281 5.617188 C 12.515625 5.953125 12.210938 6.328125 11.957031 6.738281 L 10.824219 6.691406 L 9.628906 6.648438 L 10.476562 7.433594 L 11.292969 8.183594 C 11.160156 8.640625 11.085938 9.113281 11.074219 9.589844 L 10.054688 10.085938 L 8.996094 10.621094 L 10.148438 10.886719 L 11.238281 11.152344 C 11.359375 11.617188 11.542969 12.0625 11.78125 12.480469 L 11.1875 13.378906 L 10.542969 14.335938 L 11.683594 14.019531 L 12.773438 13.710938 C 13.121094 14.050781 13.511719 14.34375 13.933594 14.585938 L 13.878906 15.671875 L 13.816406 16.808594 L 14.632812 15.988281 L 15.421875 15.1875 C 15.898438 15.3125 16.394531 15.378906 16.886719 15.386719 L 17.40625 16.347656 L 17.949219 17.355469 L 18.238281 16.253906 L 18.511719 15.1875 C 18.992188 15.066406 19.453125 14.886719 19.890625 14.65625 L 20.84375 15.238281 L 21.839844 15.847656 L 21.515625 14.753906 L 21.222656 13.738281 C 21.574219 13.402344 21.886719 13.027344 22.144531 12.617188 L 23.277344 12.664062 L 24.460938 12.710938 L 23.613281 11.925781 Z M 22.800781 11.171875 "/>
<path style=" stroke:none;fill-rule:nonzero;fill:rgb(100%,78.431373%,17.254902%);fill-opacity:1;" d="M 22.160156 9.675781 C 22.128906 12.433594 19.820312 14.644531 17.003906 14.625 C 14.1875 14.601562 11.917969 12.355469 11.925781 9.597656 C 11.9375 6.839844 14.226562 4.609375 17.042969 4.609375 C 19.886719 4.625 22.175781 6.894531 22.160156 9.675781 Z M 22.160156 9.675781 "/>
<path style=" stroke:none;fill-rule:evenodd;fill:rgb(100%,84.313725%,29.411765%);fill-opacity:1;" d="M 16.378906 5.835938 C 14.492188 6.273438 12.949219 7.601562 12.269531 9.378906 C 12.46875 7.304688 13.972656 5.578125 16.03125 5.054688 C 17.730469 4.652344 19.515625 5.15625 20.734375 6.382812 C 19.410156 5.65625 17.847656 5.460938 16.378906 5.835938 Z M 16.378906 5.835938 "/>
<path style=" stroke:none;fill-rule:nonzero;fill:rgb(86.666667%,86.666667%,86.666667%);fill-opacity:1;" d="M 19.667969 9.378906 C 19.511719 9.378906 19.363281 9.378906 19.210938 9.398438 C 18.507812 7.335938 16.539062 5.945312 14.316406 5.941406 C 14.019531 5.945312 13.722656 5.960938 13.425781 5.996094 C 12.253906 4.996094 10.75 4.449219 9.199219 4.453125 C 5.796875 4.453125 3.027344 6.828125 2.433594 10.171875 C 0.957031 11.097656 0 12.621094 0 14.117188 C 0.03125 16.757812 2.238281 18.875 4.9375 18.851562 L 19.667969 18.851562 C 22.472656 18.851562 24.84375 16.683594 24.84375 14.117188 C 24.84375 11.550781 22.472656 9.378906 19.667969 9.378906 Z M 19.667969 9.378906 "/>
<path style=" stroke:none;fill-rule:evenodd;fill:rgb(80%,80%,80%);fill-opacity:1;" d="M 22.917969 16.367188 C 22.640625 16.9375 22.273438 17.460938 21.832031 17.921875 C 22.738281 17.488281 23.46875 16.773438 23.914062 15.886719 C 24.917969 13.820312 23.9375 11.4375 21.738281 10.394531 C 23.476562 11.589844 24.03125 14.074219 22.917969 16.367188 Z M 22.917969 16.367188 "/>
<path style=" stroke:none;fill-rule:nonzero;fill:rgb(25.490196%,74.901961%,96.862745%);fill-opacity:1;" d="M 7.371094 0.300781 C 6.117188 -0.234375 4.660156 -0.0390625 3.597656 0.804688 C 2.53125 1.648438 2.035156 3 2.308594 4.3125 L 1.460938 4.636719 L 3.742188 6.078125 L 4.414062 3.503906 L 3.597656 3.816406 C 3.472656 2.683594 4.226562 1.636719 5.359375 1.371094 C 6.488281 1.105469 7.648438 1.703125 8.0625 2.765625 L 9.324219 2.277344 C 8.972656 1.390625 8.269531 0.679688 7.371094 0.300781 Z M 7.371094 0.300781 "/>
<path style=" stroke:none;fill-rule:nonzero;fill:rgb(0%,73.72549%,83.137255%);fill-opacity:1;" d="M 6.277344 16.921875 C 6.261719 16.921875 4.738281 18.289062 4.574219 18.871094 C 4.453125 19.25 4.550781 19.664062 4.835938 19.953125 C 5.117188 20.238281 5.535156 20.351562 5.929688 20.246094 C 6.320312 20.144531 6.625 19.835938 6.71875 19.449219 C 6.882812 18.882812 6.292969 16.929688 6.277344 16.921875 Z M 6.277344 16.921875 "/>
<path style=" stroke:none;fill-rule:nonzero;fill:rgb(0%,73.72549%,83.137255%);fill-opacity:1;" d="M 9.136719 21.703125 C 9.121094 21.703125 7.597656 23.070312 7.433594 23.648438 C 7.308594 24.03125 7.410156 24.449219 7.691406 24.738281 C 7.976562 25.027344 8.398438 25.140625 8.792969 25.03125 C 9.1875 24.925781 9.488281 24.617188 9.582031 24.226562 C 9.746094 23.644531 9.15625 21.707031 9.136719 21.703125 Z M 9.136719 21.703125 "/>
<path style=" stroke:none;fill-rule:nonzero;fill:rgb(0%,73.72549%,83.137255%);fill-opacity:1;" d="M 13.675781 18.585938 C 13.65625 18.585938 12.132812 19.953125 11.96875 20.53125 C 11.804688 21.117188 12.15625 21.71875 12.753906 21.878906 C 13.351562 22.039062 13.96875 21.695312 14.128906 21.113281 C 14.28125 20.53125 13.691406 18.589844 13.675781 18.585938 Z M 13.675781 18.585938 "/>
<path style=" stroke:none;fill-rule:nonzero;fill:rgb(100%,89.411765%,12.156863%);fill-opacity:1;" d="M 17.425781 17.078125 L 21.027344 17.078125 L 19.558594 19.4375 L 21.074219 19.4375 L 17.96875 23.355469 L 18.585938 21.019531 L 15.683594 21.019531 Z M 17.425781 17.078125 "/>
</g>
</svg>
