<?xml version="1.0" encoding="UTF-8"?>
<svg xmlns="http://www.w3.org/2000/svg" xmlns:xlink="http://www.w3.org/1999/xlink" width="25px" height="px" viewBox="0 0 25 25" version="1.1">
<defs>
<filter id="alpha" filterUnits="objectBoundingBox" x="0%" y="0%" width="100%" height="100%">
  <feColorMatrix type="matrix" in="SourceGraphic" values="0 0 0 0 1 0 0 0 0 1 0 0 0 0 1 0 0 0 1 0"/>
</filter>
<mask id="mask0">
  <g filter="url(#alpha)">
<rect x="0" y="0" width="25" height="25" style="fill:rgb(0%,0%,0%);fill-opacity:0.6;stroke:none;"/>
  </g>
</mask>
<clipPath id="clip1">
  <rect x="0" y="0" width="25" height="25"/>
</clipPath>
<g id="surface5" clip-path="url(#clip1)">
<path style=" stroke:none;fill-rule:nonzero;fill:rgb(93.333333%,93.333333%,93.333333%);fill-opacity:1;" d="M 19.929688 18.078125 C 19.78125 18.078125 19.632812 18.078125 19.480469 18.0625 C 17.441406 17.933594 15.6875 16.859375 14.140625 15.933594 L 13.878906 15.773438 C 11.773438 14.496094 8.53125 14.070312 6.394531 16.144531 C 6.105469 16.425781 5.636719 16.425781 5.34375 16.144531 C 5.054688 15.859375 5.054688 15.402344 5.347656 15.121094 C 7.246094 13.28125 10.96875 12.316406 14.664062 14.546875 L 14.929688 14.710938 C 16.394531 15.597656 17.898438 16.519531 19.578125 16.632812 C 21.105469 16.742188 22.605469 16.21875 23.710938 15.191406 C 24.003906 14.90625 24.472656 14.90625 24.761719 15.1875 C 25.054688 15.46875 25.054688 15.925781 24.765625 16.210938 C 23.46875 17.421875 21.730469 18.09375 19.929688 18.078125 Z M 19.929688 18.078125 "/>
</g>
<mask id="mask1">
  <g filter="url(#alpha)">
<rect x="0" y="0" width="25" height="25" style="fill:rgb(0%,0%,0%);fill-opacity:0.74902;stroke:none;"/>
  </g>
</mask>
<clipPath id="clip2">
  <rect x="0" y="0" width="25" height="25"/>
</clipPath>
<g id="surface8" clip-path="url(#clip2)">
<path style=" stroke:none;fill-rule:nonzero;fill:rgb(93.333333%,93.333333%,93.333333%);fill-opacity:1;" d="M 19.929688 21.589844 C 19.78125 21.589844 19.632812 21.589844 19.480469 21.578125 C 17.441406 21.449219 15.6875 20.375 14.140625 19.445312 L 13.878906 19.289062 C 11.773438 18.011719 8.53125 17.585938 6.394531 19.660156 C 6.105469 19.941406 5.636719 19.941406 5.34375 19.65625 C 5.054688 19.375 5.054688 18.917969 5.347656 18.636719 C 7.246094 16.792969 10.96875 15.828125 14.664062 18.0625 L 14.929688 18.222656 C 16.394531 19.113281 17.898438 20.035156 19.578125 20.148438 C 21.105469 20.257812 22.605469 19.734375 23.710938 18.703125 C 23.890625 18.488281 24.179688 18.390625 24.453125 18.453125 C 24.730469 18.511719 24.949219 18.71875 25.015625 18.988281 C 25.082031 19.253906 24.984375 19.535156 24.765625 19.710938 C 23.46875 20.929688 21.734375 21.601562 19.929688 21.589844 Z M 19.929688 21.589844 "/>
</g>
<mask id="mask2">
  <g filter="url(#alpha)">
<rect x="0" y="0" width="25" height="25" style="fill:rgb(0%,0%,0%);fill-opacity:0.901961;stroke:none;"/>
  </g>
</mask>
<clipPath id="clip3">
  <rect x="0" y="0" width="25" height="25"/>
</clipPath>
<g id="surface11" clip-path="url(#clip3)">
<path style=" stroke:none;fill-rule:nonzero;fill:rgb(93.333333%,93.333333%,93.333333%);fill-opacity:1;" d="M 19.929688 25.105469 C 19.78125 25.105469 19.632812 25.105469 19.480469 25.089844 C 17.441406 24.964844 15.6875 23.902344 14.144531 22.960938 L 13.878906 22.804688 C 11.773438 21.527344 8.53125 21.097656 6.394531 23.171875 C 6.105469 23.453125 5.636719 23.453125 5.34375 23.171875 C 5.054688 22.890625 5.054688 22.433594 5.347656 22.152344 C 7.242188 20.308594 10.96875 19.34375 14.664062 21.578125 L 14.929688 21.738281 C 16.394531 22.628906 17.902344 23.546875 19.578125 23.660156 C 21.105469 23.769531 22.605469 23.246094 23.710938 22.21875 C 24.003906 21.9375 24.472656 21.9375 24.761719 22.21875 C 25.054688 22.5 25.054688 22.957031 24.765625 23.238281 C 23.46875 24.449219 21.730469 25.121094 19.929688 25.105469 Z M 19.929688 25.105469 "/>
</g>
<mask id="mask3">
  <g filter="url(#alpha)">
<rect x="0" y="0" width="25" height="25" style="fill:rgb(0%,0%,0%);fill-opacity:0.74902;stroke:none;"/>
  </g>
</mask>
<clipPath id="clip4">
  <rect x="0" y="0" width="25" height="25"/>
</clipPath>
<g id="surface14" clip-path="url(#clip4)">
<path style=" stroke:none;fill-rule:nonzero;fill:rgb(93.333333%,93.333333%,93.333333%);fill-opacity:1;" d="M 8.253906 15.671875 C 8.253906 15.9375 8.03125 16.152344 7.757812 16.152344 C 7.484375 16.152344 7.261719 15.9375 7.261719 15.671875 C 7.261719 15.40625 7.484375 15.191406 7.757812 15.191406 C 8.03125 15.191406 8.253906 15.40625 8.253906 15.671875 Z M 8.253906 15.671875 "/>
</g>
<mask id="mask4">
  <g filter="url(#alpha)">
<rect x="0" y="0" width="25" height="25" style="fill:rgb(0%,0%,0%);fill-opacity:0.74902;stroke:none;"/>
  </g>
</mask>
<clipPath id="clip5">
  <rect x="0" y="0" width="25" height="25"/>
</clipPath>
<g id="surface17" clip-path="url(#clip5)">
<path style=" stroke:none;fill-rule:nonzero;fill:rgb(93.333333%,93.333333%,93.333333%);fill-opacity:1;" d="M 11.472656 23.308594 C 11.472656 23.574219 11.25 23.789062 10.976562 23.789062 C 10.703125 23.789062 10.484375 23.574219 10.484375 23.308594 C 10.484375 23.042969 10.703125 22.828125 10.976562 22.828125 C 11.25 22.828125 11.472656 23.042969 11.472656 23.308594 Z M 11.472656 23.308594 "/>
</g>
<mask id="mask5">
  <g filter="url(#alpha)">
<rect x="0" y="0" width="25" height="25" style="fill:rgb(0%,0%,0%);fill-opacity:0.74902;stroke:none;"/>
  </g>
</mask>
<clipPath id="clip6">
  <rect x="0" y="0" width="25" height="25"/>
</clipPath>
<g id="surface20" clip-path="url(#clip6)">
<path style=" stroke:none;fill-rule:nonzero;fill:rgb(93.333333%,93.333333%,93.333333%);fill-opacity:1;" d="M 18.070312 19.464844 C 18.070312 19.730469 17.847656 19.945312 17.574219 19.945312 C 17.300781 19.945312 17.078125 19.730469 17.078125 19.464844 C 17.078125 19.199219 17.300781 18.984375 17.574219 18.984375 C 17.847656 18.984375 18.070312 19.199219 18.070312 19.464844 Z M 18.070312 19.464844 "/>
</g>
<mask id="mask6">
  <g filter="url(#alpha)">
<rect x="0" y="0" width="25" height="25" style="fill:rgb(0%,0%,0%);fill-opacity:0.74902;stroke:none;"/>
  </g>
</mask>
<clipPath id="clip7">
  <rect x="0" y="0" width="25" height="25"/>
</clipPath>
<g id="surface23" clip-path="url(#clip7)">
<path style=" stroke:none;fill-rule:nonzero;fill:rgb(93.333333%,93.333333%,93.333333%);fill-opacity:1;" d="M 23.660156 22.585938 C 23.660156 22.851562 23.4375 23.066406 23.164062 23.066406 C 22.890625 23.066406 22.667969 22.851562 22.667969 22.585938 C 22.667969 22.320312 22.890625 22.105469 23.164062 22.105469 C 23.4375 22.105469 23.660156 22.320312 23.660156 22.585938 Z M 23.660156 22.585938 "/>
</g>
<mask id="mask7">
  <g filter="url(#alpha)">
<rect x="0" y="0" width="25" height="25" style="fill:rgb(0%,0%,0%);fill-opacity:0.74902;stroke:none;"/>
  </g>
</mask>
<clipPath id="clip8">
  <rect x="0" y="0" width="25" height="25"/>
</clipPath>
<g id="surface26" clip-path="url(#clip8)">
<path style=" stroke:none;fill-rule:nonzero;fill:rgb(93.333333%,93.333333%,93.333333%);fill-opacity:1;" d="M 21.757812 14.210938 C 21.757812 14.476562 21.535156 14.691406 21.261719 14.691406 C 20.988281 14.691406 20.765625 14.476562 20.765625 14.210938 C 20.765625 13.945312 20.988281 13.730469 21.261719 13.730469 C 21.535156 13.730469 21.757812 13.945312 21.757812 14.210938 Z M 21.757812 14.210938 "/>
</g>
</defs>
<g id="surface1">
<path style=" stroke:none;fill-rule:nonzero;fill:rgb(95.294118%,44.313725%,17.647059%);fill-opacity:1;" d="M 19.847656 13.128906 C 20.039062 12.472656 20.144531 11.796875 20.160156 11.117188 L 21.609375 10.398438 L 23.132812 9.644531 L 21.472656 9.257812 L 19.894531 8.894531 C 19.714844 8.238281 19.453125 7.605469 19.113281 7.011719 L 19.996094 5.703125 L 20.921875 4.328125 L 19.277344 4.785156 L 17.710938 5.21875 C 17.207031 4.738281 16.648438 4.316406 16.039062 3.96875 L 16.121094 2.417969 L 16.207031 0.796875 L 15.015625 1.976562 L 13.882812 3.097656 C 13.191406 2.917969 12.484375 2.824219 11.769531 2.8125 L 11.023438 1.441406 L 10.246094 0 L 9.828125 1.578125 L 9.429688 3.085938 C 8.742188 3.257812 8.074219 3.511719 7.449219 3.839844 L 6.082031 3.011719 L 4.640625 2.140625 L 5.105469 3.703125 L 5.550781 5.191406 C 5.042969 5.667969 4.597656 6.203125 4.226562 6.789062 L 2.597656 6.730469 L 0.890625 6.652344 L 2.128906 7.777344 L 3.296875 8.847656 C 3.101562 9.5 2.992188 10.175781 2.96875 10.859375 L 1.519531 11.578125 L 0 12.328125 L 1.65625 12.714844 L 3.238281 13.078125 C 3.414062 13.738281 3.675781 14.371094 4.019531 14.964844 L 3.136719 16.273438 L 2.207031 17.644531 L 3.851562 17.1875 L 5.421875 16.75 C 5.921875 17.234375 6.484375 17.65625 7.089844 18.003906 L 7.011719 19.550781 L 6.929688 21.171875 L 8.121094 20 L 9.253906 18.878906 C 9.945312 19.058594 10.65625 19.152344 11.367188 19.160156 L 12.113281 20.535156 L 12.890625 21.976562 L 13.308594 20.398438 L 13.707031 18.894531 C 14.394531 18.722656 15.058594 18.464844 15.6875 18.132812 L 17.054688 18.964844 L 18.488281 19.835938 L 18.023438 18.269531 L 17.574219 16.785156 C 18.082031 16.304688 18.527344 15.769531 18.902344 15.1875 L 20.53125 15.253906 L 22.238281 15.320312 L 21.015625 14.195312 Z M 19.847656 13.128906 "/>
<path style=" stroke:none;fill-rule:nonzero;fill:rgb(100%,78.431373%,17.254902%);fill-opacity:1;" d="M 18.929688 10.988281 C 18.878906 14.925781 15.5625 18.085938 11.503906 18.050781 C 7.449219 18.019531 4.183594 14.8125 4.199219 10.871094 C 4.21875 6.933594 7.507812 3.75 11.5625 3.75 C 15.65625 3.773438 18.953125 7.015625 18.929688 10.988281 Z M 18.929688 10.988281 "/>
<path style=" stroke:none;fill-rule:evenodd;fill:rgb(100%,84.313725%,29.411765%);fill-opacity:1;" d="M 10.609375 5.503906 C 7.734375 6.203125 5.5625 8.171875 4.703125 10.578125 C 5.03125 7.664062 7.105469 5.140625 10.101562 4.410156 C 12.546875 3.828125 15.128906 4.550781 16.886719 6.304688 C 14.980469 5.257812 12.730469 4.96875 10.609375 5.503906 Z M 10.609375 5.503906 "/>
<use xlink:href="#surface5" mask="url(#mask0)"/>
<use xlink:href="#surface8" mask="url(#mask1)"/>
<use xlink:href="#surface11" mask="url(#mask2)"/>
<use xlink:href="#surface14" mask="url(#mask3)"/>
<use xlink:href="#surface17" mask="url(#mask4)"/>
<use xlink:href="#surface20" mask="url(#mask5)"/>
<use xlink:href="#surface23" mask="url(#mask6)"/>
<use xlink:href="#surface26" mask="url(#mask7)"/>
</g>
</svg>
