<?xml version="1.0" encoding="UTF-8"?>
<svg xmlns="http://www.w3.org/2000/svg" xmlns:xlink="http://www.w3.org/1999/xlink" width="25px" height="px" viewBox="0 0 25 23" version="1.1">
<defs>
<filter id="alpha" filterUnits="objectBoundingBox" x="0%" y="0%" width="100%" height="100%">
  <feColorMatrix type="matrix" in="SourceGraphic" values="0 0 0 0 1 0 0 0 0 1 0 0 0 0 1 0 0 0 1 0"/>
</filter>
<mask id="mask0">
  <g filter="url(#alpha)">
<rect x="0" y="0" width="25" height="23" style="fill:rgb(0%,0%,0%);fill-opacity:0.6;stroke:none;"/>
  </g>
</mask>
<clipPath id="clip1">
  <rect x="0" y="0" width="25" height="23"/>
</clipPath>
<g id="surface5" clip-path="url(#clip1)">
<path style=" stroke:none;fill-rule:nonzero;fill:rgb(93.333333%,93.333333%,93.333333%);fill-opacity:1;" d="M 14.378906 15.886719 C 14.230469 15.886719 14.085938 15.886719 13.941406 15.871094 C 11.957031 15.742188 10.253906 14.660156 8.753906 13.726562 L 8.496094 13.558594 C 6.453125 12.28125 3.304688 11.863281 1.230469 13.941406 C 0.945312 14.207031 0.503906 14.199219 0.230469 13.921875 C -0.046875 13.644531 -0.0546875 13.199219 0.210938 12.914062 C 2.054688 11.058594 5.671875 10.082031 9.257812 12.332031 L 9.515625 12.496094 C 10.941406 13.390625 12.402344 14.316406 14.03125 14.433594 C 15.515625 14.542969 16.972656 14.015625 18.046875 12.980469 C 18.328125 12.695312 18.785156 12.695312 19.070312 12.976562 C 19.351562 13.261719 19.351562 13.722656 19.070312 14.003906 C 17.808594 15.226562 16.125 15.902344 14.378906 15.886719 Z M 14.378906 15.886719 "/>
</g>
<mask id="mask1">
  <g filter="url(#alpha)">
<rect x="0" y="0" width="25" height="23" style="fill:rgb(0%,0%,0%);fill-opacity:0.74902;stroke:none;"/>
  </g>
</mask>
<clipPath id="clip2">
  <rect x="0" y="0" width="25" height="23"/>
</clipPath>
<g id="surface8" clip-path="url(#clip2)">
<path style=" stroke:none;fill-rule:nonzero;fill:rgb(93.333333%,93.333333%,93.333333%);fill-opacity:1;" d="M 14.378906 19.425781 C 14.230469 19.425781 14.085938 19.425781 13.941406 19.410156 C 11.957031 19.285156 10.253906 18.203125 8.753906 17.265625 L 8.496094 17.105469 C 6.453125 15.820312 3.304688 15.390625 1.230469 17.480469 C 0.945312 17.714844 0.527344 17.695312 0.265625 17.433594 C 0.00390625 17.171875 -0.0195312 16.753906 0.210938 16.464844 C 2.054688 14.605469 5.671875 13.632812 9.257812 15.882812 L 9.515625 16.042969 C 10.941406 16.941406 12.402344 17.867188 14.03125 17.980469 C 15.515625 18.09375 16.972656 17.5625 18.046875 16.527344 C 18.328125 16.246094 18.785156 16.242188 19.070312 16.527344 C 19.351562 16.8125 19.351562 17.269531 19.070312 17.554688 C 17.808594 18.773438 16.125 19.445312 14.378906 19.425781 Z M 14.378906 19.425781 "/>
</g>
<mask id="mask2">
  <g filter="url(#alpha)">
<rect x="0" y="0" width="25" height="23" style="fill:rgb(0%,0%,0%);fill-opacity:0.901961;stroke:none;"/>
  </g>
</mask>
<clipPath id="clip3">
  <rect x="0" y="0" width="25" height="23"/>
</clipPath>
<g id="surface11" clip-path="url(#clip3)">
<path style=" stroke:none;fill-rule:nonzero;fill:rgb(93.333333%,93.333333%,93.333333%);fill-opacity:1;" d="M 14.375 22.964844 C 14.230469 22.964844 14.085938 22.964844 13.941406 22.953125 C 11.960938 22.824219 10.253906 21.742188 8.753906 20.804688 L 8.496094 20.648438 C 6.453125 19.367188 3.304688 18.933594 1.230469 21.019531 C 0.945312 21.285156 0.503906 21.277344 0.230469 21 C -0.046875 20.726562 -0.0546875 20.277344 0.210938 19.992188 C 2.054688 18.136719 5.671875 17.164062 9.257812 19.410156 L 9.519531 19.574219 C 10.941406 20.472656 12.402344 21.398438 14.03125 21.511719 C 15.515625 21.621094 16.972656 21.09375 18.046875 20.058594 C 18.332031 19.839844 18.734375 19.863281 18.992188 20.113281 C 19.25 20.367188 19.28125 20.769531 19.070312 21.0625 C 17.8125 22.292969 16.128906 22.976562 14.375 22.964844 Z M 14.375 22.964844 "/>
</g>
<mask id="mask3">
  <g filter="url(#alpha)">
<rect x="0" y="0" width="25" height="23" style="fill:rgb(0%,0%,0%);fill-opacity:0.74902;stroke:none;"/>
  </g>
</mask>
<clipPath id="clip4">
  <rect x="0" y="0" width="25" height="23"/>
</clipPath>
<g id="surface14" clip-path="url(#clip4)">
<path style=" stroke:none;fill-rule:nonzero;fill:rgb(93.333333%,93.333333%,93.333333%);fill-opacity:1;" d="M 3.035156 13.464844 C 3.035156 13.730469 2.820312 13.949219 2.554688 13.949219 C 2.289062 13.949219 2.070312 13.730469 2.070312 13.464844 C 2.070312 13.195312 2.289062 12.980469 2.554688 12.980469 C 2.820312 12.980469 3.035156 13.195312 3.035156 13.464844 Z M 3.035156 13.464844 "/>
</g>
<mask id="mask4">
  <g filter="url(#alpha)">
<rect x="0" y="0" width="25" height="23" style="fill:rgb(0%,0%,0%);fill-opacity:0.74902;stroke:none;"/>
  </g>
</mask>
<clipPath id="clip5">
  <rect x="0" y="0" width="25" height="23"/>
</clipPath>
<g id="surface17" clip-path="url(#clip5)">
<path style=" stroke:none;fill-rule:nonzero;fill:rgb(93.333333%,93.333333%,93.333333%);fill-opacity:1;" d="M 6.164062 21.15625 C 6.164062 21.421875 5.949219 21.640625 5.683594 21.640625 C 5.417969 21.640625 5.203125 21.421875 5.203125 21.15625 C 5.203125 20.886719 5.417969 20.671875 5.683594 20.671875 C 5.949219 20.671875 6.164062 20.886719 6.164062 21.15625 Z M 6.164062 21.15625 "/>
</g>
<mask id="mask5">
  <g filter="url(#alpha)">
<rect x="0" y="0" width="25" height="23" style="fill:rgb(0%,0%,0%);fill-opacity:0.74902;stroke:none;"/>
  </g>
</mask>
<clipPath id="clip6">
  <rect x="0" y="0" width="25" height="23"/>
</clipPath>
<g id="surface20" clip-path="url(#clip6)">
<path style=" stroke:none;fill-rule:nonzero;fill:rgb(93.333333%,93.333333%,93.333333%);fill-opacity:1;" d="M 12.566406 17.285156 C 12.566406 17.550781 12.351562 17.769531 12.085938 17.769531 C 11.820312 17.769531 11.605469 17.550781 11.605469 17.285156 C 11.605469 17.015625 11.820312 16.800781 12.085938 16.800781 C 12.351562 16.800781 12.566406 17.015625 12.566406 17.285156 Z M 12.566406 17.285156 "/>
</g>
<mask id="mask6">
  <g filter="url(#alpha)">
<rect x="0" y="0" width="25" height="23" style="fill:rgb(0%,0%,0%);fill-opacity:0.74902;stroke:none;"/>
  </g>
</mask>
<clipPath id="clip7">
  <rect x="0" y="0" width="25" height="23"/>
</clipPath>
<g id="surface23" clip-path="url(#clip7)">
<path style=" stroke:none;fill-rule:nonzero;fill:rgb(93.333333%,93.333333%,93.333333%);fill-opacity:1;" d="M 17.996094 20.429688 C 17.996094 20.695312 17.78125 20.914062 17.515625 20.914062 C 17.25 20.914062 17.035156 20.695312 17.035156 20.429688 C 17.035156 20.160156 17.25 19.945312 17.515625 19.945312 C 17.78125 19.945312 17.996094 20.160156 17.996094 20.429688 Z M 17.996094 20.429688 "/>
</g>
<mask id="mask7">
  <g filter="url(#alpha)">
<rect x="0" y="0" width="25" height="23" style="fill:rgb(0%,0%,0%);fill-opacity:0.74902;stroke:none;"/>
  </g>
</mask>
<clipPath id="clip8">
  <rect x="0" y="0" width="25" height="23"/>
</clipPath>
<g id="surface26" clip-path="url(#clip8)">
<path style=" stroke:none;fill-rule:nonzero;fill:rgb(93.333333%,93.333333%,93.333333%);fill-opacity:1;" d="M 16.148438 11.992188 C 16.148438 12.261719 15.933594 12.476562 15.667969 12.476562 C 15.402344 12.476562 15.1875 12.261719 15.1875 11.992188 C 15.1875 11.726562 15.402344 11.507812 15.667969 11.507812 C 15.933594 11.507812 16.148438 11.726562 16.148438 11.992188 Z M 16.148438 11.992188 "/>
</g>
</defs>
<g id="surface1">
<path style=" stroke:none;fill-rule:nonzero;fill:rgb(86.666667%,86.666667%,86.666667%);fill-opacity:1;" d="M 21.269531 11.621094 C 21.15625 11.621094 21.046875 11.621094 20.933594 11.632812 C 20.414062 10.089844 18.976562 9.050781 17.359375 9.050781 C 17.207031 9.050781 16.953125 9.050781 16.703125 9.089844 C 15.847656 8.339844 14.75 7.929688 13.617188 7.933594 C 11.132812 7.933594 9.109375 9.71875 8.679688 12.230469 C 7.605469 12.917969 6.90625 14.066406 6.90625 15.1875 C 6.929688 17.171875 8.542969 18.765625 10.511719 18.746094 L 21.269531 18.746094 C 23.316406 18.746094 25.046875 17.117188 25.046875 15.1875 C 25.046875 13.257812 23.316406 11.621094 21.269531 11.621094 Z M 21.269531 11.621094 "/>
<path style=" stroke:none;fill-rule:evenodd;fill:rgb(80%,80%,80%);fill-opacity:1;" d="M 23.601562 16.878906 C 23.398438 17.308594 23.132812 17.699219 22.816406 18.050781 C 23.472656 17.722656 24 17.183594 24.320312 16.519531 C 25.042969 14.96875 24.339844 13.175781 22.726562 12.40625 C 24.007812 13.289062 24.414062 15.15625 23.601562 16.878906 Z M 23.601562 16.878906 "/>
<path style=" stroke:none;fill-rule:nonzero;fill:rgb(95.294118%,44.313725%,17.647059%);fill-opacity:1;" d="M 18.390625 11.039062 C 18.539062 10.488281 18.621094 9.917969 18.628906 9.34375 L 19.808594 8.742188 L 21.039062 8.109375 L 19.710938 7.789062 L 18.429688 7.480469 C 18.285156 6.925781 18.070312 6.394531 17.789062 5.894531 L 18.507812 4.796875 L 19.257812 3.632812 L 17.929688 4.015625 L 16.65625 4.382812 C 16.25 3.976562 15.796875 3.625 15.304688 3.332031 L 15.367188 2.027344 L 15.433594 0.664062 L 14.472656 1.652344 L 13.554688 2.59375 C 12.996094 2.441406 12.421875 2.359375 11.839844 2.351562 L 11.234375 1.210938 L 10.601562 0 L 10.265625 1.328125 L 9.941406 2.59375 C 9.382812 2.738281 8.839844 2.953125 8.332031 3.230469 L 7.222656 2.53125 L 6.058594 1.804688 L 6.4375 3.117188 L 6.796875 4.359375 C 6.386719 4.757812 6.023438 5.210938 5.722656 5.703125 L 4.402344 5.644531 L 3.019531 5.585938 L 4.011719 6.535156 L 4.960938 7.4375 C 4.804688 7.988281 4.71875 8.558594 4.703125 9.132812 L 3.527344 9.738281 L 2.296875 10.367188 L 3.640625 10.691406 L 4.921875 11 C 5.0625 11.554688 5.277344 12.089844 5.554688 12.589844 L 4.835938 13.691406 L 4.085938 14.835938 L 5.421875 14.453125 L 6.691406 14.085938 C 7.097656 14.492188 7.554688 14.84375 8.046875 15.136719 L 7.980469 16.441406 L 7.910156 17.804688 L 8.871094 16.816406 L 9.789062 15.875 C 10.347656 16.027344 10.925781 16.105469 11.503906 16.117188 L 12.105469 17.273438 L 12.738281 18.480469 L 13.078125 17.152344 L 13.398438 15.886719 C 13.960938 15.742188 14.503906 15.53125 15.015625 15.253906 L 16.125 15.949219 L 17.289062 16.675781 L 16.910156 15.367188 L 16.546875 14.113281 C 16.960938 13.714844 17.324219 13.261719 17.625 12.769531 L 18.945312 12.824219 L 20.328125 12.882812 L 19.335938 11.9375 Z M 18.390625 11.039062 "/>
<path style=" stroke:none;fill-rule:nonzero;fill:rgb(100%,78.431373%,17.254902%);fill-opacity:1;" d="M 17.644531 9.238281 C 17.601562 12.550781 14.910156 15.203125 11.621094 15.175781 C 8.335938 15.148438 5.6875 12.445312 5.703125 9.136719 C 5.714844 5.824219 8.386719 3.148438 11.671875 3.148438 C 14.992188 3.167969 17.664062 5.894531 17.644531 9.238281 Z M 17.644531 9.238281 "/>
<path style=" stroke:none;fill-rule:evenodd;fill:rgb(100%,84.313725%,29.411765%);fill-opacity:1;" d="M 10.898438 4.625 C 8.691406 5.148438 6.886719 6.746094 6.089844 8.886719 C 6.324219 6.402344 8.074219 4.332031 10.464844 3.699219 C 12.449219 3.210938 14.542969 3.816406 15.96875 5.289062 C 14.425781 4.417969 12.609375 4.179688 10.898438 4.625 Z M 10.898438 4.625 "/>
<use xlink:href="#surface5" mask="url(#mask0)"/>
<use xlink:href="#surface8" mask="url(#mask1)"/>
<use xlink:href="#surface11" mask="url(#mask2)"/>
<use xlink:href="#surface14" mask="url(#mask3)"/>
<use xlink:href="#surface17" mask="url(#mask4)"/>
<use xlink:href="#surface20" mask="url(#mask5)"/>
<use xlink:href="#surface23" mask="url(#mask6)"/>
<use xlink:href="#surface26" mask="url(#mask7)"/>
</g>
</svg>
