<?xml version="1.0" encoding="UTF-8"?>
<svg xmlns="http://www.w3.org/2000/svg" xmlns:xlink="http://www.w3.org/1999/xlink" width="25px" height="px" viewBox="0 0 24 23" version="1.1">
<defs>
<filter id="alpha" filterUnits="objectBoundingBox" x="0%" y="0%" width="100%" height="100%">
  <feColorMatrix type="matrix" in="SourceGraphic" values="0 0 0 0 1 0 0 0 0 1 0 0 0 0 1 0 0 0 1 0"/>
</filter>
<mask id="mask0">
  <g filter="url(#alpha)">
<rect x="0" y="0" width="24" height="23" style="fill:rgb(0%,0%,0%);fill-opacity:0.6;stroke:none;"/>
  </g>
</mask>
<clipPath id="clip1">
  <rect x="0" y="0" width="24" height="23"/>
</clipPath>
<g id="surface5" clip-path="url(#clip1)">
<path style=" stroke:none;fill-rule:nonzero;fill:rgb(93.333333%,93.333333%,93.333333%);fill-opacity:1;" d="M 12.480469 16.726562 C 12.355469 16.726562 12.226562 16.726562 12.101562 16.714844 C 10.378906 16.601562 8.902344 15.640625 7.597656 14.808594 L 7.378906 14.667969 C 5.601562 13.527344 2.871094 13.144531 1.070312 15 C 0.820312 15.234375 0.4375 15.230469 0.199219 14.984375 C -0.0390625 14.738281 -0.046875 14.34375 0.183594 14.089844 C 1.785156 12.4375 4.925781 11.574219 8.039062 13.570312 L 8.261719 13.714844 C 9.5 14.511719 10.765625 15.335938 12.179688 15.4375 C 13.46875 15.535156 14.738281 15.066406 15.667969 14.144531 C 15.816406 13.953125 16.0625 13.867188 16.292969 13.917969 C 16.527344 13.972656 16.710938 14.160156 16.765625 14.398438 C 16.820312 14.640625 16.742188 14.890625 16.554688 15.046875 C 15.464844 16.132812 14 16.738281 12.480469 16.726562 Z M 12.480469 16.726562 "/>
</g>
<mask id="mask1">
  <g filter="url(#alpha)">
<rect x="0" y="0" width="24" height="23" style="fill:rgb(0%,0%,0%);fill-opacity:0.74902;stroke:none;"/>
  </g>
</mask>
<clipPath id="clip2">
  <rect x="0" y="0" width="24" height="23"/>
</clipPath>
<g id="surface8" clip-path="url(#clip2)">
<path style=" stroke:none;fill-rule:nonzero;fill:rgb(93.333333%,93.333333%,93.333333%);fill-opacity:1;" d="M 12.480469 19.871094 C 12.355469 19.871094 12.226562 19.871094 12.101562 19.855469 C 10.378906 19.742188 8.902344 18.792969 7.597656 17.953125 L 7.378906 17.8125 C 5.601562 16.667969 2.871094 16.285156 1.070312 18.140625 C 0.820312 18.378906 0.4375 18.371094 0.199219 18.125 C -0.0390625 17.878906 -0.046875 17.484375 0.183594 17.230469 C 1.785156 15.582031 4.925781 14.71875 8.039062 16.714844 L 8.261719 16.859375 C 9.5 17.652344 10.765625 18.476562 12.179688 18.578125 C 13.46875 18.675781 14.738281 18.207031 15.667969 17.289062 C 15.914062 17.035156 16.308594 17.035156 16.554688 17.289062 C 16.800781 17.539062 16.800781 17.949219 16.554688 18.199219 C 15.460938 19.285156 14 19.882812 12.480469 19.871094 Z M 12.480469 19.871094 "/>
</g>
<mask id="mask2">
  <g filter="url(#alpha)">
<rect x="0" y="0" width="24" height="23" style="fill:rgb(0%,0%,0%);fill-opacity:0.901961;stroke:none;"/>
  </g>
</mask>
<clipPath id="clip3">
  <rect x="0" y="0" width="24" height="23"/>
</clipPath>
<g id="surface11" clip-path="url(#clip3)">
<path style=" stroke:none;fill-rule:nonzero;fill:rgb(93.333333%,93.333333%,93.333333%);fill-opacity:1;" d="M 12.480469 23.011719 C 12.355469 23.011719 12.226562 23.011719 12.101562 23 C 10.382812 22.886719 8.902344 21.925781 7.601562 21.09375 L 7.378906 20.953125 C 5.601562 19.8125 2.871094 19.433594 1.070312 21.28125 C 0.914062 21.464844 0.675781 21.546875 0.445312 21.488281 C 0.21875 21.433594 0.0390625 21.25 -0.015625 21.015625 C -0.0703125 20.777344 0.00390625 20.53125 0.183594 20.375 C 1.785156 18.722656 4.925781 17.859375 8.039062 19.855469 L 8.265625 20 C 9.5 20.800781 10.769531 21.621094 12.179688 21.722656 C 13.46875 21.820312 14.734375 21.351562 15.667969 20.429688 C 15.914062 20.179688 16.308594 20.179688 16.554688 20.429688 C 16.800781 20.683594 16.800781 21.089844 16.554688 21.34375 C 15.460938 22.425781 14 23.027344 12.480469 23.011719 Z M 12.480469 23.011719 "/>
</g>
<mask id="mask3">
  <g filter="url(#alpha)">
<rect x="0" y="0" width="24" height="23" style="fill:rgb(0%,0%,0%);fill-opacity:0.74902;stroke:none;"/>
  </g>
</mask>
<clipPath id="clip4">
  <rect x="0" y="0" width="24" height="23"/>
</clipPath>
<g id="surface14" clip-path="url(#clip4)">
<path style=" stroke:none;fill-rule:nonzero;fill:rgb(93.333333%,93.333333%,93.333333%);fill-opacity:1;" d="M 2.632812 14.574219 C 2.632812 14.8125 2.445312 15.007812 2.214844 15.007812 C 1.984375 15.007812 1.800781 14.8125 1.800781 14.574219 C 1.800781 14.339844 1.984375 14.144531 2.214844 14.144531 C 2.445312 14.144531 2.632812 14.339844 2.632812 14.574219 Z M 2.632812 14.574219 "/>
</g>
<mask id="mask4">
  <g filter="url(#alpha)">
<rect x="0" y="0" width="24" height="23" style="fill:rgb(0%,0%,0%);fill-opacity:0.74902;stroke:none;"/>
  </g>
</mask>
<clipPath id="clip5">
  <rect x="0" y="0" width="24" height="23"/>
</clipPath>
<g id="surface17" clip-path="url(#clip5)">
<path style=" stroke:none;fill-rule:nonzero;fill:rgb(93.333333%,93.333333%,93.333333%);fill-opacity:1;" d="M 5.351562 21.40625 C 5.351562 21.640625 5.164062 21.835938 4.933594 21.835938 C 4.703125 21.835938 4.515625 21.640625 4.515625 21.40625 C 4.515625 21.167969 4.703125 20.976562 4.933594 20.976562 C 5.164062 20.976562 5.351562 21.167969 5.351562 21.40625 Z M 5.351562 21.40625 "/>
</g>
<mask id="mask5">
  <g filter="url(#alpha)">
<rect x="0" y="0" width="24" height="23" style="fill:rgb(0%,0%,0%);fill-opacity:0.74902;stroke:none;"/>
  </g>
</mask>
<clipPath id="clip6">
  <rect x="0" y="0" width="24" height="23"/>
</clipPath>
<g id="surface20" clip-path="url(#clip6)">
<path style=" stroke:none;fill-rule:nonzero;fill:rgb(93.333333%,93.333333%,93.333333%);fill-opacity:1;" d="M 10.910156 17.96875 C 10.910156 18.207031 10.722656 18.398438 10.492188 18.398438 C 10.261719 18.398438 10.074219 18.207031 10.074219 17.96875 C 10.074219 17.730469 10.261719 17.539062 10.492188 17.539062 C 10.722656 17.539062 10.910156 17.730469 10.910156 17.96875 Z M 10.910156 17.96875 "/>
</g>
<mask id="mask6">
  <g filter="url(#alpha)">
<rect x="0" y="0" width="24" height="23" style="fill:rgb(0%,0%,0%);fill-opacity:0.74902;stroke:none;"/>
  </g>
</mask>
<clipPath id="clip7">
  <rect x="0" y="0" width="24" height="23"/>
</clipPath>
<g id="surface23" clip-path="url(#clip7)">
<path style=" stroke:none;fill-rule:nonzero;fill:rgb(93.333333%,93.333333%,93.333333%);fill-opacity:1;" d="M 15.621094 20.761719 C 15.621094 20.996094 15.4375 21.191406 15.207031 21.191406 C 14.976562 21.191406 14.789062 20.996094 14.789062 20.761719 C 14.789062 20.523438 14.976562 20.332031 15.207031 20.332031 C 15.4375 20.332031 15.621094 20.523438 15.621094 20.761719 Z M 15.621094 20.761719 "/>
</g>
<mask id="mask7">
  <g filter="url(#alpha)">
<rect x="0" y="0" width="24" height="23" style="fill:rgb(0%,0%,0%);fill-opacity:0.74902;stroke:none;"/>
  </g>
</mask>
<clipPath id="clip8">
  <rect x="0" y="0" width="24" height="23"/>
</clipPath>
<g id="surface26" clip-path="url(#clip8)">
<path style=" stroke:none;fill-rule:nonzero;fill:rgb(93.333333%,93.333333%,93.333333%);fill-opacity:1;" d="M 14.019531 13.269531 C 14.019531 13.507812 13.832031 13.699219 13.601562 13.699219 C 13.371094 13.699219 13.183594 13.507812 13.183594 13.269531 C 13.183594 13.035156 13.371094 12.839844 13.601562 12.839844 C 13.832031 12.839844 14.019531 13.035156 14.019531 13.269531 Z M 14.019531 13.269531 "/>
</g>
</defs>
<g id="surface1">
<path style=" stroke:none;fill-rule:nonzero;fill:rgb(95.294118%,44.313725%,17.647059%);fill-opacity:1;" d="M 21.832031 9.113281 C 21.960938 8.660156 22.03125 8.191406 22.039062 7.71875 L 22.988281 7.21875 L 23.984375 6.695312 L 22.898438 6.429688 L 21.855469 6.175781 C 21.742188 5.71875 21.570312 5.277344 21.34375 4.867188 L 21.921875 3.960938 L 22.539062 3.007812 L 21.460938 3.324219 L 20.433594 3.628906 C 20.105469 3.296875 19.738281 3.007812 19.34375 2.769531 L 19.394531 1.695312 L 19.449219 0.566406 L 18.667969 1.371094 L 17.925781 2.148438 C 17.476562 2.027344 17.011719 1.960938 16.546875 1.953125 L 16.070312 1 L 15.546875 0 L 15.273438 1.097656 L 15.011719 2.148438 C 14.5625 2.269531 14.125 2.445312 13.714844 2.675781 L 12.816406 2.089844 L 11.878906 1.488281 L 12.183594 2.5625 L 12.476562 3.59375 C 12.144531 3.925781 11.851562 4.296875 11.605469 4.703125 L 10.539062 4.660156 L 9.421875 4.609375 L 10.226562 5.398438 L 10.988281 6.140625 C 10.863281 6.597656 10.792969 7.066406 10.78125 7.539062 L 9.832031 8.035156 L 8.835938 8.558594 L 9.921875 8.824219 L 10.964844 9.082031 C 11.082031 9.539062 11.253906 9.976562 11.476562 10.390625 L 10.894531 11.296875 L 10.285156 12.253906 L 11.363281 11.933594 L 12.390625 11.632812 C 12.71875 11.964844 13.085938 12.253906 13.480469 12.492188 L 13.429688 13.566406 L 13.375 14.691406 L 14.152344 13.878906 L 14.894531 13.113281 C 15.347656 13.234375 15.8125 13.300781 16.277344 13.308594 L 16.765625 14.261719 L 17.277344 15.261719 L 17.550781 14.164062 L 17.808594 13.113281 C 18.261719 12.992188 18.699219 12.816406 19.109375 12.585938 L 20.003906 13.160156 L 20.945312 13.765625 L 20.640625 12.683594 L 20.347656 11.648438 C 20.679688 11.316406 20.972656 10.945312 21.214844 10.539062 L 22.28125 10.585938 L 23.398438 10.632812 L 22.597656 9.851562 Z M 21.832031 9.113281 "/>
<path style=" stroke:none;fill-rule:nonzero;fill:rgb(100%,78.431373%,17.254902%);fill-opacity:1;" d="M 21.230469 7.628906 C 21.199219 10.363281 19.027344 12.554688 16.371094 12.535156 C 13.714844 12.511719 11.578125 10.28125 11.589844 7.546875 C 11.601562 4.8125 13.757812 2.601562 16.410156 2.601562 C 19.089844 2.621094 21.246094 4.871094 21.230469 7.628906 Z M 21.230469 7.628906 "/>
<path style=" stroke:none;fill-rule:evenodd;fill:rgb(100%,84.313725%,29.411765%);fill-opacity:1;" d="M 15.785156 3.820312 C 14.007812 4.253906 12.554688 5.574219 11.914062 7.335938 C 12.101562 5.289062 13.511719 3.578125 15.445312 3.054688 C 17.046875 2.652344 18.734375 3.152344 19.882812 4.367188 C 18.636719 3.648438 17.167969 3.449219 15.785156 3.820312 Z M 15.785156 3.820312 "/>
<path style=" stroke:none;fill-rule:nonzero;fill:rgb(86.666667%,86.666667%,86.666667%);fill-opacity:1;" d="M 16.179688 9.929688 C 16.0625 9.929688 15.945312 9.929688 15.828125 9.941406 C 15.292969 8.296875 13.796875 7.1875 12.113281 7.1875 C 11.886719 7.191406 11.660156 7.203125 11.4375 7.230469 C 10.546875 6.433594 9.410156 5.996094 8.230469 6 C 5.652344 6 3.550781 7.898438 3.101562 10.5625 C 1.988281 11.296875 1.261719 12.515625 1.261719 13.707031 C 1.285156 15.816406 2.960938 17.507812 5.007812 17.488281 L 16.179688 17.488281 C 18.304688 17.488281 20.105469 15.765625 20.105469 13.707031 C 20.105469 11.648438 18.304688 9.929688 16.179688 9.929688 Z M 16.179688 9.929688 "/>
<path style=" stroke:none;fill-rule:evenodd;fill:rgb(80%,80%,80%);fill-opacity:1;" d="M 18.847656 15.503906 C 18.640625 15.957031 18.363281 16.375 18.03125 16.746094 C 18.714844 16.398438 19.265625 15.828125 19.597656 15.121094 C 20.359375 13.472656 19.617188 11.570312 17.949219 10.746094 C 19.273438 11.691406 19.695312 13.671875 18.847656 15.503906 Z M 18.847656 15.503906 "/>
<use xlink:href="#surface5" mask="url(#mask0)"/>
<use xlink:href="#surface8" mask="url(#mask1)"/>
<use xlink:href="#surface11" mask="url(#mask2)"/>
<use xlink:href="#surface14" mask="url(#mask3)"/>
<use xlink:href="#surface17" mask="url(#mask4)"/>
<use xlink:href="#surface20" mask="url(#mask5)"/>
<use xlink:href="#surface23" mask="url(#mask6)"/>
<use xlink:href="#surface26" mask="url(#mask7)"/>
</g>
</svg>
