<?xml version="1.0" encoding="UTF-8"?>
<svg xmlns="http://www.w3.org/2000/svg" xmlns:xlink="http://www.w3.org/1999/xlink" width="25px" height="px" viewBox="0 0 24 22" version="1.1">
<defs>
<filter id="alpha" filterUnits="objectBoundingBox" x="0%" y="0%" width="100%" height="100%">
  <feColorMatrix type="matrix" in="SourceGraphic" values="0 0 0 0 1 0 0 0 0 1 0 0 0 0 1 0 0 0 1 0"/>
</filter>
<mask id="mask0">
  <g filter="url(#alpha)">
<rect x="0" y="0" width="24" height="22" style="fill:rgb(0%,0%,0%);fill-opacity:0.6;stroke:none;"/>
  </g>
</mask>
<clipPath id="clip1">
  <rect x="0" y="0" width="24" height="22"/>
</clipPath>
<g id="surface5" clip-path="url(#clip1)">
<path style=" stroke:none;fill-rule:nonzero;fill:rgb(93.333333%,93.333333%,93.333333%);fill-opacity:1;" d="M 14.5 14.691406 C 14.351562 14.691406 14.203125 14.691406 14.058594 14.691406 C 12.058594 14.5625 10.34375 13.457031 8.828125 12.5 L 8.570312 12.335938 C 6.507812 11.027344 3.332031 10.585938 1.242188 12.71875 C 0.953125 13.007812 0.492188 13.003906 0.207031 12.710938 C -0.078125 12.417969 -0.0742188 11.945312 0.214844 11.65625 C 2.074219 9.761719 5.722656 8.769531 9.339844 11.066406 L 9.597656 11.230469 C 11.035156 12.148438 12.507812 13.09375 14.148438 13.210938 C 15.644531 13.324219 17.117188 12.785156 18.203125 11.726562 C 18.484375 11.4375 18.945312 11.4375 19.230469 11.726562 C 19.515625 12.015625 19.515625 12.488281 19.230469 12.777344 C 17.960938 14.019531 16.261719 14.707031 14.5 14.691406 Z M 14.5 14.691406 "/>
</g>
<mask id="mask1">
  <g filter="url(#alpha)">
<rect x="0" y="0" width="24" height="22" style="fill:rgb(0%,0%,0%);fill-opacity:0.74902;stroke:none;"/>
  </g>
</mask>
<clipPath id="clip2">
  <rect x="0" y="0" width="24" height="22"/>
</clipPath>
<g id="surface8" clip-path="url(#clip2)">
<path style=" stroke:none;fill-rule:nonzero;fill:rgb(93.333333%,93.333333%,93.333333%);fill-opacity:1;" d="M 14.5 18.308594 C 14.351562 18.308594 14.203125 18.308594 14.058594 18.308594 C 12.058594 18.175781 10.34375 17.070312 8.828125 16.113281 L 8.570312 15.953125 C 6.507812 14.628906 3.332031 14.1875 1.242188 16.316406 C 0.953125 16.566406 0.523438 16.550781 0.253906 16.277344 C -0.015625 16.003906 -0.03125 15.566406 0.214844 15.269531 C 2.074219 13.375 5.722656 12.382812 9.339844 14.679688 L 9.597656 14.847656 C 11.035156 15.761719 12.507812 16.707031 14.148438 16.824219 C 15.644531 16.9375 17.117188 16.398438 18.203125 15.339844 C 18.484375 15.050781 18.945312 15.050781 19.230469 15.339844 C 19.515625 15.628906 19.515625 16.101562 19.230469 16.390625 C 17.960938 17.636719 16.261719 18.324219 14.5 18.308594 Z M 14.5 18.308594 "/>
</g>
<mask id="mask2">
  <g filter="url(#alpha)">
<rect x="0" y="0" width="24" height="22" style="fill:rgb(0%,0%,0%);fill-opacity:0.901961;stroke:none;"/>
  </g>
</mask>
<clipPath id="clip3">
  <rect x="0" y="0" width="24" height="22"/>
</clipPath>
<g id="surface11" clip-path="url(#clip3)">
<path style=" stroke:none;fill-rule:nonzero;fill:rgb(93.333333%,93.333333%,93.333333%);fill-opacity:1;" d="M 14.496094 21.921875 C 14.351562 21.921875 14.203125 21.921875 14.058594 21.910156 C 12.0625 21.777344 10.34375 20.671875 8.828125 19.71875 L 8.570312 19.554688 C 6.507812 18.242188 3.332031 17.796875 1.242188 19.933594 C 1.058594 20.132812 0.785156 20.214844 0.527344 20.144531 C 0.273438 20.078125 0.0703125 19.875 0.00390625 19.613281 C -0.0625 19.347656 0.0195312 19.070312 0.214844 18.886719 C 2.074219 16.988281 5.722656 15.996094 9.339844 18.292969 L 9.601562 18.457031 C 11.035156 19.371094 12.507812 20.320312 14.148438 20.433594 C 15.644531 20.546875 17.117188 20.007812 18.203125 18.953125 C 18.484375 18.660156 18.945312 18.660156 19.230469 18.953125 C 19.515625 19.242188 19.515625 19.710938 19.230469 20.003906 C 17.960938 21.246094 16.261719 21.9375 14.496094 21.921875 Z M 14.496094 21.921875 "/>
</g>
<mask id="mask3">
  <g filter="url(#alpha)">
<rect x="0" y="0" width="24" height="22" style="fill:rgb(0%,0%,0%);fill-opacity:0.74902;stroke:none;"/>
  </g>
</mask>
<clipPath id="clip4">
  <rect x="0" y="0" width="24" height="22"/>
</clipPath>
<g id="surface14" clip-path="url(#clip4)">
<path style=" stroke:none;fill-rule:nonzero;fill:rgb(93.333333%,93.333333%,93.333333%);fill-opacity:1;" d="M 3.058594 12.21875 C 3.058594 12.492188 2.84375 12.714844 2.574219 12.714844 C 2.308594 12.714844 2.089844 12.492188 2.089844 12.21875 C 2.089844 11.945312 2.308594 11.722656 2.574219 11.722656 C 2.84375 11.722656 3.058594 11.945312 3.058594 12.21875 Z M 3.058594 12.21875 "/>
</g>
<mask id="mask4">
  <g filter="url(#alpha)">
<rect x="0" y="0" width="24" height="22" style="fill:rgb(0%,0%,0%);fill-opacity:0.74902;stroke:none;"/>
  </g>
</mask>
<clipPath id="clip5">
  <rect x="0" y="0" width="24" height="22"/>
</clipPath>
<g id="surface17" clip-path="url(#clip5)">
<path style=" stroke:none;fill-rule:nonzero;fill:rgb(93.333333%,93.333333%,93.333333%);fill-opacity:1;" d="M 6.214844 20.070312 C 6.214844 20.34375 6 20.566406 5.730469 20.566406 C 5.464844 20.566406 5.246094 20.34375 5.246094 20.070312 C 5.246094 19.800781 5.464844 19.578125 5.730469 19.578125 C 6 19.578125 6.214844 19.800781 6.214844 20.070312 Z M 6.214844 20.070312 "/>
</g>
<mask id="mask5">
  <g filter="url(#alpha)">
<rect x="0" y="0" width="24" height="22" style="fill:rgb(0%,0%,0%);fill-opacity:0.74902;stroke:none;"/>
  </g>
</mask>
<clipPath id="clip6">
  <rect x="0" y="0" width="24" height="22"/>
</clipPath>
<g id="surface20" clip-path="url(#clip6)">
<path style=" stroke:none;fill-rule:nonzero;fill:rgb(93.333333%,93.333333%,93.333333%);fill-opacity:1;" d="M 12.675781 16.121094 C 12.675781 16.390625 12.457031 16.613281 12.1875 16.613281 C 11.921875 16.613281 11.703125 16.390625 11.703125 16.121094 C 11.703125 15.847656 11.921875 15.625 12.1875 15.625 C 12.457031 15.625 12.675781 15.847656 12.675781 16.121094 Z M 12.675781 16.121094 "/>
</g>
<mask id="mask6">
  <g filter="url(#alpha)">
<rect x="0" y="0" width="24" height="22" style="fill:rgb(0%,0%,0%);fill-opacity:0.74902;stroke:none;"/>
  </g>
</mask>
<clipPath id="clip7">
  <rect x="0" y="0" width="24" height="22"/>
</clipPath>
<g id="surface23" clip-path="url(#clip7)">
<path style=" stroke:none;fill-rule:nonzero;fill:rgb(93.333333%,93.333333%,93.333333%);fill-opacity:1;" d="M 18.148438 19.332031 C 18.148438 19.601562 17.929688 19.824219 17.664062 19.824219 C 17.394531 19.824219 17.179688 19.601562 17.179688 19.332031 C 17.179688 19.058594 17.394531 18.835938 17.664062 18.835938 C 17.929688 18.835938 18.148438 19.058594 18.148438 19.332031 Z M 18.148438 19.332031 "/>
</g>
<mask id="mask7">
  <g filter="url(#alpha)">
<rect x="0" y="0" width="24" height="22" style="fill:rgb(0%,0%,0%);fill-opacity:0.74902;stroke:none;"/>
  </g>
</mask>
<clipPath id="clip8">
  <rect x="0" y="0" width="24" height="22"/>
</clipPath>
<g id="surface26" clip-path="url(#clip8)">
<path style=" stroke:none;fill-rule:nonzero;fill:rgb(93.333333%,93.333333%,93.333333%);fill-opacity:1;" d="M 16.285156 10.71875 C 16.285156 10.992188 16.070312 11.210938 15.800781 11.210938 C 15.535156 11.210938 15.316406 10.992188 15.316406 10.71875 C 15.316406 10.445312 15.535156 10.222656 15.800781 10.222656 C 16.070312 10.222656 16.285156 10.445312 16.285156 10.71875 Z M 16.285156 10.71875 "/>
</g>
</defs>
<g id="surface1">
<path style=" stroke:none;fill-rule:evenodd;fill:rgb(80%,80%,80%);fill-opacity:1;" d="M 22.367188 13.46875 C 22.117188 14 21.789062 14.484375 21.394531 14.914062 C 22.199219 14.511719 22.847656 13.84375 23.238281 13.023438 C 24.140625 11.105469 23.273438 8.898438 21.296875 7.910156 C 22.867188 9.03125 23.359375 11.335938 22.367188 13.46875 Z M 22.367188 13.46875 "/>
<path style=" stroke:none;fill-rule:nonzero;fill:rgb(86.666667%,86.666667%,86.666667%);fill-opacity:1;" d="M 19.222656 6.976562 C 19.085938 6.976562 18.949219 6.976562 18.816406 6.992188 C 18.1875 5.074219 16.433594 3.78125 14.449219 3.777344 C 14.183594 3.78125 13.917969 3.796875 13.652344 3.828125 C 12.605469 2.902344 11.261719 2.394531 9.875 2.402344 C 6.839844 2.402344 4.363281 4.609375 3.84375 7.714844 C 2.53125 8.570312 1.675781 9.988281 1.675781 11.371094 C 1.699219 13.828125 3.671875 15.800781 6.082031 15.777344 L 19.222656 15.777344 C 21.726562 15.777344 23.832031 13.761719 23.832031 11.375 C 23.832031 8.988281 21.726562 6.976562 19.222656 6.976562 Z M 21.40625 14.914062 C 21.800781 14.484375 22.125 14 22.375 13.46875 C 23.371094 11.335938 22.875 9.019531 21.308594 7.917969 C 23.273438 8.898438 24.140625 11.105469 23.246094 13.023438 C 22.855469 13.84375 22.207031 14.511719 21.402344 14.914062 Z M 21.40625 14.914062 "/>
<path style=" stroke:none;fill-rule:evenodd;fill:rgb(100%,84.313725%,29.411765%);fill-opacity:1;" d="M 14.445312 3.785156 C 14.769531 3.785156 15.09375 3.820312 15.414062 3.890625 C 15.699219 3.761719 15.996094 3.660156 16.296875 3.582031 C 17.609375 3.234375 19 3.417969 20.175781 4.097656 C 19.089844 2.953125 17.492188 2.480469 15.972656 2.859375 C 15.324219 3.027344 14.722656 3.34375 14.210938 3.785156 Z M 14.445312 3.785156 "/>
<path style=" stroke:none;fill-rule:nonzero;fill:rgb(95.294118%,44.313725%,17.647059%);fill-opacity:1;" d="M 22.136719 7.992188 C 22.179688 7.742188 22.203125 7.488281 22.210938 7.234375 L 23.109375 6.769531 L 24.050781 6.273438 L 23.027344 6.027344 L 22.054688 5.78125 C 21.945312 5.347656 21.785156 4.933594 21.570312 4.542969 L 22.109375 3.707031 L 22.683594 2.8125 L 21.664062 3.113281 L 20.691406 3.394531 C 20.382812 3.082031 20.035156 2.808594 19.65625 2.582031 L 19.710938 1.570312 L 19.761719 0.515625 L 19.035156 1.28125 L 18.328125 2.023438 C 17.902344 1.90625 17.460938 1.84375 17.019531 1.839844 L 16.558594 0.945312 L 16.066406 0 L 15.804688 1.027344 L 15.5625 2.015625 C 15.132812 2.125 14.722656 2.292969 14.332031 2.507812 L 13.480469 1.960938 L 12.589844 1.394531 L 12.878906 2.410156 L 13.15625 3.375 L 13.109375 3.425781 C 13.289062 3.550781 13.46875 3.671875 13.644531 3.832031 C 14.496094 2.941406 15.664062 2.441406 16.882812 2.441406 C 19.414062 2.460938 21.457031 4.566406 21.449219 7.152344 C 21.449219 7.28125 21.449219 7.398438 21.429688 7.53125 "/>
<path style=" stroke:none;fill-rule:nonzero;fill:rgb(100%,78.431373%,17.254902%);fill-opacity:1;" d="M 16.882812 2.441406 C 15.664062 2.441406 14.496094 2.941406 13.644531 3.832031 C 13.84375 3.808594 14.042969 3.792969 14.207031 3.785156 C 14.714844 3.34375 15.320312 3.027344 15.96875 2.859375 C 17.484375 2.480469 19.085938 2.953125 20.171875 4.097656 C 18.992188 3.417969 17.601562 3.234375 16.292969 3.582031 C 15.988281 3.660156 15.695312 3.761719 15.410156 3.890625 C 17 4.238281 18.296875 5.414062 18.816406 6.992188 C 18.949219 6.992188 19.085938 6.976562 19.222656 6.976562 C 19.992188 6.976562 20.746094 7.167969 21.429688 7.53125 C 21.429688 7.40625 21.449219 7.28125 21.449219 7.152344 C 21.457031 4.566406 19.414062 2.460938 16.882812 2.441406 Z M 16.882812 2.441406 "/>
<use xlink:href="#surface5" mask="url(#mask0)"/>
<use xlink:href="#surface8" mask="url(#mask1)"/>
<use xlink:href="#surface11" mask="url(#mask2)"/>
<use xlink:href="#surface14" mask="url(#mask3)"/>
<use xlink:href="#surface17" mask="url(#mask4)"/>
<use xlink:href="#surface20" mask="url(#mask5)"/>
<use xlink:href="#surface23" mask="url(#mask6)"/>
<use xlink:href="#surface26" mask="url(#mask7)"/>
</g>
</svg>
