<?xml version="1.0" encoding="UTF-8"?>
<svg xmlns="http://www.w3.org/2000/svg" xmlns:xlink="http://www.w3.org/1999/xlink" width="25px" height="px" viewBox="0 0 25 24" version="1.1">
<g id="surface1">
<path style=" stroke:none;fill-rule:nonzero;fill:rgb(95.294118%,44.313725%,17.647059%);fill-opacity:1;" d="M 22.738281 9.09375 C 22.871094 8.640625 22.945312 8.171875 22.957031 7.699219 L 23.960938 7.203125 L 25.015625 6.675781 L 23.867188 6.410156 L 22.78125 6.148438 C 22.65625 5.691406 22.472656 5.253906 22.238281 4.84375 L 22.84375 3.957031 L 23.484375 3.007812 L 22.34375 3.320312 L 21.257812 3.625 C 20.914062 3.285156 20.527344 2.992188 20.109375 2.75 L 20.164062 1.679688 L 20.21875 0.554688 L 19.402344 1.367188 L 18.605469 2.144531 C 18.128906 2.019531 17.636719 1.953125 17.140625 1.949219 L 16.628906 0.996094 L 16.085938 0 L 15.796875 1.09375 L 15.523438 2.148438 C 15.042969 2.265625 14.582031 2.441406 14.148438 2.675781 L 13.195312 2.085938 L 12.199219 1.484375 L 12.523438 2.5625 L 12.835938 3.59375 C 12.480469 3.925781 12.171875 4.296875 11.914062 4.699219 L 10.785156 4.65625 L 9.601562 4.609375 L 10.449219 5.386719 L 11.265625 6.125 C 11.132812 6.578125 11.058594 7.046875 11.050781 7.519531 L 10.042969 8.019531 L 8.992188 8.546875 L 10.136719 8.808594 L 11.226562 9.074219 C 11.347656 9.527344 11.53125 9.96875 11.769531 10.378906 L 11.15625 11.28125 L 10.511719 12.230469 L 11.652344 11.914062 L 12.738281 11.613281 C 13.085938 11.949219 13.476562 12.238281 13.898438 12.480469 L 13.839844 13.554688 L 13.78125 14.675781 L 14.597656 13.863281 L 15.382812 13.089844 C 15.859375 13.214844 16.351562 13.277344 16.847656 13.285156 L 17.363281 14.238281 L 17.90625 15.234375 L 18.207031 14.125 L 18.476562 13.070312 C 18.957031 12.949219 19.417969 12.773438 19.851562 12.542969 L 20.800781 13.117188 L 21.796875 13.71875 L 21.46875 12.660156 L 21.167969 11.625 C 21.519531 11.292969 21.828125 10.921875 22.085938 10.519531 L 23.21875 10.5625 L 24.398438 10.609375 L 23.550781 9.835938 Z M 22.738281 9.09375 "/>
<path style=" stroke:none;fill-rule:nonzero;fill:rgb(100%,78.431373%,17.254902%);fill-opacity:1;" d="M 22.101562 7.609375 C 22.070312 10.335938 19.769531 12.523438 16.960938 12.503906 C 14.148438 12.480469 11.886719 10.257812 11.898438 7.53125 C 11.90625 4.804688 14.1875 2.597656 17 2.597656 C 19.835938 2.613281 22.117188 4.859375 22.101562 7.609375 Z M 22.101562 7.609375 "/>
<path style=" stroke:none;fill-rule:evenodd;fill:rgb(100%,84.313725%,29.411765%);fill-opacity:1;" d="M 16.339844 3.8125 C 14.453125 4.238281 12.910156 5.554688 12.226562 7.320312 C 12.429688 5.273438 13.929688 3.566406 15.976562 3.046875 C 17.675781 2.644531 19.464844 3.148438 20.679688 4.363281 C 19.359375 3.640625 17.804688 3.445312 16.339844 3.8125 Z M 16.339844 3.8125 "/>
<path style=" stroke:none;fill-rule:nonzero;fill:rgb(86.666667%,86.666667%,86.666667%);fill-opacity:1;" d="M 19.617188 7.421875 C 19.464844 7.421875 19.3125 7.421875 19.160156 7.441406 C 18.453125 5.402344 16.484375 4.027344 14.269531 4.027344 C 13.972656 4.03125 13.671875 4.046875 13.378906 4.078125 C 12.210938 3.09375 10.714844 2.554688 9.164062 2.558594 C 5.773438 2.558594 3.011719 4.90625 2.421875 8.210938 C 0.953125 9.121094 0 10.632812 0 12.109375 C 0.0390625 14.714844 2.234375 16.808594 4.925781 16.789062 L 19.617188 16.789062 C 22.414062 16.789062 24.78125 14.644531 24.78125 12.109375 C 24.78125 9.570312 22.414062 7.421875 19.617188 7.421875 Z M 19.617188 7.421875 "/>
<path style=" stroke:none;fill-rule:evenodd;fill:rgb(80%,80%,80%);fill-opacity:1;" d="M 22.859375 14.335938 C 22.578125 14.898438 22.210938 15.414062 21.773438 15.871094 C 22.667969 15.441406 23.394531 14.734375 23.832031 13.859375 C 24.832031 11.816406 23.855469 9.457031 21.65625 8.425781 C 23.417969 9.609375 23.96875 12.066406 22.859375 14.335938 Z M 22.859375 14.335938 "/>
<path style=" stroke:none;fill-rule:nonzero;fill:rgb(0%,73.72549%,83.137255%);fill-opacity:1;" d="M 7.511719 15.433594 C 7.484375 15.433594 5.121094 17.542969 4.867188 18.429688 C 4.636719 19.316406 5.175781 20.21875 6.082031 20.460938 C 6.988281 20.703125 7.929688 20.195312 8.199219 19.320312 C 8.449219 18.425781 7.539062 15.4375 7.511719 15.433594 Z M 7.511719 15.433594 "/>
<path style=" stroke:none;fill-rule:nonzero;fill:rgb(0%,73.72549%,83.137255%);fill-opacity:1;" d="M 6.410156 23.046875 C 6.410156 23.589844 5.957031 24.03125 5.394531 24.03125 C 4.832031 24.03125 4.378906 23.589844 4.378906 23.046875 C 4.378906 22.5 4.832031 22.058594 5.394531 22.058594 C 5.957031 22.058594 6.410156 22.5 6.410156 23.046875 Z M 6.410156 23.046875 "/>
</g>
</svg>
