<?xml version="1.0" encoding="UTF-8"?>
<svg xmlns="http://www.w3.org/2000/svg" xmlns:xlink="http://www.w3.org/1999/xlink" width="25px" height="px" viewBox="0 0 24 20" version="1.1">
<defs>
<filter id="alpha" filterUnits="objectBoundingBox" x="0%" y="0%" width="100%" height="100%">
  <feColorMatrix type="matrix" in="SourceGraphic" values="0 0 0 0 1 0 0 0 0 1 0 0 0 0 1 0 0 0 1 0"/>
</filter>
<mask id="mask0">
  <g filter="url(#alpha)">
<rect x="0" y="0" width="24" height="20" style="fill:rgb(0%,0%,0%);fill-opacity:0.6;stroke:none;"/>
  </g>
</mask>
<clipPath id="clip1">
  <rect x="0" y="0" width="24" height="20"/>
</clipPath>
<g id="surface5" clip-path="url(#clip1)">
<path style=" stroke:none;fill-rule:nonzero;fill:rgb(93.333333%,93.333333%,93.333333%);fill-opacity:1;" d="M 19.488281 13.488281 C 19.359375 13.488281 19.226562 13.488281 19.097656 13.476562 C 17.316406 13.359375 15.785156 12.378906 14.433594 11.53125 L 14.203125 11.382812 C 12.363281 10.21875 9.53125 9.828125 7.667969 11.722656 C 7.410156 11.964844 7.011719 11.957031 6.765625 11.707031 C 6.519531 11.457031 6.511719 11.050781 6.75 10.792969 C 8.410156 9.105469 11.664062 8.222656 14.886719 10.265625 L 15.121094 10.410156 C 16.402344 11.226562 17.714844 12.066406 19.179688 12.167969 C 20.515625 12.269531 21.828125 11.789062 22.792969 10.851562 C 23.046875 10.59375 23.457031 10.59375 23.710938 10.851562 C 23.964844 11.109375 23.964844 11.527344 23.710938 11.785156 C 22.578125 12.890625 21.0625 13.503906 19.488281 13.488281 Z M 19.488281 13.488281 "/>
</g>
<mask id="mask1">
  <g filter="url(#alpha)">
<rect x="0" y="0" width="24" height="20" style="fill:rgb(0%,0%,0%);fill-opacity:0.74902;stroke:none;"/>
  </g>
</mask>
<clipPath id="clip2">
  <rect x="0" y="0" width="24" height="20"/>
</clipPath>
<g id="surface8" clip-path="url(#clip2)">
<path style=" stroke:none;fill-rule:nonzero;fill:rgb(93.333333%,93.333333%,93.333333%);fill-opacity:1;" d="M 19.488281 16.703125 C 19.359375 16.703125 19.226562 16.703125 19.097656 16.691406 C 17.316406 16.574219 15.785156 15.589844 14.433594 14.742188 L 14.203125 14.597656 C 12.363281 13.433594 9.53125 13.039062 7.667969 14.9375 C 7.503906 15.113281 7.261719 15.183594 7.03125 15.125 C 6.800781 15.066406 6.621094 14.882812 6.5625 14.648438 C 6.503906 14.417969 6.578125 14.167969 6.75 14.003906 C 8.410156 12.320312 11.664062 11.429688 14.886719 13.480469 L 15.121094 13.625 C 16.402344 14.441406 17.714844 15.277344 19.179688 15.382812 C 20.515625 15.480469 21.828125 15.003906 22.792969 14.0625 C 23.046875 13.804688 23.457031 13.804688 23.710938 14.0625 C 23.964844 14.320312 23.964844 14.738281 23.710938 14.996094 C 22.578125 16.105469 21.0625 16.71875 19.488281 16.703125 Z M 19.488281 16.703125 "/>
</g>
<mask id="mask2">
  <g filter="url(#alpha)">
<rect x="0" y="0" width="24" height="20" style="fill:rgb(0%,0%,0%);fill-opacity:0.901961;stroke:none;"/>
  </g>
</mask>
<clipPath id="clip3">
  <rect x="0" y="0" width="24" height="20"/>
</clipPath>
<g id="surface11" clip-path="url(#clip3)">
<path style=" stroke:none;fill-rule:nonzero;fill:rgb(93.333333%,93.333333%,93.333333%);fill-opacity:1;" d="M 19.488281 19.917969 C 19.359375 19.917969 19.226562 19.917969 19.097656 19.90625 C 17.316406 19.78125 15.785156 18.816406 14.433594 17.957031 L 14.203125 17.800781 C 12.363281 16.636719 9.53125 16.246094 7.667969 18.140625 C 7.503906 18.316406 7.261719 18.390625 7.03125 18.328125 C 6.800781 18.269531 6.621094 18.089844 6.5625 17.855469 C 6.503906 17.621094 6.578125 17.375 6.75 17.207031 C 8.40625 15.53125 11.664062 14.648438 14.886719 16.703125 L 15.121094 16.851562 C 16.402344 17.664062 17.714844 18.503906 19.179688 18.609375 C 20.515625 18.707031 21.828125 18.230469 22.792969 17.289062 C 23.046875 17.03125 23.457031 17.03125 23.710938 17.289062 C 23.964844 17.546875 23.964844 17.964844 23.710938 18.222656 C 22.574219 19.328125 21.058594 19.933594 19.488281 19.917969 Z M 19.488281 19.917969 "/>
</g>
<mask id="mask3">
  <g filter="url(#alpha)">
<rect x="0" y="0" width="24" height="20" style="fill:rgb(0%,0%,0%);fill-opacity:0.74902;stroke:none;"/>
  </g>
</mask>
<clipPath id="clip4">
  <rect x="0" y="0" width="24" height="20"/>
</clipPath>
<g id="surface14" clip-path="url(#clip4)">
<path style=" stroke:none;fill-rule:nonzero;fill:rgb(93.333333%,93.333333%,93.333333%);fill-opacity:1;" d="M 9.289062 11.289062 C 9.289062 11.53125 9.09375 11.730469 8.855469 11.730469 C 8.617188 11.730469 8.421875 11.53125 8.421875 11.289062 C 8.421875 11.046875 8.617188 10.851562 8.855469 10.851562 C 9.09375 10.851562 9.289062 11.046875 9.289062 11.289062 Z M 9.289062 11.289062 "/>
</g>
<mask id="mask4">
  <g filter="url(#alpha)">
<rect x="0" y="0" width="24" height="20" style="fill:rgb(0%,0%,0%);fill-opacity:0.74902;stroke:none;"/>
  </g>
</mask>
<clipPath id="clip5">
  <rect x="0" y="0" width="24" height="20"/>
</clipPath>
<g id="surface17" clip-path="url(#clip5)">
<path style=" stroke:none;fill-rule:nonzero;fill:rgb(93.333333%,93.333333%,93.333333%);fill-opacity:1;" d="M 12.101562 18.273438 C 12.101562 18.515625 11.90625 18.710938 11.667969 18.710938 C 11.429688 18.710938 11.238281 18.515625 11.238281 18.273438 C 11.238281 18.03125 11.429688 17.832031 11.667969 17.832031 C 11.90625 17.832031 12.101562 18.03125 12.101562 18.273438 Z M 12.101562 18.273438 "/>
</g>
<mask id="mask5">
  <g filter="url(#alpha)">
<rect x="0" y="0" width="24" height="20" style="fill:rgb(0%,0%,0%);fill-opacity:0.74902;stroke:none;"/>
  </g>
</mask>
<clipPath id="clip6">
  <rect x="0" y="0" width="24" height="20"/>
</clipPath>
<g id="surface20" clip-path="url(#clip6)">
<path style=" stroke:none;fill-rule:nonzero;fill:rgb(93.333333%,93.333333%,93.333333%);fill-opacity:1;" d="M 17.863281 14.757812 C 17.863281 15 17.671875 15.199219 17.429688 15.199219 C 17.191406 15.199219 17 15 17 14.757812 C 17 14.515625 17.191406 14.320312 17.429688 14.320312 C 17.671875 14.320312 17.863281 14.515625 17.863281 14.757812 Z M 17.863281 14.757812 "/>
</g>
<mask id="mask6">
  <g filter="url(#alpha)">
<rect x="0" y="0" width="24" height="20" style="fill:rgb(0%,0%,0%);fill-opacity:0.74902;stroke:none;"/>
  </g>
</mask>
<clipPath id="clip7">
  <rect x="0" y="0" width="24" height="20"/>
</clipPath>
<g id="surface23" clip-path="url(#clip7)">
<path style=" stroke:none;fill-rule:nonzero;fill:rgb(93.333333%,93.333333%,93.333333%);fill-opacity:1;" d="M 22.746094 17.613281 C 22.746094 17.855469 22.550781 18.054688 22.3125 18.054688 C 22.074219 18.054688 21.882812 17.855469 21.882812 17.613281 C 21.882812 17.371094 22.074219 17.171875 22.3125 17.171875 C 22.550781 17.171875 22.746094 17.371094 22.746094 17.613281 Z M 22.746094 17.613281 "/>
</g>
<mask id="mask7">
  <g filter="url(#alpha)">
<rect x="0" y="0" width="24" height="20" style="fill:rgb(0%,0%,0%);fill-opacity:0.74902;stroke:none;"/>
  </g>
</mask>
<clipPath id="clip8">
  <rect x="0" y="0" width="24" height="20"/>
</clipPath>
<g id="surface26" clip-path="url(#clip8)">
<path style=" stroke:none;fill-rule:nonzero;fill:rgb(93.333333%,93.333333%,93.333333%);fill-opacity:1;" d="M 21.085938 9.957031 C 21.085938 10.199219 20.890625 10.394531 20.652344 10.394531 C 20.414062 10.394531 20.21875 10.199219 20.21875 9.957031 C 20.21875 9.714844 20.414062 9.515625 20.652344 9.515625 C 20.890625 9.515625 21.085938 9.714844 21.085938 9.957031 Z M 21.085938 9.957031 "/>
</g>
</defs>
<g id="surface1">
<path style=" stroke:none;fill-rule:nonzero;fill:rgb(95.294118%,44.313725%,17.647059%);fill-opacity:1;" d="M 18.09375 7.578125 C 18.199219 7.199219 18.257812 6.808594 18.265625 6.414062 L 19.066406 6.003906 L 19.90625 5.5625 L 18.992188 5.34375 L 18.125 5.125 C 18.027344 4.742188 17.882812 4.378906 17.691406 4.035156 L 18.175781 3.296875 L 18.683594 2.503906 L 17.78125 2.765625 L 16.914062 3.019531 C 16.640625 2.738281 16.332031 2.496094 16 2.292969 L 16.046875 1.398438 L 16.085938 0.460938 L 15.4375 1.140625 L 14.804688 1.785156 C 14.425781 1.683594 14.03125 1.628906 13.640625 1.625 L 13.230469 0.832031 L 12.800781 0 L 12.570312 0.910156 L 12.351562 1.789062 C 11.96875 1.886719 11.601562 2.035156 11.257812 2.230469 L 10.5 1.738281 L 9.707031 1.238281 L 9.964844 2.136719 L 10.210938 2.996094 C 9.933594 3.269531 9.6875 3.582031 9.480469 3.917969 L 8.582031 3.882812 L 7.640625 3.839844 L 8.316406 4.488281 L 8.964844 5.105469 C 8.859375 5.484375 8.800781 5.875 8.792969 6.265625 L 7.992188 6.679688 L 7.15625 7.121094 L 8.066406 7.339844 L 8.933594 7.558594 C 9.03125 7.941406 9.175781 8.304688 9.363281 8.648438 L 8.875 9.402344 L 8.367188 10.195312 L 9.269531 9.929688 L 10.136719 9.679688 C 10.414062 9.957031 10.722656 10.199219 11.058594 10.398438 L 11.011719 11.292969 L 10.964844 12.230469 L 11.613281 11.554688 L 12.238281 10.90625 C 12.621094 11.011719 13.011719 11.066406 13.40625 11.070312 L 13.816406 11.863281 L 14.25 12.695312 L 14.488281 11.769531 L 14.703125 10.890625 C 15.082031 10.792969 15.449219 10.644531 15.796875 10.453125 L 16.550781 10.933594 L 17.34375 11.433594 L 17.082031 10.550781 L 16.84375 9.6875 C 17.125 9.410156 17.367188 9.101562 17.574219 8.765625 L 18.472656 8.800781 L 19.414062 8.839844 L 18.738281 8.195312 Z M 18.09375 7.578125 "/>
<path style=" stroke:none;fill-rule:nonzero;fill:rgb(100%,78.431373%,17.254902%);fill-opacity:1;" d="M 17.585938 6.339844 C 17.5625 8.613281 15.730469 10.4375 13.496094 10.417969 C 11.257812 10.402344 9.457031 8.550781 9.464844 6.277344 C 9.476562 4.003906 11.289062 2.164062 13.527344 2.164062 C 15.78125 2.179688 17.597656 4.046875 17.585938 6.339844 Z M 17.585938 6.339844 "/>
<path style=" stroke:none;fill-rule:evenodd;fill:rgb(100%,84.313725%,29.411765%);fill-opacity:1;" d="M 13 3.175781 C 11.5 3.535156 10.269531 4.628906 9.730469 6.097656 C 9.890625 4.394531 11.082031 2.972656 12.714844 2.539062 C 14.0625 2.203125 15.488281 2.621094 16.453125 3.636719 C 15.40625 3.035156 14.167969 2.871094 13 3.175781 Z M 13 3.175781 "/>
<path style=" stroke:none;fill-rule:nonzero;fill:rgb(86.666667%,86.666667%,86.666667%);fill-opacity:1;" d="M 15.609375 6.183594 C 15.488281 6.183594 15.367188 6.183594 15.246094 6.199219 C 14.683594 4.5 13.117188 3.355469 11.351562 3.355469 C 11.117188 3.359375 10.878906 3.375 10.644531 3.398438 C 9.714844 2.578125 8.523438 2.128906 7.292969 2.132812 C 4.59375 2.132812 2.394531 4.089844 1.925781 6.839844 C 0.757812 7.601562 0 8.859375 0 10.089844 C 0.03125 12.265625 1.777344 14.007812 3.917969 13.992188 L 15.609375 13.992188 C 17.835938 13.992188 19.714844 12.203125 19.714844 10.089844 C 19.714844 7.976562 17.835938 6.183594 15.609375 6.183594 Z M 15.609375 6.183594 "/>
<path style=" stroke:none;fill-rule:evenodd;fill:rgb(80%,80%,80%);fill-opacity:1;" d="M 18.1875 11.945312 C 17.964844 12.414062 17.671875 12.847656 17.324219 13.226562 C 18.039062 12.867188 18.613281 12.277344 18.960938 11.550781 C 19.757812 9.847656 18.980469 7.882812 17.234375 7.023438 C 18.632812 8.007812 19.074219 10.054688 18.1875 11.945312 Z M 18.1875 11.945312 "/>
<path style=" stroke:none;fill-rule:nonzero;fill:rgb(0%,73.72549%,83.137255%);fill-opacity:1;" d="M 5.976562 12.863281 C 5.953125 12.863281 4.074219 14.621094 3.871094 15.359375 C 3.6875 16.097656 4.117188 16.847656 4.839844 17.050781 C 5.5625 17.253906 6.308594 16.832031 6.523438 16.101562 C 6.722656 15.355469 5.996094 12.867188 5.976562 12.863281 Z M 5.976562 12.863281 "/>
<path style=" stroke:none;fill-rule:nonzero;fill:rgb(0%,73.72549%,83.137255%);fill-opacity:1;" d="M 5.101562 19.203125 C 5.101562 19.660156 4.738281 20.027344 4.292969 20.027344 C 3.84375 20.027344 3.484375 19.660156 3.484375 19.203125 C 3.484375 18.75 3.84375 18.382812 4.292969 18.382812 C 4.738281 18.382812 5.101562 18.75 5.101562 19.203125 Z M 5.101562 19.203125 "/>
<use xlink:href="#surface5" mask="url(#mask0)"/>
<use xlink:href="#surface8" mask="url(#mask1)"/>
<use xlink:href="#surface11" mask="url(#mask2)"/>
<use xlink:href="#surface14" mask="url(#mask3)"/>
<use xlink:href="#surface17" mask="url(#mask4)"/>
<use xlink:href="#surface20" mask="url(#mask5)"/>
<use xlink:href="#surface23" mask="url(#mask6)"/>
<use xlink:href="#surface26" mask="url(#mask7)"/>
</g>
</svg>
