<?xml version="1.0" encoding="UTF-8"?>
<svg xmlns="http://www.w3.org/2000/svg" xmlns:xlink="http://www.w3.org/1999/xlink" width="25px" height="px" viewBox="0 0 25 24" version="1.1">
<g id="surface1">
<path style=" stroke:none;fill-rule:nonzero;fill:rgb(95.294118%,44.313725%,17.647059%);fill-opacity:1;" d="M 22.636719 9.050781 C 22.769531 8.601562 22.84375 8.132812 22.851562 7.664062 L 23.851562 7.167969 L 24.902344 6.640625 L 23.761719 6.378906 L 22.675781 6.113281 C 22.550781 5.660156 22.367188 5.222656 22.128906 4.816406 L 22.738281 3.914062 L 23.371094 2.984375 L 22.238281 3.300781 L 21.148438 3.601562 C 20.804688 3.269531 20.414062 2.980469 19.996094 2.738281 L 20.050781 1.671875 L 20.113281 0.550781 L 19.292969 1.359375 L 18.523438 2.132812 C 18.046875 2.011719 17.558594 1.945312 17.066406 1.9375 L 16.550781 0.992188 L 16.011719 0 L 15.726562 1.085938 L 15.453125 2.125 C 14.980469 2.246094 14.523438 2.425781 14.09375 2.652344 L 13.136719 2.078125 L 12.148438 1.476562 L 12.46875 2.554688 L 12.773438 3.578125 C 12.421875 3.90625 12.113281 4.277344 11.851562 4.679688 L 10.730469 4.636719 L 9.554688 4.589844 L 10.398438 5.363281 L 11.214844 6.101562 C 11.082031 6.550781 11.007812 7.015625 10.996094 7.484375 L 9.996094 7.980469 L 8.949219 8.507812 L 10.089844 8.773438 L 11.175781 9.035156 C 11.296875 9.488281 11.480469 9.925781 11.71875 10.335938 L 11.113281 11.238281 L 10.472656 12.183594 L 11.605469 11.867188 L 12.691406 11.566406 C 13.039062 11.902344 13.425781 12.191406 13.84375 12.429688 L 13.789062 13.484375 L 13.730469 14.601562 L 14.546875 13.792969 L 15.328125 13.019531 C 15.804688 13.144531 16.292969 13.210938 16.785156 13.214844 L 17.300781 14.164062 L 17.84375 15.15625 L 18.128906 14.066406 L 18.402344 13.03125 C 18.875 12.910156 19.332031 12.734375 19.761719 12.503906 L 20.707031 13.074219 L 21.695312 13.675781 L 21.375 12.601562 L 21.066406 11.574219 C 21.417969 11.246094 21.726562 10.875 21.984375 10.472656 L 23.105469 10.519531 L 24.28125 10.566406 L 23.4375 9.792969 Z M 22.636719 9.050781 "/>
<path style=" stroke:none;fill-rule:nonzero;fill:rgb(100%,78.431373%,17.254902%);fill-opacity:1;" d="M 22.011719 7.574219 C 21.976562 10.289062 19.6875 12.464844 16.894531 12.441406 C 14.097656 12.421875 11.84375 10.210938 11.855469 7.5 C 11.863281 4.785156 14.128906 2.589844 16.925781 2.585938 C 18.28125 2.589844 19.578125 3.121094 20.53125 4.054688 C 21.488281 4.992188 22.019531 6.257812 22.011719 7.574219 Z M 22.011719 7.574219 "/>
<path style=" stroke:none;fill-rule:evenodd;fill:rgb(100%,84.313725%,29.411765%);fill-opacity:1;" d="M 16.261719 3.792969 C 14.390625 4.226562 12.863281 5.535156 12.1875 7.285156 C 12.386719 5.25 13.871094 3.554688 15.90625 3.03125 C 17.59375 2.628906 19.375 3.125 20.585938 4.339844 C 19.273438 3.621094 17.722656 3.425781 16.261719 3.792969 Z M 16.261719 3.792969 "/>
<path style=" stroke:none;fill-rule:nonzero;fill:rgb(86.666667%,86.666667%,86.666667%);fill-opacity:1;" d="M 19.527344 7.382812 C 19.375 7.382812 19.226562 7.382812 19.074219 7.402344 C 18.371094 5.375 16.414062 4.007812 14.210938 4.007812 C 13.914062 4.011719 13.617188 4.03125 13.320312 4.0625 C 12.15625 3.078125 10.667969 2.539062 9.125 2.546875 C 5.746094 2.546875 2.988281 4.882812 2.410156 8.175781 C 0.949219 9.078125 0 10.582031 0 12.054688 C 0.03125 14.648438 2.214844 16.734375 4.890625 16.714844 L 19.527344 16.714844 C 22.316406 16.714844 24.667969 14.578125 24.667969 12.054688 C 24.667969 9.527344 22.316406 7.382812 19.527344 7.382812 Z M 19.527344 7.382812 "/>
<path style=" stroke:none;fill-rule:evenodd;fill:rgb(80%,80%,80%);fill-opacity:1;" d="M 23.027344 14.269531 C 22.753906 14.828125 22.390625 15.34375 21.957031 15.796875 C 22.847656 15.371094 23.570312 14.667969 24.003906 13.796875 C 25.003906 11.761719 24.03125 9.414062 21.832031 8.390625 C 23.582031 9.566406 24.132812 12.011719 23.027344 14.269531 Z M 23.027344 14.269531 "/>
<path style=" stroke:none;fill-rule:nonzero;fill:rgb(0%,73.72549%,83.137255%);fill-opacity:1;" d="M 7.445312 15.363281 C 7.417969 15.363281 5.066406 17.457031 4.816406 18.34375 C 4.636719 18.925781 4.792969 19.554688 5.226562 19.988281 C 5.664062 20.421875 6.304688 20.59375 6.90625 20.4375 C 7.507812 20.28125 7.976562 19.820312 8.128906 19.234375 C 8.382812 18.34375 7.472656 15.371094 7.445312 15.363281 Z M 7.445312 15.363281 "/>
<path style=" stroke:none;fill-rule:nonzero;fill:rgb(0%,73.72549%,83.137255%);fill-opacity:1;" d="M 6.351562 22.941406 C 6.351562 23.480469 5.898438 23.921875 5.339844 23.921875 C 4.78125 23.921875 4.328125 23.480469 4.328125 22.941406 C 4.328125 22.398438 4.78125 21.957031 5.339844 21.957031 C 5.898438 21.957031 6.351562 22.398438 6.351562 22.941406 Z M 6.351562 22.941406 "/>
<path style=" stroke:none;fill-rule:nonzero;fill:rgb(100%,89.411765%,12.156863%);fill-opacity:1;" d="M 15.613281 15.375 L 19.359375 15.375 L 17.835938 17.808594 L 19.40625 17.808594 L 16.183594 21.851562 L 16.820312 19.441406 L 13.800781 19.441406 Z M 15.613281 15.375 "/>
</g>
</svg>
