<?xml version="1.0" encoding="UTF-8"?>
<svg xmlns="http://www.w3.org/2000/svg" xmlns:xlink="http://www.w3.org/1999/xlink" width="25px" height="px" viewBox="0 0 24 22" version="1.1">
<g id="surface1">
<path style=" stroke:none;fill-rule:nonzero;fill:rgb(60%,60%,60%);fill-opacity:1;" d="M 18.953125 4.988281 C 18.804688 4.988281 18.660156 4.988281 18.511719 5.003906 C 17.832031 2.914062 15.929688 1.507812 13.789062 1.507812 C 13.503906 1.507812 13.214844 1.527344 12.929688 1.5625 C 11.800781 0.550781 10.351562 -0.00390625 8.855469 0 C 5.578125 0 2.902344 2.40625 2.339844 5.796875 C 0.921875 6.726562 0 8.277344 0 9.792969 C 0.03125 12.464844 2.152344 14.609375 4.746094 14.589844 L 18.953125 14.589844 C 21.65625 14.589844 23.941406 12.394531 23.941406 9.792969 C 23.941406 7.1875 21.65625 4.988281 18.953125 4.988281 Z M 18.953125 4.988281 "/>
<path style=" stroke:none;fill-rule:evenodd;fill:rgb(46.666667%,46.666667%,46.666667%);fill-opacity:1;" d="M 22.035156 11.964844 C 21.769531 12.539062 21.417969 13.070312 20.996094 13.539062 C 21.863281 13.097656 22.5625 12.371094 22.984375 11.476562 C 23.953125 9.382812 23.007812 6.964844 20.875 5.90625 C 22.574219 7.117188 23.109375 9.636719 22.035156 11.964844 Z M 22.035156 11.964844 "/>
<path style=" stroke:none;fill-rule:nonzero;fill:rgb(0%,73.72549%,83.137255%);fill-opacity:1;" d="M 7.207031 13.121094 C 7.179688 13.121094 4.898438 15.28125 4.652344 16.195312 C 4.40625 17.113281 4.929688 18.058594 5.816406 18.3125 C 6.707031 18.5625 7.628906 18.027344 7.871094 17.109375 C 8.117188 16.191406 7.234375 13.128906 7.207031 13.121094 Z M 7.207031 13.121094 "/>
<path style=" stroke:none;fill-rule:nonzero;fill:rgb(0%,73.72549%,83.137255%);fill-opacity:1;" d="M 6.140625 20.925781 C 6.140625 21.484375 5.703125 21.933594 5.160156 21.933594 C 4.621094 21.933594 4.179688 21.484375 4.179688 20.925781 C 4.179688 20.367188 4.621094 19.914062 5.160156 19.914062 C 5.703125 19.914062 6.140625 20.367188 6.140625 20.925781 Z M 6.140625 20.925781 "/>
<path style=" stroke:none;fill-rule:nonzero;fill:rgb(100%,89.411765%,12.156863%);fill-opacity:1;" d="M 15.421875 13.539062 L 19.058594 13.539062 L 17.582031 16.042969 L 19.109375 16.042969 L 15.976562 20.207031 L 16.597656 17.726562 L 13.667969 17.726562 Z M 15.421875 13.539062 "/>
</g>
</svg>
