<?xml version="1.0" encoding="UTF-8"?>
<svg xmlns="http://www.w3.org/2000/svg" xmlns:xlink="http://www.w3.org/1999/xlink" width="25px" height="px" viewBox="0 0 24 20" version="1.1">
<defs>
<filter id="alpha" filterUnits="objectBoundingBox" x="0%" y="0%" width="100%" height="100%">
  <feColorMatrix type="matrix" in="SourceGraphic" values="0 0 0 0 1 0 0 0 0 1 0 0 0 0 1 0 0 0 1 0"/>
</filter>
<mask id="mask0">
  <g filter="url(#alpha)">
<rect x="0" y="0" width="24" height="20" style="fill:rgb(0%,0%,0%);fill-opacity:0.6;stroke:none;"/>
  </g>
</mask>
<clipPath id="clip1">
  <rect x="0" y="0" width="24" height="20"/>
</clipPath>
<g id="surface5" clip-path="url(#clip1)">
<path style=" stroke:none;fill-rule:nonzero;fill:rgb(93.333333%,93.333333%,93.333333%);fill-opacity:1;" d="M 19.558594 13.488281 C 19.425781 13.488281 19.296875 13.488281 19.164062 13.476562 C 17.382812 13.359375 15.851562 12.375 14.5 11.527344 L 14.269531 11.378906 C 12.429688 10.214844 9.601562 9.824219 7.734375 11.71875 C 7.574219 11.894531 7.328125 11.96875 7.097656 11.90625 C 6.871094 11.847656 6.691406 11.664062 6.632812 11.433594 C 6.574219 11.199219 6.644531 10.953125 6.816406 10.785156 C 8.476562 9.101562 11.730469 8.21875 14.957031 10.261719 L 15.1875 10.410156 C 16.46875 11.222656 17.785156 12.0625 19.246094 12.167969 C 20.582031 12.269531 21.894531 11.789062 22.863281 10.847656 C 23.117188 10.628906 23.496094 10.640625 23.738281 10.882812 C 23.976562 11.121094 23.996094 11.503906 23.785156 11.769531 C 22.652344 12.882812 21.132812 13.5 19.558594 13.488281 Z M 19.558594 13.488281 "/>
</g>
<mask id="mask1">
  <g filter="url(#alpha)">
<rect x="0" y="0" width="24" height="20" style="fill:rgb(0%,0%,0%);fill-opacity:0.74902;stroke:none;"/>
  </g>
</mask>
<clipPath id="clip2">
  <rect x="0" y="0" width="24" height="20"/>
</clipPath>
<g id="surface8" clip-path="url(#clip2)">
<path style=" stroke:none;fill-rule:nonzero;fill:rgb(93.333333%,93.333333%,93.333333%);fill-opacity:1;" d="M 19.558594 16.703125 C 19.425781 16.703125 19.296875 16.703125 19.164062 16.691406 C 17.382812 16.574219 15.851562 15.589844 14.5 14.742188 L 14.269531 14.59375 C 12.429688 13.429688 9.601562 13.039062 7.734375 14.933594 C 7.476562 15.175781 7.082031 15.167969 6.832031 14.914062 C 6.585938 14.664062 6.578125 14.261719 6.816406 14 C 8.472656 12.308594 11.726562 11.429688 14.957031 13.476562 L 15.1875 13.621094 C 16.46875 14.433594 17.78125 15.277344 19.246094 15.378906 C 20.578125 15.480469 21.894531 15 22.859375 14.0625 C 23.117188 13.835938 23.5 13.847656 23.742188 14.085938 C 23.984375 14.328125 24.003906 14.71875 23.785156 14.980469 C 22.652344 16.097656 21.132812 16.714844 19.558594 16.703125 Z M 19.558594 16.703125 "/>
</g>
<mask id="mask2">
  <g filter="url(#alpha)">
<rect x="0" y="0" width="24" height="20" style="fill:rgb(0%,0%,0%);fill-opacity:0.901961;stroke:none;"/>
  </g>
</mask>
<clipPath id="clip3">
  <rect x="0" y="0" width="24" height="20"/>
</clipPath>
<g id="surface11" clip-path="url(#clip3)">
<path style=" stroke:none;fill-rule:nonzero;fill:rgb(93.333333%,93.333333%,93.333333%);fill-opacity:1;" d="M 19.558594 19.914062 C 19.425781 19.914062 19.296875 19.914062 19.164062 19.902344 C 17.382812 19.785156 15.851562 18.800781 14.5 17.953125 L 14.269531 17.800781 C 12.429688 16.636719 9.601562 16.246094 7.734375 18.140625 C 7.476562 18.382812 7.082031 18.375 6.832031 18.125 C 6.585938 17.875 6.578125 17.46875 6.816406 17.207031 C 8.476562 15.523438 11.730469 14.640625 14.957031 16.683594 L 15.1875 16.832031 C 16.46875 17.644531 17.792969 18.484375 19.246094 18.589844 C 20.582031 18.691406 21.894531 18.210938 22.863281 17.269531 C 23.117188 17.039062 23.507812 17.046875 23.753906 17.292969 C 23.996094 17.539062 24.011719 17.933594 23.785156 18.195312 C 22.652344 19.308594 21.132812 19.925781 19.558594 19.914062 Z M 19.558594 19.914062 "/>
</g>
<mask id="mask3">
  <g filter="url(#alpha)">
<rect x="0" y="0" width="24" height="20" style="fill:rgb(0%,0%,0%);fill-opacity:0.74902;stroke:none;"/>
  </g>
</mask>
<clipPath id="clip4">
  <rect x="0" y="0" width="24" height="20"/>
</clipPath>
<g id="surface14" clip-path="url(#clip4)">
<path style=" stroke:none;fill-rule:nonzero;fill:rgb(93.333333%,93.333333%,93.333333%);fill-opacity:1;" d="M 9.355469 11.285156 C 9.355469 11.527344 9.160156 11.726562 8.921875 11.726562 C 8.683594 11.726562 8.492188 11.527344 8.492188 11.285156 C 8.492188 11.042969 8.683594 10.847656 8.921875 10.847656 C 9.160156 10.847656 9.355469 11.042969 9.355469 11.285156 Z M 9.355469 11.285156 "/>
</g>
<mask id="mask4">
  <g filter="url(#alpha)">
<rect x="0" y="0" width="24" height="20" style="fill:rgb(0%,0%,0%);fill-opacity:0.74902;stroke:none;"/>
  </g>
</mask>
<clipPath id="clip5">
  <rect x="0" y="0" width="24" height="20"/>
</clipPath>
<g id="surface17" clip-path="url(#clip5)">
<path style=" stroke:none;fill-rule:nonzero;fill:rgb(93.333333%,93.333333%,93.333333%);fill-opacity:1;" d="M 12.167969 18.269531 C 12.167969 18.511719 11.976562 18.710938 11.734375 18.710938 C 11.496094 18.710938 11.304688 18.511719 11.304688 18.269531 C 11.304688 18.027344 11.496094 17.832031 11.734375 17.832031 C 11.976562 17.832031 12.167969 18.027344 12.167969 18.269531 Z M 12.167969 18.269531 "/>
</g>
<mask id="mask5">
  <g filter="url(#alpha)">
<rect x="0" y="0" width="24" height="20" style="fill:rgb(0%,0%,0%);fill-opacity:0.74902;stroke:none;"/>
  </g>
</mask>
<clipPath id="clip6">
  <rect x="0" y="0" width="24" height="20"/>
</clipPath>
<g id="surface20" clip-path="url(#clip6)">
<path style=" stroke:none;fill-rule:nonzero;fill:rgb(93.333333%,93.333333%,93.333333%);fill-opacity:1;" d="M 17.929688 14.753906 C 17.929688 14.996094 17.734375 15.195312 17.496094 15.195312 C 17.257812 15.195312 17.0625 14.996094 17.0625 14.753906 C 17.0625 14.511719 17.257812 14.3125 17.496094 14.3125 C 17.734375 14.3125 17.929688 14.511719 17.929688 14.753906 Z M 17.929688 14.753906 "/>
</g>
<mask id="mask6">
  <g filter="url(#alpha)">
<rect x="0" y="0" width="24" height="20" style="fill:rgb(0%,0%,0%);fill-opacity:0.74902;stroke:none;"/>
  </g>
</mask>
<clipPath id="clip7">
  <rect x="0" y="0" width="24" height="20"/>
</clipPath>
<g id="surface23" clip-path="url(#clip7)">
<path style=" stroke:none;fill-rule:nonzero;fill:rgb(93.333333%,93.333333%,93.333333%);fill-opacity:1;" d="M 22.8125 17.609375 C 22.8125 17.855469 22.617188 18.050781 22.378906 18.050781 C 22.140625 18.050781 21.945312 17.855469 21.945312 17.609375 C 21.945312 17.367188 22.140625 17.171875 22.378906 17.171875 C 22.617188 17.171875 22.8125 17.367188 22.8125 17.609375 Z M 22.8125 17.609375 "/>
</g>
<mask id="mask7">
  <g filter="url(#alpha)">
<rect x="0" y="0" width="24" height="20" style="fill:rgb(0%,0%,0%);fill-opacity:0.74902;stroke:none;"/>
  </g>
</mask>
<clipPath id="clip8">
  <rect x="0" y="0" width="24" height="20"/>
</clipPath>
<g id="surface26" clip-path="url(#clip8)">
<path style=" stroke:none;fill-rule:nonzero;fill:rgb(93.333333%,93.333333%,93.333333%);fill-opacity:1;" d="M 21.152344 9.953125 C 21.152344 10.195312 20.957031 10.390625 20.71875 10.390625 C 20.480469 10.390625 20.289062 10.195312 20.289062 9.953125 C 20.289062 9.707031 20.480469 9.511719 20.71875 9.511719 C 20.957031 9.511719 21.152344 9.707031 21.152344 9.953125 Z M 21.152344 9.953125 "/>
</g>
</defs>
<g id="surface1">
<path style=" stroke:none;fill-rule:nonzero;fill:rgb(95.294118%,44.313725%,17.647059%);fill-opacity:1;" d="M 18.011719 7.542969 C 18.117188 7.167969 18.175781 6.777344 18.183594 6.386719 L 18.980469 5.972656 L 19.8125 5.535156 L 18.90625 5.3125 L 18.042969 5.09375 C 17.941406 4.71875 17.796875 4.351562 17.609375 4.011719 L 18.09375 3.261719 L 18.59375 2.488281 L 17.691406 2.75 L 16.828125 3 C 16.550781 2.722656 16.246094 2.484375 15.910156 2.285156 L 15.953125 1.394531 L 16.003906 0.460938 L 15.351562 1.132812 L 14.738281 1.777344 C 14.359375 1.675781 13.96875 1.621094 13.578125 1.617188 L 13.167969 0.828125 L 12.742188 0 L 12.511719 0.90625 L 12.296875 1.769531 C 11.917969 1.871094 11.554688 2.019531 11.214844 2.210938 L 10.453125 1.730469 L 9.664062 1.230469 L 9.921875 2.128906 L 10.164062 2.980469 C 9.882812 3.257812 9.636719 3.5625 9.429688 3.898438 L 8.539062 3.863281 L 7.601562 3.824219 L 8.273438 4.46875 L 8.921875 5.082031 C 8.816406 5.457031 8.757812 5.847656 8.75 6.238281 L 7.953125 6.652344 L 7.121094 7.089844 L 8.027344 7.308594 L 8.894531 7.53125 C 8.988281 7.910156 9.136719 8.273438 9.324219 8.613281 L 8.839844 9.363281 L 8.332031 10.152344 L 9.234375 9.890625 L 10.097656 9.640625 C 10.375 9.917969 10.683594 10.160156 11.015625 10.359375 L 10.972656 11.238281 L 10.925781 12.167969 L 11.574219 11.496094 L 12.195312 10.851562 C 12.574219 10.953125 12.964844 11.007812 13.355469 11.011719 L 13.765625 11.804688 L 14.195312 12.628906 L 14.425781 11.722656 L 14.640625 10.859375 C 15.019531 10.757812 15.382812 10.609375 15.722656 10.417969 L 16.476562 10.898438 L 17.261719 11.398438 L 17.007812 10.5 L 16.761719 9.644531 C 17.042969 9.371094 17.285156 9.0625 17.492188 8.726562 L 18.386719 8.765625 L 19.320312 8.804688 L 18.648438 8.160156 Z M 18.011719 7.542969 "/>
<path style=" stroke:none;fill-rule:nonzero;fill:rgb(100%,78.431373%,17.254902%);fill-opacity:1;" d="M 17.511719 6.3125 C 17.484375 8.574219 15.667969 10.386719 13.441406 10.367188 C 11.21875 10.351562 9.425781 8.511719 9.433594 6.25 C 9.4375 3.988281 11.242188 2.15625 13.464844 2.152344 C 14.546875 2.160156 15.578125 2.601562 16.335938 3.378906 C 17.097656 4.160156 17.519531 5.214844 17.511719 6.3125 Z M 17.511719 6.3125 "/>
<path style=" stroke:none;fill-rule:evenodd;fill:rgb(100%,84.313725%,29.411765%);fill-opacity:1;" d="M 12.941406 3.160156 C 11.449219 3.519531 10.234375 4.613281 9.699219 6.070312 C 9.855469 4.375 11.035156 2.960938 12.65625 2.527344 C 14 2.191406 15.417969 2.605469 16.378906 3.617188 C 15.335938 3.015625 14.101562 2.855469 12.941406 3.160156 Z M 12.941406 3.160156 "/>
<path style=" stroke:none;fill-rule:nonzero;fill:rgb(86.666667%,86.666667%,86.666667%);fill-opacity:1;" d="M 15.539062 6.152344 C 15.417969 6.152344 15.296875 6.152344 15.175781 6.167969 C 14.617188 4.476562 13.058594 3.339844 11.304688 3.339844 C 11.070312 3.34375 10.832031 3.359375 10.597656 3.382812 C 9.671875 2.566406 8.488281 2.117188 7.261719 2.121094 C 4.574219 2.121094 2.378906 4.070312 1.917969 6.8125 C 0.757812 7.566406 0 8.816406 0 10.042969 C 0.0234375 12.207031 1.761719 13.945312 3.890625 13.929688 L 15.539062 13.929688 C 17.753906 13.929688 19.628906 12.148438 19.628906 10.042969 C 19.628906 7.9375 17.753906 6.152344 15.539062 6.152344 Z M 15.539062 6.152344 "/>
<path style=" stroke:none;fill-rule:evenodd;fill:rgb(80%,80%,80%);fill-opacity:1;" d="M 18.320312 11.890625 C 18.105469 12.355469 17.816406 12.785156 17.46875 13.164062 C 18.179688 12.808594 18.753906 12.222656 19.101562 11.5 C 19.894531 9.800781 19.121094 7.847656 17.371094 6.992188 C 18.761719 7.972656 19.203125 10.007812 18.320312 11.890625 Z M 18.320312 11.890625 "/>
<path style=" stroke:none;fill-rule:nonzero;fill:rgb(0%,73.72549%,83.137255%);fill-opacity:1;" d="M 5.925781 12.800781 C 5.902344 12.800781 4.03125 14.546875 3.832031 15.289062 C 3.6875 15.769531 3.8125 16.292969 4.160156 16.65625 C 4.503906 17.019531 5.015625 17.164062 5.496094 17.03125 C 5.976562 16.902344 6.347656 16.519531 6.46875 16.027344 C 6.671875 15.289062 5.945312 12.808594 5.925781 12.800781 Z M 5.925781 12.800781 "/>
<path style=" stroke:none;fill-rule:nonzero;fill:rgb(0%,73.72549%,83.137255%);fill-opacity:1;" d="M 5.054688 19.117188 C 5.054688 19.566406 4.691406 19.933594 4.25 19.933594 C 3.804688 19.933594 3.445312 19.566406 3.445312 19.117188 C 3.445312 18.664062 3.804688 18.300781 4.25 18.300781 C 4.691406 18.300781 5.054688 18.664062 5.054688 19.117188 Z M 5.054688 19.117188 "/>
<use xlink:href="#surface5" mask="url(#mask0)"/>
<use xlink:href="#surface8" mask="url(#mask1)"/>
<use xlink:href="#surface11" mask="url(#mask2)"/>
<use xlink:href="#surface14" mask="url(#mask3)"/>
<use xlink:href="#surface17" mask="url(#mask4)"/>
<use xlink:href="#surface20" mask="url(#mask5)"/>
<use xlink:href="#surface23" mask="url(#mask6)"/>
<use xlink:href="#surface26" mask="url(#mask7)"/>
<path style=" stroke:none;fill-rule:nonzero;fill:rgb(100%,89.411765%,12.156863%);fill-opacity:1;" d="M 12.421875 12.8125 L 15.402344 12.8125 L 14.191406 14.839844 L 15.441406 14.839844 L 12.875 18.210938 L 13.382812 16.203125 L 10.980469 16.203125 Z M 12.421875 12.8125 "/>
</g>
</svg>
