<?xml version="1.0" encoding="UTF-8"?>
<svg xmlns="http://www.w3.org/2000/svg" xmlns:xlink="http://www.w3.org/1999/xlink" width="25px" height="px" viewBox="0 0 24 20" version="1.1">
<defs>
<filter id="alpha" filterUnits="objectBoundingBox" x="0%" y="0%" width="100%" height="100%">
  <feColorMatrix type="matrix" in="SourceGraphic" values="0 0 0 0 1 0 0 0 0 1 0 0 0 0 1 0 0 0 1 0"/>
</filter>
<mask id="mask0">
  <g filter="url(#alpha)">
<rect x="0" y="0" width="24" height="20" style="fill:rgb(0%,0%,0%);fill-opacity:0.6;stroke:none;"/>
  </g>
</mask>
<clipPath id="clip1">
  <rect x="0" y="0" width="24" height="20"/>
</clipPath>
<g id="surface5" clip-path="url(#clip1)">
<path style=" stroke:none;fill-rule:nonzero;fill:rgb(93.333333%,93.333333%,93.333333%);fill-opacity:1;" d="M 19.46875 13.304688 C 19.332031 13.304688 19.199219 13.304688 19.0625 13.289062 C 17.234375 13.171875 15.660156 12.164062 14.269531 11.277344 L 14.035156 11.136719 C 12.140625 9.929688 9.234375 9.527344 7.316406 11.488281 C 7.058594 11.753906 6.636719 11.753906 6.375 11.488281 C 6.113281 11.222656 6.113281 10.789062 6.375 10.523438 C 8.078125 8.78125 11.421875 7.867188 14.738281 9.980469 L 14.976562 10.128906 C 16.292969 10.972656 17.644531 11.839844 19.148438 11.949219 C 20.519531 12.050781 21.871094 11.554688 22.863281 10.585938 C 23.125 10.316406 23.546875 10.320312 23.808594 10.585938 C 24.066406 10.851562 24.066406 11.285156 23.808594 11.550781 C 22.640625 12.691406 21.082031 13.320312 19.46875 13.304688 Z M 19.46875 13.304688 "/>
</g>
<mask id="mask1">
  <g filter="url(#alpha)">
<rect x="0" y="0" width="24" height="20" style="fill:rgb(0%,0%,0%);fill-opacity:0.74902;stroke:none;"/>
  </g>
</mask>
<clipPath id="clip2">
  <rect x="0" y="0" width="24" height="20"/>
</clipPath>
<g id="surface8" clip-path="url(#clip2)">
<path style=" stroke:none;fill-rule:nonzero;fill:rgb(93.333333%,93.333333%,93.333333%);fill-opacity:1;" d="M 19.46875 16.628906 C 19.332031 16.628906 19.199219 16.628906 19.0625 16.613281 C 17.234375 16.496094 15.660156 15.488281 14.269531 14.601562 L 14.035156 14.449219 C 12.140625 13.246094 9.234375 12.839844 7.316406 14.800781 C 7.058594 15.066406 6.636719 15.066406 6.375 14.800781 C 6.113281 14.535156 6.113281 14.101562 6.375 13.835938 C 8.078125 12.09375 11.421875 11.179688 14.738281 13.292969 L 14.976562 13.441406 C 16.292969 14.285156 17.644531 15.15625 19.148438 15.261719 C 20.519531 15.363281 21.871094 14.867188 22.863281 13.898438 C 23.125 13.632812 23.546875 13.632812 23.808594 13.898438 C 24.066406 14.164062 24.066406 14.597656 23.808594 14.863281 C 22.640625 16.007812 21.085938 16.640625 19.46875 16.628906 Z M 19.46875 16.628906 "/>
</g>
<mask id="mask2">
  <g filter="url(#alpha)">
<rect x="0" y="0" width="24" height="20" style="fill:rgb(0%,0%,0%);fill-opacity:0.901961;stroke:none;"/>
  </g>
</mask>
<clipPath id="clip3">
  <rect x="0" y="0" width="24" height="20"/>
</clipPath>
<g id="surface11" clip-path="url(#clip3)">
<path style=" stroke:none;fill-rule:nonzero;fill:rgb(93.333333%,93.333333%,93.333333%);fill-opacity:1;" d="M 19.46875 19.949219 C 19.332031 19.949219 19.199219 19.949219 19.0625 19.949219 C 17.234375 19.828125 15.660156 18.8125 14.269531 17.933594 L 14.035156 17.785156 C 12.140625 16.578125 9.234375 16.175781 7.316406 18.132812 C 7.058594 18.402344 6.636719 18.402344 6.375 18.136719 C 6.113281 17.867188 6.113281 17.4375 6.375 17.171875 C 8.078125 15.425781 11.421875 14.511719 14.738281 16.628906 L 14.976562 16.78125 C 16.292969 17.621094 17.644531 18.492188 19.148438 18.597656 C 20.519531 18.699219 21.871094 18.203125 22.863281 17.234375 C 23.128906 17.023438 23.503906 17.046875 23.742188 17.285156 C 23.980469 17.527344 24.007812 17.910156 23.808594 18.183594 C 22.640625 19.328125 21.085938 19.964844 19.46875 19.949219 Z M 19.46875 19.949219 "/>
</g>
<mask id="mask3">
  <g filter="url(#alpha)">
<rect x="0" y="0" width="24" height="20" style="fill:rgb(0%,0%,0%);fill-opacity:0.74902;stroke:none;"/>
  </g>
</mask>
<clipPath id="clip4">
  <rect x="0" y="0" width="24" height="20"/>
</clipPath>
<g id="surface14" clip-path="url(#clip4)">
<path style=" stroke:none;fill-rule:nonzero;fill:rgb(93.333333%,93.333333%,93.333333%);fill-opacity:1;" d="M 8.984375 11.03125 C 8.984375 11.28125 8.785156 11.484375 8.539062 11.484375 C 8.292969 11.484375 8.09375 11.28125 8.09375 11.03125 C 8.09375 10.777344 8.292969 10.574219 8.539062 10.574219 C 8.785156 10.574219 8.984375 10.777344 8.984375 11.03125 Z M 8.984375 11.03125 "/>
</g>
<mask id="mask4">
  <g filter="url(#alpha)">
<rect x="0" y="0" width="24" height="20" style="fill:rgb(0%,0%,0%);fill-opacity:0.74902;stroke:none;"/>
  </g>
</mask>
<clipPath id="clip5">
  <rect x="0" y="0" width="24" height="20"/>
</clipPath>
<g id="surface17" clip-path="url(#clip5)">
<path style=" stroke:none;fill-rule:nonzero;fill:rgb(93.333333%,93.333333%,93.333333%);fill-opacity:1;" d="M 11.875 18.25 C 11.875 18.5 11.675781 18.703125 11.429688 18.703125 C 11.1875 18.703125 10.988281 18.5 10.988281 18.25 C 10.988281 18 11.1875 17.796875 11.429688 17.796875 C 11.675781 17.796875 11.875 18 11.875 18.25 Z M 11.875 18.25 "/>
</g>
<mask id="mask5">
  <g filter="url(#alpha)">
<rect x="0" y="0" width="24" height="20" style="fill:rgb(0%,0%,0%);fill-opacity:0.74902;stroke:none;"/>
  </g>
</mask>
<clipPath id="clip6">
  <rect x="0" y="0" width="24" height="20"/>
</clipPath>
<g id="surface20" clip-path="url(#clip6)">
<path style=" stroke:none;fill-rule:nonzero;fill:rgb(93.333333%,93.333333%,93.333333%);fill-opacity:1;" d="M 17.796875 14.617188 C 17.796875 14.867188 17.597656 15.070312 17.351562 15.070312 C 17.105469 15.070312 16.90625 14.867188 16.90625 14.617188 C 16.90625 14.363281 17.105469 14.160156 17.351562 14.160156 C 17.597656 14.160156 17.796875 14.363281 17.796875 14.617188 Z M 17.796875 14.617188 "/>
</g>
<mask id="mask6">
  <g filter="url(#alpha)">
<rect x="0" y="0" width="24" height="20" style="fill:rgb(0%,0%,0%);fill-opacity:0.74902;stroke:none;"/>
  </g>
</mask>
<clipPath id="clip7">
  <rect x="0" y="0" width="24" height="20"/>
</clipPath>
<g id="surface23" clip-path="url(#clip7)">
<path style=" stroke:none;fill-rule:nonzero;fill:rgb(93.333333%,93.333333%,93.333333%);fill-opacity:1;" d="M 22.816406 17.566406 C 22.816406 17.820312 22.617188 18.023438 22.371094 18.023438 C 22.125 18.023438 21.925781 17.820312 21.925781 17.566406 C 21.925781 17.316406 22.125 17.113281 22.371094 17.113281 C 22.617188 17.113281 22.816406 17.316406 22.816406 17.566406 Z M 22.816406 17.566406 "/>
</g>
<mask id="mask7">
  <g filter="url(#alpha)">
<rect x="0" y="0" width="24" height="20" style="fill:rgb(0%,0%,0%);fill-opacity:0.74902;stroke:none;"/>
  </g>
</mask>
<clipPath id="clip8">
  <rect x="0" y="0" width="24" height="20"/>
</clipPath>
<g id="surface26" clip-path="url(#clip8)">
<path style=" stroke:none;fill-rule:nonzero;fill:rgb(93.333333%,93.333333%,93.333333%);fill-opacity:1;" d="M 21.109375 9.648438 C 21.109375 9.902344 20.910156 10.105469 20.664062 10.105469 C 20.417969 10.105469 20.21875 9.902344 20.21875 9.648438 C 20.21875 9.398438 20.417969 9.195312 20.664062 9.195312 C 20.910156 9.195312 21.109375 9.398438 21.109375 9.648438 Z M 21.109375 9.648438 "/>
</g>
</defs>
<g id="surface1">
<path style=" stroke:none;fill-rule:nonzero;fill:rgb(86.666667%,86.666667%,86.666667%);fill-opacity:1;" d="M 18.167969 3.066406 C 18.085938 3.066406 18.003906 3.066406 17.925781 3.066406 C 17.554688 1.816406 16.519531 0.925781 15.332031 0.925781 C 15.175781 0.925781 15.015625 0.9375 14.859375 0.960938 C 14.261719 0.347656 13.449219 0 12.601562 0 C 10.792969 0 9.332031 1.480469 9.007812 3.5625 C 8.226562 4.128906 7.75 5.035156 7.71875 6.015625 C 7.71875 7.644531 8.894531 8.96875 10.34375 8.96875 L 18.167969 8.96875 C 19.65625 8.96875 20.917969 7.621094 20.917969 6.015625 C 20.917969 4.410156 19.65625 3.066406 18.167969 3.066406 Z M 18.167969 3.066406 "/>
<path style=" stroke:none;fill-rule:nonzero;fill:rgb(60%,60%,60%);fill-opacity:1;" d="M 14.980469 6.375 C 14.863281 6.375 14.761719 6.375 14.632812 6.386719 C 14.097656 4.746094 12.59375 3.636719 10.902344 3.636719 C 10.675781 3.640625 10.445312 3.652344 10.21875 3.679688 C 9.328125 2.886719 8.183594 2.453125 7 2.460938 C 4.410156 2.460938 2.300781 4.347656 1.847656 7.003906 C 0.730469 7.738281 0 8.957031 0 10.144531 C 0.0234375 12.246094 1.707031 13.933594 3.761719 13.914062 L 14.980469 13.914062 C 17.121094 13.914062 18.925781 12.1875 18.925781 10.144531 C 18.925781 8.101562 17.109375 6.375 14.980469 6.375 Z M 14.980469 6.375 "/>
<path style=" stroke:none;fill-rule:evenodd;fill:rgb(46.666667%,46.666667%,46.666667%);fill-opacity:1;" d="M 17.417969 11.851562 C 17.207031 12.300781 16.929688 12.71875 16.59375 13.085938 C 17.28125 12.742188 17.835938 12.171875 18.167969 11.46875 C 18.933594 9.824219 18.1875 7.925781 16.503906 7.09375 C 17.84375 8.046875 18.265625 10.023438 17.417969 11.851562 Z M 17.417969 11.851562 "/>
<use xlink:href="#surface5" mask="url(#mask0)"/>
<use xlink:href="#surface8" mask="url(#mask1)"/>
<use xlink:href="#surface11" mask="url(#mask2)"/>
<use xlink:href="#surface14" mask="url(#mask3)"/>
<use xlink:href="#surface17" mask="url(#mask4)"/>
<use xlink:href="#surface20" mask="url(#mask5)"/>
<use xlink:href="#surface23" mask="url(#mask6)"/>
<use xlink:href="#surface26" mask="url(#mask7)"/>
<path style=" stroke:none;fill-rule:nonzero;fill:rgb(78.823529%,89.019608%,96.862745%);fill-opacity:1;" d="M 19.046875 15.453125 L 18.113281 15.984375 L 17.777344 15.789062 L 18.117188 15.617188 L 17.894531 15.164062 L 17.261719 15.484375 L 16.847656 15.238281 C 16.882812 15.089844 16.882812 14.933594 16.847656 14.785156 L 17.261719 14.546875 L 17.898438 14.867188 L 18.121094 14.410156 L 17.777344 14.238281 L 18.113281 14.039062 L 19.046875 14.570312 L 19.285156 14.128906 L 18.621094 13.746094 L 19.171875 13.421875 L 18.925781 12.984375 L 18.375 13.308594 L 18.386719 12.519531 L 17.894531 12.519531 L 17.875 13.609375 L 17.539062 13.808594 L 17.554688 13.410156 L 17.0625 13.378906 L 17.015625 14.101562 L 16.601562 14.351562 C 16.492188 14.242188 16.359375 14.164062 16.214844 14.121094 L 16.214844 13.636719 L 16.808594 13.234375 L 16.53125 12.8125 L 16.214844 13.039062 L 16.214844 12.628906 L 17.132812 12.066406 L 16.890625 11.632812 L 16.222656 12.046875 L 16.222656 11.390625 L 15.722656 11.390625 L 15.722656 12.046875 L 15.054688 11.640625 L 14.800781 12.074219 L 15.71875 12.636719 L 15.71875 13.03125 L 15.402344 12.804688 L 15.125 13.226562 L 15.722656 13.636719 L 15.722656 14.128906 C 15.578125 14.171875 15.445312 14.246094 15.335938 14.355469 L 14.921875 14.109375 L 14.890625 13.382812 L 14.382812 13.410156 L 14.40625 13.796875 L 14.074219 13.597656 L 14.054688 12.507812 L 13.558594 12.507812 L 13.574219 13.296875 L 13.023438 12.972656 L 12.777344 13.410156 L 13.332031 13.746094 L 12.667969 14.128906 L 12.890625 14.570312 L 13.820312 14.039062 L 14.15625 14.238281 L 13.816406 14.410156 L 14.039062 14.867188 L 14.667969 14.546875 L 15.078125 14.789062 C 15.042969 14.941406 15.042969 15.097656 15.078125 15.246094 L 14.667969 15.488281 L 14.03125 15.164062 L 13.808594 15.621094 L 14.148438 15.792969 L 13.8125 15.992188 L 12.890625 15.453125 L 12.652344 15.910156 L 13.316406 16.292969 L 12.765625 16.617188 L 13.023438 17.046875 L 13.574219 16.71875 L 13.554688 17.511719 L 14.050781 17.511719 L 14.070312 16.421875 L 14.402344 16.222656 L 14.378906 16.609375 L 14.875 16.640625 L 14.917969 15.917969 L 15.332031 15.683594 C 15.441406 15.789062 15.574219 15.867188 15.71875 15.910156 L 15.71875 16.398438 L 15.125 16.800781 L 15.402344 17.222656 L 15.71875 16.996094 L 15.71875 17.390625 L 14.808594 17.953125 L 15.058594 18.386719 L 15.726562 17.980469 L 15.726562 18.636719 L 16.222656 18.636719 L 16.222656 17.992188 L 16.890625 18.394531 L 17.132812 17.953125 L 16.222656 17.398438 L 16.222656 17.003906 L 16.539062 17.230469 L 16.8125 16.8125 L 16.222656 16.398438 L 16.222656 15.910156 C 16.367188 15.867188 16.5 15.789062 16.605469 15.683594 L 17.023438 15.925781 L 17.070312 16.648438 L 17.554688 16.617188 L 17.53125 16.230469 L 17.863281 16.425781 L 17.882812 17.519531 L 18.378906 17.519531 L 18.363281 16.730469 L 18.914062 17.046875 L 19.164062 16.609375 L 18.609375 16.285156 L 19.277344 15.898438 Z M 15.96875 15.433594 C 15.800781 15.433594 15.652344 15.328125 15.585938 15.171875 C 15.523438 15.011719 15.558594 14.832031 15.675781 14.710938 C 15.796875 14.589844 15.972656 14.554688 16.128906 14.621094 C 16.28125 14.683594 16.382812 14.839844 16.382812 15.011719 C 16.382812 15.125 16.339844 15.234375 16.261719 15.3125 C 16.183594 15.390625 16.078125 15.4375 15.96875 15.4375 Z M 15.96875 15.433594 "/>
<path style=" stroke:none;fill-rule:nonzero;fill:rgb(56.862745%,80.392157%,94.901961%);fill-opacity:1;" d="M 19.046875 15.453125 L 18.113281 15.984375 L 17.777344 15.789062 L 18.117188 15.617188 L 17.894531 15.164062 L 17.261719 15.484375 L 16.847656 15.238281 C 16.882812 15.089844 16.882812 14.933594 16.847656 14.785156 L 17.261719 14.546875 L 17.898438 14.867188 L 18.121094 14.410156 L 17.777344 14.238281 L 18.113281 14.039062 L 19.046875 14.570312 L 19.285156 14.128906 L 18.621094 13.746094 L 19.171875 13.421875 L 18.925781 12.984375 L 18.375 13.308594 L 18.386719 12.519531 L 17.894531 12.519531 L 17.875 13.609375 L 17.539062 13.808594 L 17.554688 13.410156 L 17.0625 13.378906 L 17.015625 14.101562 L 16.601562 14.351562 C 16.492188 14.242188 16.359375 14.164062 16.214844 14.121094 L 16.214844 13.636719 L 16.808594 13.234375 L 16.53125 12.8125 L 16.214844 13.039062 L 16.214844 12.628906 L 17.132812 12.066406 L 16.890625 11.632812 L 16.222656 12.046875 L 16.222656 11.390625 L 15.96875 11.390625 L 15.96875 14.59375 C 16.125 14.582031 16.269531 14.660156 16.351562 14.792969 C 16.433594 14.929688 16.433594 15.101562 16.351562 15.234375 C 16.269531 15.371094 16.125 15.449219 15.96875 15.4375 L 15.96875 18.636719 L 16.222656 18.636719 L 16.222656 17.992188 L 16.890625 18.394531 L 17.132812 17.953125 L 16.222656 17.398438 L 16.222656 17.003906 L 16.539062 17.230469 L 16.8125 16.8125 L 16.222656 16.398438 L 16.222656 15.910156 C 16.367188 15.867188 16.5 15.789062 16.605469 15.683594 L 17.023438 15.925781 L 17.070312 16.648438 L 17.554688 16.617188 L 17.53125 16.230469 L 17.863281 16.425781 L 17.882812 17.519531 L 18.378906 17.519531 L 18.363281 16.730469 L 18.914062 17.046875 L 19.164062 16.609375 L 18.609375 16.285156 L 19.277344 15.898438 Z M 19.046875 15.453125 "/>
<path style=" stroke:none;fill-rule:nonzero;fill:rgb(0%,73.72549%,83.137255%);fill-opacity:1;" d="M 3.253906 16.285156 C 3.148438 16.699219 2.742188 16.949219 2.335938 16.855469 C 1.9375 16.730469 1.707031 16.304688 1.816406 15.894531 C 2.039062 15.050781 3.59375 12.03125 3.59375 12.03125 C 3.59375 12.03125 3.507812 15.324219 3.253906 16.285156 Z M 3.253906 16.285156 "/>
<path style=" stroke:none;fill-rule:nonzero;fill:rgb(0%,73.72549%,83.137255%);fill-opacity:1;" d="M 5.304688 18.675781 C 5.199219 19.089844 4.789062 19.34375 4.382812 19.246094 C 3.988281 19.121094 3.757812 18.695312 3.867188 18.285156 C 4.089844 17.441406 5.644531 14.421875 5.644531 14.421875 C 5.644531 14.421875 5.554688 17.714844 5.304688 18.675781 Z M 5.304688 18.675781 "/>
<path style=" stroke:none;fill-rule:nonzero;fill:rgb(0%,73.72549%,83.137255%);fill-opacity:1;" d="M 8.46875 16.285156 C 8.40625 16.554688 8.207031 16.769531 7.945312 16.84375 C 7.683594 16.917969 7.402344 16.84375 7.214844 16.644531 C 7.023438 16.445312 6.953125 16.160156 7.03125 15.894531 C 7.253906 15.050781 8.808594 12.03125 8.808594 12.03125 C 8.808594 12.03125 8.71875 15.324219 8.46875 16.285156 Z M 8.46875 16.285156 "/>
<path style=" stroke:none;fill-rule:nonzero;fill:rgb(0%,73.72549%,83.137255%);fill-opacity:1;" d="M 10.648438 18.707031 C 10.585938 18.976562 10.382812 19.191406 10.121094 19.265625 C 9.859375 19.339844 9.582031 19.261719 9.390625 19.066406 C 9.203125 18.867188 9.132812 18.578125 9.207031 18.3125 C 9.429688 17.476562 10.988281 14.449219 10.988281 14.449219 C 10.988281 14.449219 10.898438 17.746094 10.648438 18.707031 Z M 10.648438 18.707031 "/>
</g>
</svg>
