<?xml version="1.0" encoding="UTF-8"?>
<svg xmlns="http://www.w3.org/2000/svg" xmlns:xlink="http://www.w3.org/1999/xlink" width="25px" height="px" viewBox="0 0 24 18" version="1.1">
<defs>
<filter id="alpha" filterUnits="objectBoundingBox" x="0%" y="0%" width="100%" height="100%">
  <feColorMatrix type="matrix" in="SourceGraphic" values="0 0 0 0 1 0 0 0 0 1 0 0 0 0 1 0 0 0 1 0"/>
</filter>
<mask id="mask0">
  <g filter="url(#alpha)">
<rect x="0" y="0" width="24" height="18" style="fill:rgb(0%,0%,0%);fill-opacity:0.6;stroke:none;"/>
  </g>
</mask>
<clipPath id="clip1">
  <rect x="0" y="0" width="24" height="18"/>
</clipPath>
<g id="surface5" clip-path="url(#clip1)">
<path style=" stroke:none;fill-rule:nonzero;fill:rgb(93.333333%,93.333333%,93.333333%);fill-opacity:1;" d="M 19.636719 11.367188 C 19.503906 11.367188 19.371094 11.367188 19.238281 11.351562 C 17.441406 11.234375 15.898438 10.226562 14.53125 9.359375 L 14.300781 9.210938 C 12.441406 8.015625 9.585938 7.617188 7.703125 9.558594 C 7.449219 9.824219 7.03125 9.828125 6.769531 9.566406 C 6.511719 9.300781 6.507812 8.871094 6.761719 8.605469 C 8.4375 6.878906 11.722656 5.972656 14.976562 8.0625 L 15.210938 8.214844 C 16.503906 9.046875 17.828125 9.910156 19.308594 10.015625 C 20.652344 10.117188 21.980469 9.628906 22.953125 8.664062 C 23.117188 8.484375 23.363281 8.410156 23.597656 8.472656 C 23.828125 8.53125 24.007812 8.71875 24.066406 8.957031 C 24.128906 9.195312 24.054688 9.449219 23.878906 9.617188 C 22.742188 10.75 21.21875 11.378906 19.636719 11.367188 Z M 19.636719 11.367188 "/>
</g>
<mask id="mask1">
  <g filter="url(#alpha)">
<rect x="0" y="0" width="24" height="18" style="fill:rgb(0%,0%,0%);fill-opacity:0.74902;stroke:none;"/>
  </g>
</mask>
<clipPath id="clip2">
  <rect x="0" y="0" width="24" height="18"/>
</clipPath>
<g id="surface8" clip-path="url(#clip2)">
<path style=" stroke:none;fill-rule:nonzero;fill:rgb(93.333333%,93.333333%,93.333333%);fill-opacity:1;" d="M 19.636719 14.65625 C 19.503906 14.65625 19.371094 14.65625 19.238281 14.644531 C 17.441406 14.523438 15.898438 13.527344 14.53125 12.648438 L 14.300781 12.5 C 12.4375 11.304688 9.582031 10.90625 7.699219 12.847656 C 7.441406 13.113281 7.027344 13.117188 6.769531 12.851562 C 6.511719 12.589844 6.507812 12.160156 6.761719 11.894531 C 8.4375 10.167969 11.722656 9.261719 14.976562 11.351562 L 15.210938 11.503906 C 16.503906 12.335938 17.828125 13.199219 19.308594 13.304688 C 20.652344 13.40625 21.980469 12.917969 22.953125 11.953125 C 23.117188 11.773438 23.363281 11.699219 23.597656 11.761719 C 23.828125 11.820312 24.007812 12.007812 24.066406 12.246094 C 24.128906 12.488281 24.054688 12.738281 23.878906 12.910156 C 22.742188 14.039062 21.21875 14.667969 19.636719 14.65625 Z M 19.636719 14.65625 "/>
</g>
<mask id="mask2">
  <g filter="url(#alpha)">
<rect x="0" y="0" width="24" height="18" style="fill:rgb(0%,0%,0%);fill-opacity:0.901961;stroke:none;"/>
  </g>
</mask>
<clipPath id="clip3">
  <rect x="0" y="0" width="24" height="18"/>
</clipPath>
<g id="surface11" clip-path="url(#clip3)">
<path style=" stroke:none;fill-rule:nonzero;fill:rgb(93.333333%,93.333333%,93.333333%);fill-opacity:1;" d="M 19.636719 17.945312 C 19.503906 17.945312 19.371094 17.945312 19.238281 17.933594 C 17.441406 17.8125 15.898438 16.808594 14.53125 15.9375 L 14.300781 15.789062 C 12.441406 14.597656 9.585938 14.195312 7.703125 16.136719 C 7.449219 16.40625 7.03125 16.410156 6.769531 16.144531 C 6.511719 15.882812 6.507812 15.449219 6.761719 15.183594 C 8.4375 13.457031 11.722656 12.554688 14.976562 14.644531 L 15.210938 14.792969 C 16.503906 15.628906 17.828125 16.488281 19.308594 16.59375 C 20.652344 16.695312 21.980469 16.207031 22.953125 15.242188 C 23.117188 15.0625 23.363281 14.988281 23.597656 15.050781 C 23.828125 15.109375 24.007812 15.296875 24.066406 15.535156 C 24.128906 15.777344 24.054688 16.03125 23.878906 16.199219 C 22.742188 17.328125 21.21875 17.957031 19.636719 17.945312 Z M 19.636719 17.945312 "/>
</g>
<mask id="mask3">
  <g filter="url(#alpha)">
<rect x="0" y="0" width="24" height="18" style="fill:rgb(0%,0%,0%);fill-opacity:0.74902;stroke:none;"/>
  </g>
</mask>
<clipPath id="clip4">
  <rect x="0" y="0" width="24" height="18"/>
</clipPath>
<g id="surface14" clip-path="url(#clip4)">
<path style=" stroke:none;fill-rule:nonzero;fill:rgb(93.333333%,93.333333%,93.333333%);fill-opacity:1;" d="M 9.335938 9.113281 C 9.335938 9.363281 9.140625 9.566406 8.898438 9.566406 C 8.660156 9.566406 8.464844 9.363281 8.464844 9.113281 C 8.464844 8.867188 8.660156 8.664062 8.898438 8.664062 C 9.140625 8.664062 9.335938 8.867188 9.335938 9.113281 Z M 9.335938 9.113281 "/>
</g>
<mask id="mask4">
  <g filter="url(#alpha)">
<rect x="0" y="0" width="24" height="18" style="fill:rgb(0%,0%,0%);fill-opacity:0.74902;stroke:none;"/>
  </g>
</mask>
<clipPath id="clip5">
  <rect x="0" y="0" width="24" height="18"/>
</clipPath>
<g id="surface17" clip-path="url(#clip5)">
<path style=" stroke:none;fill-rule:nonzero;fill:rgb(93.333333%,93.333333%,93.333333%);fill-opacity:1;" d="M 12.175781 16.261719 C 12.175781 16.511719 11.980469 16.714844 11.738281 16.714844 C 11.496094 16.714844 11.300781 16.511719 11.300781 16.261719 C 11.300781 16.015625 11.496094 15.8125 11.738281 15.8125 C 11.980469 15.8125 12.175781 16.015625 12.175781 16.261719 Z M 12.175781 16.261719 "/>
</g>
<mask id="mask5">
  <g filter="url(#alpha)">
<rect x="0" y="0" width="24" height="18" style="fill:rgb(0%,0%,0%);fill-opacity:0.74902;stroke:none;"/>
  </g>
</mask>
<clipPath id="clip6">
  <rect x="0" y="0" width="24" height="18"/>
</clipPath>
<g id="surface20" clip-path="url(#clip6)">
<path style=" stroke:none;fill-rule:nonzero;fill:rgb(93.333333%,93.333333%,93.333333%);fill-opacity:1;" d="M 17.988281 12.664062 C 17.988281 12.914062 17.792969 13.117188 17.550781 13.117188 C 17.308594 13.117188 17.113281 12.914062 17.113281 12.664062 C 17.113281 12.417969 17.308594 12.214844 17.550781 12.214844 C 17.792969 12.214844 17.988281 12.417969 17.988281 12.664062 Z M 17.988281 12.664062 "/>
</g>
<mask id="mask6">
  <g filter="url(#alpha)">
<rect x="0" y="0" width="24" height="18" style="fill:rgb(0%,0%,0%);fill-opacity:0.74902;stroke:none;"/>
  </g>
</mask>
<clipPath id="clip7">
  <rect x="0" y="0" width="24" height="18"/>
</clipPath>
<g id="surface23" clip-path="url(#clip7)">
<path style=" stroke:none;fill-rule:nonzero;fill:rgb(93.333333%,93.333333%,93.333333%);fill-opacity:1;" d="M 22.914062 15.589844 C 22.914062 15.835938 22.71875 16.039062 22.476562 16.039062 C 22.234375 16.039062 22.039062 15.835938 22.039062 15.589844 C 22.039062 15.339844 22.234375 15.136719 22.476562 15.136719 C 22.71875 15.136719 22.914062 15.339844 22.914062 15.589844 Z M 22.914062 15.589844 "/>
</g>
<mask id="mask7">
  <g filter="url(#alpha)">
<rect x="0" y="0" width="24" height="18" style="fill:rgb(0%,0%,0%);fill-opacity:0.74902;stroke:none;"/>
  </g>
</mask>
<clipPath id="clip8">
  <rect x="0" y="0" width="24" height="18"/>
</clipPath>
<g id="surface26" clip-path="url(#clip8)">
<path style=" stroke:none;fill-rule:nonzero;fill:rgb(93.333333%,93.333333%,93.333333%);fill-opacity:1;" d="M 21.238281 7.75 C 21.238281 7.996094 21.042969 8.199219 20.804688 8.199219 C 20.5625 8.199219 20.367188 7.996094 20.367188 7.75 C 20.367188 7.5 20.5625 7.300781 20.804688 7.300781 C 21.042969 7.300781 21.238281 7.5 21.238281 7.75 Z M 21.238281 7.75 "/>
</g>
</defs>
<g id="surface1">
<path style=" stroke:none;fill-rule:nonzero;fill:rgb(86.666667%,86.666667%,86.666667%);fill-opacity:1;" d="M 15.792969 4.164062 C 15.667969 4.164062 15.546875 4.164062 15.421875 4.175781 C 14.859375 2.429688 13.277344 1.253906 11.496094 1.25 C 11.257812 1.253906 11.019531 1.265625 10.78125 1.296875 C 9.835938 0.453125 8.628906 -0.0078125 7.378906 0 C 4.648438 0 2.425781 2.007812 1.949219 4.835938 C 0.769531 5.613281 0 6.90625 0 8.167969 C 0.0234375 10.402344 1.796875 12.195312 3.964844 12.175781 L 15.792969 12.175781 C 18.042969 12.175781 19.949219 10.351562 19.949219 8.167969 C 19.949219 5.984375 18.042969 4.164062 15.792969 4.164062 Z M 15.792969 4.164062 "/>
<path style=" stroke:none;fill-rule:evenodd;fill:rgb(80%,80%,80%);fill-opacity:1;" d="M 18.402344 10.074219 C 18.175781 10.554688 17.882812 10.996094 17.527344 11.386719 C 18.253906 11.023438 18.84375 10.421875 19.199219 9.675781 C 20.007812 7.925781 19.21875 5.910156 17.453125 5.027344 C 18.851562 6.03125 19.296875 8.132812 18.402344 10.074219 Z M 18.402344 10.074219 "/>
<use xlink:href="#surface5" mask="url(#mask0)"/>
<use xlink:href="#surface8" mask="url(#mask1)"/>
<use xlink:href="#surface11" mask="url(#mask2)"/>
<use xlink:href="#surface14" mask="url(#mask3)"/>
<use xlink:href="#surface17" mask="url(#mask4)"/>
<use xlink:href="#surface20" mask="url(#mask5)"/>
<use xlink:href="#surface23" mask="url(#mask6)"/>
<use xlink:href="#surface26" mask="url(#mask7)"/>
<path style=" stroke:none;fill-rule:nonzero;fill:rgb(0%,73.72549%,83.137255%);fill-opacity:1;" d="M 5.859375 10.542969 C 5.84375 10.542969 4.621094 11.699219 4.488281 12.1875 C 4.394531 12.511719 4.472656 12.859375 4.699219 13.105469 C 4.925781 13.347656 5.261719 13.441406 5.578125 13.355469 C 5.894531 13.265625 6.136719 13.007812 6.214844 12.679688 C 6.34375 12.1875 5.871094 10.546875 5.859375 10.542969 Z M 5.859375 10.542969 "/>
<path style=" stroke:none;fill-rule:nonzero;fill:rgb(0%,73.72549%,83.137255%);fill-opacity:1;" d="M 9.082031 14.585938 C 9.066406 14.585938 7.847656 15.742188 7.714844 16.230469 C 7.582031 16.722656 7.863281 17.230469 8.335938 17.363281 C 8.8125 17.5 9.304688 17.210938 9.4375 16.722656 C 9.570312 16.230469 9.097656 14.589844 9.082031 14.585938 Z M 9.082031 14.585938 "/>
<path style=" stroke:none;fill-rule:nonzero;fill:rgb(0%,73.72549%,83.137255%);fill-opacity:1;" d="M 13.121094 11.949219 C 13.105469 11.949219 11.882812 13.105469 11.753906 13.597656 C 11.652344 13.917969 11.730469 14.273438 11.960938 14.515625 C 12.1875 14.761719 12.527344 14.859375 12.84375 14.769531 C 13.160156 14.675781 13.402344 14.414062 13.476562 14.085938 C 13.609375 13.59375 13.132812 11.953125 13.121094 11.949219 Z M 13.121094 11.949219 "/>
</g>
</svg>
