<?xml version="1.0" encoding="UTF-8"?>
<svg xmlns="http://www.w3.org/2000/svg" xmlns:xlink="http://www.w3.org/1999/xlink" width="25px" height="px" viewBox="0 0 25 26" version="1.1">
<g id="surface1">
<path style=" stroke:none;fill-rule:nonzero;fill:rgb(78.823529%,89.019608%,96.862745%);fill-opacity:1;" d="M 24.253906 14.53125 L 20.714844 16.441406 L 19.445312 15.722656 L 20.738281 15.105469 L 19.90625 13.488281 L 17.492188 14.636719 L 15.90625 13.761719 C 16.042969 13.230469 16.042969 12.671875 15.90625 12.140625 L 17.492188 11.265625 L 19.90625 12.410156 L 20.738281 10.792969 L 19.445312 10.179688 L 20.71875 9.472656 L 24.257812 11.382812 L 25.171875 9.800781 L 22.617188 8.410156 L 24.703125 7.265625 L 23.765625 5.699219 L 21.683594 6.847656 L 21.730469 4.03125 L 19.839844 4.003906 L 19.769531 7.90625 L 18.5 8.613281 L 18.589844 7.230469 L 16.722656 7.113281 L 16.546875 9.699219 L 14.960938 10.574219 C 14.554688 10.191406 14.050781 9.914062 13.503906 9.765625 L 13.503906 8.03125 L 15.742188 6.589844 L 14.703125 5.085938 L 13.511719 5.851562 L 13.511719 4.433594 L 16.988281 2.425781 L 16.03125 0.867188 L 13.519531 2.320312 L 13.519531 0 L 11.648438 0 L 11.648438 2.320312 L 9.128906 0.867188 L 8.171875 2.417969 L 11.648438 4.425781 L 11.648438 5.84375 L 10.457031 5.078125 L 9.410156 6.578125 L 11.648438 8.03125 L 11.648438 9.78125 C 11.097656 9.929688 10.597656 10.207031 10.191406 10.589844 L 8.601562 9.714844 L 8.429688 7.128906 L 6.554688 7.246094 L 6.652344 8.628906 L 5.378906 7.921875 L 5.308594 4.019531 L 3.4375 4.050781 L 3.484375 6.867188 L 1.402344 5.71875 L 0.472656 7.265625 L 2.558594 8.410156 L 0 9.785156 L 0.910156 11.367188 L 4.453125 9.457031 L 5.726562 10.164062 L 4.433594 10.777344 L 5.265625 12.394531 L 7.675781 11.25 L 9.261719 12.125 C 9.117188 12.65625 9.117188 13.214844 9.261719 13.746094 L 7.675781 14.621094 L 5.265625 13.472656 L 4.433594 15.089844 L 5.726562 15.707031 L 4.453125 16.441406 L 0.910156 14.53125 L 0 16.117188 L 2.558594 17.484375 L 0.472656 18.632812 L 1.414062 20.195312 L 3.496094 19.046875 L 3.449219 21.867188 L 5.320312 21.898438 L 5.390625 17.992188 L 6.664062 17.285156 L 6.566406 18.671875 L 8.441406 18.789062 L 8.613281 16.199219 L 10.203125 15.324219 C 10.609375 15.707031 11.109375 15.988281 11.660156 16.136719 L 11.660156 17.886719 L 9.421875 19.324219 L 10.460938 20.832031 L 11.652344 20.066406 L 11.652344 21.480469 L 8.175781 23.492188 L 9.140625 25.019531 L 11.652344 23.570312 L 11.652344 25.890625 L 13.523438 25.890625 L 13.523438 23.582031 L 16.035156 25.03125 L 17 23.503906 L 13.523438 21.492188 L 13.523438 20.078125 L 14.714844 20.84375 L 15.753906 19.335938 L 13.515625 17.898438 L 13.515625 16.140625 C 14.0625 15.988281 14.566406 15.707031 14.972656 15.324219 L 16.558594 16.199219 L 16.734375 18.789062 L 18.601562 18.671875 L 18.511719 17.285156 L 19.78125 17.992188 L 19.839844 21.898438 L 21.714844 21.867188 L 21.667969 19.046875 L 23.75 20.195312 L 24.6875 18.632812 L 22.601562 17.484375 L 25.164062 16.117188 Z M 12.582031 14.453125 C 11.71875 14.453125 11.019531 13.777344 11.019531 12.945312 C 11.019531 12.113281 11.71875 11.441406 12.582031 11.441406 C 13.445312 11.441406 14.148438 12.113281 14.148438 12.945312 C 14.148438 13.777344 13.449219 14.453125 12.582031 14.457031 Z M 12.582031 14.453125 "/>
<path style=" stroke:none;fill-rule:nonzero;fill:rgb(56.862745%,80.392157%,94.901961%);fill-opacity:1;" d="M 24.253906 14.53125 L 20.714844 16.441406 L 19.445312 15.722656 L 20.738281 15.105469 L 19.90625 13.488281 L 17.492188 14.636719 L 15.90625 13.761719 C 16.042969 13.230469 16.042969 12.671875 15.90625 12.140625 L 17.492188 11.265625 L 19.90625 12.410156 L 20.738281 10.792969 L 19.445312 10.179688 L 20.71875 9.472656 L 24.257812 11.382812 L 25.171875 9.800781 L 22.617188 8.410156 L 24.703125 7.265625 L 23.765625 5.699219 L 21.683594 6.847656 L 21.730469 4.03125 L 19.839844 4.003906 L 19.769531 7.90625 L 18.5 8.613281 L 18.589844 7.230469 L 16.722656 7.113281 L 16.546875 9.699219 L 14.960938 10.574219 C 14.554688 10.191406 14.050781 9.914062 13.503906 9.765625 L 13.503906 8.03125 L 15.742188 6.589844 L 14.703125 5.085938 L 13.511719 5.851562 L 13.511719 4.433594 L 16.988281 2.425781 L 16.03125 0.867188 L 13.519531 2.320312 L 13.519531 0 L 12.582031 0 L 12.582031 11.445312 C 13.445312 11.445312 14.148438 12.117188 14.148438 12.949219 C 14.148438 13.78125 13.445312 14.457031 12.582031 14.457031 L 12.582031 25.902344 L 13.519531 25.902344 L 13.519531 23.582031 L 16.03125 25.03125 L 16.996094 23.503906 L 13.519531 21.492188 L 13.519531 20.078125 L 14.710938 20.84375 L 15.75 19.335938 L 13.511719 17.898438 L 13.511719 16.140625 C 14.058594 15.988281 14.5625 15.707031 14.96875 15.324219 L 16.554688 16.199219 L 16.730469 18.789062 L 18.597656 18.671875 L 18.507812 17.285156 L 19.777344 17.992188 L 19.839844 21.898438 L 21.714844 21.867188 L 21.667969 19.046875 L 23.75 20.195312 L 24.6875 18.632812 L 22.601562 17.484375 L 25.164062 16.117188 Z M 24.253906 14.53125 "/>
</g>
</svg>
