<?xml version="1.0" encoding="UTF-8"?>
<svg xmlns="http://www.w3.org/2000/svg" xmlns:xlink="http://www.w3.org/1999/xlink" width="25px" height="px" viewBox="0 0 25 21" version="1.1">
<g id="surface1">
<path style=" stroke:none;fill-rule:nonzero;fill:rgb(86.666667%,86.666667%,86.666667%);fill-opacity:1;" d="M 19.738281 5.117188 C 19.585938 5.117188 19.429688 5.117188 19.277344 5.132812 C 18.574219 2.988281 16.59375 1.542969 14.363281 1.542969 C 14.15625 1.542969 13.804688 1.558594 13.464844 1.597656 C 12.289062 0.5625 10.78125 -0.00390625 9.222656 0 C 5.808594 0 3.027344 2.464844 2.4375 5.921875 C 0.960938 6.886719 0 8.472656 0 10.019531 C 0.03125 12.761719 2.246094 14.960938 4.953125 14.9375 L 19.738281 14.9375 C 22.554688 14.9375 24.933594 12.6875 24.933594 10.019531 C 24.933594 7.355469 22.554688 5.117188 19.738281 5.117188 Z M 19.738281 5.117188 "/>
<path style=" stroke:none;fill-rule:evenodd;fill:rgb(80%,80%,80%);fill-opacity:1;" d="M 22.8125 12.152344 C 22.535156 12.746094 22.167969 13.289062 21.730469 13.769531 C 22.632812 13.316406 23.359375 12.574219 23.800781 11.65625 C 24.808594 9.503906 23.824219 7.039062 21.605469 5.957031 C 23.371094 7.195312 23.9375 9.769531 22.8125 12.152344 Z M 22.8125 12.152344 "/>
<path style=" stroke:none;fill-rule:nonzero;fill:rgb(0%,73.72549%,83.137255%);fill-opacity:1;" d="M 7.757812 12.816406 C 7.742188 12.816406 6.253906 14.203125 6.09375 14.789062 C 5.933594 15.375 6.273438 15.980469 6.851562 16.144531 C 7.433594 16.304688 8.03125 15.960938 8.191406 15.375 C 8.355469 14.789062 7.777344 12.824219 7.757812 12.816406 Z M 7.757812 12.816406 "/>
<path style=" stroke:none;fill-rule:nonzero;fill:rgb(0%,73.72549%,83.137255%);fill-opacity:1;" d="M 11.703125 17.65625 C 11.6875 17.65625 10.195312 19.039062 10.035156 19.625 C 9.914062 20.011719 10.011719 20.433594 10.289062 20.722656 C 10.566406 21.011719 10.976562 21.128906 11.363281 21.023438 C 11.746094 20.914062 12.042969 20.605469 12.136719 20.214844 C 12.28125 19.625 11.703125 17.660156 11.703125 17.65625 Z M 11.703125 17.65625 "/>
<path style=" stroke:none;fill-rule:nonzero;fill:rgb(0%,73.72549%,83.137255%);fill-opacity:1;" d="M 16.613281 14.5 C 16.597656 14.5 15.105469 15.882812 14.945312 16.472656 C 14.785156 17.058594 15.125 17.664062 15.707031 17.828125 C 16.285156 17.988281 16.886719 17.644531 17.046875 17.058594 C 17.207031 16.472656 16.628906 14.507812 16.613281 14.5 Z M 16.613281 14.5 "/>
</g>
</svg>
