<?xml version="1.0" encoding="UTF-8"?>
<svg xmlns="http://www.w3.org/2000/svg" xmlns:xlink="http://www.w3.org/1999/xlink" width="25px" height="px" viewBox="0 0 25 25" version="1.1">
<g id="surface1">
<path style=" stroke:none;fill-rule:evenodd;fill:rgb(97.647059%,65.098039%,2.745098%);fill-opacity:1;" d="M 14.585938 14.085938 C 12.664062 16.003906 10.042969 17.078125 7.308594 17.066406 C 4.578125 17.058594 1.964844 15.964844 0.0585938 14.03125 L 0 13.96875 C 0.820312 20.179688 6.140625 25 12.566406 25.03125 C 19.542969 25.058594 25.175781 19.417969 25.148438 12.4375 C 25.144531 6.433594 20.898438 1.25 14.957031 0 C 18.574219 4.070312 18.414062 10.207031 14.585938 14.085938 Z M 14.585938 14.085938 "/>
<path style=" stroke:none;fill-rule:evenodd;fill:rgb(100%,84.313725%,29.411765%);fill-opacity:1;" d="M 21.996094 16.890625 C 21.527344 18 20.894531 19.039062 20.121094 19.96875 C 21.738281 19.054688 23.003906 17.640625 23.722656 15.941406 C 25.460938 11.886719 23.8125 7.1875 19.902344 5.066406 C 22.976562 7.429688 23.945312 12.347656 21.996094 16.890625 Z M 21.996094 16.890625 "/>
</g>
</svg>
