<?xml version="1.0" encoding="UTF-8"?>
<svg xmlns="http://www.w3.org/2000/svg" xmlns:xlink="http://www.w3.org/1999/xlink" width="25px" height="px" viewBox="0 0 24 19" version="1.1">
<g id="surface1">
<path style=" stroke:none;fill-rule:evenodd;fill:rgb(97.647059%,65.098039%,2.745098%);fill-opacity:1;" d="M 14.207031 10.671875 C 12.8125 12.128906 10.914062 12.941406 8.929688 12.933594 C 6.949219 12.925781 5.058594 12.097656 3.675781 10.632812 L 3.628906 10.585938 C 4.214844 15.335938 8.101562 18.914062 12.742188 18.96875 C 15.179688 18.96875 17.519531 17.957031 19.234375 16.164062 C 20.949219 14.371094 21.894531 11.941406 21.867188 9.421875 C 21.863281 4.875 18.785156 0.945312 14.476562 0 C 17.097656 3.085938 16.980469 7.734375 14.207031 10.671875 Z M 14.207031 10.671875 "/>
<path style=" stroke:none;fill-rule:evenodd;fill:rgb(100%,84.313725%,29.411765%);fill-opacity:1;" d="M 19.578125 12.800781 C 19.238281 13.644531 18.777344 14.4375 18.214844 15.144531 C 19.386719 14.453125 20.308594 13.378906 20.828125 12.09375 C 22.097656 9.015625 20.898438 5.445312 18.058594 3.839844 C 20.289062 5.632812 20.988281 9.363281 19.578125 12.800781 Z M 19.578125 12.800781 "/>
<path style=" stroke:none;fill-rule:nonzero;fill:rgb(86.666667%,86.666667%,86.666667%);fill-opacity:1;" d="M 18.984375 9.363281 C 18.835938 9.363281 18.6875 9.363281 18.542969 9.382812 C 17.859375 7.28125 15.957031 5.867188 13.8125 5.867188 C 13.523438 5.871094 13.234375 5.886719 12.949219 5.921875 C 11.816406 4.90625 10.367188 4.347656 8.871094 4.351562 C 5.601562 4.351562 2.914062 6.769531 2.34375 10.1875 C 0.925781 11.109375 0 12.667969 0 14.1875 C 0.0351562 16.871094 2.164062 19.023438 4.765625 19 L 18.984375 19 C 21.691406 19 23.980469 16.796875 23.980469 14.179688 C 23.980469 11.558594 21.691406 9.363281 18.984375 9.363281 Z M 18.984375 9.363281 "/>
<path style=" stroke:none;fill-rule:evenodd;fill:rgb(80%,80%,80%);fill-opacity:1;" d="M 21.9375 16.277344 C 21.671875 16.855469 21.320312 17.386719 20.898438 17.855469 C 21.765625 17.414062 22.46875 16.6875 22.890625 15.789062 C 23.859375 13.683594 22.914062 11.253906 20.78125 10.195312 C 22.476562 11.410156 23.011719 13.9375 21.9375 16.277344 Z M 21.9375 16.277344 "/>
</g>
</svg>
