<?xml version="1.0" encoding="UTF-8"?>
<svg xmlns="http://www.w3.org/2000/svg" xmlns:xlink="http://www.w3.org/1999/xlink" width="25px" height="px" viewBox="0 0 25 22" version="1.1">
<g id="surface1">
<path style=" stroke:none;fill-rule:nonzero;fill:rgb(60%,60%,60%);fill-opacity:1;" d="M 19.804688 5.097656 C 19.652344 5.097656 19.496094 5.097656 19.34375 5.117188 C 18.632812 2.980469 16.648438 1.539062 14.410156 1.539062 C 14.109375 1.539062 13.808594 1.558594 13.511719 1.589844 C 12.332031 0.558594 10.816406 -0.0078125 9.253906 0 C 5.835938 0 3.039062 2.460938 2.445312 5.925781 C 0.964844 6.875 0 8.457031 0 10.007812 C 0.03125 12.742188 2.257812 14.9375 4.972656 14.914062 L 19.804688 14.914062 C 22.632812 14.914062 25.019531 12.667969 25.019531 10.007812 C 25.019531 7.34375 22.632812 5.097656 19.804688 5.097656 Z M 19.804688 5.097656 "/>
<path style=" stroke:none;fill-rule:evenodd;fill:rgb(46.666667%,46.666667%,46.666667%);fill-opacity:1;" d="M 23.027344 12.226562 C 22.746094 12.816406 22.378906 13.359375 21.941406 13.835938 C 22.84375 13.386719 23.578125 12.644531 24.019531 11.730469 C 25.027344 9.589844 24.042969 7.117188 21.820312 6.039062 C 23.585938 7.277344 24.148438 9.851562 23.027344 12.226562 Z M 23.027344 12.226562 "/>
<path style=" stroke:none;fill-rule:nonzero;fill:rgb(0%,73.72549%,83.137255%);fill-opacity:1;" d="M 6.15625 18.144531 C 6.019531 18.683594 5.480469 19.011719 4.941406 18.886719 C 4.414062 18.726562 4.109375 18.167969 4.257812 17.632812 C 4.546875 16.539062 6.609375 12.613281 6.609375 12.613281 C 6.609375 12.613281 6.488281 16.894531 6.15625 18.144531 Z M 6.15625 18.144531 "/>
<path style=" stroke:none;fill-rule:nonzero;fill:rgb(0%,73.72549%,83.137255%);fill-opacity:1;" d="M 9.65625 21.257812 C 9.578125 21.613281 9.3125 21.894531 8.964844 21.996094 C 8.617188 22.09375 8.242188 21.996094 7.988281 21.734375 C 7.738281 21.472656 7.648438 21.09375 7.753906 20.746094 C 8.042969 19.652344 10.109375 15.726562 10.109375 15.726562 C 10.109375 15.726562 10 20.007812 9.65625 21.257812 Z M 9.65625 21.257812 "/>
<path style=" stroke:none;fill-rule:nonzero;fill:rgb(0%,73.72549%,83.137255%);fill-opacity:1;" d="M 14.628906 18.144531 C 14.550781 18.5 14.285156 18.785156 13.9375 18.882812 C 13.589844 18.984375 13.214844 18.882812 12.964844 18.621094 C 12.710938 18.359375 12.621094 17.980469 12.730469 17.632812 C 13.019531 16.539062 15.082031 12.613281 15.082031 12.613281 C 15.082031 12.613281 14.960938 16.894531 14.628906 18.144531 Z M 14.628906 18.144531 "/>
<path style=" stroke:none;fill-rule:nonzero;fill:rgb(0%,73.72549%,83.137255%);fill-opacity:1;" d="M 18.296875 21.296875 C 18.21875 21.652344 17.953125 21.9375 17.605469 22.035156 C 17.257812 22.132812 16.882812 22.035156 16.632812 21.773438 C 16.378906 21.511719 16.289062 21.132812 16.398438 20.785156 C 16.691406 19.691406 18.75 15.765625 18.75 15.765625 C 18.75 15.765625 18.632812 20.046875 18.296875 21.296875 Z M 18.296875 21.296875 "/>
</g>
</svg>
