<?xml version="1.0" encoding="UTF-8"?>
<svg xmlns="http://www.w3.org/2000/svg" xmlns:xlink="http://www.w3.org/1999/xlink" width="25px" height="px" viewBox="0 0 24 22" version="1.1">
<g id="surface1">
<path style=" stroke:none;fill-rule:nonzero;fill:rgb(86.666667%,86.666667%,86.666667%);fill-opacity:1;" d="M 20.273438 14.648438 C 20.160156 14.648438 20.046875 14.648438 19.9375 14.648438 C 19.414062 13.054688 17.960938 11.984375 16.328125 11.984375 C 16.109375 11.988281 15.890625 12 15.671875 12.027344 C 14.808594 11.253906 13.703125 10.828125 12.558594 10.832031 C 10.054688 10.832031 8.011719 12.675781 7.578125 15.265625 C 6.496094 15.980469 5.789062 17.164062 5.789062 18.324219 C 5.808594 20.375 7.4375 22.019531 9.425781 22 L 20.273438 22 C 22.339844 22 24.085938 20.316406 24.085938 18.328125 C 24.085938 16.335938 22.339844 14.648438 20.273438 14.648438 Z M 20.273438 14.648438 "/>
<path style=" stroke:none;fill-rule:evenodd;fill:rgb(80%,80%,80%);fill-opacity:1;" d="M 22.625 20.070312 C 22.421875 20.511719 22.15625 20.917969 21.832031 21.277344 C 22.496094 20.9375 23.027344 20.382812 23.351562 19.699219 C 24.078125 18.097656 23.371094 16.246094 21.742188 15.449219 C 23.03125 16.363281 23.445312 18.289062 22.625 20.070312 Z M 22.625 20.070312 "/>
<path style=" stroke:none;fill-rule:evenodd;fill:rgb(97.647059%,65.098039%,2.745098%);fill-opacity:1;" d="M 10.605469 10.691406 C 9.210938 12.148438 7.304688 12.960938 5.316406 12.957031 C 3.332031 12.949219 1.429688 12.117188 0.0429688 10.648438 L 0 10.601562 C 0.597656 15.320312 4.464844 18.984375 9.136719 19 C 11.585938 18.996094 13.929688 17.984375 15.648438 16.191406 C 17.367188 14.394531 18.316406 11.964844 18.289062 9.441406 C 18.285156 4.886719 15.195312 0.953125 10.878906 0 C 13.507812 3.089844 13.390625 7.746094 10.605469 10.691406 Z M 10.605469 10.691406 "/>
<path style=" stroke:none;fill-rule:evenodd;fill:rgb(100%,84.313725%,29.411765%);fill-opacity:1;" d="M 16 12.820312 C 15.65625 13.664062 15.195312 14.449219 14.628906 15.15625 C 15.804688 14.460938 16.726562 13.386719 17.25 12.101562 C 18.511719 9.023438 17.3125 5.457031 14.46875 3.851562 C 16.707031 5.640625 17.410156 9.371094 16 12.820312 Z M 16 12.820312 "/>
</g>
</svg>
