<?xml version="1.0" encoding="UTF-8"?>
<svg xmlns="http://www.w3.org/2000/svg" xmlns:xlink="http://www.w3.org/1999/xlink" width="25px" height="px" viewBox="0 0 24 21" version="1.1">
<g id="surface1">
<path style=" stroke:none;fill-rule:evenodd;fill:rgb(97.647059%,65.098039%,2.745098%);fill-opacity:1;" d="M 9.125 9.191406 C 7.921875 10.441406 6.28125 11.144531 4.574219 11.136719 C 2.863281 11.128906 1.230469 10.414062 0.0351562 9.152344 L 0 9.113281 C 0.503906 13.207031 3.859375 16.289062 7.859375 16.332031 C 9.964844 16.328125 11.980469 15.460938 13.460938 13.914062 C 14.9375 12.371094 15.757812 10.28125 15.730469 8.113281 C 15.726562 4.199219 13.070312 0.816406 9.355469 0 C 11.621094 2.65625 11.519531 6.660156 9.125 9.191406 Z M 9.125 9.191406 "/>
<path style=" stroke:none;fill-rule:evenodd;fill:rgb(100%,84.313725%,29.411765%);fill-opacity:1;" d="M 13.757812 11.019531 C 13.464844 11.746094 13.066406 12.421875 12.582031 13.027344 C 13.597656 12.433594 14.394531 11.511719 14.847656 10.402344 C 15.933594 7.753906 14.898438 4.6875 12.453125 3.304688 C 14.371094 4.847656 14.976562 8.058594 13.757812 11.019531 Z M 13.757812 11.019531 "/>
<path style=" stroke:none;fill-rule:nonzero;fill:rgb(86.666667%,86.666667%,86.666667%);fill-opacity:1;" d="M 19.636719 12.867188 C 19.511719 12.867188 19.386719 12.867188 19.261719 12.878906 C 18.679688 11.09375 17.054688 9.890625 15.230469 9.890625 C 14.984375 9.894531 14.738281 9.910156 14.492188 9.9375 C 13.527344 9.074219 12.292969 8.597656 11.015625 8.601562 C 8.214844 8.601562 5.9375 10.660156 5.453125 13.554688 C 4.242188 14.351562 3.457031 15.675781 3.457031 16.96875 C 3.480469 19.253906 5.296875 21.089844 7.515625 21.070312 L 19.636719 21.070312 C 21.945312 21.070312 23.894531 19.203125 23.894531 16.96875 C 23.894531 14.734375 21.945312 12.867188 19.636719 12.867188 Z M 19.636719 12.867188 "/>
<path style=" stroke:none;fill-rule:evenodd;fill:rgb(80%,80%,80%);fill-opacity:1;" d="M 22.535156 18.917969 C 22.308594 19.410156 22.007812 19.867188 21.648438 20.265625 C 22.390625 19.890625 22.988281 19.269531 23.347656 18.503906 C 24.171875 16.714844 23.367188 14.644531 21.535156 13.746094 C 22.996094 14.78125 23.453125 16.929688 22.535156 18.917969 Z M 22.535156 18.917969 "/>
</g>
</svg>
