<?xml version="1.0" encoding="UTF-8"?>
<svg xmlns="http://www.w3.org/2000/svg" xmlns:xlink="http://www.w3.org/1999/xlink" width="25px" height="px" viewBox="0 0 24 21" version="1.1">
<g id="surface1">
<path style=" stroke:none;fill-rule:nonzero;fill:rgb(60%,60%,60%);fill-opacity:1;" d="M 20.796875 3.585938 C 20.703125 3.585938 20.613281 3.585938 20.515625 3.585938 C 20.097656 2.125 18.90625 1.082031 17.527344 1.082031 C 17.347656 1.085938 17.164062 1.097656 16.984375 1.121094 C 16.300781 0.40625 15.371094 0.00390625 14.402344 0 C 12.328125 0 10.636719 1.730469 10.273438 4.164062 C 9.375 4.828125 8.828125 5.890625 8.792969 7.035156 C 8.792969 8.941406 10.144531 10.492188 11.804688 10.492188 L 20.796875 10.492188 C 22.511719 10.492188 23.957031 8.914062 23.957031 7.035156 C 23.957031 5.160156 22.511719 3.585938 20.796875 3.585938 Z M 20.796875 3.585938 "/>
<path style=" stroke:none;fill-rule:nonzero;fill:rgb(86.666667%,86.666667%,86.666667%);fill-opacity:1;" d="M 17.121094 7.425781 C 16.988281 7.425781 16.855469 7.433594 16.722656 7.441406 C 16.105469 5.535156 14.390625 4.253906 12.457031 4.253906 C 12.199219 4.257812 11.945312 4.273438 11.691406 4.304688 C 10.671875 3.378906 9.363281 2.875 8.011719 2.878906 C 5.050781 2.878906 2.648438 5.078125 2.140625 8.171875 C 0.832031 9.015625 0 10.429688 0 11.8125 C 0.0273438 14.257812 1.949219 16.21875 4.296875 16.199219 L 17.121094 16.199219 C 19.5625 16.199219 21.625 14.191406 21.625 11.8125 C 21.625 9.4375 19.5625 7.425781 17.121094 7.425781 Z M 17.121094 7.425781 "/>
<path style=" stroke:none;fill-rule:evenodd;fill:rgb(80%,80%,80%);fill-opacity:1;" d="M 19.949219 13.898438 C 19.710938 14.425781 19.394531 14.910156 19.011719 15.339844 C 19.789062 14.933594 20.417969 14.269531 20.796875 13.457031 C 21.671875 11.542969 20.820312 9.332031 18.894531 8.367188 C 20.425781 9.472656 20.921875 11.773438 19.949219 13.898438 Z M 19.949219 13.898438 "/>
<path style=" stroke:none;fill-rule:nonzero;fill:rgb(0%,73.72549%,83.137255%);fill-opacity:1;" d="M 6.351562 13.433594 C 6.335938 13.433594 5.007812 14.699219 4.867188 15.234375 C 4.769531 15.582031 4.859375 15.960938 5.105469 16.222656 C 5.351562 16.484375 5.710938 16.585938 6.046875 16.492188 C 6.386719 16.398438 6.648438 16.121094 6.734375 15.765625 C 6.878906 15.234375 6.363281 13.4375 6.351562 13.433594 Z M 6.351562 13.433594 "/>
<path style=" stroke:none;fill-rule:nonzero;fill:rgb(0%,73.72549%,83.137255%);fill-opacity:1;" d="M 9.84375 17.859375 C 9.828125 17.859375 8.503906 19.125 8.363281 19.660156 C 8.265625 20.011719 8.355469 20.386719 8.601562 20.648438 C 8.84375 20.910156 9.207031 21.011719 9.542969 20.917969 C 9.882812 20.824219 10.144531 20.546875 10.230469 20.191406 C 10.375 19.671875 9.859375 17.859375 9.84375 17.859375 Z M 9.84375 17.859375 "/>
<path style=" stroke:none;fill-rule:nonzero;fill:rgb(0%,73.72549%,83.137255%);fill-opacity:1;" d="M 14.222656 14.972656 C 14.210938 14.972656 12.886719 16.238281 12.742188 16.777344 C 12.613281 17.308594 12.917969 17.851562 13.425781 17.996094 C 13.933594 18.140625 14.460938 17.835938 14.609375 17.308594 C 14.753906 16.773438 14.238281 14.976562 14.222656 14.972656 Z M 14.222656 14.972656 "/>
</g>
</svg>
