<?xml version="1.0" encoding="UTF-8"?>
<svg xmlns="http://www.w3.org/2000/svg" xmlns:xlink="http://www.w3.org/1999/xlink" width="25px" height="px" viewBox="0 0 24 21" version="1.1">
<g id="surface1">
<path style=" stroke:none;fill-rule:nonzero;fill:rgb(86.666667%,86.666667%,86.666667%);fill-opacity:1;" d="M 20.867188 3.578125 C 20.773438 3.578125 20.679688 3.578125 20.589844 3.578125 C 20.171875 2.125 18.976562 1.082031 17.617188 1.082031 C 17.433594 1.082031 17.253906 1.097656 17.070312 1.117188 C 16.382812 0.402344 15.453125 0 14.480469 0 C 12.410156 0 10.722656 1.726562 10.359375 4.15625 C 9.464844 4.820312 8.917969 5.882812 8.882812 7.027344 C 8.882812 8.921875 10.234375 10.480469 11.894531 10.480469 L 20.867188 10.480469 C 22.578125 10.480469 24.023438 8.902344 24.023438 7.027344 C 24.023438 5.148438 22.578125 3.578125 20.867188 3.578125 Z M 20.867188 3.578125 "/>
<path style=" stroke:none;fill-rule:nonzero;fill:rgb(60%,60%,60%);fill-opacity:1;" d="M 17.183594 7.417969 C 17.054688 7.417969 16.929688 7.417969 16.785156 7.433594 C 16.167969 5.519531 14.449219 4.226562 12.511719 4.222656 C 12.25 4.226562 11.988281 4.242188 11.730469 4.273438 C 10.703125 3.347656 9.386719 2.839844 8.03125 2.84375 C 5.058594 2.84375 2.636719 5.050781 2.121094 8.160156 C 0.835938 9.011719 0 10.429688 0 11.820312 C 0.03125 14.269531 1.957031 16.238281 4.316406 16.214844 L 17.183594 16.214844 C 19.636719 16.214844 21.703125 14.207031 21.703125 11.820312 C 21.703125 9.429688 19.636719 7.417969 17.183594 7.417969 Z M 17.183594 7.417969 "/>
<path style=" stroke:none;fill-rule:evenodd;fill:rgb(46.666667%,46.666667%,46.666667%);fill-opacity:1;" d="M 19.824219 13.941406 C 19.570312 14.5 19.238281 15.015625 18.832031 15.46875 C 19.664062 15.042969 20.332031 14.339844 20.738281 13.472656 C 21.660156 11.445312 20.757812 9.105469 18.71875 8.082031 C 20.339844 9.253906 20.855469 11.695312 19.824219 13.941406 Z M 19.824219 13.941406 "/>
<path style=" stroke:none;fill-rule:nonzero;fill:rgb(0%,73.72549%,83.137255%);fill-opacity:1;" d="M 6.382812 13.386719 C 6.371094 13.386719 5.046875 14.652344 4.902344 15.1875 C 4.804688 15.539062 4.894531 15.917969 5.136719 16.175781 C 5.382812 16.4375 5.742188 16.539062 6.082031 16.445312 C 6.421875 16.351562 6.683594 16.074219 6.769531 15.722656 C 6.917969 15.1875 6.40625 13.390625 6.382812 13.386719 Z M 6.382812 13.386719 "/>
<path style=" stroke:none;fill-rule:nonzero;fill:rgb(0%,73.72549%,83.137255%);fill-opacity:1;" d="M 9.886719 17.808594 C 9.886719 17.808594 8.546875 19.074219 8.40625 19.613281 C 8.304688 19.960938 8.398438 20.339844 8.640625 20.601562 C 8.886719 20.859375 9.246094 20.964844 9.585938 20.871094 C 9.921875 20.773438 10.183594 20.496094 10.273438 20.144531 C 10.414062 19.613281 9.902344 17.808594 9.886719 17.808594 Z M 9.886719 17.808594 "/>
<path style=" stroke:none;fill-rule:nonzero;fill:rgb(0%,73.72549%,83.137255%);fill-opacity:1;" d="M 14.265625 14.929688 C 14.25 14.929688 12.925781 16.195312 12.785156 16.730469 C 12.675781 17.253906 12.980469 17.777344 13.476562 17.917969 C 13.972656 18.058594 14.488281 17.769531 14.652344 17.261719 C 14.792969 16.726562 14.28125 14.929688 14.265625 14.929688 Z M 14.265625 14.929688 "/>
</g>
</svg>
