<?xml version="1.0" encoding="UTF-8"?>
<svg xmlns="http://www.w3.org/2000/svg" xmlns:xlink="http://www.w3.org/1999/xlink" width="25px" height="px" viewBox="0 0 24 21" version="1.1">
<g id="surface1">
<path style=" stroke:none;fill-rule:nonzero;fill:rgb(86.666667%,86.666667%,86.666667%);fill-opacity:1;" d="M 19.089844 5.046875 C 18.9375 5.046875 18.792969 5.046875 18.644531 5.0625 C 17.964844 2.949219 16.050781 1.519531 13.894531 1.515625 C 13.605469 1.519531 13.320312 1.535156 13.03125 1.570312 C 11.890625 0.550781 10.429688 -0.0078125 8.917969 0 C 5.617188 0 2.929688 2.433594 2.355469 5.859375 C 0.929688 6.800781 0 8.371094 0 9.898438 C 0.0273438 12.609375 2.171875 14.78125 4.792969 14.757812 L 19.089844 14.757812 C 21.8125 14.757812 24.113281 12.546875 24.113281 9.898438 C 24.113281 7.253906 21.8125 5.046875 19.089844 5.046875 Z M 19.089844 5.046875 "/>
<path style=" stroke:none;fill-rule:evenodd;fill:rgb(80%,80%,80%);fill-opacity:1;" d="M 22.242188 12.210938 C 21.972656 12.792969 21.617188 13.332031 21.1875 13.800781 C 22.066406 13.363281 22.777344 12.632812 23.207031 11.726562 C 24.183594 9.609375 23.234375 7.160156 21.097656 6.09375 C 22.785156 7.3125 23.324219 9.855469 22.242188 12.210938 Z M 22.242188 12.210938 "/>
<path style=" stroke:none;fill-rule:nonzero;fill:rgb(0%,73.72549%,83.137255%);fill-opacity:1;" d="M 6.09375 12.78125 C 6.074219 12.78125 4.597656 14.179688 4.4375 14.773438 C 4.320312 15.164062 4.417969 15.589844 4.691406 15.882812 C 4.964844 16.175781 5.375 16.292969 5.753906 16.1875 C 6.136719 16.078125 6.429688 15.765625 6.523438 15.367188 C 6.679688 14.773438 6.109375 12.78125 6.09375 12.78125 Z M 6.09375 12.78125 "/>
<path style=" stroke:none;fill-rule:nonzero;fill:rgb(0%,73.72549%,83.137255%);fill-opacity:1;" d="M 8.867188 17.679688 C 8.851562 17.679688 7.375 19.078125 7.214844 19.675781 C 7.058594 20.269531 7.394531 20.882812 7.96875 21.046875 C 8.542969 21.210938 9.136719 20.863281 9.296875 20.269531 C 9.457031 19.675781 8.886719 17.683594 8.867188 17.679688 Z M 8.867188 17.679688 "/>
<path style=" stroke:none;fill-rule:nonzero;fill:rgb(0%,73.72549%,83.137255%);fill-opacity:1;" d="M 13.269531 14.484375 C 13.253906 14.484375 11.777344 15.886719 11.617188 16.480469 C 11.460938 17.074219 11.796875 17.6875 12.371094 17.851562 C 12.945312 18.015625 13.539062 17.667969 13.699219 17.074219 C 13.859375 16.476562 13.285156 14.488281 13.269531 14.484375 Z M 13.269531 14.484375 "/>
<path style=" stroke:none;fill-rule:nonzero;fill:rgb(100%,89.411765%,12.156863%);fill-opacity:1;" d="M 16.910156 12.9375 L 20.40625 12.9375 L 18.984375 15.355469 L 20.453125 15.355469 L 17.441406 19.375 L 18.035156 16.980469 L 15.21875 16.980469 Z M 16.910156 12.9375 "/>
</g>
</svg>
