<?xml version="1.0" encoding="UTF-8"?>
<svg xmlns="http://www.w3.org/2000/svg" xmlns:xlink="http://www.w3.org/1999/xlink" width="25px" height="px" viewBox="0 0 25 23" version="1.1">
<g id="surface1">
<path style=" stroke:none;fill-rule:nonzero;fill:rgb(86.666667%,86.666667%,86.666667%);fill-opacity:1;" d="M 21.742188 3.648438 C 21.644531 3.648438 21.546875 3.648438 21.453125 3.648438 C 21.011719 2.164062 19.769531 1.101562 18.351562 1.101562 C 18.160156 1.105469 17.972656 1.117188 17.78125 1.140625 C 17.066406 0.414062 16.09375 0 15.082031 0 C 12.917969 0 11.171875 1.761719 10.78125 4.238281 C 9.847656 4.914062 9.273438 5.996094 9.238281 7.164062 C 9.238281 9.101562 10.644531 10.679688 12.378906 10.679688 L 21.742188 10.679688 C 23.527344 10.679688 25.035156 9.074219 25.035156 7.164062 C 25.035156 5.253906 23.527344 3.648438 21.742188 3.648438 Z M 21.742188 3.648438 "/>
<path style=" stroke:none;fill-rule:nonzero;fill:rgb(60%,60%,60%);fill-opacity:1;" d="M 17.929688 7.589844 C 17.789062 7.589844 17.664062 7.589844 17.511719 7.605469 C 16.871094 5.652344 15.074219 4.332031 13.046875 4.328125 C 12.773438 4.332031 12.503906 4.351562 12.230469 4.378906 C 11.160156 3.4375 9.792969 2.921875 8.378906 2.929688 C 5.277344 2.929688 2.753906 5.175781 2.210938 8.339844 C 0.871094 9.214844 0 10.664062 0 12.078125 C 0.0273438 14.578125 2.042969 16.589844 4.503906 16.566406 L 17.929688 16.566406 C 20.488281 16.566406 22.648438 14.507812 22.648438 12.078125 C 22.648438 9.644531 20.480469 7.589844 17.929688 7.589844 Z M 17.929688 7.589844 "/>
<path style=" stroke:none;fill-rule:evenodd;fill:rgb(46.666667%,46.666667%,46.666667%);fill-opacity:1;" d="M 20.847656 14.109375 C 20.59375 14.648438 20.261719 15.144531 19.863281 15.582031 C 20.683594 15.167969 21.34375 14.492188 21.746094 13.652344 C 22.660156 11.699219 21.765625 9.433594 19.75 8.449219 C 21.355469 9.582031 21.863281 11.9375 20.847656 14.109375 Z M 20.847656 14.109375 "/>
<path style=" stroke:none;fill-rule:nonzero;fill:rgb(0%,73.72549%,83.137255%);fill-opacity:1;" d="M 3.894531 19.390625 C 3.769531 19.882812 3.28125 20.179688 2.796875 20.066406 C 2.320312 19.917969 2.042969 19.410156 2.175781 18.921875 C 2.441406 17.921875 4.304688 14.320312 4.304688 14.320312 C 4.304688 14.320312 4.195312 18.246094 3.894531 19.390625 Z M 3.894531 19.390625 "/>
<path style=" stroke:none;fill-rule:nonzero;fill:rgb(0%,73.72549%,83.137255%);fill-opacity:1;" d="M 6.347656 22.238281 C 6.222656 22.726562 5.734375 23.027344 5.246094 22.914062 C 4.769531 22.765625 4.496094 22.257812 4.628906 21.769531 C 4.894531 20.769531 6.753906 17.167969 6.753906 17.167969 C 6.753906 17.167969 6.648438 21.089844 6.347656 22.238281 Z M 6.347656 22.238281 "/>
<path style=" stroke:none;fill-rule:nonzero;fill:rgb(0%,73.72549%,83.137255%);fill-opacity:1;" d="M 10.136719 19.390625 C 10.0625 19.710938 9.820312 19.964844 9.507812 20.054688 C 9.195312 20.144531 8.859375 20.050781 8.632812 19.816406 C 8.40625 19.582031 8.320312 19.238281 8.414062 18.921875 C 8.679688 17.921875 10.542969 14.320312 10.542969 14.320312 C 10.542969 14.320312 10.4375 18.246094 10.136719 19.390625 Z M 10.136719 19.390625 "/>
<path style=" stroke:none;fill-rule:nonzero;fill:rgb(0%,73.72549%,83.137255%);fill-opacity:1;" d="M 12.742188 22.273438 C 12.667969 22.59375 12.425781 22.847656 12.113281 22.9375 C 11.800781 23.023438 11.464844 22.933594 11.238281 22.699219 C 11.011719 22.460938 10.929688 22.121094 11.019531 21.804688 C 11.289062 20.804688 13.148438 17.203125 13.148438 17.203125 C 13.148438 17.203125 13.046875 21.128906 12.742188 22.273438 Z M 12.742188 22.273438 "/>
<path style=" stroke:none;fill-rule:nonzero;fill:rgb(100%,89.411765%,12.156863%);fill-opacity:1;" d="M 15.246094 15.632812 L 18.527344 15.632812 L 17.195312 17.871094 L 18.574219 17.871094 L 15.746094 21.585938 L 16.304688 19.367188 L 13.65625 19.367188 Z M 15.246094 15.632812 "/>
</g>
</svg>
