<?xml version="1.0" encoding="UTF-8"?>
<svg xmlns="http://www.w3.org/2000/svg" xmlns:xlink="http://www.w3.org/1999/xlink" width="25px" height="px" viewBox="0 0 25 24" version="1.1">
<g id="surface1">
<path style=" stroke:none;fill-rule:nonzero;fill:rgb(86.666667%,86.666667%,86.666667%);fill-opacity:1;" d="M 6.6875 17.640625 C 6.6875 19.53125 8.429688 21.125 10.492188 21.125 L 21.324219 21.125 C 23.304688 21.140625 24.929688 19.585938 24.949219 17.640625 C 24.949219 16.546875 24.246094 15.421875 23.167969 14.746094 C 22.734375 12.289062 20.699219 10.546875 18.199219 10.546875 C 17.058594 10.542969 15.953125 10.945312 15.089844 11.675781 C 14.84375 11.648438 14.585938 11.636719 14.433594 11.636719 C 12.800781 11.636719 11.347656 12.65625 10.828125 14.175781 C 10.714844 14.175781 10.601562 14.164062 10.492188 14.164062 C 8.429688 14.160156 6.6875 15.757812 6.6875 17.640625 Z M 6.6875 17.640625 "/>
<path style=" stroke:none;fill-rule:nonzero;fill:rgb(25.490196%,74.901961%,96.862745%);fill-opacity:1;" d="M 20.886719 3.371094 C 22.0625 3.28125 23.199219 3.839844 23.824219 4.820312 C 24.449219 5.804688 24.464844 7.046875 23.863281 8.042969 L 24.460938 8.539062 L 22.1875 9.089844 L 22.378906 6.804688 L 22.949219 7.285156 C 23.375 6.394531 23.058594 5.335938 22.214844 4.804688 C 21.367188 4.277344 20.253906 4.445312 19.609375 5.195312 L 18.71875 4.449219 C 19.261719 3.820312 20.042969 3.433594 20.886719 3.371094 Z M 20.886719 3.371094 "/>
<path style=" stroke:none;fill-rule:evenodd;fill:rgb(97.647059%,65.098039%,2.745098%);fill-opacity:1;" d="M 10.410156 9.964844 C 9.039062 11.324219 7.167969 12.082031 5.21875 12.078125 C 3.269531 12.070312 1.402344 11.292969 0.0429688 9.925781 L 0 9.882812 C 0.574219 14.320312 4.402344 17.664062 8.96875 17.710938 C 11.371094 17.707031 13.675781 16.765625 15.363281 15.089844 C 17.050781 13.417969 17.980469 11.152344 17.953125 8.796875 C 17.949219 4.550781 14.917969 0.886719 10.675781 0 C 13.257812 2.878906 13.144531 7.21875 10.410156 9.964844 Z M 10.410156 9.964844 "/>
<path style=" stroke:none;fill-rule:evenodd;fill:rgb(100%,84.313725%,29.411765%);fill-opacity:1;" d="M 15.703125 11.949219 C 15.363281 12.734375 14.910156 13.46875 14.359375 14.125 C 15.511719 13.480469 16.417969 12.480469 16.933594 11.28125 C 18.175781 8.410156 17.003906 5.085938 14.214844 3.582031 C 16.398438 5.257812 17.09375 8.734375 15.703125 11.949219 Z M 15.703125 11.949219 "/>
<path style=" stroke:none;fill-rule:nonzero;fill:rgb(0%,73.72549%,83.137255%);fill-opacity:1;" d="M 14.707031 18.332031 C 14.695312 18.332031 13.625 19.292969 13.511719 19.699219 C 13.394531 20.105469 13.640625 20.527344 14.054688 20.640625 C 14.472656 20.753906 14.902344 20.515625 15.015625 20.105469 C 15.121094 19.699219 14.707031 18.335938 14.707031 18.332031 Z M 14.707031 18.332031 "/>
<path style=" stroke:none;fill-rule:nonzero;fill:rgb(0%,73.72549%,83.137255%);fill-opacity:1;" d="M 17.515625 21.6875 C 17.515625 21.6875 16.433594 22.648438 16.320312 23.058594 C 16.214844 23.460938 16.460938 23.871094 16.871094 23.980469 C 17.28125 24.089844 17.703125 23.859375 17.824219 23.460938 C 17.941406 23.054688 17.527344 21.691406 17.515625 21.6875 Z M 17.515625 21.6875 "/>
<path style=" stroke:none;fill-rule:nonzero;fill:rgb(0%,73.72549%,83.137255%);fill-opacity:1;" d="M 21.046875 19.5 C 21.035156 19.5 19.964844 20.460938 19.851562 20.867188 C 19.75 21.269531 19.992188 21.679688 20.402344 21.789062 C 20.8125 21.902344 21.234375 21.671875 21.359375 21.273438 C 21.472656 20.878906 21.058594 19.503906 21.046875 19.5 Z M 21.046875 19.5 "/>
</g>
</svg>
