<?xml version="1.0" encoding="UTF-8"?>
<svg xmlns="http://www.w3.org/2000/svg" xmlns:xlink="http://www.w3.org/1999/xlink" width="25px" height="px" viewBox="0 0 25 26" version="1.1">
<g id="surface1">
<path style=" stroke:none;fill-rule:evenodd;fill:rgb(97.647059%,65.098039%,2.745098%);fill-opacity:1;" d="M 13.664062 9.359375 C 12.390625 10.636719 10.648438 11.351562 8.832031 11.34375 C 7.015625 11.335938 5.28125 10.609375 4.011719 9.324219 L 3.972656 9.28125 C 4.507812 13.449219 8.070312 16.59375 12.324219 16.640625 C 14.558594 16.636719 16.703125 15.75 18.273438 14.175781 C 19.84375 12.601562 20.710938 10.472656 20.683594 8.261719 C 20.679688 4.277344 17.859375 0.832031 13.914062 0 C 16.316406 2.703125 16.210938 6.78125 13.664062 9.359375 Z M 13.664062 9.359375 "/>
<path style=" stroke:none;fill-rule:evenodd;fill:rgb(100%,84.313725%,29.411765%);fill-opacity:1;" d="M 18.589844 11.222656 C 18.273438 11.957031 17.851562 12.644531 17.335938 13.261719 C 18.414062 12.65625 19.257812 11.71875 19.738281 10.59375 C 20.886719 7.898438 19.792969 4.777344 17.199219 3.363281 C 19.238281 4.941406 19.882812 8.203125 18.589844 11.222656 Z M 18.589844 11.222656 "/>
<path style=" stroke:none;fill-rule:nonzero;fill:rgb(86.666667%,86.666667%,86.666667%);fill-opacity:1;" d="M 19.851562 10.195312 C 19.699219 10.195312 19.542969 10.195312 19.390625 10.210938 C 18.679688 8.113281 16.6875 6.695312 14.449219 6.695312 C 14.144531 6.699219 13.84375 6.714844 13.542969 6.75 C 12.359375 5.734375 10.84375 5.183594 9.277344 5.191406 C 5.859375 5.191406 3.050781 7.605469 2.453125 11.011719 C 0.96875 11.933594 0 13.492188 0 15.011719 C 0.03125 17.703125 2.257812 19.859375 4.980469 19.839844 L 19.847656 19.839844 C 22.679688 19.839844 25.074219 17.628906 25.074219 15.015625 C 25.074219 12.398438 22.683594 10.195312 19.851562 10.195312 Z M 19.851562 10.195312 "/>
<path style=" stroke:none;fill-rule:nonzero;fill:rgb(25.490196%,74.901961%,96.862745%);fill-opacity:1;" d="M 4.769531 1.714844 C 3.574219 1.382812 2.289062 1.738281 1.445312 2.636719 C 0.597656 3.535156 0.328125 4.824219 0.746094 5.980469 L 0.0273438 6.363281 L 2.253906 7.386719 L 2.519531 4.976562 L 1.84375 5.359375 C 1.757812 5.015625 1.765625 4.660156 1.859375 4.320312 C 2.097656 3.519531 2.789062 2.9375 3.628906 2.835938 C 4.464844 2.734375 5.28125 3.136719 5.703125 3.855469 L 6.773438 3.261719 C 6.34375 2.5 5.621094 1.945312 4.769531 1.714844 Z M 4.769531 1.714844 "/>
<path style=" stroke:none;fill-rule:evenodd;fill:rgb(80%,80%,80%);fill-opacity:1;" d="M 22.914062 17.265625 C 22.636719 17.835938 22.273438 18.359375 21.839844 18.824219 C 22.734375 18.386719 23.457031 17.667969 23.894531 16.78125 C 24.890625 14.703125 23.917969 12.3125 21.71875 11.265625 C 23.46875 12.464844 24.019531 14.960938 22.914062 17.265625 Z M 22.914062 17.265625 "/>
<path style=" stroke:none;fill-rule:nonzero;fill:rgb(0%,73.72549%,83.137255%);fill-opacity:1;" d="M 7.367188 17.824219 C 7.351562 17.824219 5.835938 19.195312 5.671875 19.777344 C 5.546875 20.160156 5.644531 20.582031 5.925781 20.875 C 6.207031 21.164062 6.628906 21.28125 7.023438 21.171875 C 7.417969 21.0625 7.71875 20.75 7.808594 20.359375 C 7.96875 19.777344 7.382812 17.824219 7.367188 17.824219 Z M 7.367188 17.824219 "/>
<path style=" stroke:none;fill-rule:nonzero;fill:rgb(0%,73.72549%,83.137255%);fill-opacity:1;" d="M 11.359375 22.621094 C 11.34375 22.621094 9.828125 23.992188 9.664062 24.574219 C 9.503906 25.15625 9.847656 25.761719 10.441406 25.921875 C 11.03125 26.082031 11.640625 25.742188 11.800781 25.15625 C 11.964844 24.574219 11.378906 22.621094 11.359375 22.621094 Z M 11.359375 22.621094 "/>
<path style=" stroke:none;fill-rule:nonzero;fill:rgb(0%,73.72549%,83.137255%);fill-opacity:1;" d="M 16.367188 19.5 C 16.351562 19.5 14.835938 20.871094 14.671875 21.457031 C 14.507812 22.039062 14.855469 22.640625 15.445312 22.800781 C 16.035156 22.960938 16.644531 22.621094 16.808594 22.039062 C 16.972656 21.449219 16.382812 19.5 16.367188 19.5 Z M 16.367188 19.5 "/>
</g>
</svg>
