<?xml version="1.0" encoding="UTF-8"?>
<svg xmlns="http://www.w3.org/2000/svg" xmlns:xlink="http://www.w3.org/1999/xlink" width="25px" height="px" viewBox="0 0 25 24" version="1.1">
<g id="surface1">
<path style=" stroke:none;fill-rule:nonzero;fill:rgb(86.666667%,86.666667%,86.666667%);fill-opacity:1;" d="M 4.589844 17.046875 C 4.589844 18.929688 6.328125 20.519531 8.386719 20.519531 L 19.195312 20.519531 C 21.175781 20.535156 22.796875 18.984375 22.820312 17.046875 C 22.820312 15.949219 22.125 14.832031 21.035156 14.15625 C 20.601562 11.707031 18.570312 9.960938 16.078125 9.960938 C 14.9375 9.960938 13.835938 10.363281 12.972656 11.09375 C 12.757812 11.070312 12.535156 11.058594 12.316406 11.054688 C 10.6875 11.054688 9.242188 12.074219 8.722656 13.585938 C 8.609375 13.585938 8.492188 13.570312 8.386719 13.570312 C 6.328125 13.585938 4.589844 15.167969 4.589844 17.046875 Z M 4.589844 17.046875 "/>
<path style=" stroke:none;fill-rule:nonzero;fill:rgb(100%,89.411765%,12.156863%);fill-opacity:1;" d="M 17.804688 19.070312 L 20.359375 19.070312 L 19.320312 20.742188 L 20.390625 20.742188 L 18.191406 23.519531 L 18.628906 21.863281 L 16.566406 21.863281 Z M 17.804688 19.070312 "/>
<path style=" stroke:none;fill-rule:nonzero;fill:rgb(25.490196%,74.901961%,96.862745%);fill-opacity:1;" d="M 21.484375 4.644531 C 22.648438 4.554688 23.765625 5.105469 24.382812 6.074219 C 25.003906 7.042969 25.019531 8.265625 24.421875 9.25 L 25.015625 9.734375 L 22.769531 10.277344 L 22.957031 8.023438 L 23.523438 8.496094 C 23.933594 7.621094 23.621094 6.582031 22.792969 6.0625 C 21.960938 5.542969 20.867188 5.707031 20.230469 6.4375 L 19.347656 5.703125 C 19.886719 5.085938 20.65625 4.707031 21.484375 4.644531 Z M 21.484375 4.644531 "/>
<path style=" stroke:none;fill-rule:evenodd;fill:rgb(97.647059%,65.098039%,2.745098%);fill-opacity:1;" d="M 10.277344 9.824219 C 8.921875 11.160156 7.078125 11.910156 5.152344 11.902344 C 3.226562 11.898438 1.386719 11.132812 0.0429688 9.785156 L 0 9.734375 C 0.578125 14.074219 4.328125 17.433594 8.855469 17.453125 C 11.226562 17.453125 13.496094 16.519531 15.160156 14.871094 C 16.828125 13.21875 17.75 10.984375 17.71875 8.667969 C 17.714844 4.484375 14.722656 0.871094 10.539062 0 C 13.082031 2.839844 12.96875 7.117188 10.277344 9.824219 Z M 10.277344 9.824219 "/>
<path style=" stroke:none;fill-rule:evenodd;fill:rgb(100%,84.313725%,29.411765%);fill-opacity:1;" d="M 15.507812 11.773438 C 15.179688 12.550781 14.730469 13.273438 14.183594 13.921875 C 15.324219 13.285156 16.222656 12.300781 16.730469 11.113281 C 17.949219 8.28125 16.777344 5.007812 14.019531 3.535156 C 16.1875 5.183594 16.871094 8.605469 15.507812 11.773438 Z M 15.507812 11.773438 "/>
<path style=" stroke:none;fill-rule:nonzero;fill:rgb(0%,73.72549%,83.137255%);fill-opacity:1;" d="M 7.785156 18.488281 C 7.769531 18.488281 6.71875 19.433594 6.605469 19.847656 C 6.496094 20.253906 6.742188 20.667969 7.152344 20.773438 C 7.566406 20.882812 7.992188 20.640625 8.101562 20.238281 C 8.203125 19.835938 7.796875 18.492188 7.785156 18.488281 Z M 7.785156 18.488281 "/>
<path style=" stroke:none;fill-rule:nonzero;fill:rgb(0%,73.72549%,83.137255%);fill-opacity:1;" d="M 10.566406 21.796875 C 10.554688 21.796875 9.5 22.742188 9.386719 23.15625 C 9.277344 23.558594 9.519531 23.972656 9.933594 24.082031 C 10.34375 24.191406 10.769531 23.949219 10.878906 23.546875 C 10.984375 23.144531 10.578125 21.800781 10.566406 21.796875 Z M 10.566406 21.796875 "/>
<path style=" stroke:none;fill-rule:nonzero;fill:rgb(0%,73.72549%,83.137255%);fill-opacity:1;" d="M 14.054688 19.640625 C 14.039062 19.640625 12.984375 20.585938 12.871094 20.996094 C 12.8125 21.378906 13.054688 21.742188 13.433594 21.839844 C 13.8125 21.941406 14.207031 21.746094 14.351562 21.390625 C 14.472656 20.988281 14.066406 19.644531 14.054688 19.640625 Z M 14.054688 19.640625 "/>
</g>
</svg>
