<?xml version="1.0" encoding="UTF-8"?>
<svg xmlns="http://www.w3.org/2000/svg" xmlns:xlink="http://www.w3.org/1999/xlink" width="25px" height="px" viewBox="0 0 25 27" version="1.1">
<g id="surface1">
<path style=" stroke:none;fill-rule:evenodd;fill:rgb(97.647059%,65.098039%,2.745098%);fill-opacity:1;" d="M 15.054688 10.542969 C 13.625 11.980469 11.675781 12.785156 9.644531 12.777344 C 7.609375 12.769531 5.667969 11.949219 4.25 10.5 L 4.207031 10.457031 C 4.800781 15.152344 8.792969 18.691406 13.550781 18.742188 C 16.054688 18.738281 18.449219 17.738281 20.203125 15.964844 C 21.960938 14.191406 22.929688 11.796875 22.902344 9.308594 C 22.894531 4.816406 19.738281 0.9375 15.324219 0 C 18.011719 3.046875 17.894531 7.636719 15.054688 10.542969 Z M 15.054688 10.542969 "/>
<path style=" stroke:none;fill-rule:evenodd;fill:rgb(100%,84.313725%,29.411765%);fill-opacity:1;" d="M 20.554688 12.640625 C 20.203125 13.472656 19.734375 14.25 19.15625 14.945312 C 20.359375 14.261719 21.304688 13.203125 21.84375 11.933594 C 23.144531 8.894531 21.910156 5.371094 18.996094 3.789062 C 21.28125 5.5625 22.003906 9.242188 20.554688 12.640625 Z M 20.554688 12.640625 "/>
<path style=" stroke:none;fill-rule:nonzero;fill:rgb(86.666667%,86.666667%,86.666667%);fill-opacity:1;" d="M 19.945312 9.25 C 19.792969 9.25 19.640625 9.253906 19.492188 9.265625 C 18.796875 7.191406 16.851562 5.792969 14.652344 5.789062 C 14.359375 5.792969 14.0625 5.8125 13.769531 5.84375 C 12.609375 4.839844 11.121094 4.292969 9.582031 4.296875 C 6.214844 4.296875 3.476562 6.683594 2.890625 10.042969 C 1.421875 10.972656 0.476562 12.511719 0.476562 14.011719 C 0.488281 15.292969 1.011719 16.511719 1.933594 17.40625 C 2.851562 18.296875 4.089844 18.789062 5.375 18.773438 L 19.945312 18.773438 C 22.722656 18.773438 25.070312 16.59375 25.070312 14.011719 C 25.070312 11.433594 22.722656 9.25 19.945312 9.25 Z M 19.945312 9.25 "/>
<path style=" stroke:none;fill-rule:evenodd;fill:rgb(80%,80%,80%);fill-opacity:1;" d="M 22.976562 16.078125 C 22.699219 16.648438 22.335938 17.175781 21.902344 17.640625 C 22.789062 17.203125 23.511719 16.484375 23.945312 15.597656 C 24.9375 13.515625 23.96875 11.117188 21.78125 10.070312 C 23.53125 11.269531 24.078125 13.769531 22.976562 16.078125 Z M 22.976562 16.078125 "/>
<path style=" stroke:none;fill-rule:nonzero;fill:rgb(0%,73.72549%,83.137255%);fill-opacity:1;" d="M 6.535156 18.820312 C 6.519531 18.820312 5.011719 20.195312 4.847656 20.777344 C 4.730469 21.160156 4.828125 21.574219 5.109375 21.863281 C 5.386719 22.152344 5.800781 22.265625 6.191406 22.160156 C 6.578125 22.054688 6.878906 21.75 6.972656 21.359375 C 7.132812 20.777344 6.550781 18.824219 6.535156 18.820312 Z M 6.535156 18.820312 "/>
<path style=" stroke:none;fill-rule:nonzero;fill:rgb(0%,73.72549%,83.137255%);fill-opacity:1;" d="M 9.367188 23.625 C 9.347656 23.625 7.839844 24.996094 7.679688 25.582031 C 7.542969 26.15625 7.886719 26.734375 8.457031 26.890625 C 9.03125 27.050781 9.625 26.726562 9.804688 26.164062 C 9.964844 25.578125 9.382812 23.628906 9.367188 23.625 Z M 9.367188 23.625 "/>
<path style=" stroke:none;fill-rule:nonzero;fill:rgb(0%,73.72549%,83.137255%);fill-opacity:1;" d="M 13.851562 20.492188 C 13.832031 20.492188 12.328125 21.863281 12.167969 22.449219 C 12.046875 22.828125 12.144531 23.246094 12.425781 23.535156 C 12.703125 23.824219 13.121094 23.9375 13.507812 23.832031 C 13.894531 23.726562 14.195312 23.417969 14.289062 23.03125 C 14.453125 22.457031 13.867188 20.496094 13.851562 20.492188 Z M 13.851562 20.492188 "/>
<path style=" stroke:none;fill-rule:nonzero;fill:rgb(100%,89.411765%,12.156863%);fill-opacity:1;" d="M 17.5625 18.976562 L 21.125 18.976562 L 19.675781 21.347656 L 21.171875 21.347656 L 18.101562 25.285156 L 18.710938 22.9375 L 15.839844 22.9375 Z M 17.5625 18.976562 "/>
<path style=" stroke:none;fill-rule:nonzero;fill:rgb(25.490196%,74.901961%,96.862745%);fill-opacity:1;" d="M 4.839844 2.90625 C 3.621094 2.570312 2.316406 2.9375 1.453125 3.855469 C 0.589844 4.773438 0.3125 6.09375 0.734375 7.28125 L 0 7.6875 L 2.273438 8.738281 L 2.542969 6.261719 L 1.851562 6.652344 C 1.769531 6.300781 1.773438 5.933594 1.871094 5.585938 C 2.113281 4.761719 2.820312 4.164062 3.675781 4.058594 C 4.53125 3.957031 5.363281 4.367188 5.796875 5.109375 L 6.890625 4.496094 C 6.449219 3.714844 5.707031 3.140625 4.839844 2.90625 Z M 4.839844 2.90625 "/>
</g>
</svg>
