<?xml version="1.0" encoding="UTF-8"?>
<svg xmlns="http://www.w3.org/2000/svg" xmlns:xlink="http://www.w3.org/1999/xlink" width="25px" height="px" viewBox="0 0 25 23" version="1.1">
<g id="surface1">
<path style=" stroke:none;fill-rule:nonzero;fill:rgb(86.666667%,86.666667%,86.666667%);fill-opacity:1;" d="M 21.742188 3.648438 C 21.644531 3.648438 21.546875 3.648438 21.453125 3.648438 C 21.011719 2.164062 19.769531 1.101562 18.351562 1.101562 C 18.160156 1.105469 17.972656 1.117188 17.78125 1.140625 C 17.066406 0.414062 16.09375 0 15.082031 0 C 12.917969 0 11.171875 1.761719 10.78125 4.238281 C 9.847656 4.914062 9.273438 5.996094 9.238281 7.164062 C 9.238281 9.101562 10.644531 10.679688 12.378906 10.679688 L 21.742188 10.679688 C 23.527344 10.679688 25.035156 9.074219 25.035156 7.164062 C 25.035156 5.253906 23.527344 3.648438 21.742188 3.648438 Z M 21.742188 3.648438 "/>
<path style=" stroke:none;fill-rule:nonzero;fill:rgb(60%,60%,60%);fill-opacity:1;" d="M 17.929688 7.589844 C 17.789062 7.589844 17.664062 7.589844 17.511719 7.605469 C 16.871094 5.652344 15.074219 4.332031 13.046875 4.328125 C 12.773438 4.332031 12.503906 4.351562 12.230469 4.378906 C 11.160156 3.4375 9.792969 2.921875 8.378906 2.929688 C 5.277344 2.929688 2.753906 5.175781 2.210938 8.339844 C 0.871094 9.214844 0 10.664062 0 12.078125 C 0.0273438 14.578125 2.042969 16.589844 4.503906 16.566406 L 17.929688 16.566406 C 20.488281 16.566406 22.648438 14.507812 22.648438 12.078125 C 22.648438 9.644531 20.480469 7.589844 17.929688 7.589844 Z M 17.929688 7.589844 "/>
<path style=" stroke:none;fill-rule:evenodd;fill:rgb(46.666667%,46.666667%,46.666667%);fill-opacity:1;" d="M 20.847656 14.109375 C 20.59375 14.648438 20.261719 15.144531 19.863281 15.582031 C 20.683594 15.167969 21.34375 14.492188 21.746094 13.652344 C 22.660156 11.699219 21.765625 9.433594 19.75 8.449219 C 21.355469 9.582031 21.863281 11.9375 20.847656 14.109375 Z M 20.847656 14.109375 "/>
<path style=" stroke:none;fill-rule:nonzero;fill:rgb(0%,73.72549%,83.137255%);fill-opacity:1;" d="M 3.894531 19.390625 C 3.769531 19.882812 3.28125 20.179688 2.796875 20.066406 C 2.320312 19.917969 2.042969 19.410156 2.175781 18.921875 C 2.441406 17.921875 4.304688 14.320312 4.304688 14.320312 C 4.304688 14.320312 4.195312 18.246094 3.894531 19.390625 Z M 3.894531 19.390625 "/>
<path style=" stroke:none;fill-rule:nonzero;fill:rgb(0%,73.72549%,83.137255%);fill-opacity:1;" d="M 6.347656 22.238281 C 6.222656 22.726562 5.734375 23.027344 5.246094 22.914062 C 4.769531 22.765625 4.496094 22.257812 4.628906 21.769531 C 4.894531 20.769531 6.753906 17.167969 6.753906 17.167969 C 6.753906 17.167969 6.648438 21.089844 6.347656 22.238281 Z M 6.347656 22.238281 "/>
<path style=" stroke:none;fill-rule:nonzero;fill:rgb(0%,73.72549%,83.137255%);fill-opacity:1;" d="M 10.136719 19.390625 C 10.0625 19.710938 9.820312 19.964844 9.507812 20.054688 C 9.195312 20.144531 8.859375 20.050781 8.632812 19.816406 C 8.40625 19.582031 8.320312 19.238281 8.414062 18.921875 C 8.679688 17.921875 10.542969 14.320312 10.542969 14.320312 C 10.542969 14.320312 10.4375 18.246094 10.136719 19.390625 Z M 10.136719 19.390625 "/>
<path style=" stroke:none;fill-rule:nonzero;fill:rgb(0%,73.72549%,83.137255%);fill-opacity:1;" d="M 12.742188 22.273438 C 12.667969 22.59375 12.425781 22.847656 12.113281 22.9375 C 11.800781 23.023438 11.464844 22.933594 11.238281 22.699219 C 11.011719 22.460938 10.929688 22.121094 11.019531 21.804688 C 11.289062 20.804688 13.148438 17.203125 13.148438 17.203125 C 13.148438 17.203125 13.046875 21.128906 12.742188 22.273438 Z M 12.742188 22.273438 "/>
<path style=" stroke:none;fill-rule:nonzero;fill:rgb(78.823529%,89.019608%,96.862745%);fill-opacity:1;" d="M 22.796875 18.398438 L 21.679688 19.03125 L 21.277344 18.800781 L 21.683594 18.59375 L 21.417969 18.054688 L 20.65625 18.433594 L 20.164062 18.144531 C 20.207031 17.964844 20.207031 17.78125 20.164062 17.601562 L 20.660156 17.316406 L 21.421875 17.699219 L 21.6875 17.15625 L 21.277344 16.953125 L 21.679688 16.71875 L 22.796875 17.347656 L 23.082031 16.824219 L 22.285156 16.363281 L 22.945312 15.976562 L 22.648438 15.457031 L 21.988281 15.84375 L 22.003906 14.902344 L 21.414062 14.902344 L 21.390625 16.203125 L 20.992188 16.4375 L 21.011719 15.964844 L 20.421875 15.925781 L 20.363281 16.789062 L 19.867188 17.085938 C 19.738281 16.957031 19.578125 16.867188 19.40625 16.8125 L 19.40625 16.234375 L 20.113281 15.757812 L 19.785156 15.253906 L 19.40625 15.527344 L 19.40625 15.035156 L 20.503906 14.367188 L 20.210938 13.851562 L 19.414062 14.339844 L 19.414062 13.5625 L 18.816406 13.5625 L 18.816406 14.339844 L 18.019531 13.859375 L 17.714844 14.375 L 18.8125 15.042969 L 18.8125 15.515625 L 18.433594 15.246094 L 18.105469 15.746094 L 18.816406 16.234375 L 18.816406 16.820312 C 18.644531 16.871094 18.484375 16.964844 18.355469 17.089844 L 17.859375 16.796875 L 17.820312 15.933594 L 17.210938 15.964844 L 17.242188 16.425781 L 16.84375 16.1875 L 16.820312 14.890625 L 16.230469 14.890625 L 16.246094 15.832031 L 15.585938 15.445312 L 15.289062 15.964844 L 15.957031 16.363281 L 15.160156 16.824219 L 15.425781 17.347656 L 16.542969 16.71875 L 16.945312 16.953125 L 16.539062 17.15625 L 16.804688 17.699219 L 17.554688 17.316406 L 18.046875 17.609375 C 18.003906 17.789062 18.003906 17.972656 18.046875 18.152344 L 17.554688 18.4375 L 16.792969 18.054688 L 16.527344 18.597656 L 16.933594 18.804688 L 16.53125 19.039062 L 15.425781 18.398438 L 15.140625 18.941406 L 15.9375 19.398438 L 15.277344 19.785156 L 15.585938 20.292969 L 16.246094 19.90625 L 16.222656 20.847656 L 16.816406 20.847656 L 16.835938 19.550781 L 17.238281 19.316406 L 17.207031 19.773438 L 17.800781 19.8125 L 17.855469 18.953125 L 18.351562 18.671875 C 18.480469 18.796875 18.636719 18.890625 18.8125 18.941406 L 18.8125 19.527344 L 18.105469 20.003906 L 18.433594 20.503906 L 18.8125 20.234375 L 18.8125 20.707031 L 17.722656 21.375 L 18.023438 21.890625 L 18.820312 21.410156 L 18.820312 22.1875 L 19.414062 22.1875 L 19.414062 21.417969 L 20.210938 21.902344 L 20.503906 21.375 L 19.414062 20.714844 L 19.414062 20.246094 L 19.792969 20.515625 L 20.121094 20.015625 L 19.414062 19.523438 L 19.414062 18.941406 C 19.585938 18.890625 19.746094 18.796875 19.875 18.671875 L 20.371094 18.960938 L 20.429688 19.824219 L 21.011719 19.78125 L 20.980469 19.324219 L 21.378906 19.558594 L 21.402344 20.855469 L 21.996094 20.855469 L 21.980469 19.917969 L 22.636719 20.292969 L 22.933594 19.773438 L 22.273438 19.386719 L 23.070312 18.929688 Z M 19.113281 18.371094 C 18.910156 18.371094 18.730469 18.25 18.65625 18.0625 C 18.578125 17.875 18.621094 17.65625 18.761719 17.511719 C 18.90625 17.367188 19.117188 17.328125 19.304688 17.40625 C 19.488281 17.484375 19.609375 17.667969 19.605469 17.871094 C 19.609375 18.007812 19.554688 18.136719 19.464844 18.230469 C 19.371094 18.324219 19.242188 18.378906 19.113281 18.378906 Z M 19.113281 18.371094 "/>
<path style=" stroke:none;fill-rule:nonzero;fill:rgb(56.862745%,80.392157%,94.901961%);fill-opacity:1;" d="M 22.796875 18.398438 L 21.679688 19.03125 L 21.277344 18.800781 L 21.683594 18.59375 L 21.417969 18.054688 L 20.65625 18.433594 L 20.164062 18.144531 C 20.207031 17.964844 20.207031 17.78125 20.164062 17.601562 L 20.660156 17.316406 L 21.421875 17.699219 L 21.6875 17.15625 L 21.277344 16.953125 L 21.679688 16.71875 L 22.796875 17.347656 L 23.082031 16.824219 L 22.285156 16.363281 L 22.945312 15.976562 L 22.648438 15.457031 L 21.988281 15.84375 L 22.003906 14.902344 L 21.414062 14.902344 L 21.390625 16.203125 L 20.992188 16.4375 L 21.011719 15.964844 L 20.421875 15.925781 L 20.363281 16.789062 L 19.867188 17.085938 C 19.738281 16.957031 19.578125 16.867188 19.40625 16.8125 L 19.40625 16.234375 L 20.113281 15.757812 L 19.785156 15.253906 L 19.40625 15.527344 L 19.40625 15.035156 L 20.503906 14.367188 L 20.210938 13.851562 L 19.414062 14.339844 L 19.414062 13.5625 L 19.113281 13.5625 L 19.113281 17.375 C 19.296875 17.359375 19.472656 17.453125 19.570312 17.613281 C 19.667969 17.773438 19.667969 17.976562 19.570312 18.136719 C 19.472656 18.300781 19.296875 18.390625 19.113281 18.378906 L 19.113281 22.1875 L 19.414062 22.1875 L 19.414062 21.417969 L 20.210938 21.902344 L 20.503906 21.375 L 19.414062 20.714844 L 19.414062 20.246094 L 19.792969 20.515625 L 20.121094 20.015625 L 19.414062 19.523438 L 19.414062 18.941406 C 19.585938 18.890625 19.746094 18.796875 19.875 18.671875 L 20.371094 18.960938 L 20.429688 19.824219 L 21.011719 19.78125 L 20.980469 19.324219 L 21.378906 19.558594 L 21.402344 20.855469 L 21.996094 20.855469 L 21.980469 19.917969 L 22.636719 20.292969 L 22.933594 19.773438 L 22.273438 19.386719 L 23.070312 18.929688 Z M 22.796875 18.398438 "/>
</g>
</svg>
