<?xml version="1.0" encoding="UTF-8"?>
<svg xmlns="http://www.w3.org/2000/svg" xmlns:xlink="http://www.w3.org/1999/xlink" width="25px" height="px" viewBox="0 0 25 22" version="1.1">
<defs>
<filter id="alpha" filterUnits="objectBoundingBox" x="0%" y="0%" width="100%" height="100%">
  <feColorMatrix type="matrix" in="SourceGraphic" values="0 0 0 0 1 0 0 0 0 1 0 0 0 0 1 0 0 0 1 0"/>
</filter>
<mask id="mask0">
  <g filter="url(#alpha)">
<rect x="0" y="0" width="25" height="22" style="fill:rgb(0%,0%,0%);fill-opacity:0.6;stroke:none;"/>
  </g>
</mask>
<clipPath id="clip1">
  <rect x="0" y="0" width="25" height="22"/>
</clipPath>
<g id="surface5" clip-path="url(#clip1)">
<path style=" stroke:none;fill-rule:nonzero;fill:rgb(93.333333%,93.333333%,93.333333%);fill-opacity:1;" d="M 20.167969 15.113281 C 20.027344 15.113281 19.886719 15.113281 19.746094 15.101562 C 17.839844 14.980469 16.199219 13.945312 14.753906 13.050781 L 14.503906 12.894531 C 12.535156 11.667969 9.503906 11.253906 7.507812 13.25 C 7.230469 13.488281 6.820312 13.472656 6.5625 13.214844 C 6.308594 12.960938 6.289062 12.550781 6.527344 12.273438 C 8.300781 10.496094 11.785156 9.566406 15.242188 11.71875 L 15.488281 11.875 C 16.859375 12.730469 18.265625 13.621094 19.832031 13.726562 C 21.261719 13.835938 22.667969 13.328125 23.703125 12.339844 C 23.875 12.152344 24.136719 12.074219 24.382812 12.140625 C 24.628906 12.203125 24.820312 12.394531 24.882812 12.640625 C 24.949219 12.886719 24.871094 13.148438 24.683594 13.320312 C 23.472656 14.484375 21.847656 15.128906 20.167969 15.113281 Z M 20.167969 15.113281 "/>
</g>
<mask id="mask1">
  <g filter="url(#alpha)">
<rect x="0" y="0" width="25" height="22" style="fill:rgb(0%,0%,0%);fill-opacity:0.74902;stroke:none;"/>
  </g>
</mask>
<clipPath id="clip2">
  <rect x="0" y="0" width="25" height="22"/>
</clipPath>
<g id="surface8" clip-path="url(#clip2)">
<path style=" stroke:none;fill-rule:nonzero;fill:rgb(93.333333%,93.333333%,93.333333%);fill-opacity:1;" d="M 20.167969 18.5 C 20.027344 18.5 19.886719 18.5 19.746094 18.488281 C 17.839844 18.363281 16.203125 17.339844 14.753906 16.441406 L 14.503906 16.285156 C 12.535156 15.058594 9.503906 14.648438 7.507812 16.644531 C 7.234375 16.898438 6.808594 16.890625 6.542969 16.625 C 6.277344 16.363281 6.269531 15.933594 6.527344 15.660156 C 8.300781 13.886719 11.785156 12.953125 15.242188 15.109375 L 15.488281 15.261719 C 16.859375 16.121094 18.265625 17.007812 19.832031 17.117188 C 21.261719 17.222656 22.667969 16.714844 23.703125 15.726562 C 23.875 15.539062 24.136719 15.464844 24.382812 15.527344 C 24.628906 15.589844 24.820312 15.78125 24.882812 16.027344 C 24.949219 16.273438 24.871094 16.535156 24.683594 16.707031 C 23.472656 17.875 21.847656 18.515625 20.167969 18.5 Z M 20.167969 18.5 "/>
</g>
<mask id="mask2">
  <g filter="url(#alpha)">
<rect x="0" y="0" width="25" height="22" style="fill:rgb(0%,0%,0%);fill-opacity:0.901961;stroke:none;"/>
  </g>
</mask>
<clipPath id="clip3">
  <rect x="0" y="0" width="25" height="22"/>
</clipPath>
<g id="surface11" clip-path="url(#clip3)">
<path style=" stroke:none;fill-rule:nonzero;fill:rgb(93.333333%,93.333333%,93.333333%);fill-opacity:1;" d="M 20.167969 21.886719 C 20.027344 21.886719 19.882812 21.886719 19.746094 21.871094 C 17.839844 21.75 16.199219 20.714844 14.753906 19.820312 L 14.503906 19.664062 C 12.535156 18.4375 9.503906 18.027344 7.507812 20.023438 C 7.332031 20.207031 7.074219 20.285156 6.828125 20.222656 C 6.582031 20.160156 6.390625 19.964844 6.324219 19.71875 C 6.261719 19.472656 6.339844 19.214844 6.527344 19.039062 C 8.300781 17.265625 11.785156 16.332031 15.242188 18.488281 L 15.488281 18.640625 C 16.859375 19.5 18.265625 20.386719 19.832031 20.496094 C 21.261719 20.601562 22.667969 20.097656 23.703125 19.105469 C 23.875 18.917969 24.136719 18.84375 24.382812 18.90625 C 24.628906 18.96875 24.820312 19.160156 24.882812 19.40625 C 24.949219 19.652344 24.871094 19.914062 24.683594 20.085938 C 23.472656 21.253906 21.851562 21.902344 20.167969 21.886719 Z M 20.167969 21.886719 "/>
</g>
<mask id="mask3">
  <g filter="url(#alpha)">
<rect x="0" y="0" width="25" height="22" style="fill:rgb(0%,0%,0%);fill-opacity:0.74902;stroke:none;"/>
  </g>
</mask>
<clipPath id="clip4">
  <rect x="0" y="0" width="25" height="22"/>
</clipPath>
<g id="surface14" clip-path="url(#clip4)">
<path style=" stroke:none;fill-rule:nonzero;fill:rgb(93.333333%,93.333333%,93.333333%);fill-opacity:1;" d="M 9.246094 12.792969 C 9.246094 13.050781 9.039062 13.257812 8.78125 13.257812 C 8.527344 13.257812 8.320312 13.050781 8.320312 12.792969 C 8.320312 12.539062 8.527344 12.332031 8.78125 12.332031 C 9.039062 12.332031 9.246094 12.539062 9.246094 12.792969 Z M 9.246094 12.792969 "/>
</g>
<mask id="mask4">
  <g filter="url(#alpha)">
<rect x="0" y="0" width="25" height="22" style="fill:rgb(0%,0%,0%);fill-opacity:0.74902;stroke:none;"/>
  </g>
</mask>
<clipPath id="clip5">
  <rect x="0" y="0" width="25" height="22"/>
</clipPath>
<g id="surface17" clip-path="url(#clip5)">
<path style=" stroke:none;fill-rule:nonzero;fill:rgb(93.333333%,93.333333%,93.333333%);fill-opacity:1;" d="M 12.257812 20.15625 C 12.257812 20.410156 12.050781 20.617188 11.792969 20.617188 C 11.539062 20.617188 11.332031 20.410156 11.332031 20.15625 C 11.332031 19.898438 11.539062 19.691406 11.792969 19.691406 C 12.050781 19.691406 12.257812 19.898438 12.257812 20.15625 Z M 12.257812 20.15625 "/>
</g>
<mask id="mask5">
  <g filter="url(#alpha)">
<rect x="0" y="0" width="25" height="22" style="fill:rgb(0%,0%,0%);fill-opacity:0.74902;stroke:none;"/>
  </g>
</mask>
<clipPath id="clip6">
  <rect x="0" y="0" width="25" height="22"/>
</clipPath>
<g id="surface20" clip-path="url(#clip6)">
<path style=" stroke:none;fill-rule:nonzero;fill:rgb(93.333333%,93.333333%,93.333333%);fill-opacity:1;" d="M 18.421875 16.449219 C 18.421875 16.703125 18.214844 16.914062 17.960938 16.914062 C 17.703125 16.914062 17.496094 16.703125 17.496094 16.449219 C 17.496094 16.191406 17.703125 15.984375 17.960938 15.984375 C 18.214844 15.984375 18.421875 16.191406 18.421875 16.449219 Z M 18.421875 16.449219 "/>
</g>
<mask id="mask6">
  <g filter="url(#alpha)">
<rect x="0" y="0" width="25" height="22" style="fill:rgb(0%,0%,0%);fill-opacity:0.74902;stroke:none;"/>
  </g>
</mask>
<clipPath id="clip7">
  <rect x="0" y="0" width="25" height="22"/>
</clipPath>
<g id="surface23" clip-path="url(#clip7)">
<path style=" stroke:none;fill-rule:nonzero;fill:rgb(93.333333%,93.333333%,93.333333%);fill-opacity:1;" d="M 23.652344 19.460938 C 23.652344 19.714844 23.441406 19.921875 23.1875 19.921875 C 22.933594 19.921875 22.722656 19.714844 22.722656 19.460938 C 22.722656 19.203125 22.933594 18.996094 23.1875 18.996094 C 23.441406 18.996094 23.652344 19.203125 23.652344 19.460938 Z M 23.652344 19.460938 "/>
</g>
<mask id="mask7">
  <g filter="url(#alpha)">
<rect x="0" y="0" width="25" height="22" style="fill:rgb(0%,0%,0%);fill-opacity:0.74902;stroke:none;"/>
  </g>
</mask>
<clipPath id="clip8">
  <rect x="0" y="0" width="25" height="22"/>
</clipPath>
<g id="surface26" clip-path="url(#clip8)">
<path style=" stroke:none;fill-rule:nonzero;fill:rgb(93.333333%,93.333333%,93.333333%);fill-opacity:1;" d="M 21.875 11.390625 C 21.875 11.644531 21.667969 11.851562 21.410156 11.851562 C 21.15625 11.851562 20.949219 11.644531 20.949219 11.390625 C 20.949219 11.132812 21.15625 10.925781 21.410156 10.925781 C 21.667969 10.925781 21.875 11.132812 21.875 11.390625 Z M 21.875 11.390625 "/>
</g>
</defs>
<g id="surface1">
<path style=" stroke:none;fill-rule:evenodd;fill:rgb(97.647059%,65.098039%,2.745098%);fill-opacity:1;" d="M 11.074219 10.828125 C 9.613281 12.304688 7.625 13.128906 5.550781 13.121094 C 3.476562 13.113281 1.492188 12.273438 0.0429688 10.785156 L 0 10.738281 C 0.621094 15.515625 4.660156 19.222656 9.542969 19.246094 C 14.839844 19.265625 19.117188 14.929688 19.09375 9.5625 C 19.09375 4.949219 15.867188 0.960938 11.355469 0 C 14.101562 3.128906 13.980469 7.847656 11.074219 10.828125 Z M 11.074219 10.828125 "/>
<path style=" stroke:none;fill-rule:evenodd;fill:rgb(100%,84.313725%,29.411765%);fill-opacity:1;" d="M 16.703125 12.988281 C 16.34375 13.839844 15.863281 14.636719 15.277344 15.351562 C 16.503906 14.648438 17.464844 13.5625 18.011719 12.257812 C 19.332031 9.136719 18.078125 5.527344 15.109375 3.894531 C 17.445312 5.714844 18.179688 9.496094 16.703125 12.988281 Z M 16.703125 12.988281 "/>
<use xlink:href="#surface5" mask="url(#mask0)"/>
<use xlink:href="#surface8" mask="url(#mask1)"/>
<use xlink:href="#surface11" mask="url(#mask2)"/>
<use xlink:href="#surface14" mask="url(#mask3)"/>
<use xlink:href="#surface17" mask="url(#mask4)"/>
<use xlink:href="#surface20" mask="url(#mask5)"/>
<use xlink:href="#surface23" mask="url(#mask6)"/>
<use xlink:href="#surface26" mask="url(#mask7)"/>
</g>
</svg>
