<?xml version="1.0" encoding="UTF-8"?>
<svg xmlns="http://www.w3.org/2000/svg" xmlns:xlink="http://www.w3.org/1999/xlink" width="25px" height="px" viewBox="0 0 25 23" version="1.1">
<defs>
<filter id="alpha" filterUnits="objectBoundingBox" x="0%" y="0%" width="100%" height="100%">
  <feColorMatrix type="matrix" in="SourceGraphic" values="0 0 0 0 1 0 0 0 0 1 0 0 0 0 1 0 0 0 1 0"/>
</filter>
<mask id="mask0">
  <g filter="url(#alpha)">
<rect x="0" y="0" width="25" height="23" style="fill:rgb(0%,0%,0%);fill-opacity:0.6;stroke:none;"/>
  </g>
</mask>
<clipPath id="clip1">
  <rect x="0" y="0" width="25" height="23"/>
</clipPath>
<g id="surface5" clip-path="url(#clip1)">
<path style=" stroke:none;fill-rule:nonzero;fill:rgb(93.333333%,93.333333%,93.333333%);fill-opacity:1;" d="M 13.230469 16.492188 C 13.097656 16.492188 12.960938 16.492188 12.828125 16.480469 C 11.003906 16.359375 9.4375 15.351562 8.054688 14.480469 L 7.820312 14.328125 C 5.9375 13.136719 3.042969 12.734375 1.132812 14.679688 C 0.875 14.945312 0.453125 14.941406 0.195312 14.679688 C -0.0664062 14.414062 -0.0664062 13.984375 0.195312 13.722656 C 1.890625 11.992188 5.222656 11.085938 8.523438 13.183594 L 8.757812 13.332031 C 10.070312 14.167969 11.414062 15.03125 12.914062 15.136719 C 14.277344 15.242188 15.621094 14.75 16.609375 13.785156 C 16.871094 13.519531 17.289062 13.519531 17.550781 13.78125 C 17.808594 14.046875 17.808594 14.476562 17.550781 14.742188 C 16.390625 15.875 14.839844 16.503906 13.230469 16.492188 Z M 13.230469 16.492188 "/>
</g>
<mask id="mask1">
  <g filter="url(#alpha)">
<rect x="0" y="0" width="25" height="23" style="fill:rgb(0%,0%,0%);fill-opacity:0.74902;stroke:none;"/>
  </g>
</mask>
<clipPath id="clip2">
  <rect x="0" y="0" width="25" height="23"/>
</clipPath>
<g id="surface8" clip-path="url(#clip2)">
<path style=" stroke:none;fill-rule:nonzero;fill:rgb(93.333333%,93.333333%,93.333333%);fill-opacity:1;" d="M 13.230469 19.789062 C 13.097656 19.789062 12.960938 19.789062 12.828125 19.777344 C 11.003906 19.65625 9.4375 18.648438 8.054688 17.777344 L 7.820312 17.625 C 5.9375 16.429688 3.042969 16.03125 1.132812 17.976562 C 0.875 18.238281 0.453125 18.238281 0.195312 17.976562 C -0.0664062 17.710938 -0.0664062 17.28125 0.195312 17.019531 C 1.890625 15.289062 5.222656 14.382812 8.523438 16.480469 L 8.757812 16.628906 C 10.070312 17.464844 11.414062 18.328125 12.914062 18.433594 C 14.277344 18.535156 15.621094 18.042969 16.609375 17.082031 C 16.871094 16.816406 17.289062 16.816406 17.550781 17.078125 C 17.808594 17.34375 17.808594 17.773438 17.550781 18.035156 C 16.390625 19.171875 14.839844 19.800781 13.230469 19.789062 Z M 13.230469 19.789062 "/>
</g>
<mask id="mask2">
  <g filter="url(#alpha)">
<rect x="0" y="0" width="25" height="23" style="fill:rgb(0%,0%,0%);fill-opacity:0.901961;stroke:none;"/>
  </g>
</mask>
<clipPath id="clip3">
  <rect x="0" y="0" width="25" height="23"/>
</clipPath>
<g id="surface11" clip-path="url(#clip3)">
<path style=" stroke:none;fill-rule:nonzero;fill:rgb(93.333333%,93.333333%,93.333333%);fill-opacity:1;" d="M 13.230469 23.085938 C 13.097656 23.085938 12.960938 23.085938 12.828125 23.070312 C 11.007812 22.953125 9.4375 21.945312 8.058594 21.074219 L 7.820312 20.921875 C 5.9375 19.726562 3.042969 19.328125 1.132812 21.273438 C 0.875 21.535156 0.453125 21.535156 0.195312 21.273438 C -0.0664062 21.007812 -0.0664062 20.578125 0.195312 20.3125 C 1.890625 18.585938 5.222656 17.679688 8.523438 19.777344 L 8.761719 19.925781 C 10.070312 20.761719 11.414062 21.625 12.914062 21.730469 C 14.277344 21.832031 15.621094 21.34375 16.609375 20.378906 C 16.871094 20.113281 17.289062 20.113281 17.550781 20.375 C 17.808594 20.640625 17.808594 21.070312 17.550781 21.332031 C 16.390625 22.46875 14.839844 23.097656 13.230469 23.085938 Z M 13.230469 23.085938 "/>
</g>
<mask id="mask3">
  <g filter="url(#alpha)">
<rect x="0" y="0" width="25" height="23" style="fill:rgb(0%,0%,0%);fill-opacity:0.74902;stroke:none;"/>
  </g>
</mask>
<clipPath id="clip4">
  <rect x="0" y="0" width="25" height="23"/>
</clipPath>
<g id="surface14" clip-path="url(#clip4)">
<path style=" stroke:none;fill-rule:nonzero;fill:rgb(93.333333%,93.333333%,93.333333%);fill-opacity:1;" d="M 2.792969 14.234375 C 2.792969 14.480469 2.59375 14.683594 2.347656 14.683594 C 2.105469 14.683594 1.90625 14.480469 1.90625 14.234375 C 1.90625 13.984375 2.105469 13.78125 2.347656 13.78125 C 2.59375 13.78125 2.792969 13.984375 2.792969 14.234375 Z M 2.792969 14.234375 "/>
</g>
<mask id="mask4">
  <g filter="url(#alpha)">
<rect x="0" y="0" width="25" height="23" style="fill:rgb(0%,0%,0%);fill-opacity:0.74902;stroke:none;"/>
  </g>
</mask>
<clipPath id="clip5">
  <rect x="0" y="0" width="25" height="23"/>
</clipPath>
<g id="surface17" clip-path="url(#clip5)">
<path style=" stroke:none;fill-rule:nonzero;fill:rgb(93.333333%,93.333333%,93.333333%);fill-opacity:1;" d="M 5.671875 21.398438 C 5.671875 21.648438 5.472656 21.851562 5.230469 21.851562 C 4.984375 21.851562 4.789062 21.648438 4.789062 21.398438 C 4.789062 21.148438 4.984375 20.949219 5.230469 20.949219 C 5.472656 20.949219 5.671875 21.148438 5.671875 21.398438 Z M 5.671875 21.398438 "/>
</g>
<mask id="mask5">
  <g filter="url(#alpha)">
<rect x="0" y="0" width="25" height="23" style="fill:rgb(0%,0%,0%);fill-opacity:0.74902;stroke:none;"/>
  </g>
</mask>
<clipPath id="clip6">
  <rect x="0" y="0" width="25" height="23"/>
</clipPath>
<g id="surface20" clip-path="url(#clip6)">
<path style=" stroke:none;fill-rule:nonzero;fill:rgb(93.333333%,93.333333%,93.333333%);fill-opacity:1;" d="M 11.566406 17.792969 C 11.566406 18.039062 11.367188 18.242188 11.125 18.242188 C 10.878906 18.242188 10.679688 18.039062 10.679688 17.792969 C 10.679688 17.542969 10.878906 17.339844 11.125 17.339844 C 11.367188 17.339844 11.566406 17.542969 11.566406 17.792969 Z M 11.566406 17.792969 "/>
</g>
<mask id="mask6">
  <g filter="url(#alpha)">
<rect x="0" y="0" width="25" height="23" style="fill:rgb(0%,0%,0%);fill-opacity:0.74902;stroke:none;"/>
  </g>
</mask>
<clipPath id="clip7">
  <rect x="0" y="0" width="25" height="23"/>
</clipPath>
<g id="surface23" clip-path="url(#clip7)">
<path style=" stroke:none;fill-rule:nonzero;fill:rgb(93.333333%,93.333333%,93.333333%);fill-opacity:1;" d="M 16.5625 20.722656 C 16.5625 20.972656 16.363281 21.171875 16.121094 21.171875 C 15.875 21.171875 15.675781 20.972656 15.675781 20.722656 C 15.675781 20.472656 15.875 20.273438 16.121094 20.273438 C 16.363281 20.273438 16.5625 20.472656 16.5625 20.722656 Z M 16.5625 20.722656 "/>
</g>
<mask id="mask7">
  <g filter="url(#alpha)">
<rect x="0" y="0" width="25" height="23" style="fill:rgb(0%,0%,0%);fill-opacity:0.74902;stroke:none;"/>
  </g>
</mask>
<clipPath id="clip8">
  <rect x="0" y="0" width="25" height="23"/>
</clipPath>
<g id="surface26" clip-path="url(#clip8)">
<path style=" stroke:none;fill-rule:nonzero;fill:rgb(93.333333%,93.333333%,93.333333%);fill-opacity:1;" d="M 14.863281 12.867188 C 14.863281 13.117188 14.664062 13.316406 14.421875 13.316406 C 14.175781 13.316406 13.976562 13.117188 13.976562 12.867188 C 13.976562 12.617188 14.175781 12.414062 14.421875 12.414062 C 14.664062 12.414062 14.863281 12.617188 14.863281 12.867188 Z M 14.863281 12.867188 "/>
</g>
</defs>
<g id="surface1">
<path style=" stroke:none;fill-rule:nonzero;fill:rgb(86.666667%,86.666667%,86.666667%);fill-opacity:1;" d="M 21.441406 13.214844 C 21.335938 13.214844 21.234375 13.214844 21.132812 13.214844 C 20.652344 11.777344 19.328125 10.808594 17.839844 10.808594 C 17.636719 10.8125 17.4375 10.824219 17.238281 10.847656 C 16.453125 10.148438 15.441406 9.765625 14.398438 9.769531 C 12.109375 9.769531 10.25 11.433594 9.851562 13.769531 C 8.863281 14.414062 8.222656 15.480469 8.222656 16.527344 C 8.242188 18.378906 9.726562 19.859375 11.539062 19.84375 L 21.441406 19.84375 C 23.324219 19.84375 24.917969 18.324219 24.917969 16.53125 C 24.917969 14.734375 23.324219 13.214844 21.441406 13.214844 Z M 21.441406 13.214844 "/>
<path style=" stroke:none;fill-rule:evenodd;fill:rgb(80%,80%,80%);fill-opacity:1;" d="M 23.585938 18.101562 C 23.402344 18.5 23.15625 18.867188 22.863281 19.191406 C 23.464844 18.886719 23.953125 18.386719 24.25 17.769531 C 24.914062 16.324219 24.265625 14.652344 22.78125 13.933594 C 23.960938 14.761719 24.335938 16.496094 23.585938 18.101562 Z M 23.585938 18.101562 "/>
<path style=" stroke:none;fill-rule:evenodd;fill:rgb(97.647059%,65.098039%,2.745098%);fill-opacity:1;" d="M 12.609375 9.640625 C 11.335938 10.957031 9.597656 11.691406 7.785156 11.683594 C 5.96875 11.679688 4.238281 10.929688 2.972656 9.605469 L 2.929688 9.5625 C 3.480469 13.816406 7.011719 17.121094 11.28125 17.136719 C 13.515625 17.132812 15.652344 16.21875 17.21875 14.601562 C 18.789062 12.980469 19.65625 10.789062 19.628906 8.515625 C 19.625 4.40625 16.804688 0.855469 12.863281 0 C 15.261719 2.789062 15.152344 6.988281 12.609375 9.640625 Z M 12.609375 9.640625 "/>
<path style=" stroke:none;fill-rule:evenodd;fill:rgb(100%,84.313725%,29.411765%);fill-opacity:1;" d="M 17.535156 11.5625 C 17.222656 12.324219 16.800781 13.03125 16.285156 13.667969 C 17.359375 13.042969 18.199219 12.074219 18.679688 10.914062 C 19.835938 8.136719 18.742188 4.921875 16.152344 3.46875 C 18.183594 5.085938 18.828125 8.453125 17.535156 11.5625 Z M 17.535156 11.5625 "/>
<use xlink:href="#surface5" mask="url(#mask0)"/>
<use xlink:href="#surface8" mask="url(#mask1)"/>
<use xlink:href="#surface11" mask="url(#mask2)"/>
<use xlink:href="#surface14" mask="url(#mask3)"/>
<use xlink:href="#surface17" mask="url(#mask4)"/>
<use xlink:href="#surface20" mask="url(#mask5)"/>
<use xlink:href="#surface23" mask="url(#mask6)"/>
<use xlink:href="#surface26" mask="url(#mask7)"/>
</g>
</svg>
