<?xml version="1.0" encoding="UTF-8"?>
<svg xmlns="http://www.w3.org/2000/svg" xmlns:xlink="http://www.w3.org/1999/xlink" width="25px" height="px" viewBox="0 0 24 23" version="1.1">
<defs>
<filter id="alpha" filterUnits="objectBoundingBox" x="0%" y="0%" width="100%" height="100%">
  <feColorMatrix type="matrix" in="SourceGraphic" values="0 0 0 0 1 0 0 0 0 1 0 0 0 0 1 0 0 0 1 0"/>
</filter>
<mask id="mask0">
  <g filter="url(#alpha)">
<rect x="0" y="0" width="24" height="23" style="fill:rgb(0%,0%,0%);fill-opacity:0.6;stroke:none;"/>
  </g>
</mask>
<clipPath id="clip1">
  <rect x="0" y="0" width="24" height="23"/>
</clipPath>
<g id="surface5" clip-path="url(#clip1)">
<path style=" stroke:none;fill-rule:nonzero;fill:rgb(93.333333%,93.333333%,93.333333%);fill-opacity:1;" d="M 12.816406 16.515625 C 12.6875 16.515625 12.554688 16.515625 12.425781 16.503906 C 10.660156 16.386719 9.140625 15.40625 7.800781 14.5625 L 7.574219 14.414062 C 5.75 13.253906 2.945312 12.863281 1.097656 14.753906 C 0.84375 15.011719 0.4375 15.011719 0.1875 14.753906 C -0.0625 14.496094 -0.0625 14.082031 0.1875 13.824219 C 1.832031 12.144531 5.058594 11.261719 8.253906 13.300781 L 8.484375 13.449219 C 9.753906 14.257812 11.054688 15.097656 12.507812 15.199219 C 13.828125 15.300781 15.132812 14.824219 16.089844 13.886719 C 16.339844 13.628906 16.746094 13.628906 17 13.882812 C 17.25 14.140625 17.25 14.558594 17 14.8125 C 15.875 15.917969 14.375 16.527344 12.816406 16.515625 Z M 12.816406 16.515625 "/>
</g>
<mask id="mask1">
  <g filter="url(#alpha)">
<rect x="0" y="0" width="24" height="23" style="fill:rgb(0%,0%,0%);fill-opacity:0.74902;stroke:none;"/>
  </g>
</mask>
<clipPath id="clip2">
  <rect x="0" y="0" width="24" height="23"/>
</clipPath>
<g id="surface8" clip-path="url(#clip2)">
<path style=" stroke:none;fill-rule:nonzero;fill:rgb(93.333333%,93.333333%,93.333333%);fill-opacity:1;" d="M 12.816406 19.714844 C 12.6875 19.714844 12.554688 19.714844 12.429688 19.714844 C 10.660156 19.597656 9.144531 18.617188 7.804688 17.773438 L 7.578125 17.625 C 5.753906 16.464844 2.949219 16.074219 1.097656 17.964844 C 0.84375 18.222656 0.4375 18.222656 0.183594 17.960938 C -0.0664062 17.703125 -0.0664062 17.285156 0.1875 17.027344 C 1.832031 15.347656 5.058594 14.457031 8.253906 16.503906 L 8.484375 16.648438 C 9.753906 17.460938 11.054688 18.300781 12.507812 18.402344 C 13.828125 18.5 15.128906 18.023438 16.089844 17.089844 C 16.339844 16.832031 16.746094 16.832031 17 17.085938 C 17.25 17.34375 17.25 17.757812 17 18.015625 C 15.875 19.117188 14.375 19.726562 12.816406 19.714844 Z M 12.816406 19.714844 "/>
</g>
<mask id="mask2">
  <g filter="url(#alpha)">
<rect x="0" y="0" width="24" height="23" style="fill:rgb(0%,0%,0%);fill-opacity:0.901961;stroke:none;"/>
  </g>
</mask>
<clipPath id="clip3">
  <rect x="0" y="0" width="24" height="23"/>
</clipPath>
<g id="surface11" clip-path="url(#clip3)">
<path style=" stroke:none;fill-rule:nonzero;fill:rgb(93.333333%,93.333333%,93.333333%);fill-opacity:1;" d="M 12.8125 22.921875 C 12.6875 22.921875 12.554688 22.921875 12.425781 22.90625 C 10.660156 22.792969 9.140625 21.8125 7.804688 20.96875 L 7.574219 20.820312 C 5.75 19.660156 2.945312 19.277344 1.097656 21.160156 C 0.84375 21.417969 0.4375 21.414062 0.1875 21.160156 C -0.0625 20.902344 -0.0625 20.484375 0.1875 20.230469 C 1.832031 18.550781 5.058594 17.667969 8.253906 19.714844 L 8.484375 19.859375 C 9.753906 20.671875 11.058594 21.511719 12.507812 21.613281 C 13.828125 21.714844 15.132812 21.234375 16.089844 20.300781 C 16.339844 20.042969 16.746094 20.042969 17 20.296875 C 17.25 20.554688 17.25 20.972656 17 21.226562 C 15.875 22.328125 14.371094 22.9375 12.8125 22.921875 Z M 12.8125 22.921875 "/>
</g>
<mask id="mask3">
  <g filter="url(#alpha)">
<rect x="0" y="0" width="24" height="23" style="fill:rgb(0%,0%,0%);fill-opacity:0.74902;stroke:none;"/>
  </g>
</mask>
<clipPath id="clip4">
  <rect x="0" y="0" width="24" height="23"/>
</clipPath>
<g id="surface14" clip-path="url(#clip4)">
<path style=" stroke:none;fill-rule:nonzero;fill:rgb(93.333333%,93.333333%,93.333333%);fill-opacity:1;" d="M 2.703125 14.320312 C 2.703125 14.5625 2.511719 14.757812 2.277344 14.757812 C 2.039062 14.757812 1.847656 14.5625 1.847656 14.320312 C 1.847656 14.078125 2.039062 13.882812 2.277344 13.882812 C 2.511719 13.882812 2.703125 14.078125 2.703125 14.320312 Z M 2.703125 14.320312 "/>
</g>
<mask id="mask4">
  <g filter="url(#alpha)">
<rect x="0" y="0" width="24" height="23" style="fill:rgb(0%,0%,0%);fill-opacity:0.74902;stroke:none;"/>
  </g>
</mask>
<clipPath id="clip5">
  <rect x="0" y="0" width="24" height="23"/>
</clipPath>
<g id="surface17" clip-path="url(#clip5)">
<path style=" stroke:none;fill-rule:nonzero;fill:rgb(93.333333%,93.333333%,93.333333%);fill-opacity:1;" d="M 5.496094 21.28125 C 5.496094 21.523438 5.300781 21.722656 5.066406 21.722656 C 4.828125 21.722656 4.636719 21.523438 4.636719 21.28125 C 4.636719 21.039062 4.828125 20.84375 5.066406 20.84375 C 5.300781 20.84375 5.496094 21.039062 5.496094 21.28125 Z M 5.496094 21.28125 "/>
</g>
<mask id="mask5">
  <g filter="url(#alpha)">
<rect x="0" y="0" width="24" height="23" style="fill:rgb(0%,0%,0%);fill-opacity:0.74902;stroke:none;"/>
  </g>
</mask>
<clipPath id="clip6">
  <rect x="0" y="0" width="24" height="23"/>
</clipPath>
<g id="surface20" clip-path="url(#clip6)">
<path style=" stroke:none;fill-rule:nonzero;fill:rgb(93.333333%,93.333333%,93.333333%);fill-opacity:1;" d="M 11.203125 17.777344 C 11.203125 18.019531 11.011719 18.214844 10.773438 18.214844 C 10.539062 18.214844 10.347656 18.019531 10.347656 17.777344 C 10.347656 17.535156 10.539062 17.339844 10.773438 17.339844 C 11.011719 17.339844 11.203125 17.535156 11.203125 17.777344 Z M 11.203125 17.777344 "/>
</g>
<mask id="mask6">
  <g filter="url(#alpha)">
<rect x="0" y="0" width="24" height="23" style="fill:rgb(0%,0%,0%);fill-opacity:0.74902;stroke:none;"/>
  </g>
</mask>
<clipPath id="clip7">
  <rect x="0" y="0" width="24" height="23"/>
</clipPath>
<g id="surface23" clip-path="url(#clip7)">
<path style=" stroke:none;fill-rule:nonzero;fill:rgb(93.333333%,93.333333%,93.333333%);fill-opacity:1;" d="M 16.042969 20.625 C 16.042969 20.867188 15.847656 21.0625 15.613281 21.0625 C 15.375 21.0625 15.183594 20.867188 15.183594 20.625 C 15.183594 20.382812 15.375 20.1875 15.613281 20.1875 C 15.847656 20.1875 16.042969 20.382812 16.042969 20.625 Z M 16.042969 20.625 "/>
</g>
<mask id="mask7">
  <g filter="url(#alpha)">
<rect x="0" y="0" width="24" height="23" style="fill:rgb(0%,0%,0%);fill-opacity:0.74902;stroke:none;"/>
  </g>
</mask>
<clipPath id="clip8">
  <rect x="0" y="0" width="24" height="23"/>
</clipPath>
<g id="surface26" clip-path="url(#clip8)">
<path style=" stroke:none;fill-rule:nonzero;fill:rgb(93.333333%,93.333333%,93.333333%);fill-opacity:1;" d="M 14.394531 12.992188 C 14.394531 13.234375 14.203125 13.433594 13.96875 13.433594 C 13.730469 13.433594 13.539062 13.234375 13.539062 12.992188 C 13.539062 12.75 13.730469 12.554688 13.96875 12.554688 C 14.203125 12.554688 14.394531 12.75 14.394531 12.992188 Z M 14.394531 12.992188 "/>
</g>
</defs>
<g id="surface1">
<path style=" stroke:none;fill-rule:evenodd;fill:rgb(97.647059%,65.098039%,2.745098%);fill-opacity:1;" d="M 10.023438 8.628906 C 8.886719 9.804688 7.332031 10.460938 5.714844 10.457031 C 4.097656 10.449219 2.550781 9.777344 1.421875 8.59375 L 1.386719 8.554688 C 1.863281 12.398438 5.039062 15.292969 8.828125 15.332031 C 10.820312 15.332031 12.730469 14.515625 14.132812 13.066406 C 15.535156 11.617188 16.308594 9.652344 16.285156 7.617188 C 16.28125 3.9375 13.761719 0.761719 10.242188 0 C 12.386719 2.492188 12.289062 6.253906 10.023438 8.628906 Z M 10.023438 8.628906 "/>
<path style=" stroke:none;fill-rule:evenodd;fill:rgb(100%,84.313725%,29.411765%);fill-opacity:1;" d="M 14.410156 10.34375 C 14.132812 11.027344 13.753906 11.660156 13.296875 12.230469 C 14.253906 11.671875 15.003906 10.804688 15.429688 9.765625 C 16.460938 7.28125 15.484375 4.402344 13.171875 3.105469 C 15 4.550781 15.5625 7.5625 14.410156 10.34375 Z M 14.410156 10.34375 "/>
<path style=" stroke:none;fill-rule:nonzero;fill:rgb(86.666667%,86.666667%,86.666667%);fill-opacity:1;" d="M 19.972656 12.078125 C 19.855469 12.078125 19.734375 12.078125 19.617188 12.089844 C 19.066406 10.414062 17.53125 9.285156 15.800781 9.285156 C 15.570312 9.289062 15.335938 9.300781 15.105469 9.328125 C 14.191406 8.515625 13.023438 8.070312 11.8125 8.078125 C 9.164062 8.078125 7.007812 10.007812 6.546875 12.722656 C 5.402344 13.472656 4.660156 14.714844 4.660156 15.929688 C 4.683594 18.078125 6.402344 19.796875 8.503906 19.78125 L 19.972656 19.78125 C 22.15625 19.78125 24.003906 18.027344 24.003906 15.929688 C 24.003906 13.832031 22.15625 12.078125 19.972656 12.078125 Z M 19.972656 12.078125 "/>
<path style=" stroke:none;fill-rule:evenodd;fill:rgb(80%,80%,80%);fill-opacity:1;" d="M 22.714844 17.761719 C 22.5 18.222656 22.214844 18.648438 21.875 19.023438 C 22.574219 18.671875 23.140625 18.089844 23.484375 17.371094 C 24.261719 15.691406 23.5 13.75 21.78125 12.902344 C 23.144531 13.875 23.585938 15.894531 22.714844 17.761719 Z M 22.714844 17.761719 "/>
<use xlink:href="#surface5" mask="url(#mask0)"/>
<use xlink:href="#surface8" mask="url(#mask1)"/>
<use xlink:href="#surface11" mask="url(#mask2)"/>
<use xlink:href="#surface14" mask="url(#mask3)"/>
<use xlink:href="#surface17" mask="url(#mask4)"/>
<use xlink:href="#surface20" mask="url(#mask5)"/>
<use xlink:href="#surface23" mask="url(#mask6)"/>
<use xlink:href="#surface26" mask="url(#mask7)"/>
</g>
</svg>
