<?xml version="1.0" encoding="UTF-8"?>
<svg xmlns="http://www.w3.org/2000/svg" xmlns:xlink="http://www.w3.org/1999/xlink" width="25px" height="px" viewBox="0 0 25 20" version="1.1">
<defs>
<filter id="alpha" filterUnits="objectBoundingBox" x="0%" y="0%" width="100%" height="100%">
  <feColorMatrix type="matrix" in="SourceGraphic" values="0 0 0 0 1 0 0 0 0 1 0 0 0 0 1 0 0 0 1 0"/>
</filter>
<mask id="mask0">
  <g filter="url(#alpha)">
<rect x="0" y="0" width="25" height="20" style="fill:rgb(0%,0%,0%);fill-opacity:0.6;stroke:none;"/>
  </g>
</mask>
<clipPath id="clip1">
  <rect x="0" y="0" width="25" height="20"/>
</clipPath>
<g id="surface5" clip-path="url(#clip1)">
<path style=" stroke:none;fill-rule:nonzero;fill:rgb(93.333333%,93.333333%,93.333333%);fill-opacity:1;" d="M 13.59375 13.320312 C 13.453125 13.320312 13.316406 13.320312 13.179688 13.304688 C 11.304688 13.183594 9.695312 12.15625 8.273438 11.269531 L 8.035156 11.113281 C 6.101562 9.898438 3.125 9.488281 1.164062 11.46875 C 0.894531 11.722656 0.476562 11.714844 0.214844 11.453125 C -0.0429688 11.1875 -0.0507812 10.765625 0.199219 10.496094 C 1.941406 8.734375 5.363281 7.816406 8.753906 9.945312 L 8.996094 10.097656 C 10.34375 10.949219 11.726562 11.828125 13.265625 11.9375 C 14.667969 12.042969 16.046875 11.542969 17.0625 10.558594 C 17.328125 10.289062 17.761719 10.289062 18.027344 10.558594 C 18.296875 10.828125 18.296875 11.261719 18.03125 11.535156 C 16.835938 12.691406 15.246094 13.332031 13.59375 13.320312 Z M 13.59375 13.320312 "/>
</g>
<mask id="mask1">
  <g filter="url(#alpha)">
<rect x="0" y="0" width="25" height="20" style="fill:rgb(0%,0%,0%);fill-opacity:0.74902;stroke:none;"/>
  </g>
</mask>
<clipPath id="clip2">
  <rect x="0" y="0" width="25" height="20"/>
</clipPath>
<g id="surface8" clip-path="url(#clip2)">
<path style=" stroke:none;fill-rule:nonzero;fill:rgb(93.333333%,93.333333%,93.333333%);fill-opacity:1;" d="M 13.59375 16.679688 C 13.453125 16.679688 13.316406 16.679688 13.179688 16.667969 C 11.304688 16.542969 9.695312 15.515625 8.273438 14.628906 L 8.035156 14.484375 C 6.101562 13.265625 3.125 12.855469 1.164062 14.835938 C 0.894531 15.105469 0.460938 15.105469 0.195312 14.832031 C -0.0703125 14.5625 -0.0664062 14.125 0.199219 13.855469 C 1.941406 12.09375 5.363281 11.167969 8.753906 13.304688 L 8.996094 13.460938 C 10.34375 14.308594 11.726562 15.191406 13.265625 15.300781 C 14.667969 15.402344 16.046875 14.902344 17.0625 13.917969 C 17.328125 13.648438 17.761719 13.648438 18.027344 13.917969 C 18.296875 14.1875 18.296875 14.625 18.03125 14.894531 C 16.835938 16.050781 15.246094 16.695312 13.59375 16.679688 Z M 13.59375 16.679688 "/>
</g>
<mask id="mask2">
  <g filter="url(#alpha)">
<rect x="0" y="0" width="25" height="20" style="fill:rgb(0%,0%,0%);fill-opacity:0.901961;stroke:none;"/>
  </g>
</mask>
<clipPath id="clip3">
  <rect x="0" y="0" width="25" height="20"/>
</clipPath>
<g id="surface11" clip-path="url(#clip3)">
<path style=" stroke:none;fill-rule:nonzero;fill:rgb(93.333333%,93.333333%,93.333333%);fill-opacity:1;" d="M 13.589844 20.042969 C 13.453125 20.042969 13.316406 20.042969 13.179688 20.027344 C 11.308594 19.90625 9.695312 18.878906 8.277344 17.992188 L 8.035156 17.835938 C 6.101562 16.617188 3.125 16.210938 1.164062 18.191406 C 0.894531 18.445312 0.476562 18.4375 0.214844 18.175781 C -0.0429688 17.910156 -0.0507812 17.488281 0.199219 17.214844 C 1.941406 15.453125 5.363281 14.527344 8.753906 16.667969 L 9 16.820312 C 10.34375 17.671875 11.726562 18.550781 13.265625 18.660156 C 14.667969 18.765625 16.046875 18.265625 17.0625 17.28125 C 17.328125 17.011719 17.761719 17.011719 18.027344 17.28125 C 18.296875 17.546875 18.296875 17.984375 18.03125 18.253906 C 16.835938 19.414062 15.246094 20.054688 13.589844 20.042969 Z M 13.589844 20.042969 "/>
</g>
<mask id="mask3">
  <g filter="url(#alpha)">
<rect x="0" y="0" width="25" height="20" style="fill:rgb(0%,0%,0%);fill-opacity:0.74902;stroke:none;"/>
  </g>
</mask>
<clipPath id="clip4">
  <rect x="0" y="0" width="25" height="20"/>
</clipPath>
<g id="surface14" clip-path="url(#clip4)">
<path style=" stroke:none;fill-rule:nonzero;fill:rgb(93.333333%,93.333333%,93.333333%);fill-opacity:1;" d="M 2.867188 11.015625 C 2.867188 11.269531 2.664062 11.476562 2.414062 11.476562 C 2.164062 11.476562 1.960938 11.269531 1.960938 11.015625 C 1.960938 10.761719 2.164062 10.554688 2.414062 10.554688 C 2.664062 10.554688 2.867188 10.761719 2.867188 11.015625 Z M 2.867188 11.015625 "/>
</g>
<mask id="mask4">
  <g filter="url(#alpha)">
<rect x="0" y="0" width="25" height="20" style="fill:rgb(0%,0%,0%);fill-opacity:0.74902;stroke:none;"/>
  </g>
</mask>
<clipPath id="clip5">
  <rect x="0" y="0" width="25" height="20"/>
</clipPath>
<g id="surface17" clip-path="url(#clip5)">
<path style=" stroke:none;fill-rule:nonzero;fill:rgb(93.333333%,93.333333%,93.333333%);fill-opacity:1;" d="M 5.828125 18.320312 C 5.828125 18.574219 5.625 18.78125 5.371094 18.78125 C 5.121094 18.78125 4.917969 18.574219 4.917969 18.320312 C 4.917969 18.066406 5.121094 17.863281 5.371094 17.863281 C 5.625 17.863281 5.828125 18.066406 5.828125 18.320312 Z M 5.828125 18.320312 "/>
</g>
<mask id="mask5">
  <g filter="url(#alpha)">
<rect x="0" y="0" width="25" height="20" style="fill:rgb(0%,0%,0%);fill-opacity:0.74902;stroke:none;"/>
  </g>
</mask>
<clipPath id="clip6">
  <rect x="0" y="0" width="25" height="20"/>
</clipPath>
<g id="surface20" clip-path="url(#clip6)">
<path style=" stroke:none;fill-rule:nonzero;fill:rgb(93.333333%,93.333333%,93.333333%);fill-opacity:1;" d="M 11.882812 14.644531 C 11.882812 14.898438 11.679688 15.101562 11.425781 15.101562 C 11.175781 15.101562 10.972656 14.898438 10.972656 14.644531 C 10.972656 14.390625 11.175781 14.183594 11.425781 14.183594 C 11.679688 14.183594 11.882812 14.390625 11.882812 14.644531 Z M 11.882812 14.644531 "/>
</g>
<mask id="mask6">
  <g filter="url(#alpha)">
<rect x="0" y="0" width="25" height="20" style="fill:rgb(0%,0%,0%);fill-opacity:0.74902;stroke:none;"/>
  </g>
</mask>
<clipPath id="clip7">
  <rect x="0" y="0" width="25" height="20"/>
</clipPath>
<g id="surface23" clip-path="url(#clip7)">
<path style=" stroke:none;fill-rule:nonzero;fill:rgb(93.333333%,93.333333%,93.333333%);fill-opacity:1;" d="M 17.011719 17.632812 C 17.011719 17.886719 16.808594 18.09375 16.558594 18.09375 C 16.308594 18.09375 16.105469 17.886719 16.105469 17.632812 C 16.105469 17.378906 16.308594 17.171875 16.558594 17.171875 C 16.808594 17.171875 17.011719 17.378906 17.011719 17.632812 Z M 17.011719 17.632812 "/>
</g>
<mask id="mask7">
  <g filter="url(#alpha)">
<rect x="0" y="0" width="25" height="20" style="fill:rgb(0%,0%,0%);fill-opacity:0.74902;stroke:none;"/>
  </g>
</mask>
<clipPath id="clip8">
  <rect x="0" y="0" width="25" height="20"/>
</clipPath>
<g id="surface26" clip-path="url(#clip8)">
<path style=" stroke:none;fill-rule:nonzero;fill:rgb(93.333333%,93.333333%,93.333333%);fill-opacity:1;" d="M 15.269531 9.621094 C 15.269531 9.875 15.066406 10.082031 14.8125 10.082031 C 14.5625 10.082031 14.359375 9.875 14.359375 9.621094 C 14.359375 9.367188 14.5625 9.164062 14.8125 9.164062 C 15.066406 9.164062 15.269531 9.367188 15.269531 9.621094 Z M 15.269531 9.621094 "/>
</g>
</defs>
<g id="surface1">
<path style=" stroke:none;fill-rule:evenodd;fill:rgb(97.647059%,65.098039%,2.745098%);fill-opacity:1;" d="M 16.363281 9.289062 C 15.125 10.554688 13.4375 11.265625 11.675781 11.257812 C 9.917969 11.25 8.234375 10.527344 7.007812 9.253906 L 6.96875 9.210938 C 7.484375 13.34375 10.9375 16.460938 15.058594 16.511719 C 17.222656 16.507812 19.300781 15.625 20.824219 14.066406 C 22.347656 12.507812 23.1875 10.394531 23.164062 8.203125 C 23.160156 4.242188 20.421875 0.824219 16.589844 0 C 18.925781 2.679688 18.824219 6.726562 16.363281 9.289062 Z M 16.363281 9.289062 "/>
<path style=" stroke:none;fill-rule:evenodd;fill:rgb(100%,84.313725%,29.411765%);fill-opacity:1;" d="M 21.136719 11.140625 C 20.832031 11.871094 20.421875 12.554688 19.921875 13.167969 C 20.964844 12.566406 21.777344 11.632812 22.242188 10.515625 C 23.363281 7.835938 22.292969 4.734375 19.773438 3.339844 C 21.761719 4.902344 22.386719 8.144531 21.136719 11.140625 Z M 21.136719 11.140625 "/>
<path style=" stroke:none;fill-rule:nonzero;fill:rgb(86.666667%,86.666667%,86.666667%);fill-opacity:1;" d="M 20.601562 8.148438 C 20.46875 8.148438 20.339844 8.148438 20.210938 8.164062 C 19.605469 6.339844 17.914062 5.105469 16.007812 5.105469 C 15.753906 5.109375 15.496094 5.125 15.242188 5.152344 C 14.234375 4.265625 12.941406 3.78125 11.605469 3.789062 C 8.6875 3.789062 6.3125 5.894531 5.808594 8.847656 C 4.546875 9.660156 3.726562 11.015625 3.726562 12.339844 C 3.734375 13.46875 4.183594 14.546875 4.980469 15.335938 C 5.777344 16.128906 6.855469 16.566406 7.96875 16.550781 L 20.601562 16.550781 C 23.007812 16.550781 25.039062 14.628906 25.039062 12.355469 C 25.039062 10.078125 23.007812 8.148438 20.601562 8.148438 Z M 20.601562 8.148438 "/>
<path style=" stroke:none;fill-rule:evenodd;fill:rgb(80%,80%,80%);fill-opacity:1;" d="M 23.230469 14.164062 C 22.992188 14.671875 22.679688 15.136719 22.304688 15.542969 C 23.078125 15.160156 23.699219 14.527344 24.074219 13.746094 C 24.9375 11.90625 24.09375 9.796875 22.199219 8.875 C 23.707031 9.929688 24.183594 12.132812 23.230469 14.164062 Z M 23.230469 14.164062 "/>
<use xlink:href="#surface5" mask="url(#mask0)"/>
<use xlink:href="#surface8" mask="url(#mask1)"/>
<use xlink:href="#surface11" mask="url(#mask2)"/>
<use xlink:href="#surface14" mask="url(#mask3)"/>
<use xlink:href="#surface17" mask="url(#mask4)"/>
<use xlink:href="#surface20" mask="url(#mask5)"/>
<use xlink:href="#surface23" mask="url(#mask6)"/>
<use xlink:href="#surface26" mask="url(#mask7)"/>
</g>
</svg>
