<?xml version="1.0" encoding="UTF-8"?>
<svg xmlns="http://www.w3.org/2000/svg" xmlns:xlink="http://www.w3.org/1999/xlink" width="25px" height="px" viewBox="0 0 24 20" version="1.1">
<defs>
<filter id="alpha" filterUnits="objectBoundingBox" x="0%" y="0%" width="100%" height="100%">
  <feColorMatrix type="matrix" in="SourceGraphic" values="0 0 0 0 1 0 0 0 0 1 0 0 0 0 1 0 0 0 1 0"/>
</filter>
<mask id="mask0">
  <g filter="url(#alpha)">
<rect x="0" y="0" width="24" height="20" style="fill:rgb(0%,0%,0%);fill-opacity:0.6;stroke:none;"/>
  </g>
</mask>
<clipPath id="clip1">
  <rect x="0" y="0" width="24" height="20"/>
</clipPath>
<g id="surface5" clip-path="url(#clip1)">
<path style=" stroke:none;fill-rule:nonzero;fill:rgb(93.333333%,93.333333%,93.333333%);fill-opacity:1;" d="M 14.074219 12.867188 C 13.929688 12.867188 13.785156 12.867188 13.644531 12.851562 C 11.703125 12.722656 10.039062 11.632812 8.566406 10.691406 L 8.316406 10.527344 C 6.316406 9.234375 3.234375 8.800781 1.203125 10.90625 C 0.929688 11.191406 0.480469 11.191406 0.207031 10.902344 C -0.0703125 10.617188 -0.0703125 10.152344 0.207031 9.867188 C 2.011719 7.996094 5.554688 7.015625 9.0625 9.285156 L 9.316406 9.449219 C 10.710938 10.351562 12.140625 11.285156 13.734375 11.398438 C 15.183594 11.511719 16.613281 10.980469 17.664062 9.9375 C 17.941406 9.648438 18.386719 9.648438 18.664062 9.933594 C 18.941406 10.222656 18.941406 10.683594 18.664062 10.972656 C 17.433594 12.199219 15.785156 12.878906 14.074219 12.867188 Z M 14.074219 12.867188 "/>
</g>
<mask id="mask1">
  <g filter="url(#alpha)">
<rect x="0" y="0" width="24" height="20" style="fill:rgb(0%,0%,0%);fill-opacity:0.74902;stroke:none;"/>
  </g>
</mask>
<clipPath id="clip2">
  <rect x="0" y="0" width="24" height="20"/>
</clipPath>
<g id="surface8" clip-path="url(#clip2)">
<path style=" stroke:none;fill-rule:nonzero;fill:rgb(93.333333%,93.333333%,93.333333%);fill-opacity:1;" d="M 14.074219 16.433594 C 13.929688 16.433594 13.785156 16.433594 13.644531 16.417969 C 11.703125 16.289062 10.039062 15.199219 8.566406 14.257812 L 8.316406 14.09375 C 6.316406 12.800781 3.234375 12.367188 1.203125 14.472656 C 0.929688 14.757812 0.480469 14.753906 0.207031 14.46875 C -0.0703125 14.183594 -0.0703125 13.71875 0.207031 13.433594 C 2.011719 11.5625 5.554688 10.582031 9.0625 12.851562 L 9.316406 13.015625 C 10.710938 13.917969 12.140625 14.851562 13.734375 14.964844 C 15.183594 15.078125 16.613281 14.546875 17.664062 13.503906 C 17.941406 13.214844 18.386719 13.214844 18.664062 13.5 C 18.941406 13.785156 18.941406 14.25 18.664062 14.535156 C 17.433594 15.765625 15.785156 16.445312 14.074219 16.433594 Z M 14.074219 16.433594 "/>
</g>
<mask id="mask2">
  <g filter="url(#alpha)">
<rect x="0" y="0" width="24" height="20" style="fill:rgb(0%,0%,0%);fill-opacity:0.901961;stroke:none;"/>
  </g>
</mask>
<clipPath id="clip3">
  <rect x="0" y="0" width="24" height="20"/>
</clipPath>
<g id="surface11" clip-path="url(#clip3)">
<path style=" stroke:none;fill-rule:nonzero;fill:rgb(93.333333%,93.333333%,93.333333%);fill-opacity:1;" d="M 14.070312 20 C 13.929688 20 13.785156 20 13.644531 19.984375 C 11.707031 19.855469 10.039062 18.765625 8.570312 17.824219 L 8.316406 17.660156 C 6.316406 16.367188 3.234375 15.933594 1.203125 18.046875 C 0.925781 18.335938 0.476562 18.332031 0.199219 18.042969 C -0.0742188 17.75 -0.0742188 17.285156 0.207031 17 C 2.011719 15.121094 5.554688 14.144531 9.0625 16.417969 L 9.316406 16.585938 C 10.710938 17.488281 12.140625 18.421875 13.734375 18.535156 C 15.1875 18.648438 16.613281 18.117188 17.664062 17.074219 C 17.941406 16.785156 18.386719 16.785156 18.664062 17.070312 C 18.941406 17.359375 18.941406 17.820312 18.664062 18.105469 C 17.433594 19.335938 15.78125 20.015625 14.070312 20 Z M 14.070312 20 "/>
</g>
<mask id="mask3">
  <g filter="url(#alpha)">
<rect x="0" y="0" width="24" height="20" style="fill:rgb(0%,0%,0%);fill-opacity:0.74902;stroke:none;"/>
  </g>
</mask>
<clipPath id="clip4">
  <rect x="0" y="0" width="24" height="20"/>
</clipPath>
<g id="surface14" clip-path="url(#clip4)">
<path style=" stroke:none;fill-rule:nonzero;fill:rgb(93.333333%,93.333333%,93.333333%);fill-opacity:1;" d="M 2.96875 10.421875 C 2.96875 10.691406 2.757812 10.910156 2.5 10.910156 C 2.238281 10.910156 2.027344 10.691406 2.027344 10.421875 C 2.027344 10.152344 2.238281 9.933594 2.5 9.933594 C 2.757812 9.933594 2.96875 10.152344 2.96875 10.421875 Z M 2.96875 10.421875 "/>
</g>
<mask id="mask4">
  <g filter="url(#alpha)">
<rect x="0" y="0" width="24" height="20" style="fill:rgb(0%,0%,0%);fill-opacity:0.74902;stroke:none;"/>
  </g>
</mask>
<clipPath id="clip5">
  <rect x="0" y="0" width="24" height="20"/>
</clipPath>
<g id="surface17" clip-path="url(#clip5)">
<path style=" stroke:none;fill-rule:nonzero;fill:rgb(93.333333%,93.333333%,93.333333%);fill-opacity:1;" d="M 6.03125 18.171875 C 6.03125 18.441406 5.820312 18.660156 5.5625 18.660156 C 5.300781 18.660156 5.089844 18.441406 5.089844 18.171875 C 5.089844 17.902344 5.300781 17.683594 5.5625 17.683594 C 5.820312 17.683594 6.03125 17.902344 6.03125 18.171875 Z M 6.03125 18.171875 "/>
</g>
<mask id="mask5">
  <g filter="url(#alpha)">
<rect x="0" y="0" width="24" height="20" style="fill:rgb(0%,0%,0%);fill-opacity:0.74902;stroke:none;"/>
  </g>
</mask>
<clipPath id="clip6">
  <rect x="0" y="0" width="24" height="20"/>
</clipPath>
<g id="surface20" clip-path="url(#clip6)">
<path style=" stroke:none;fill-rule:nonzero;fill:rgb(93.333333%,93.333333%,93.333333%);fill-opacity:1;" d="M 12.300781 14.269531 C 12.300781 14.539062 12.089844 14.757812 11.832031 14.757812 C 11.570312 14.757812 11.359375 14.539062 11.359375 14.269531 C 11.359375 14 11.570312 13.78125 11.832031 13.78125 C 12.089844 13.78125 12.300781 14 12.300781 14.269531 Z M 12.300781 14.269531 "/>
</g>
<mask id="mask6">
  <g filter="url(#alpha)">
<rect x="0" y="0" width="24" height="20" style="fill:rgb(0%,0%,0%);fill-opacity:0.74902;stroke:none;"/>
  </g>
</mask>
<clipPath id="clip7">
  <rect x="0" y="0" width="24" height="20"/>
</clipPath>
<g id="surface23" clip-path="url(#clip7)">
<path style=" stroke:none;fill-rule:nonzero;fill:rgb(93.333333%,93.333333%,93.333333%);fill-opacity:1;" d="M 17.613281 17.441406 C 17.613281 17.710938 17.402344 17.929688 17.144531 17.929688 C 16.882812 17.929688 16.671875 17.710938 16.671875 17.441406 C 16.671875 17.171875 16.882812 16.953125 17.144531 16.953125 C 17.402344 16.953125 17.613281 17.171875 17.613281 17.441406 Z M 17.613281 17.441406 "/>
</g>
<mask id="mask7">
  <g filter="url(#alpha)">
<rect x="0" y="0" width="24" height="20" style="fill:rgb(0%,0%,0%);fill-opacity:0.74902;stroke:none;"/>
  </g>
</mask>
<clipPath id="clip8">
  <rect x="0" y="0" width="24" height="20"/>
</clipPath>
<g id="surface26" clip-path="url(#clip8)">
<path style=" stroke:none;fill-rule:nonzero;fill:rgb(93.333333%,93.333333%,93.333333%);fill-opacity:1;" d="M 15.808594 8.945312 C 15.808594 9.214844 15.597656 9.433594 15.335938 9.433594 C 15.078125 9.433594 14.867188 9.214844 14.867188 8.945312 C 14.867188 8.675781 15.078125 8.457031 15.335938 8.457031 C 15.597656 8.457031 15.808594 8.675781 15.808594 8.945312 Z M 15.808594 8.945312 "/>
</g>
</defs>
<g id="surface1">
<path style=" stroke:none;fill-rule:nonzero;fill:rgb(60%,60%,60%);fill-opacity:1;" d="M 19.292969 4.691406 C 19.15625 4.691406 19.019531 4.691406 18.882812 4.707031 C 18.246094 2.746094 16.476562 1.421875 14.480469 1.417969 C 14.210938 1.417969 13.941406 1.433594 13.675781 1.464844 C 12.621094 0.515625 11.277344 -0.00390625 9.882812 0 C 6.824219 0 4.324219 2.261719 3.792969 5.453125 C 2.46875 6.328125 1.605469 7.78125 1.605469 9.207031 C 1.636719 11.71875 3.617188 13.738281 6.039062 13.722656 L 19.292969 13.722656 C 21.820312 13.722656 23.957031 11.65625 23.957031 9.207031 C 23.957031 6.757812 21.832031 4.691406 19.292969 4.691406 Z M 19.292969 4.691406 "/>
<path style=" stroke:none;fill-rule:evenodd;fill:rgb(46.666667%,46.666667%,46.666667%);fill-opacity:1;" d="M 22.179688 11.25 C 21.933594 11.792969 21.605469 12.292969 21.210938 12.730469 C 22.023438 12.316406 22.675781 11.636719 23.070312 10.796875 C 23.972656 8.824219 23.089844 6.546875 21.101562 5.554688 C 22.683594 6.695312 23.1875 9.0625 22.179688 11.25 Z M 22.179688 11.25 "/>
<use xlink:href="#surface5" mask="url(#mask0)"/>
<use xlink:href="#surface8" mask="url(#mask1)"/>
<use xlink:href="#surface11" mask="url(#mask2)"/>
<use xlink:href="#surface14" mask="url(#mask3)"/>
<use xlink:href="#surface17" mask="url(#mask4)"/>
<use xlink:href="#surface20" mask="url(#mask5)"/>
<use xlink:href="#surface23" mask="url(#mask6)"/>
<use xlink:href="#surface26" mask="url(#mask7)"/>
</g>
</svg>
