<?xml version="1.0" encoding="UTF-8"?>
<svg xmlns="http://www.w3.org/2000/svg" xmlns:xlink="http://www.w3.org/1999/xlink" width="25px" height="px" viewBox="0 0 25 26" version="1.1">
<g id="surface1">
<path style=" stroke:none;fill-rule:evenodd;fill:rgb(97.647059%,65.098039%,2.745098%);fill-opacity:1;" d="M 14.765625 10.484375 C 13.320312 11.914062 11.34375 12.714844 9.285156 12.710938 C 7.226562 12.703125 5.257812 11.890625 3.820312 10.453125 L 3.773438 10.40625 C 4.386719 15.070312 8.425781 18.582031 13.246094 18.632812 C 15.78125 18.628906 18.210938 17.636719 19.992188 15.871094 C 21.777344 14.109375 22.761719 11.726562 22.726562 9.25 C 22.722656 4.785156 19.523438 0.929688 15.046875 0 C 17.773438 3.03125 17.648438 7.597656 14.765625 10.484375 Z M 14.765625 10.484375 "/>
<path style=" stroke:none;fill-rule:evenodd;fill:rgb(100%,84.313725%,29.411765%);fill-opacity:1;" d="M 20.355469 12.570312 C 19.996094 13.398438 19.519531 14.167969 18.933594 14.859375 C 20.152344 14.179688 21.109375 13.128906 21.652344 11.867188 C 22.964844 8.847656 21.71875 5.347656 18.773438 3.769531 C 21.089844 5.53125 21.820312 9.191406 20.355469 12.570312 Z M 20.355469 12.570312 "/>
<path style=" stroke:none;fill-rule:nonzero;fill:rgb(86.666667%,86.666667%,86.666667%);fill-opacity:1;" d="M 19.734375 9.195312 C 19.578125 9.195312 19.425781 9.195312 19.273438 9.214844 C 18.566406 7.152344 16.589844 5.761719 14.359375 5.761719 C 14.058594 5.765625 13.761719 5.785156 13.460938 5.816406 C 12.285156 4.824219 10.777344 4.28125 9.21875 4.289062 C 5.808594 4.289062 3.023438 6.648438 2.4375 9.992188 C 0.960938 10.910156 0 12.441406 0 13.9375 C 0.03125 16.574219 2.242188 18.6875 4.945312 18.667969 L 19.726562 18.667969 C 22.542969 18.667969 24.921875 16.5 24.921875 13.933594 C 24.921875 11.363281 22.550781 9.195312 19.734375 9.195312 Z M 19.734375 9.195312 "/>
<path style=" stroke:none;fill-rule:evenodd;fill:rgb(80%,80%,80%);fill-opacity:1;" d="M 22.800781 15.984375 C 22.523438 16.554688 22.160156 17.078125 21.71875 17.539062 C 22.621094 17.105469 23.351562 16.390625 23.792969 15.507812 C 24.796875 13.441406 23.816406 11.058594 21.59375 10.015625 C 23.367188 11.210938 23.921875 13.691406 22.800781 15.984375 Z M 22.800781 15.984375 "/>
<path style=" stroke:none;fill-rule:nonzero;fill:rgb(0%,73.72549%,83.137255%);fill-opacity:1;" d="M 7.617188 17.226562 C 7.589844 17.226562 5.210938 19.371094 4.957031 20.261719 C 4.699219 21.164062 5.238281 22.101562 6.164062 22.355469 C 7.089844 22.605469 8.050781 22.078125 8.308594 21.175781 C 8.566406 20.257812 7.644531 17.234375 7.617188 17.226562 Z M 7.617188 17.226562 "/>
<path style=" stroke:none;fill-rule:nonzero;fill:rgb(0%,73.72549%,83.137255%);fill-opacity:1;" d="M 6.507812 24.929688 C 6.507812 25.480469 6.050781 25.925781 5.484375 25.925781 C 4.921875 25.925781 4.464844 25.480469 4.464844 24.929688 C 4.464844 24.378906 4.921875 23.929688 5.484375 23.929688 C 6.050781 23.929688 6.507812 24.378906 6.507812 24.929688 Z M 6.507812 24.929688 "/>
</g>
</svg>
