<?xml version="1.0" encoding="UTF-8"?>
<svg xmlns="http://www.w3.org/2000/svg" xmlns:xlink="http://www.w3.org/1999/xlink" width="25px" height="px" viewBox="0 0 25 22" version="1.1">
<defs>
<filter id="alpha" filterUnits="objectBoundingBox" x="0%" y="0%" width="100%" height="100%">
  <feColorMatrix type="matrix" in="SourceGraphic" values="0 0 0 0 1 0 0 0 0 1 0 0 0 0 1 0 0 0 1 0"/>
</filter>
<mask id="mask0">
  <g filter="url(#alpha)">
<rect x="0" y="0" width="25" height="22" style="fill:rgb(0%,0%,0%);fill-opacity:0.6;stroke:none;"/>
  </g>
</mask>
<clipPath id="clip1">
  <rect x="0" y="0" width="25" height="22"/>
</clipPath>
<g id="surface5" clip-path="url(#clip1)">
<path style=" stroke:none;fill-rule:nonzero;fill:rgb(93.333333%,93.333333%,93.333333%);fill-opacity:1;" d="M 20.339844 15.179688 C 20.203125 15.179688 20.066406 15.179688 19.929688 15.167969 C 18.074219 15.046875 16.476562 14.03125 15.070312 13.15625 L 14.832031 13.007812 C 12.914062 11.804688 9.964844 11.398438 8.023438 13.355469 C 7.757812 13.621094 7.332031 13.621094 7.066406 13.355469 C 6.804688 13.089844 6.804688 12.65625 7.066406 12.390625 C 8.796875 10.660156 12.183594 9.753906 15.539062 11.851562 L 15.78125 12.003906 C 17.113281 12.839844 18.484375 13.710938 20.007812 13.816406 C 21.398438 13.921875 22.765625 13.425781 23.773438 12.457031 C 23.941406 12.273438 24.195312 12.199219 24.4375 12.261719 C 24.675781 12.320312 24.863281 12.511719 24.921875 12.75 C 24.984375 12.992188 24.910156 13.25 24.730469 13.417969 C 23.550781 14.558594 21.976562 15.191406 20.339844 15.179688 Z M 20.339844 15.179688 "/>
</g>
<mask id="mask1">
  <g filter="url(#alpha)">
<rect x="0" y="0" width="25" height="22" style="fill:rgb(0%,0%,0%);fill-opacity:0.74902;stroke:none;"/>
  </g>
</mask>
<clipPath id="clip2">
  <rect x="0" y="0" width="25" height="22"/>
</clipPath>
<g id="surface8" clip-path="url(#clip2)">
<path style=" stroke:none;fill-rule:nonzero;fill:rgb(93.333333%,93.333333%,93.333333%);fill-opacity:1;" d="M 20.339844 18.496094 C 20.203125 18.496094 20.066406 18.496094 19.929688 18.480469 C 18.074219 18.363281 16.476562 17.347656 15.070312 16.472656 L 14.832031 16.328125 C 12.914062 15.125 9.964844 14.722656 8.023438 16.679688 C 7.757812 16.945312 7.332031 16.945312 7.066406 16.679688 C 6.804688 16.410156 6.804688 15.980469 7.066406 15.714844 C 8.796875 13.96875 12.183594 13.058594 15.539062 15.167969 L 15.78125 15.316406 C 17.113281 16.15625 18.484375 17.027344 20.007812 17.132812 C 21.398438 17.234375 22.765625 16.742188 23.773438 15.773438 C 23.941406 15.589844 24.195312 15.515625 24.4375 15.578125 C 24.675781 15.636719 24.863281 15.828125 24.921875 16.066406 C 24.984375 16.308594 24.910156 16.5625 24.730469 16.734375 C 23.550781 17.875 21.976562 18.507812 20.339844 18.496094 Z M 20.339844 18.496094 "/>
</g>
<mask id="mask2">
  <g filter="url(#alpha)">
<rect x="0" y="0" width="25" height="22" style="fill:rgb(0%,0%,0%);fill-opacity:0.901961;stroke:none;"/>
  </g>
</mask>
<clipPath id="clip3">
  <rect x="0" y="0" width="25" height="22"/>
</clipPath>
<g id="surface11" clip-path="url(#clip3)">
<path style=" stroke:none;fill-rule:nonzero;fill:rgb(93.333333%,93.333333%,93.333333%);fill-opacity:1;" d="M 20.339844 21.8125 C 20.203125 21.8125 20.066406 21.8125 19.929688 21.796875 C 18.074219 21.679688 16.480469 20.664062 15.070312 19.789062 L 14.832031 19.640625 C 12.914062 18.433594 9.964844 18.03125 8.023438 19.988281 C 7.757812 20.253906 7.332031 20.253906 7.066406 19.988281 C 6.804688 19.722656 6.804688 19.289062 7.066406 19.023438 C 8.796875 17.285156 12.183594 16.375 15.539062 18.480469 L 15.78125 18.632812 C 17.113281 19.472656 18.484375 20.34375 20.007812 20.449219 C 21.398438 20.550781 22.765625 20.058594 23.773438 19.085938 C 23.941406 18.90625 24.195312 18.832031 24.4375 18.890625 C 24.675781 18.953125 24.863281 19.140625 24.921875 19.382812 C 24.984375 19.625 24.910156 19.878906 24.730469 20.050781 C 23.550781 21.191406 21.976562 21.824219 20.339844 21.8125 Z M 20.339844 21.8125 "/>
</g>
<mask id="mask3">
  <g filter="url(#alpha)">
<rect x="0" y="0" width="25" height="22" style="fill:rgb(0%,0%,0%);fill-opacity:0.74902;stroke:none;"/>
  </g>
</mask>
<clipPath id="clip4">
  <rect x="0" y="0" width="25" height="22"/>
</clipPath>
<g id="surface14" clip-path="url(#clip4)">
<path style=" stroke:none;fill-rule:nonzero;fill:rgb(93.333333%,93.333333%,93.333333%);fill-opacity:1;" d="M 9.714844 12.910156 C 9.714844 13.160156 9.511719 13.363281 9.261719 13.363281 C 9.015625 13.363281 8.8125 13.160156 8.8125 12.910156 C 8.8125 12.660156 9.015625 12.457031 9.261719 12.457031 C 9.511719 12.457031 9.714844 12.660156 9.714844 12.910156 Z M 9.714844 12.910156 "/>
</g>
<mask id="mask4">
  <g filter="url(#alpha)">
<rect x="0" y="0" width="25" height="22" style="fill:rgb(0%,0%,0%);fill-opacity:0.74902;stroke:none;"/>
  </g>
</mask>
<clipPath id="clip5">
  <rect x="0" y="0" width="25" height="22"/>
</clipPath>
<g id="surface17" clip-path="url(#clip5)">
<path style=" stroke:none;fill-rule:nonzero;fill:rgb(93.333333%,93.333333%,93.333333%);fill-opacity:1;" d="M 12.644531 20.117188 C 12.644531 20.367188 12.441406 20.570312 12.195312 20.570312 C 11.945312 20.570312 11.742188 20.367188 11.742188 20.117188 C 11.742188 19.863281 11.945312 19.660156 12.195312 19.660156 C 12.441406 19.660156 12.644531 19.863281 12.644531 20.117188 Z M 12.644531 20.117188 "/>
</g>
<mask id="mask5">
  <g filter="url(#alpha)">
<rect x="0" y="0" width="25" height="22" style="fill:rgb(0%,0%,0%);fill-opacity:0.74902;stroke:none;"/>
  </g>
</mask>
<clipPath id="clip6">
  <rect x="0" y="0" width="25" height="22"/>
</clipPath>
<g id="surface20" clip-path="url(#clip6)">
<path style=" stroke:none;fill-rule:nonzero;fill:rgb(93.333333%,93.333333%,93.333333%);fill-opacity:1;" d="M 18.644531 16.488281 C 18.644531 16.738281 18.441406 16.941406 18.195312 16.941406 C 17.945312 16.941406 17.742188 16.738281 17.742188 16.488281 C 17.742188 16.234375 17.945312 16.03125 18.195312 16.03125 C 18.441406 16.03125 18.644531 16.234375 18.644531 16.488281 Z M 18.644531 16.488281 "/>
</g>
<mask id="mask6">
  <g filter="url(#alpha)">
<rect x="0" y="0" width="25" height="22" style="fill:rgb(0%,0%,0%);fill-opacity:0.74902;stroke:none;"/>
  </g>
</mask>
<clipPath id="clip7">
  <rect x="0" y="0" width="25" height="22"/>
</clipPath>
<g id="surface23" clip-path="url(#clip7)">
<path style=" stroke:none;fill-rule:nonzero;fill:rgb(93.333333%,93.333333%,93.333333%);fill-opacity:1;" d="M 23.730469 19.433594 C 23.730469 19.683594 23.527344 19.886719 23.277344 19.886719 C 23.03125 19.886719 22.828125 19.683594 22.828125 19.433594 C 22.828125 19.183594 23.03125 18.980469 23.277344 18.980469 C 23.527344 18.980469 23.730469 19.183594 23.730469 19.433594 Z M 23.730469 19.433594 "/>
</g>
<mask id="mask7">
  <g filter="url(#alpha)">
<rect x="0" y="0" width="25" height="22" style="fill:rgb(0%,0%,0%);fill-opacity:0.74902;stroke:none;"/>
  </g>
</mask>
<clipPath id="clip8">
  <rect x="0" y="0" width="25" height="22"/>
</clipPath>
<g id="surface26" clip-path="url(#clip8)">
<path style=" stroke:none;fill-rule:nonzero;fill:rgb(93.333333%,93.333333%,93.333333%);fill-opacity:1;" d="M 22.003906 11.53125 C 22.003906 11.785156 21.800781 11.988281 21.550781 11.988281 C 21.304688 11.988281 21.101562 11.785156 21.101562 11.53125 C 21.101562 11.28125 21.304688 11.078125 21.550781 11.078125 C 21.800781 11.078125 22.003906 11.28125 22.003906 11.53125 Z M 22.003906 11.53125 "/>
</g>
</defs>
<g id="surface1">
<path style=" stroke:none;fill-rule:evenodd;fill:rgb(97.647059%,65.098039%,2.745098%);fill-opacity:1;" d="M 12.105469 8.871094 C 10.921875 10.082031 9.300781 10.757812 7.613281 10.753906 C 5.925781 10.75 4.308594 10.0625 3.128906 8.84375 L 3.09375 8.808594 C 3.59375 12.753906 6.910156 15.722656 10.859375 15.765625 C 12.9375 15.761719 14.929688 14.921875 16.390625 13.429688 C 17.851562 11.941406 18.660156 9.921875 18.632812 7.828125 C 18.628906 4.050781 16.003906 0.789062 12.335938 0 C 14.570312 2.5625 14.46875 6.425781 12.105469 8.871094 Z M 12.105469 8.871094 "/>
<path style=" stroke:none;fill-rule:evenodd;fill:rgb(100%,84.313725%,29.411765%);fill-opacity:1;" d="M 16.6875 10.636719 C 16.394531 11.335938 16.003906 11.988281 15.523438 12.574219 C 16.523438 12 17.304688 11.109375 17.753906 10.039062 C 18.828125 7.484375 17.804688 4.527344 15.390625 3.191406 C 17.289062 4.679688 17.890625 7.777344 16.6875 10.636719 Z M 16.6875 10.636719 "/>
<path style=" stroke:none;fill-rule:nonzero;fill:rgb(86.666667%,86.666667%,86.666667%);fill-opacity:1;" d="M 16.179688 7.78125 C 16.050781 7.78125 15.925781 7.78125 15.800781 7.796875 C 15.222656 6.054688 13.597656 4.875 11.773438 4.875 C 11.527344 4.878906 11.28125 4.894531 11.035156 4.921875 C 10.070312 4.082031 8.835938 3.621094 7.558594 3.628906 C 4.761719 3.628906 2.476562 5.628906 1.996094 8.457031 C 0.789062 9.234375 0 10.527344 0 11.792969 C 0.0273438 14.023438 1.839844 15.8125 4.054688 15.796875 L 16.171875 15.796875 C 18.480469 15.796875 20.429688 13.960938 20.429688 11.789062 C 20.429688 9.617188 18.488281 7.78125 16.179688 7.78125 Z M 16.179688 7.78125 "/>
<path style=" stroke:none;fill-rule:evenodd;fill:rgb(80%,80%,80%);fill-opacity:1;" d="M 18.695312 13.527344 C 18.464844 14.007812 18.167969 14.453125 17.804688 14.84375 C 18.546875 14.472656 19.144531 13.871094 19.503906 13.121094 C 20.328125 11.375 19.523438 9.355469 17.703125 8.472656 C 19.15625 9.484375 19.613281 11.585938 18.695312 13.527344 Z M 18.695312 13.527344 "/>
<path style=" stroke:none;fill-rule:nonzero;fill:rgb(0%,73.72549%,83.137255%);fill-opacity:1;" d="M 6.246094 14.578125 C 6.222656 14.578125 4.273438 16.390625 4.0625 17.144531 C 3.851562 17.910156 4.292969 18.703125 5.054688 18.914062 C 5.8125 19.128906 6.601562 18.683594 6.8125 17.917969 C 7.023438 17.140625 6.265625 14.582031 6.246094 14.578125 Z M 6.246094 14.578125 "/>
<path style=" stroke:none;fill-rule:nonzero;fill:rgb(0%,73.72549%,83.137255%);fill-opacity:1;" d="M 5.335938 21.09375 C 5.335938 21.558594 4.960938 21.9375 4.496094 21.9375 C 4.035156 21.9375 3.660156 21.558594 3.660156 21.09375 C 3.660156 20.625 4.035156 20.25 4.496094 20.25 C 4.960938 20.25 5.335938 20.625 5.335938 21.09375 Z M 5.335938 21.09375 "/>
<path style=" stroke:none;fill-rule:nonzero;fill:rgb(0%,73.72549%,83.137255%);fill-opacity:1;" d="M 6.261719 14.527344 C 6.238281 14.527344 4.28125 16.34375 4.070312 17.109375 C 3.878906 17.867188 4.324219 18.644531 5.078125 18.855469 C 5.828125 19.0625 6.609375 18.628906 6.832031 17.875 C 7.042969 17.105469 6.285156 14.535156 6.261719 14.527344 Z M 6.261719 14.527344 "/>
<path style=" stroke:none;fill-rule:nonzero;fill:rgb(0%,73.72549%,83.137255%);fill-opacity:1;" d="M 5.347656 21.074219 C 5.347656 21.542969 4.972656 21.921875 4.507812 21.921875 C 4.042969 21.921875 3.664062 21.542969 3.664062 21.074219 C 3.664062 20.605469 4.042969 20.226562 4.507812 20.226562 C 4.972656 20.226562 5.347656 20.605469 5.347656 21.074219 Z M 5.347656 21.074219 "/>
<use xlink:href="#surface5" mask="url(#mask0)"/>
<use xlink:href="#surface8" mask="url(#mask1)"/>
<use xlink:href="#surface11" mask="url(#mask2)"/>
<use xlink:href="#surface14" mask="url(#mask3)"/>
<use xlink:href="#surface17" mask="url(#mask4)"/>
<use xlink:href="#surface20" mask="url(#mask5)"/>
<use xlink:href="#surface23" mask="url(#mask6)"/>
<use xlink:href="#surface26" mask="url(#mask7)"/>
</g>
</svg>
