<?xml version="1.0" encoding="UTF-8"?>
<svg xmlns="http://www.w3.org/2000/svg" xmlns:xlink="http://www.w3.org/1999/xlink" width="25px" height="px" viewBox="0 0 24 18" version="1.1">
<defs>
<filter id="alpha" filterUnits="objectBoundingBox" x="0%" y="0%" width="100%" height="100%">
  <feColorMatrix type="matrix" in="SourceGraphic" values="0 0 0 0 1 0 0 0 0 1 0 0 0 0 1 0 0 0 1 0"/>
</filter>
<mask id="mask0">
  <g filter="url(#alpha)">
<rect x="0" y="0" width="24" height="18" style="fill:rgb(0%,0%,0%);fill-opacity:0.6;stroke:none;"/>
  </g>
</mask>
<clipPath id="clip1">
  <rect x="0" y="0" width="24" height="18"/>
</clipPath>
<g id="surface5" clip-path="url(#clip1)">
<path style=" stroke:none;fill-rule:nonzero;fill:rgb(93.333333%,93.333333%,93.333333%);fill-opacity:1;" d="M 19.636719 11.566406 C 19.503906 11.566406 19.371094 11.566406 19.238281 11.554688 C 17.441406 11.4375 15.894531 10.441406 14.53125 9.585938 L 14.300781 9.4375 C 12.449219 8.257812 9.601562 7.863281 7.707031 9.777344 C 7.449219 10.023438 7.046875 10.015625 6.800781 9.761719 C 6.550781 9.507812 6.542969 9.097656 6.785156 8.835938 C 8.457031 7.132812 11.742188 6.238281 14.996094 8.304688 L 15.230469 8.449219 C 16.523438 9.277344 17.847656 10.125 19.328125 10.230469 C 20.671875 10.332031 22 9.847656 22.972656 8.894531 C 23.234375 8.652344 23.632812 8.65625 23.882812 8.910156 C 24.132812 9.164062 24.140625 9.574219 23.898438 9.835938 C 22.757812 10.960938 21.226562 11.582031 19.636719 11.566406 Z M 19.636719 11.566406 "/>
</g>
<mask id="mask1">
  <g filter="url(#alpha)">
<rect x="0" y="0" width="24" height="18" style="fill:rgb(0%,0%,0%);fill-opacity:0.74902;stroke:none;"/>
  </g>
</mask>
<clipPath id="clip2">
  <rect x="0" y="0" width="24" height="18"/>
</clipPath>
<g id="surface8" clip-path="url(#clip2)">
<path style=" stroke:none;fill-rule:nonzero;fill:rgb(93.333333%,93.333333%,93.333333%);fill-opacity:1;" d="M 19.636719 14.816406 C 19.503906 14.816406 19.371094 14.816406 19.238281 14.800781 C 17.441406 14.683594 15.894531 13.691406 14.53125 12.832031 L 14.300781 12.6875 C 12.449219 11.507812 9.601562 11.109375 7.707031 13.027344 C 7.546875 13.207031 7.300781 13.28125 7.066406 13.21875 C 6.835938 13.160156 6.65625 12.976562 6.59375 12.738281 C 6.535156 12.503906 6.609375 12.253906 6.785156 12.085938 C 8.457031 10.382812 11.742188 9.488281 14.996094 11.554688 L 15.230469 11.703125 C 16.523438 12.527344 17.847656 13.375 19.328125 13.480469 C 20.671875 13.582031 22 13.097656 22.972656 12.148438 C 23.234375 11.902344 23.632812 11.910156 23.882812 12.164062 C 24.132812 12.417969 24.140625 12.828125 23.898438 13.089844 C 22.753906 14.210938 21.226562 14.832031 19.636719 14.816406 Z M 19.636719 14.816406 "/>
</g>
<mask id="mask2">
  <g filter="url(#alpha)">
<rect x="0" y="0" width="24" height="18" style="fill:rgb(0%,0%,0%);fill-opacity:0.901961;stroke:none;"/>
  </g>
</mask>
<clipPath id="clip3">
  <rect x="0" y="0" width="24" height="18"/>
</clipPath>
<g id="surface11" clip-path="url(#clip3)">
<path style=" stroke:none;fill-rule:nonzero;fill:rgb(93.333333%,93.333333%,93.333333%);fill-opacity:1;" d="M 19.636719 18.0625 C 19.503906 18.0625 19.371094 18.0625 19.242188 18.050781 C 17.445312 17.9375 15.898438 16.941406 14.535156 16.082031 L 14.300781 15.9375 C 12.445312 14.757812 9.589844 14.363281 7.707031 16.277344 C 7.449219 16.523438 7.046875 16.515625 6.796875 16.257812 C 6.546875 16.003906 6.542969 15.59375 6.785156 15.332031 C 8.457031 13.628906 11.742188 12.734375 14.996094 14.800781 L 15.230469 14.949219 C 16.523438 15.773438 17.847656 16.621094 19.328125 16.730469 C 20.671875 16.828125 22 16.34375 22.972656 15.394531 C 23.136719 15.21875 23.382812 15.144531 23.617188 15.203125 C 23.847656 15.265625 24.027344 15.449219 24.085938 15.683594 C 24.148438 15.921875 24.074219 16.171875 23.898438 16.335938 C 22.753906 17.460938 21.226562 18.078125 19.636719 18.0625 Z M 19.636719 18.0625 "/>
</g>
<mask id="mask3">
  <g filter="url(#alpha)">
<rect x="0" y="0" width="24" height="18" style="fill:rgb(0%,0%,0%);fill-opacity:0.74902;stroke:none;"/>
  </g>
</mask>
<clipPath id="clip4">
  <rect x="0" y="0" width="24" height="18"/>
</clipPath>
<g id="surface14" clip-path="url(#clip4)">
<path style=" stroke:none;fill-rule:nonzero;fill:rgb(93.333333%,93.333333%,93.333333%);fill-opacity:1;" d="M 9.347656 9.34375 C 9.347656 9.585938 9.152344 9.785156 8.910156 9.785156 C 8.667969 9.785156 8.472656 9.585938 8.472656 9.34375 C 8.472656 9.097656 8.667969 8.898438 8.910156 8.898438 C 9.152344 8.898438 9.347656 9.097656 9.347656 9.34375 Z M 9.347656 9.34375 "/>
</g>
<mask id="mask4">
  <g filter="url(#alpha)">
<rect x="0" y="0" width="24" height="18" style="fill:rgb(0%,0%,0%);fill-opacity:0.74902;stroke:none;"/>
  </g>
</mask>
<clipPath id="clip5">
  <rect x="0" y="0" width="24" height="18"/>
</clipPath>
<g id="surface17" clip-path="url(#clip5)">
<path style=" stroke:none;fill-rule:nonzero;fill:rgb(93.333333%,93.333333%,93.333333%);fill-opacity:1;" d="M 12.183594 16.402344 C 12.183594 16.648438 11.988281 16.847656 11.75 16.847656 C 11.507812 16.847656 11.3125 16.648438 11.3125 16.402344 C 11.3125 16.15625 11.507812 15.957031 11.75 15.957031 C 11.988281 15.957031 12.183594 16.15625 12.183594 16.402344 Z M 12.183594 16.402344 "/>
</g>
<mask id="mask5">
  <g filter="url(#alpha)">
<rect x="0" y="0" width="24" height="18" style="fill:rgb(0%,0%,0%);fill-opacity:0.74902;stroke:none;"/>
  </g>
</mask>
<clipPath id="clip6">
  <rect x="0" y="0" width="24" height="18"/>
</clipPath>
<g id="surface20" clip-path="url(#clip6)">
<path style=" stroke:none;fill-rule:nonzero;fill:rgb(93.333333%,93.333333%,93.333333%);fill-opacity:1;" d="M 17.996094 12.847656 C 17.996094 13.09375 17.800781 13.292969 17.5625 13.292969 C 17.320312 13.292969 17.125 13.09375 17.125 12.847656 C 17.125 12.601562 17.320312 12.40625 17.5625 12.40625 C 17.800781 12.40625 17.996094 12.601562 17.996094 12.847656 Z M 17.996094 12.847656 "/>
</g>
<mask id="mask6">
  <g filter="url(#alpha)">
<rect x="0" y="0" width="24" height="18" style="fill:rgb(0%,0%,0%);fill-opacity:0.74902;stroke:none;"/>
  </g>
</mask>
<clipPath id="clip7">
  <rect x="0" y="0" width="24" height="18"/>
</clipPath>
<g id="surface23" clip-path="url(#clip7)">
<path style=" stroke:none;fill-rule:nonzero;fill:rgb(93.333333%,93.333333%,93.333333%);fill-opacity:1;" d="M 22.925781 15.734375 C 22.925781 15.980469 22.730469 16.179688 22.488281 16.179688 C 22.246094 16.179688 22.050781 15.980469 22.050781 15.734375 C 22.050781 15.488281 22.246094 15.292969 22.488281 15.292969 C 22.730469 15.292969 22.925781 15.488281 22.925781 15.734375 Z M 22.925781 15.734375 "/>
</g>
<mask id="mask7">
  <g filter="url(#alpha)">
<rect x="0" y="0" width="24" height="18" style="fill:rgb(0%,0%,0%);fill-opacity:0.74902;stroke:none;"/>
  </g>
</mask>
<clipPath id="clip8">
  <rect x="0" y="0" width="24" height="18"/>
</clipPath>
<g id="surface26" clip-path="url(#clip8)">
<path style=" stroke:none;fill-rule:nonzero;fill:rgb(93.333333%,93.333333%,93.333333%);fill-opacity:1;" d="M 21.25 7.992188 C 21.25 8.238281 21.054688 8.4375 20.816406 8.4375 C 20.574219 8.4375 20.378906 8.238281 20.378906 7.992188 C 20.378906 7.746094 20.574219 7.550781 20.816406 7.550781 C 21.054688 7.550781 21.25 7.746094 21.25 7.992188 Z M 21.25 7.992188 "/>
</g>
</defs>
<g id="surface1">
<path style=" stroke:none;fill-rule:nonzero;fill:rgb(60%,60%,60%);fill-opacity:1;" d="M 15.679688 4.078125 C 15.554688 4.078125 15.4375 4.078125 15.3125 4.09375 C 14.753906 2.386719 13.179688 1.234375 11.410156 1.234375 C 11.171875 1.234375 10.933594 1.25 10.695312 1.277344 C 9.761719 0.449219 8.566406 -0.00390625 7.328125 0 C 4.613281 0 2.398438 1.96875 1.933594 4.742188 C 0.761719 5.503906 0 6.769531 0 8.011719 C 0.0234375 10.199219 1.78125 11.953125 3.925781 11.9375 L 15.679688 11.9375 C 17.917969 11.9375 19.804688 10.140625 19.804688 8.011719 C 19.804688 5.882812 17.917969 4.078125 15.679688 4.078125 Z M 15.679688 4.078125 "/>
<path style=" stroke:none;fill-rule:evenodd;fill:rgb(46.666667%,46.666667%,46.666667%);fill-opacity:1;" d="M 18.230469 9.789062 C 18.007812 10.261719 17.71875 10.695312 17.371094 11.078125 C 18.085938 10.714844 18.664062 10.125 19.015625 9.390625 C 19.816406 7.675781 19.035156 5.699219 17.269531 4.832031 C 18.675781 5.824219 19.117188 7.882812 18.230469 9.789062 Z M 18.230469 9.789062 "/>
<path style=" stroke:none;fill-rule:nonzero;fill:rgb(0%,73.72549%,83.137255%);fill-opacity:1;" d="M 5.964844 10.734375 C 5.941406 10.734375 4.050781 12.503906 3.847656 13.25 C 3.644531 14 4.078125 14.777344 4.8125 14.980469 C 5.546875 15.1875 6.308594 14.75 6.511719 14 C 6.714844 13.25 5.984375 10.742188 5.964844 10.734375 Z M 5.964844 10.734375 "/>
<path style=" stroke:none;fill-rule:nonzero;fill:rgb(0%,73.72549%,83.137255%);fill-opacity:1;" d="M 5.082031 17.121094 C 5.082031 17.578125 4.71875 17.945312 4.269531 17.945312 C 3.820312 17.945312 3.457031 17.578125 3.457031 17.121094 C 3.457031 16.664062 3.820312 16.292969 4.269531 16.292969 C 4.71875 16.292969 5.082031 16.664062 5.082031 17.121094 Z M 5.082031 17.121094 "/>
<use xlink:href="#surface5" mask="url(#mask0)"/>
<use xlink:href="#surface8" mask="url(#mask1)"/>
<use xlink:href="#surface11" mask="url(#mask2)"/>
<use xlink:href="#surface14" mask="url(#mask3)"/>
<use xlink:href="#surface17" mask="url(#mask4)"/>
<use xlink:href="#surface20" mask="url(#mask5)"/>
<use xlink:href="#surface23" mask="url(#mask6)"/>
<use xlink:href="#surface26" mask="url(#mask7)"/>
</g>
</svg>
