<?xml version="1.0" encoding="UTF-8"?>
<svg xmlns="http://www.w3.org/2000/svg" xmlns:xlink="http://www.w3.org/1999/xlink" width="25px" height="px" viewBox="0 0 25 22" version="1.1">
<defs>
<filter id="alpha" filterUnits="objectBoundingBox" x="0%" y="0%" width="100%" height="100%">
  <feColorMatrix type="matrix" in="SourceGraphic" values="0 0 0 0 1 0 0 0 0 1 0 0 0 0 1 0 0 0 1 0"/>
</filter>
<mask id="mask0">
  <g filter="url(#alpha)">
<rect x="0" y="0" width="25" height="22" style="fill:rgb(0%,0%,0%);fill-opacity:0.6;stroke:none;"/>
  </g>
</mask>
<clipPath id="clip1">
  <rect x="0" y="0" width="25" height="22"/>
</clipPath>
<g id="surface5" clip-path="url(#clip1)">
<path style=" stroke:none;fill-rule:nonzero;fill:rgb(93.333333%,93.333333%,93.333333%);fill-opacity:1;" d="M 20.367188 15.300781 C 20.230469 15.300781 20.09375 15.300781 19.957031 15.289062 C 18.101562 15.167969 16.503906 14.167969 15.097656 13.28125 L 14.863281 13.128906 C 12.949219 11.925781 10 11.523438 8.054688 13.480469 C 7.792969 13.746094 7.363281 13.742188 7.101562 13.476562 C 6.835938 13.210938 6.835938 12.78125 7.101562 12.515625 C 8.828125 10.777344 12.21875 9.867188 15.582031 11.972656 L 15.820312 12.125 C 17.15625 12.964844 18.523438 13.832031 20.050781 13.9375 C 21.441406 14.042969 22.808594 13.546875 23.816406 12.578125 C 24.082031 12.351562 24.476562 12.367188 24.726562 12.613281 C 24.976562 12.859375 24.996094 13.257812 24.773438 13.527344 C 23.59375 14.679688 22.011719 15.316406 20.367188 15.300781 Z M 20.367188 15.300781 "/>
</g>
<mask id="mask1">
  <g filter="url(#alpha)">
<rect x="0" y="0" width="25" height="22" style="fill:rgb(0%,0%,0%);fill-opacity:0.74902;stroke:none;"/>
  </g>
</mask>
<clipPath id="clip2">
  <rect x="0" y="0" width="25" height="22"/>
</clipPath>
<g id="surface8" clip-path="url(#clip2)">
<path style=" stroke:none;fill-rule:nonzero;fill:rgb(93.333333%,93.333333%,93.333333%);fill-opacity:1;" d="M 20.367188 18.617188 C 20.230469 18.617188 20.09375 18.617188 19.957031 18.605469 C 18.101562 18.484375 16.503906 17.472656 15.097656 16.59375 L 14.863281 16.445312 C 12.949219 15.242188 10 14.835938 8.054688 16.792969 C 7.792969 17.0625 7.363281 17.0625 7.097656 16.796875 C 6.832031 16.53125 6.832031 16.097656 7.09375 15.832031 C 8.820312 14.089844 12.210938 13.183594 15.574219 15.289062 L 15.816406 15.441406 C 17.148438 16.28125 18.519531 17.148438 20.042969 17.253906 C 21.433594 17.359375 22.800781 16.863281 23.808594 15.894531 C 24.070312 15.640625 24.488281 15.644531 24.75 15.898438 C 25.007812 16.15625 25.019531 16.574219 24.773438 16.84375 C 23.59375 17.996094 22.011719 18.632812 20.367188 18.617188 Z M 20.367188 18.617188 "/>
</g>
<mask id="mask2">
  <g filter="url(#alpha)">
<rect x="0" y="0" width="25" height="22" style="fill:rgb(0%,0%,0%);fill-opacity:0.901961;stroke:none;"/>
  </g>
</mask>
<clipPath id="clip3">
  <rect x="0" y="0" width="25" height="22"/>
</clipPath>
<g id="surface11" clip-path="url(#clip3)">
<path style=" stroke:none;fill-rule:nonzero;fill:rgb(93.333333%,93.333333%,93.333333%);fill-opacity:1;" d="M 20.363281 21.933594 C 20.230469 21.933594 20.09375 21.933594 19.957031 21.921875 C 18.101562 21.800781 16.507812 20.785156 15.097656 19.910156 L 14.863281 19.761719 C 12.949219 18.558594 10 18.152344 8.054688 20.109375 C 7.886719 20.292969 7.632812 20.367188 7.394531 20.304688 C 7.15625 20.246094 6.96875 20.054688 6.90625 19.816406 C 6.847656 19.574219 6.921875 19.320312 7.101562 19.148438 C 8.828125 17.410156 12.21875 16.496094 15.582031 18.605469 L 15.820312 18.757812 C 17.15625 19.597656 18.523438 20.464844 20.050781 20.570312 C 21.441406 20.675781 22.808594 20.179688 23.816406 19.210938 C 24.082031 18.984375 24.476562 18.996094 24.726562 19.246094 C 24.976562 19.492188 24.996094 19.886719 24.773438 20.160156 C 23.59375 21.3125 22.007812 21.949219 20.363281 21.933594 Z M 20.363281 21.933594 "/>
</g>
<mask id="mask3">
  <g filter="url(#alpha)">
<rect x="0" y="0" width="25" height="22" style="fill:rgb(0%,0%,0%);fill-opacity:0.74902;stroke:none;"/>
  </g>
</mask>
<clipPath id="clip4">
  <rect x="0" y="0" width="25" height="22"/>
</clipPath>
<g id="surface14" clip-path="url(#clip4)">
<path style=" stroke:none;fill-rule:nonzero;fill:rgb(93.333333%,93.333333%,93.333333%);fill-opacity:1;" d="M 9.742188 13.03125 C 9.742188 13.28125 9.539062 13.484375 9.289062 13.484375 C 9.042969 13.484375 8.839844 13.28125 8.839844 13.03125 C 8.839844 12.78125 9.042969 12.578125 9.289062 12.578125 C 9.539062 12.578125 9.742188 12.78125 9.742188 13.03125 Z M 9.742188 13.03125 "/>
</g>
<mask id="mask4">
  <g filter="url(#alpha)">
<rect x="0" y="0" width="25" height="22" style="fill:rgb(0%,0%,0%);fill-opacity:0.74902;stroke:none;"/>
  </g>
</mask>
<clipPath id="clip5">
  <rect x="0" y="0" width="25" height="22"/>
</clipPath>
<g id="surface17" clip-path="url(#clip5)">
<path style=" stroke:none;fill-rule:nonzero;fill:rgb(93.333333%,93.333333%,93.333333%);fill-opacity:1;" d="M 12.671875 20.238281 C 12.671875 20.488281 12.46875 20.691406 12.222656 20.691406 C 11.972656 20.691406 11.769531 20.488281 11.769531 20.238281 C 11.769531 19.988281 11.972656 19.785156 12.222656 19.785156 C 12.46875 19.785156 12.671875 19.988281 12.671875 20.238281 Z M 12.671875 20.238281 "/>
</g>
<mask id="mask5">
  <g filter="url(#alpha)">
<rect x="0" y="0" width="25" height="22" style="fill:rgb(0%,0%,0%);fill-opacity:0.74902;stroke:none;"/>
  </g>
</mask>
<clipPath id="clip6">
  <rect x="0" y="0" width="25" height="22"/>
</clipPath>
<g id="surface20" clip-path="url(#clip6)">
<path style=" stroke:none;fill-rule:nonzero;fill:rgb(93.333333%,93.333333%,93.333333%);fill-opacity:1;" d="M 18.671875 16.609375 C 18.671875 16.863281 18.46875 17.066406 18.222656 17.066406 C 17.972656 17.066406 17.769531 16.863281 17.769531 16.609375 C 17.769531 16.359375 17.972656 16.15625 18.222656 16.15625 C 18.46875 16.15625 18.671875 16.359375 18.671875 16.609375 Z M 18.671875 16.609375 "/>
</g>
<mask id="mask6">
  <g filter="url(#alpha)">
<rect x="0" y="0" width="25" height="22" style="fill:rgb(0%,0%,0%);fill-opacity:0.74902;stroke:none;"/>
  </g>
</mask>
<clipPath id="clip7">
  <rect x="0" y="0" width="25" height="22"/>
</clipPath>
<g id="surface23" clip-path="url(#clip7)">
<path style=" stroke:none;fill-rule:nonzero;fill:rgb(93.333333%,93.333333%,93.333333%);fill-opacity:1;" d="M 23.757812 19.558594 C 23.757812 19.808594 23.554688 20.011719 23.304688 20.011719 C 23.058594 20.011719 22.855469 19.808594 22.855469 19.558594 C 22.855469 19.308594 23.058594 19.105469 23.304688 19.105469 C 23.554688 19.105469 23.757812 19.308594 23.757812 19.558594 Z M 23.757812 19.558594 "/>
</g>
<mask id="mask7">
  <g filter="url(#alpha)">
<rect x="0" y="0" width="25" height="22" style="fill:rgb(0%,0%,0%);fill-opacity:0.74902;stroke:none;"/>
  </g>
</mask>
<clipPath id="clip8">
  <rect x="0" y="0" width="25" height="22"/>
</clipPath>
<g id="surface26" clip-path="url(#clip8)">
<path style=" stroke:none;fill-rule:nonzero;fill:rgb(93.333333%,93.333333%,93.333333%);fill-opacity:1;" d="M 22.027344 11.65625 C 22.027344 11.90625 21.828125 12.109375 21.578125 12.109375 C 21.328125 12.109375 21.128906 11.90625 21.128906 11.65625 C 21.128906 11.40625 21.328125 11.203125 21.578125 11.203125 C 21.828125 11.203125 22.027344 11.40625 22.027344 11.65625 Z M 22.027344 11.65625 "/>
</g>
</defs>
<g id="surface1">
<path style=" stroke:none;fill-rule:evenodd;fill:rgb(97.647059%,65.098039%,2.745098%);fill-opacity:1;" d="M 12.105469 8.871094 C 10.921875 10.082031 9.300781 10.757812 7.613281 10.753906 C 5.925781 10.75 4.308594 10.0625 3.128906 8.84375 L 3.09375 8.808594 C 3.59375 12.753906 6.910156 15.722656 10.859375 15.765625 C 12.9375 15.761719 14.929688 14.921875 16.390625 13.429688 C 17.851562 11.941406 18.660156 9.921875 18.632812 7.828125 C 18.628906 4.050781 16.003906 0.789062 12.335938 0 C 14.570312 2.5625 14.46875 6.425781 12.105469 8.871094 Z M 12.105469 8.871094 "/>
<path style=" stroke:none;fill-rule:evenodd;fill:rgb(100%,84.313725%,29.411765%);fill-opacity:1;" d="M 16.6875 10.636719 C 16.394531 11.335938 16.003906 11.988281 15.523438 12.574219 C 16.523438 12 17.304688 11.109375 17.753906 10.039062 C 18.828125 7.484375 17.804688 4.527344 15.390625 3.191406 C 17.289062 4.679688 17.890625 7.777344 16.6875 10.636719 Z M 16.6875 10.636719 "/>
<path style=" stroke:none;fill-rule:nonzero;fill:rgb(86.666667%,86.666667%,86.666667%);fill-opacity:1;" d="M 16.179688 7.78125 C 16.050781 7.78125 15.925781 7.78125 15.800781 7.796875 C 15.222656 6.054688 13.597656 4.875 11.773438 4.875 C 11.527344 4.878906 11.28125 4.894531 11.035156 4.921875 C 10.070312 4.082031 8.835938 3.621094 7.558594 3.628906 C 4.761719 3.628906 2.476562 5.628906 1.996094 8.457031 C 0.789062 9.234375 0 10.527344 0 11.792969 C 0.0273438 14.023438 1.839844 15.8125 4.054688 15.796875 L 16.171875 15.796875 C 18.480469 15.796875 20.429688 13.960938 20.429688 11.789062 C 20.429688 9.617188 18.488281 7.78125 16.179688 7.78125 Z M 16.179688 7.78125 "/>
<path style=" stroke:none;fill-rule:evenodd;fill:rgb(80%,80%,80%);fill-opacity:1;" d="M 18.695312 13.527344 C 18.464844 14.007812 18.167969 14.453125 17.804688 14.84375 C 18.546875 14.472656 19.144531 13.871094 19.503906 13.121094 C 20.328125 11.375 19.523438 9.355469 17.703125 8.472656 C 19.15625 9.484375 19.613281 11.585938 18.695312 13.527344 Z M 18.695312 13.527344 "/>
<path style=" stroke:none;fill-rule:nonzero;fill:rgb(0%,73.72549%,83.137255%);fill-opacity:1;" d="M 6.167969 14.59375 C 6.144531 14.59375 4.195312 16.410156 3.988281 17.164062 C 3.824219 17.664062 3.949219 18.21875 4.316406 18.597656 C 4.679688 18.980469 5.222656 19.128906 5.726562 18.988281 C 6.234375 18.84375 6.621094 18.433594 6.734375 17.917969 C 6.945312 17.160156 6.1875 14.601562 6.167969 14.59375 Z M 6.167969 14.59375 "/>
<path style=" stroke:none;fill-rule:nonzero;fill:rgb(0%,73.72549%,83.137255%);fill-opacity:1;" d="M 5.257812 21.109375 C 5.257812 21.578125 4.882812 21.953125 4.421875 21.953125 C 3.957031 21.953125 3.582031 21.578125 3.582031 21.109375 C 3.582031 20.644531 3.957031 20.265625 4.421875 20.265625 C 4.882812 20.265625 5.257812 20.644531 5.257812 21.109375 Z M 5.257812 21.109375 "/>
<use xlink:href="#surface5" mask="url(#mask0)"/>
<use xlink:href="#surface8" mask="url(#mask1)"/>
<use xlink:href="#surface11" mask="url(#mask2)"/>
<use xlink:href="#surface14" mask="url(#mask3)"/>
<use xlink:href="#surface17" mask="url(#mask4)"/>
<use xlink:href="#surface20" mask="url(#mask5)"/>
<use xlink:href="#surface23" mask="url(#mask6)"/>
<use xlink:href="#surface26" mask="url(#mask7)"/>
<path style=" stroke:none;fill-rule:nonzero;fill:rgb(100%,89.411765%,12.156863%);fill-opacity:1;" d="M 12.933594 14.609375 L 16.039062 14.609375 L 14.777344 16.699219 L 16.082031 16.699219 L 13.40625 20.175781 L 13.9375 18.105469 L 11.433594 18.105469 Z M 12.933594 14.609375 "/>
</g>
</svg>
