<?xml version="1.0" encoding="UTF-8"?>
<svg xmlns="http://www.w3.org/2000/svg" xmlns:xlink="http://www.w3.org/1999/xlink" width="25px" height="px" viewBox="0 0 24 18" version="1.1">
<defs>
<filter id="alpha" filterUnits="objectBoundingBox" x="0%" y="0%" width="100%" height="100%">
  <feColorMatrix type="matrix" in="SourceGraphic" values="0 0 0 0 1 0 0 0 0 1 0 0 0 0 1 0 0 0 1 0"/>
</filter>
<mask id="mask0">
  <g filter="url(#alpha)">
<rect x="0" y="0" width="24" height="18" style="fill:rgb(0%,0%,0%);fill-opacity:0.6;stroke:none;"/>
  </g>
</mask>
<clipPath id="clip1">
  <rect x="0" y="0" width="24" height="18"/>
</clipPath>
<g id="surface5" clip-path="url(#clip1)">
<path style=" stroke:none;fill-rule:nonzero;fill:rgb(93.333333%,93.333333%,93.333333%);fill-opacity:1;" d="M 19.636719 11.4375 C 19.503906 11.4375 19.371094 11.4375 19.238281 11.425781 C 17.441406 11.308594 15.898438 10.3125 14.53125 9.453125 L 14.300781 9.308594 C 12.453125 8.128906 9.601562 7.734375 7.714844 9.648438 C 7.460938 9.910156 7.042969 9.910156 6.789062 9.648438 C 6.53125 9.390625 6.53125 8.96875 6.789062 8.707031 C 8.460938 7.003906 11.746094 6.109375 15.003906 8.175781 L 15.234375 8.324219 C 16.527344 9.148438 17.855469 9.996094 19.332031 10.101562 C 20.679688 10.203125 22.003906 9.71875 22.980469 8.769531 C 23.234375 8.507812 23.648438 8.507812 23.90625 8.769531 C 24.160156 9.03125 24.160156 9.453125 23.902344 9.714844 C 22.757812 10.835938 21.226562 11.453125 19.636719 11.4375 Z M 19.636719 11.4375 "/>
</g>
<mask id="mask1">
  <g filter="url(#alpha)">
<rect x="0" y="0" width="24" height="18" style="fill:rgb(0%,0%,0%);fill-opacity:0.74902;stroke:none;"/>
  </g>
</mask>
<clipPath id="clip2">
  <rect x="0" y="0" width="24" height="18"/>
</clipPath>
<g id="surface8" clip-path="url(#clip2)">
<path style=" stroke:none;fill-rule:nonzero;fill:rgb(93.333333%,93.333333%,93.333333%);fill-opacity:1;" d="M 19.636719 14.683594 C 19.503906 14.683594 19.371094 14.683594 19.238281 14.683594 C 17.441406 14.566406 15.898438 13.574219 14.53125 12.714844 L 14.300781 12.566406 C 12.453125 11.378906 9.601562 10.980469 7.714844 12.890625 C 7.460938 13.148438 7.042969 13.148438 6.789062 12.890625 C 6.53125 12.628906 6.53125 12.207031 6.789062 11.945312 C 8.460938 10.242188 11.746094 9.347656 15.003906 11.414062 L 15.234375 11.5625 C 16.527344 12.386719 17.855469 13.238281 19.332031 13.34375 C 20.679688 13.441406 22.003906 12.957031 22.980469 12.007812 C 23.234375 11.75 23.648438 11.75 23.90625 12.011719 C 24.160156 12.269531 24.160156 12.691406 23.902344 12.953125 C 22.757812 14.078125 21.226562 14.699219 19.636719 14.683594 Z M 19.636719 14.683594 "/>
</g>
<mask id="mask2">
  <g filter="url(#alpha)">
<rect x="0" y="0" width="24" height="18" style="fill:rgb(0%,0%,0%);fill-opacity:0.901961;stroke:none;"/>
  </g>
</mask>
<clipPath id="clip3">
  <rect x="0" y="0" width="24" height="18"/>
</clipPath>
<g id="surface11" clip-path="url(#clip3)">
<path style=" stroke:none;fill-rule:nonzero;fill:rgb(93.333333%,93.333333%,93.333333%);fill-opacity:1;" d="M 19.636719 17.933594 C 19.503906 17.933594 19.371094 17.933594 19.238281 17.933594 C 17.441406 17.816406 15.898438 16.820312 14.53125 15.964844 L 14.300781 15.816406 C 12.453125 14.625 9.601562 14.222656 7.714844 16.148438 C 7.460938 16.40625 7.042969 16.40625 6.789062 16.148438 C 6.53125 15.886719 6.53125 15.464844 6.789062 15.203125 C 8.460938 13.5 11.746094 12.605469 15.003906 14.667969 L 15.234375 14.816406 C 16.53125 15.636719 17.855469 16.488281 19.332031 16.59375 C 20.679688 16.695312 22.003906 16.210938 22.980469 15.261719 C 23.234375 15 23.648438 15 23.90625 15.261719 C 24.160156 15.523438 24.160156 15.945312 23.902344 16.203125 C 22.757812 17.328125 21.226562 17.949219 19.636719 17.933594 Z M 19.636719 17.933594 "/>
</g>
<mask id="mask3">
  <g filter="url(#alpha)">
<rect x="0" y="0" width="24" height="18" style="fill:rgb(0%,0%,0%);fill-opacity:0.74902;stroke:none;"/>
  </g>
</mask>
<clipPath id="clip4">
  <rect x="0" y="0" width="24" height="18"/>
</clipPath>
<g id="surface14" clip-path="url(#clip4)">
<path style=" stroke:none;fill-rule:nonzero;fill:rgb(93.333333%,93.333333%,93.333333%);fill-opacity:1;" d="M 9.351562 9.210938 C 9.351562 9.457031 9.15625 9.65625 8.914062 9.65625 C 8.675781 9.65625 8.480469 9.457031 8.480469 9.210938 C 8.480469 8.964844 8.675781 8.765625 8.914062 8.765625 C 9.15625 8.765625 9.351562 8.964844 9.351562 9.210938 Z M 9.351562 9.210938 "/>
</g>
<mask id="mask4">
  <g filter="url(#alpha)">
<rect x="0" y="0" width="24" height="18" style="fill:rgb(0%,0%,0%);fill-opacity:0.74902;stroke:none;"/>
  </g>
</mask>
<clipPath id="clip5">
  <rect x="0" y="0" width="24" height="18"/>
</clipPath>
<g id="surface17" clip-path="url(#clip5)">
<path style=" stroke:none;fill-rule:nonzero;fill:rgb(93.333333%,93.333333%,93.333333%);fill-opacity:1;" d="M 12.191406 16.269531 C 12.191406 16.515625 11.996094 16.714844 11.753906 16.714844 C 11.511719 16.714844 11.316406 16.515625 11.316406 16.269531 C 11.316406 16.027344 11.511719 15.828125 11.753906 15.828125 C 11.996094 15.828125 12.191406 16.027344 12.191406 16.269531 Z M 12.191406 16.269531 "/>
</g>
<mask id="mask5">
  <g filter="url(#alpha)">
<rect x="0" y="0" width="24" height="18" style="fill:rgb(0%,0%,0%);fill-opacity:0.74902;stroke:none;"/>
  </g>
</mask>
<clipPath id="clip6">
  <rect x="0" y="0" width="24" height="18"/>
</clipPath>
<g id="surface20" clip-path="url(#clip6)">
<path style=" stroke:none;fill-rule:nonzero;fill:rgb(93.333333%,93.333333%,93.333333%);fill-opacity:1;" d="M 18.003906 12.71875 C 18.003906 12.964844 17.808594 13.164062 17.566406 13.164062 C 17.328125 13.164062 17.132812 12.964844 17.132812 12.71875 C 17.132812 12.472656 17.328125 12.273438 17.566406 12.273438 C 17.808594 12.273438 18.003906 12.472656 18.003906 12.71875 Z M 18.003906 12.71875 "/>
</g>
<mask id="mask6">
  <g filter="url(#alpha)">
<rect x="0" y="0" width="24" height="18" style="fill:rgb(0%,0%,0%);fill-opacity:0.74902;stroke:none;"/>
  </g>
</mask>
<clipPath id="clip7">
  <rect x="0" y="0" width="24" height="18"/>
</clipPath>
<g id="surface23" clip-path="url(#clip7)">
<path style=" stroke:none;fill-rule:nonzero;fill:rgb(93.333333%,93.333333%,93.333333%);fill-opacity:1;" d="M 22.929688 15.605469 C 22.929688 15.851562 22.734375 16.050781 22.496094 16.050781 C 22.253906 16.050781 22.058594 15.851562 22.058594 15.605469 C 22.058594 15.359375 22.253906 15.160156 22.496094 15.160156 C 22.734375 15.160156 22.929688 15.359375 22.929688 15.605469 Z M 22.929688 15.605469 "/>
</g>
<mask id="mask7">
  <g filter="url(#alpha)">
<rect x="0" y="0" width="24" height="18" style="fill:rgb(0%,0%,0%);fill-opacity:0.74902;stroke:none;"/>
  </g>
</mask>
<clipPath id="clip8">
  <rect x="0" y="0" width="24" height="18"/>
</clipPath>
<g id="surface26" clip-path="url(#clip8)">
<path style=" stroke:none;fill-rule:nonzero;fill:rgb(93.333333%,93.333333%,93.333333%);fill-opacity:1;" d="M 21.253906 7.863281 C 21.253906 8.109375 21.058594 8.308594 20.820312 8.308594 C 20.578125 8.308594 20.382812 8.109375 20.382812 7.863281 C 20.382812 7.617188 20.578125 7.417969 20.820312 7.417969 C 21.058594 7.417969 21.253906 7.617188 21.253906 7.863281 Z M 21.253906 7.863281 "/>
</g>
</defs>
<g id="surface1">
<path style=" stroke:none;fill-rule:nonzero;fill:rgb(60%,60%,60%);fill-opacity:1;" d="M 15.679688 4.078125 C 15.554688 4.078125 15.4375 4.078125 15.3125 4.09375 C 14.753906 2.386719 13.179688 1.234375 11.410156 1.234375 C 11.171875 1.234375 10.933594 1.25 10.695312 1.277344 C 9.761719 0.449219 8.566406 -0.00390625 7.328125 0 C 4.613281 0 2.398438 1.96875 1.933594 4.742188 C 0.761719 5.503906 0 6.769531 0 8.011719 C 0.0234375 10.199219 1.78125 11.953125 3.925781 11.9375 L 15.679688 11.9375 C 17.917969 11.9375 19.804688 10.140625 19.804688 8.011719 C 19.804688 5.882812 17.917969 4.078125 15.679688 4.078125 Z M 15.679688 4.078125 "/>
<path style=" stroke:none;fill-rule:evenodd;fill:rgb(46.666667%,46.666667%,46.666667%);fill-opacity:1;" d="M 18.230469 9.789062 C 18.007812 10.261719 17.71875 10.695312 17.371094 11.078125 C 18.085938 10.714844 18.664062 10.125 19.015625 9.390625 C 19.816406 7.675781 19.035156 5.699219 17.269531 4.832031 C 18.675781 5.824219 19.117188 7.882812 18.230469 9.789062 Z M 18.230469 9.789062 "/>
<path style=" stroke:none;fill-rule:nonzero;fill:rgb(0%,73.72549%,83.137255%);fill-opacity:1;" d="M 5.964844 10.734375 C 5.941406 10.734375 4.050781 12.503906 3.847656 13.25 C 3.644531 14 4.078125 14.777344 4.8125 14.980469 C 5.546875 15.1875 6.308594 14.75 6.511719 14 C 6.714844 13.25 5.984375 10.742188 5.964844 10.734375 Z M 5.964844 10.734375 "/>
<path style=" stroke:none;fill-rule:nonzero;fill:rgb(0%,73.72549%,83.137255%);fill-opacity:1;" d="M 5.082031 17.121094 C 5.082031 17.578125 4.71875 17.945312 4.269531 17.945312 C 3.820312 17.945312 3.457031 17.578125 3.457031 17.121094 C 3.457031 16.664062 3.820312 16.292969 4.269531 16.292969 C 4.71875 16.292969 5.082031 16.664062 5.082031 17.121094 Z M 5.082031 17.121094 "/>
<use xlink:href="#surface5" mask="url(#mask0)"/>
<use xlink:href="#surface8" mask="url(#mask1)"/>
<use xlink:href="#surface11" mask="url(#mask2)"/>
<use xlink:href="#surface14" mask="url(#mask3)"/>
<use xlink:href="#surface17" mask="url(#mask4)"/>
<use xlink:href="#surface20" mask="url(#mask5)"/>
<use xlink:href="#surface23" mask="url(#mask6)"/>
<use xlink:href="#surface26" mask="url(#mask7)"/>
<path style=" stroke:none;fill-rule:nonzero;fill:rgb(100%,89.411765%,12.156863%);fill-opacity:1;" d="M 12.757812 11.078125 L 15.769531 11.078125 L 14.542969 13.125 L 15.808594 13.125 L 13.21875 16.535156 L 13.730469 14.503906 L 11.304688 14.503906 Z M 12.757812 11.078125 "/>
</g>
</svg>
