<?xml version="1.0" encoding="UTF-8"?>
<svg xmlns="http://www.w3.org/2000/svg" xmlns:xlink="http://www.w3.org/1999/xlink" width="25px" height="px" viewBox="0 0 24 19" version="1.1">
<defs>
<filter id="alpha" filterUnits="objectBoundingBox" x="0%" y="0%" width="100%" height="100%">
  <feColorMatrix type="matrix" in="SourceGraphic" values="0 0 0 0 1 0 0 0 0 1 0 0 0 0 1 0 0 0 1 0"/>
</filter>
<mask id="mask0">
  <g filter="url(#alpha)">
<rect x="0" y="0" width="24" height="19" style="fill:rgb(0%,0%,0%);fill-opacity:0.6;stroke:none;"/>
  </g>
</mask>
<clipPath id="clip1">
  <rect x="0" y="0" width="24" height="19"/>
</clipPath>
<g id="surface5" clip-path="url(#clip1)">
<path style=" stroke:none;fill-rule:nonzero;fill:rgb(93.333333%,93.333333%,93.333333%);fill-opacity:1;" d="M 19.511719 12.132812 C 19.378906 12.132812 19.242188 12.132812 19.105469 12.117188 C 17.277344 11.996094 15.703125 10.972656 14.3125 10.089844 L 14.078125 9.941406 C 12.183594 8.722656 9.277344 8.316406 7.359375 10.292969 C 7.097656 10.558594 6.675781 10.558594 6.417969 10.289062 C 6.15625 10.023438 6.15625 9.585938 6.417969 9.320312 C 8.121094 7.554688 11.464844 6.636719 14.78125 8.765625 L 15.019531 8.917969 C 16.335938 9.765625 17.6875 10.640625 19.191406 10.75 C 20.5625 10.855469 21.914062 10.355469 22.90625 9.375 C 23.167969 9.125 23.578125 9.132812 23.832031 9.394531 C 24.085938 9.65625 24.09375 10.078125 23.847656 10.347656 C 22.683594 11.503906 21.128906 12.144531 19.511719 12.132812 Z M 19.511719 12.132812 "/>
</g>
<mask id="mask1">
  <g filter="url(#alpha)">
<rect x="0" y="0" width="24" height="19" style="fill:rgb(0%,0%,0%);fill-opacity:0.74902;stroke:none;"/>
  </g>
</mask>
<clipPath id="clip2">
  <rect x="0" y="0" width="24" height="19"/>
</clipPath>
<g id="surface8" clip-path="url(#clip2)">
<path style=" stroke:none;fill-rule:nonzero;fill:rgb(93.333333%,93.333333%,93.333333%);fill-opacity:1;" d="M 19.511719 15.472656 C 19.378906 15.472656 19.242188 15.472656 19.105469 15.457031 C 17.277344 15.335938 15.703125 14.3125 14.3125 13.429688 L 14.078125 13.277344 C 12.183594 12.0625 9.277344 11.652344 7.359375 13.628906 C 7.097656 13.898438 6.675781 13.898438 6.417969 13.628906 C 6.15625 13.359375 6.15625 12.925781 6.417969 12.65625 C 8.121094 10.902344 11.464844 9.980469 14.78125 12.109375 L 15.019531 12.261719 C 16.335938 13.109375 17.6875 13.988281 19.191406 14.09375 C 20.5625 14.199219 21.914062 13.699219 22.90625 12.722656 C 23.167969 12.46875 23.578125 12.476562 23.832031 12.738281 C 24.085938 13 24.09375 13.421875 23.847656 13.691406 C 22.683594 14.847656 21.128906 15.484375 19.511719 15.472656 Z M 19.511719 15.472656 "/>
</g>
<mask id="mask2">
  <g filter="url(#alpha)">
<rect x="0" y="0" width="24" height="19" style="fill:rgb(0%,0%,0%);fill-opacity:0.901961;stroke:none;"/>
  </g>
</mask>
<clipPath id="clip3">
  <rect x="0" y="0" width="24" height="19"/>
</clipPath>
<g id="surface11" clip-path="url(#clip3)">
<path style=" stroke:none;fill-rule:nonzero;fill:rgb(93.333333%,93.333333%,93.333333%);fill-opacity:1;" d="M 19.511719 18.820312 C 19.375 18.820312 19.242188 18.820312 19.105469 18.804688 C 17.277344 18.683594 15.703125 17.660156 14.3125 16.777344 L 14.078125 16.625 C 12.183594 15.410156 9.277344 15.003906 7.359375 16.980469 C 7.097656 17.246094 6.675781 17.246094 6.417969 16.976562 C 6.15625 16.707031 6.15625 16.273438 6.417969 16.003906 C 8.121094 14.25 11.464844 13.332031 14.78125 15.457031 L 15.019531 15.613281 C 16.335938 16.460938 17.6875 17.335938 19.191406 17.445312 C 20.5625 17.546875 21.914062 17.046875 22.90625 16.070312 C 23.167969 15.816406 23.578125 15.824219 23.832031 16.085938 C 24.085938 16.347656 24.09375 16.769531 23.847656 17.039062 C 22.683594 18.195312 21.128906 18.835938 19.511719 18.820312 Z M 19.511719 18.820312 "/>
</g>
<mask id="mask3">
  <g filter="url(#alpha)">
<rect x="0" y="0" width="24" height="19" style="fill:rgb(0%,0%,0%);fill-opacity:0.74902;stroke:none;"/>
  </g>
</mask>
<clipPath id="clip4">
  <rect x="0" y="0" width="24" height="19"/>
</clipPath>
<g id="surface14" clip-path="url(#clip4)">
<path style=" stroke:none;fill-rule:nonzero;fill:rgb(93.333333%,93.333333%,93.333333%);fill-opacity:1;" d="M 9.027344 9.835938 C 9.027344 10.085938 8.828125 10.292969 8.582031 10.292969 C 8.335938 10.292969 8.136719 10.085938 8.136719 9.835938 C 8.136719 9.582031 8.335938 9.375 8.582031 9.375 C 8.828125 9.375 9.027344 9.582031 9.027344 9.835938 Z M 9.027344 9.835938 "/>
</g>
<mask id="mask4">
  <g filter="url(#alpha)">
<rect x="0" y="0" width="24" height="19" style="fill:rgb(0%,0%,0%);fill-opacity:0.74902;stroke:none;"/>
  </g>
</mask>
<clipPath id="clip5">
  <rect x="0" y="0" width="24" height="19"/>
</clipPath>
<g id="surface17" clip-path="url(#clip5)">
<path style=" stroke:none;fill-rule:nonzero;fill:rgb(93.333333%,93.333333%,93.333333%);fill-opacity:1;" d="M 11.917969 17.105469 C 11.917969 17.359375 11.71875 17.566406 11.472656 17.566406 C 11.226562 17.566406 11.027344 17.359375 11.027344 17.105469 C 11.027344 16.855469 11.226562 16.648438 11.472656 16.648438 C 11.71875 16.648438 11.917969 16.855469 11.917969 17.105469 Z M 11.917969 17.105469 "/>
</g>
<mask id="mask5">
  <g filter="url(#alpha)">
<rect x="0" y="0" width="24" height="19" style="fill:rgb(0%,0%,0%);fill-opacity:0.74902;stroke:none;"/>
  </g>
</mask>
<clipPath id="clip6">
  <rect x="0" y="0" width="24" height="19"/>
</clipPath>
<g id="surface20" clip-path="url(#clip6)">
<path style=" stroke:none;fill-rule:nonzero;fill:rgb(93.333333%,93.333333%,93.333333%);fill-opacity:1;" d="M 17.839844 13.445312 C 17.839844 13.695312 17.640625 13.902344 17.394531 13.902344 C 17.148438 13.902344 16.949219 13.695312 16.949219 13.445312 C 16.949219 13.191406 17.148438 12.988281 17.394531 12.988281 C 17.640625 12.988281 17.839844 13.191406 17.839844 13.445312 Z M 17.839844 13.445312 "/>
</g>
<mask id="mask6">
  <g filter="url(#alpha)">
<rect x="0" y="0" width="24" height="19" style="fill:rgb(0%,0%,0%);fill-opacity:0.74902;stroke:none;"/>
  </g>
</mask>
<clipPath id="clip7">
  <rect x="0" y="0" width="24" height="19"/>
</clipPath>
<g id="surface23" clip-path="url(#clip7)">
<path style=" stroke:none;fill-rule:nonzero;fill:rgb(93.333333%,93.333333%,93.333333%);fill-opacity:1;" d="M 22.859375 16.421875 C 22.859375 16.671875 22.660156 16.878906 22.414062 16.878906 C 22.167969 16.878906 21.96875 16.671875 21.96875 16.421875 C 21.96875 16.167969 22.167969 15.960938 22.414062 15.960938 C 22.660156 15.960938 22.859375 16.167969 22.859375 16.421875 Z M 22.859375 16.421875 "/>
</g>
<mask id="mask7">
  <g filter="url(#alpha)">
<rect x="0" y="0" width="24" height="19" style="fill:rgb(0%,0%,0%);fill-opacity:0.74902;stroke:none;"/>
  </g>
</mask>
<clipPath id="clip8">
  <rect x="0" y="0" width="24" height="19"/>
</clipPath>
<g id="surface26" clip-path="url(#clip8)">
<path style=" stroke:none;fill-rule:nonzero;fill:rgb(93.333333%,93.333333%,93.333333%);fill-opacity:1;" d="M 21.152344 8.445312 C 21.152344 8.699219 20.953125 8.902344 20.707031 8.902344 C 20.460938 8.902344 20.261719 8.699219 20.261719 8.445312 C 20.261719 8.191406 20.460938 7.988281 20.707031 7.988281 C 20.953125 7.988281 21.152344 8.191406 21.152344 8.445312 Z M 21.152344 8.445312 "/>
</g>
</defs>
<g id="surface1">
<path style=" stroke:none;fill-rule:nonzero;fill:rgb(60%,60%,60%);fill-opacity:1;" d="M 16.722656 4.402344 C 16.59375 4.402344 16.464844 4.402344 16.335938 4.417969 C 15.734375 2.574219 14.058594 1.332031 12.167969 1.328125 C 11.914062 1.332031 11.660156 1.34375 11.410156 1.375 C 10.410156 0.484375 9.136719 -0.00390625 7.816406 0 C 4.925781 0 2.566406 2.125 2.0625 5.117188 C 0.8125 5.9375 0 7.304688 0 8.640625 C 0.0273438 11.003906 1.90625 12.902344 4.199219 12.878906 L 16.722656 12.878906 C 19.109375 12.878906 21.125 10.941406 21.125 8.640625 C 21.125 6.34375 19.109375 4.402344 16.722656 4.402344 Z M 16.722656 4.402344 "/>
<path style=" stroke:none;fill-rule:evenodd;fill:rgb(46.666667%,46.666667%,46.666667%);fill-opacity:1;" d="M 19.445312 10.558594 C 19.207031 11.066406 18.898438 11.535156 18.527344 11.949219 C 19.292969 11.5625 19.910156 10.921875 20.28125 10.132812 C 21.136719 8.28125 20.300781 6.144531 18.425781 5.214844 C 19.917969 6.285156 20.390625 8.507812 19.445312 10.558594 Z M 19.445312 10.558594 "/>
<use xlink:href="#surface5" mask="url(#mask0)"/>
<use xlink:href="#surface8" mask="url(#mask1)"/>
<use xlink:href="#surface11" mask="url(#mask2)"/>
<use xlink:href="#surface14" mask="url(#mask3)"/>
<use xlink:href="#surface17" mask="url(#mask4)"/>
<use xlink:href="#surface20" mask="url(#mask5)"/>
<use xlink:href="#surface23" mask="url(#mask6)"/>
<use xlink:href="#surface26" mask="url(#mask7)"/>
<path style=" stroke:none;fill-rule:nonzero;fill:rgb(0%,73.72549%,83.137255%);fill-opacity:1;" d="M 5.199219 15.671875 C 5.082031 16.136719 4.628906 16.417969 4.171875 16.308594 C 3.726562 16.171875 3.46875 15.691406 3.59375 15.230469 C 3.839844 14.285156 5.582031 10.894531 5.582031 10.894531 C 5.582031 10.894531 5.480469 14.589844 5.199219 15.671875 Z M 5.199219 15.671875 "/>
<path style=" stroke:none;fill-rule:nonzero;fill:rgb(0%,73.72549%,83.137255%);fill-opacity:1;" d="M 8.152344 18.359375 C 8.085938 18.664062 7.863281 18.910156 7.570312 18.996094 C 7.273438 19.082031 6.960938 18.996094 6.746094 18.769531 C 6.535156 18.542969 6.457031 18.21875 6.550781 17.917969 C 6.792969 16.972656 8.535156 13.582031 8.535156 13.582031 C 8.535156 13.582031 8.445312 17.277344 8.152344 18.359375 Z M 8.152344 18.359375 "/>
<path style=" stroke:none;fill-rule:nonzero;fill:rgb(0%,73.72549%,83.137255%);fill-opacity:1;" d="M 12.351562 15.671875 C 12.285156 15.976562 12.0625 16.222656 11.769531 16.308594 C 11.476562 16.394531 11.160156 16.308594 10.945312 16.082031 C 10.734375 15.855469 10.65625 15.53125 10.75 15.230469 C 10.992188 14.285156 12.734375 10.894531 12.734375 10.894531 C 12.734375 10.894531 12.632812 14.589844 12.351562 15.671875 Z M 12.351562 15.671875 "/>
<path style=" stroke:none;fill-rule:nonzero;fill:rgb(0%,73.72549%,83.137255%);fill-opacity:1;" d="M 15.449219 18.394531 C 15.382812 18.699219 15.160156 18.945312 14.867188 19.03125 C 14.574219 19.117188 14.257812 19.03125 14.042969 18.804688 C 13.832031 18.578125 13.753906 18.25 13.847656 17.953125 C 14.09375 17.007812 15.832031 13.617188 15.832031 13.617188 C 15.832031 13.617188 15.734375 17.3125 15.449219 18.394531 Z M 15.449219 18.394531 "/>
</g>
</svg>
