<?xml version="1.0" encoding="UTF-8"?>
<svg xmlns="http://www.w3.org/2000/svg" xmlns:xlink="http://www.w3.org/1999/xlink" width="25px" height="px" viewBox="0 0 24 19" version="1.1">
<defs>
<filter id="alpha" filterUnits="objectBoundingBox" x="0%" y="0%" width="100%" height="100%">
  <feColorMatrix type="matrix" in="SourceGraphic" values="0 0 0 0 1 0 0 0 0 1 0 0 0 0 1 0 0 0 1 0"/>
</filter>
<mask id="mask0">
  <g filter="url(#alpha)">
<rect x="0" y="0" width="24" height="19" style="fill:rgb(0%,0%,0%);fill-opacity:0.6;stroke:none;"/>
  </g>
</mask>
<clipPath id="clip1">
  <rect x="0" y="0" width="24" height="19"/>
</clipPath>
<g id="surface5" clip-path="url(#clip1)">
<path style=" stroke:none;fill-rule:nonzero;fill:rgb(93.333333%,93.333333%,93.333333%);fill-opacity:1;" d="M 19.539062 11.964844 C 19.40625 11.964844 19.273438 11.964844 19.136719 11.953125 C 17.324219 11.832031 15.765625 10.808594 14.390625 9.921875 L 14.15625 9.773438 C 12.28125 8.558594 9.398438 8.148438 7.5 10.125 C 7.238281 10.367188 6.839844 10.355469 6.59375 10.097656 C 6.347656 9.839844 6.335938 9.429688 6.566406 9.15625 C 8.253906 7.402344 11.570312 6.480469 14.855469 8.605469 L 15.089844 8.761719 C 16.394531 9.609375 17.730469 10.484375 19.222656 10.59375 C 20.582031 10.695312 21.917969 10.199219 22.902344 9.21875 C 23.066406 9.035156 23.316406 8.960938 23.550781 9.019531 C 23.785156 9.082031 23.96875 9.273438 24.027344 9.515625 C 24.085938 9.761719 24.015625 10.019531 23.835938 10.1875 C 22.683594 11.34375 21.140625 11.980469 19.539062 11.964844 Z M 19.539062 11.964844 "/>
</g>
<mask id="mask1">
  <g filter="url(#alpha)">
<rect x="0" y="0" width="24" height="19" style="fill:rgb(0%,0%,0%);fill-opacity:0.74902;stroke:none;"/>
  </g>
</mask>
<clipPath id="clip2">
  <rect x="0" y="0" width="24" height="19"/>
</clipPath>
<g id="surface8" clip-path="url(#clip2)">
<path style=" stroke:none;fill-rule:nonzero;fill:rgb(93.333333%,93.333333%,93.333333%);fill-opacity:1;" d="M 19.539062 15.3125 C 19.40625 15.3125 19.273438 15.3125 19.136719 15.296875 C 17.324219 15.175781 15.765625 14.164062 14.390625 13.277344 L 14.15625 13.125 C 12.28125 11.902344 9.398438 11.496094 7.5 13.472656 C 7.335938 13.65625 7.085938 13.730469 6.851562 13.667969 C 6.617188 13.605469 6.4375 13.417969 6.375 13.171875 C 6.316406 12.929688 6.390625 12.671875 6.566406 12.5 C 8.253906 10.746094 11.570312 9.824219 14.855469 11.953125 L 15.089844 12.105469 C 16.394531 12.953125 17.730469 13.828125 19.222656 13.9375 C 20.582031 14.042969 21.917969 13.542969 22.902344 12.5625 C 23.164062 12.3125 23.570312 12.316406 23.820312 12.578125 C 24.074219 12.839844 24.078125 13.261719 23.835938 13.535156 C 22.683594 14.6875 21.140625 15.328125 19.539062 15.3125 Z M 19.539062 15.3125 "/>
</g>
<mask id="mask2">
  <g filter="url(#alpha)">
<rect x="0" y="0" width="24" height="19" style="fill:rgb(0%,0%,0%);fill-opacity:0.901961;stroke:none;"/>
  </g>
</mask>
<clipPath id="clip3">
  <rect x="0" y="0" width="24" height="19"/>
</clipPath>
<g id="surface11" clip-path="url(#clip3)">
<path style=" stroke:none;fill-rule:nonzero;fill:rgb(93.333333%,93.333333%,93.333333%);fill-opacity:1;" d="M 19.539062 18.660156 C 19.40625 18.660156 19.273438 18.660156 19.136719 18.644531 C 17.324219 18.523438 15.765625 17.5 14.390625 16.617188 L 14.15625 16.464844 C 12.28125 15.25 9.398438 14.84375 7.5 16.820312 C 7.238281 17.070312 6.832031 17.0625 6.582031 16.800781 C 6.332031 16.539062 6.324219 16.117188 6.566406 15.847656 C 8.253906 14.09375 11.570312 13.171875 14.855469 15.296875 L 15.089844 15.453125 C 16.394531 16.300781 17.734375 17.175781 19.222656 17.28125 C 20.582031 17.386719 21.917969 16.890625 22.902344 15.910156 C 23.066406 15.726562 23.316406 15.648438 23.550781 15.710938 C 23.785156 15.773438 23.96875 15.964844 24.027344 16.207031 C 24.085938 16.453125 24.015625 16.710938 23.835938 16.878906 C 22.683594 18.035156 21.140625 18.675781 19.539062 18.660156 Z M 19.539062 18.660156 "/>
</g>
<mask id="mask3">
  <g filter="url(#alpha)">
<rect x="0" y="0" width="24" height="19" style="fill:rgb(0%,0%,0%);fill-opacity:0.74902;stroke:none;"/>
  </g>
</mask>
<clipPath id="clip4">
  <rect x="0" y="0" width="24" height="19"/>
</clipPath>
<g id="surface14" clip-path="url(#clip4)">
<path style=" stroke:none;fill-rule:nonzero;fill:rgb(93.333333%,93.333333%,93.333333%);fill-opacity:1;" d="M 9.152344 9.675781 C 9.152344 9.925781 8.953125 10.132812 8.710938 10.132812 C 8.46875 10.132812 8.269531 9.925781 8.269531 9.675781 C 8.269531 9.421875 8.46875 9.214844 8.710938 9.214844 C 8.953125 9.214844 9.152344 9.421875 9.152344 9.675781 Z M 9.152344 9.675781 "/>
</g>
<mask id="mask4">
  <g filter="url(#alpha)">
<rect x="0" y="0" width="24" height="19" style="fill:rgb(0%,0%,0%);fill-opacity:0.74902;stroke:none;"/>
  </g>
</mask>
<clipPath id="clip5">
  <rect x="0" y="0" width="24" height="19"/>
</clipPath>
<g id="surface17" clip-path="url(#clip5)">
<path style=" stroke:none;fill-rule:nonzero;fill:rgb(93.333333%,93.333333%,93.333333%);fill-opacity:1;" d="M 12.015625 16.945312 C 12.015625 17.199219 11.816406 17.40625 11.574219 17.40625 C 11.332031 17.40625 11.132812 17.199219 11.132812 16.945312 C 11.132812 16.695312 11.332031 16.488281 11.574219 16.488281 C 11.816406 16.488281 12.015625 16.695312 12.015625 16.945312 Z M 12.015625 16.945312 "/>
</g>
<mask id="mask5">
  <g filter="url(#alpha)">
<rect x="0" y="0" width="24" height="19" style="fill:rgb(0%,0%,0%);fill-opacity:0.74902;stroke:none;"/>
  </g>
</mask>
<clipPath id="clip6">
  <rect x="0" y="0" width="24" height="19"/>
</clipPath>
<g id="surface20" clip-path="url(#clip6)">
<path style=" stroke:none;fill-rule:nonzero;fill:rgb(93.333333%,93.333333%,93.333333%);fill-opacity:1;" d="M 17.882812 13.285156 C 17.882812 13.539062 17.6875 13.742188 17.441406 13.742188 C 17.199219 13.742188 17.003906 13.539062 17.003906 13.285156 C 17.003906 13.035156 17.199219 12.828125 17.441406 12.828125 C 17.6875 12.828125 17.882812 13.035156 17.882812 13.285156 Z M 17.882812 13.285156 "/>
</g>
<mask id="mask6">
  <g filter="url(#alpha)">
<rect x="0" y="0" width="24" height="19" style="fill:rgb(0%,0%,0%);fill-opacity:0.74902;stroke:none;"/>
  </g>
</mask>
<clipPath id="clip7">
  <rect x="0" y="0" width="24" height="19"/>
</clipPath>
<g id="surface23" clip-path="url(#clip7)">
<path style=" stroke:none;fill-rule:nonzero;fill:rgb(93.333333%,93.333333%,93.333333%);fill-opacity:1;" d="M 22.855469 16.261719 C 22.855469 16.511719 22.65625 16.71875 22.414062 16.71875 C 22.171875 16.71875 21.972656 16.511719 21.972656 16.261719 C 21.972656 16.007812 22.171875 15.800781 22.414062 15.800781 C 22.65625 15.800781 22.855469 16.007812 22.855469 16.261719 Z M 22.855469 16.261719 "/>
</g>
<mask id="mask7">
  <g filter="url(#alpha)">
<rect x="0" y="0" width="24" height="19" style="fill:rgb(0%,0%,0%);fill-opacity:0.74902;stroke:none;"/>
  </g>
</mask>
<clipPath id="clip8">
  <rect x="0" y="0" width="24" height="19"/>
</clipPath>
<g id="surface26" clip-path="url(#clip8)">
<path style=" stroke:none;fill-rule:nonzero;fill:rgb(93.333333%,93.333333%,93.333333%);fill-opacity:1;" d="M 21.164062 8.285156 C 21.164062 8.539062 20.96875 8.742188 20.722656 8.742188 C 20.480469 8.742188 20.285156 8.539062 20.285156 8.285156 C 20.285156 8.03125 20.480469 7.828125 20.722656 7.828125 C 20.96875 7.828125 21.164062 8.03125 21.164062 8.285156 Z M 21.164062 8.285156 "/>
</g>
</defs>
<g id="surface1">
<path style=" stroke:none;fill-rule:nonzero;fill:rgb(60%,60%,60%);fill-opacity:1;" d="M 16.570312 4.402344 C 16.441406 4.402344 16.3125 4.402344 16.1875 4.417969 C 15.589844 2.574219 13.929688 1.332031 12.058594 1.328125 C 11.804688 1.332031 11.554688 1.34375 11.304688 1.375 C 10.316406 0.484375 9.050781 -0.00390625 7.742188 0 C 4.882812 0 2.542969 2.125 2.046875 5.117188 C 0.804688 5.9375 0 7.304688 0 8.640625 C 0.0273438 11.003906 1.886719 12.902344 4.160156 12.878906 L 16.570312 12.878906 C 18.9375 12.878906 20.933594 10.941406 20.933594 8.640625 C 20.933594 6.34375 18.9375 4.402344 16.570312 4.402344 Z M 16.570312 4.402344 "/>
<path style=" stroke:none;fill-rule:evenodd;fill:rgb(46.666667%,46.666667%,46.666667%);fill-opacity:1;" d="M 19.265625 10.558594 C 19.03125 11.066406 18.726562 11.535156 18.355469 11.949219 C 19.113281 11.5625 19.726562 10.921875 20.097656 10.132812 C 20.941406 8.28125 20.117188 6.144531 18.253906 5.214844 C 19.734375 6.285156 20.203125 8.507812 19.265625 10.558594 Z M 19.265625 10.558594 "/>
<use xlink:href="#surface5" mask="url(#mask0)"/>
<use xlink:href="#surface8" mask="url(#mask1)"/>
<use xlink:href="#surface11" mask="url(#mask2)"/>
<use xlink:href="#surface14" mask="url(#mask3)"/>
<use xlink:href="#surface17" mask="url(#mask4)"/>
<use xlink:href="#surface20" mask="url(#mask5)"/>
<use xlink:href="#surface23" mask="url(#mask6)"/>
<use xlink:href="#surface26" mask="url(#mask7)"/>
<path style=" stroke:none;fill-rule:nonzero;fill:rgb(78.823529%,89.019608%,96.862745%);fill-opacity:1;" d="M 19.898438 14.453125 L 18.972656 14.984375 L 18.640625 14.785156 L 18.976562 14.613281 L 18.757812 14.152344 L 18.128906 14.476562 L 17.714844 14.230469 C 17.734375 14.15625 17.742188 14.078125 17.742188 14.003906 C 17.742188 13.925781 17.734375 13.847656 17.714844 13.773438 L 18.128906 13.527344 L 18.757812 13.847656 L 18.976562 13.390625 L 18.640625 13.21875 L 18.972656 13.019531 L 19.898438 13.554688 L 20.136719 13.109375 L 19.476562 12.722656 L 20.019531 12.394531 L 19.773438 11.953125 L 19.222656 12.285156 L 19.234375 11.488281 L 18.746094 11.488281 L 18.730469 12.589844 L 18.394531 12.792969 L 18.421875 12.398438 L 17.933594 12.363281 L 17.886719 13.089844 L 17.472656 13.335938 C 17.367188 13.230469 17.238281 13.152344 17.09375 13.109375 L 17.09375 12.613281 L 17.679688 12.207031 L 17.40625 11.78125 L 17.09375 12.011719 L 17.09375 11.601562 L 18.003906 11.035156 L 17.75 10.597656 L 17.089844 11.007812 L 17.089844 10.355469 L 16.605469 10.355469 L 16.605469 11.007812 L 15.945312 10.597656 L 15.691406 11.035156 L 16.601562 11.601562 L 16.601562 12 L 16.285156 11.769531 L 16.015625 12.195312 L 16.601562 12.601562 L 16.601562 13.09375 C 16.457031 13.136719 16.324219 13.214844 16.21875 13.324219 L 15.808594 13.074219 L 15.765625 12.363281 L 15.277344 12.394531 L 15.304688 12.785156 L 14.972656 12.589844 L 14.953125 11.492188 L 14.464844 11.492188 L 14.476562 12.289062 L 13.933594 11.960938 L 13.6875 12.402344 L 14.234375 12.726562 L 13.570312 13.113281 L 13.808594 13.5625 L 14.738281 13.023438 L 15.066406 13.222656 L 14.730469 13.398438 L 14.949219 13.855469 L 15.566406 13.527344 L 15.980469 13.777344 C 15.960938 13.851562 15.949219 13.929688 15.949219 14.003906 C 15.949219 14.082031 15.960938 14.160156 15.980469 14.234375 L 15.566406 14.480469 L 14.9375 14.15625 L 14.71875 14.613281 L 15.054688 14.789062 L 14.722656 14.988281 L 13.796875 14.453125 L 13.558594 14.898438 L 14.21875 15.285156 L 13.671875 15.613281 L 13.921875 16.050781 L 14.464844 15.726562 L 14.449219 16.519531 L 14.941406 16.519531 L 14.972656 15.425781 L 15.304688 15.226562 L 15.28125 15.617188 L 15.769531 15.652344 L 15.8125 14.921875 L 16.226562 14.671875 C 16.332031 14.78125 16.464844 14.859375 16.605469 14.902344 L 16.605469 15.398438 L 16.019531 15.796875 L 16.292969 16.226562 L 16.605469 16.007812 L 16.605469 16.40625 L 15.699219 16.972656 L 15.949219 17.410156 L 16.609375 17 L 16.609375 17.652344 L 17.101562 17.652344 L 17.101562 17 L 17.761719 17.410156 L 18.015625 16.972656 L 17.109375 16.40625 L 17.109375 16.007812 L 17.421875 16.226562 L 17.679688 15.796875 L 17.09375 15.390625 L 17.09375 14.902344 C 17.238281 14.859375 17.367188 14.78125 17.472656 14.671875 L 17.886719 14.921875 L 17.933594 15.652344 L 18.421875 15.617188 L 18.394531 15.226562 L 18.730469 15.425781 L 18.746094 16.527344 L 19.234375 16.527344 L 19.222656 15.734375 L 19.769531 16.058594 L 20.011719 15.617188 L 19.46875 15.292969 L 20.128906 14.90625 Z M 16.847656 14.421875 C 16.683594 14.421875 16.53125 14.316406 16.46875 14.160156 C 16.40625 14 16.441406 13.816406 16.558594 13.695312 C 16.675781 13.574219 16.855469 13.535156 17.007812 13.601562 C 17.160156 13.667969 17.257812 13.824219 17.257812 14 C 17.257812 14.109375 17.214844 14.21875 17.136719 14.296875 C 17.0625 14.378906 16.957031 14.421875 16.847656 14.421875 Z M 16.847656 14.421875 "/>
<path style=" stroke:none;fill-rule:nonzero;fill:rgb(56.862745%,80.392157%,94.901961%);fill-opacity:1;" d="M 19.898438 14.453125 L 18.972656 14.984375 L 18.640625 14.785156 L 18.976562 14.613281 L 18.757812 14.152344 L 18.128906 14.476562 L 17.714844 14.230469 C 17.734375 14.15625 17.742188 14.078125 17.742188 14.003906 C 17.742188 13.925781 17.734375 13.847656 17.714844 13.773438 L 18.128906 13.527344 L 18.757812 13.847656 L 18.976562 13.390625 L 18.640625 13.21875 L 18.972656 13.019531 L 19.898438 13.554688 L 20.136719 13.109375 L 19.476562 12.722656 L 20.019531 12.394531 L 19.773438 11.953125 L 19.222656 12.285156 L 19.234375 11.488281 L 18.746094 11.488281 L 18.730469 12.589844 L 18.394531 12.792969 L 18.421875 12.398438 L 17.933594 12.363281 L 17.886719 13.089844 L 17.472656 13.335938 C 17.367188 13.230469 17.238281 13.152344 17.09375 13.109375 L 17.09375 12.613281 L 17.679688 12.207031 L 17.40625 11.78125 L 17.09375 12.011719 L 17.09375 11.601562 L 18.003906 11.035156 L 17.75 10.597656 L 17.089844 11.007812 L 17.089844 10.355469 L 16.847656 10.355469 L 16.847656 13.578125 C 17 13.566406 17.148438 13.644531 17.226562 13.78125 C 17.308594 13.917969 17.308594 14.089844 17.226562 14.226562 C 17.148438 14.363281 17 14.441406 16.847656 14.429688 L 16.847656 17.652344 L 17.09375 17.652344 L 17.09375 17 L 17.753906 17.410156 L 18.007812 16.972656 L 17.101562 16.40625 L 17.101562 16.007812 L 17.414062 16.226562 L 17.679688 15.796875 L 17.09375 15.390625 L 17.09375 14.902344 C 17.238281 14.859375 17.367188 14.78125 17.472656 14.671875 L 17.886719 14.921875 L 17.933594 15.652344 L 18.421875 15.617188 L 18.394531 15.226562 L 18.730469 15.425781 L 18.746094 16.527344 L 19.234375 16.527344 L 19.222656 15.734375 L 19.769531 16.058594 L 20.011719 15.617188 L 19.46875 15.292969 L 20.128906 14.90625 Z M 19.898438 14.453125 "/>
<path style=" stroke:none;fill-rule:nonzero;fill:rgb(0%,73.72549%,83.137255%);fill-opacity:1;" d="M 3.601562 15.546875 C 3.484375 16.011719 3.03125 16.296875 2.582031 16.1875 C 2.144531 16.046875 1.890625 15.570312 2.011719 15.109375 C 2.253906 14.164062 3.980469 10.773438 3.980469 10.773438 C 3.980469 10.773438 3.878906 14.464844 3.601562 15.546875 Z M 3.601562 15.546875 "/>
<path style=" stroke:none;fill-rule:nonzero;fill:rgb(0%,73.72549%,83.137255%);fill-opacity:1;" d="M 5.867188 18.234375 C 5.75 18.703125 5.296875 18.988281 4.84375 18.875 C 4.402344 18.734375 4.148438 18.257812 4.269531 17.792969 C 4.515625 16.847656 6.25 13.457031 6.25 13.457031 C 6.25 13.457031 6.144531 17.152344 5.867188 18.234375 Z M 5.867188 18.234375 "/>
<path style=" stroke:none;fill-rule:nonzero;fill:rgb(0%,73.72549%,83.137255%);fill-opacity:1;" d="M 9.367188 15.546875 C 9.304688 15.855469 9.082031 16.105469 8.789062 16.191406 C 8.496094 16.277344 8.183594 16.191406 7.96875 15.964844 C 7.757812 15.738281 7.683594 15.410156 7.777344 15.109375 C 8.019531 14.164062 9.757812 10.773438 9.757812 10.773438 C 9.757812 10.773438 9.644531 14.464844 9.367188 15.546875 Z M 9.367188 15.546875 "/>
<path style=" stroke:none;fill-rule:nonzero;fill:rgb(0%,73.72549%,83.137255%);fill-opacity:1;" d="M 11.777344 18.269531 C 11.710938 18.578125 11.488281 18.820312 11.199219 18.90625 C 10.90625 18.992188 10.59375 18.90625 10.382812 18.679688 C 10.171875 18.457031 10.097656 18.128906 10.1875 17.828125 C 10.429688 16.882812 12.15625 13.492188 12.15625 13.492188 C 12.15625 13.492188 12.054688 17.1875 11.777344 18.269531 Z M 11.777344 18.269531 "/>
</g>
</svg>
