<?xml version="1.0" encoding="UTF-8"?>
<svg xmlns="http://www.w3.org/2000/svg" xmlns:xlink="http://www.w3.org/1999/xlink" width="25px" height="px" viewBox="0 0 24 19" version="1.1">
<defs>
<filter id="alpha" filterUnits="objectBoundingBox" x="0%" y="0%" width="100%" height="100%">
  <feColorMatrix type="matrix" in="SourceGraphic" values="0 0 0 0 1 0 0 0 0 1 0 0 0 0 1 0 0 0 1 0"/>
</filter>
<mask id="mask0">
  <g filter="url(#alpha)">
<rect x="0" y="0" width="24" height="19" style="fill:rgb(0%,0%,0%);fill-opacity:0.6;stroke:none;"/>
  </g>
</mask>
<clipPath id="clip1">
  <rect x="0" y="0" width="24" height="19"/>
</clipPath>
<g id="surface5" clip-path="url(#clip1)">
<path style=" stroke:none;fill-rule:nonzero;fill:rgb(93.333333%,93.333333%,93.333333%);fill-opacity:1;" d="M 19.433594 12.21875 C 19.300781 12.21875 19.164062 12.21875 19.027344 12.207031 C 17.199219 12.085938 15.625 11.0625 14.234375 10.175781 L 14 10.023438 C 12.109375 8.8125 9.199219 8.402344 7.28125 10.375 C 7.019531 10.628906 6.609375 10.621094 6.355469 10.359375 C 6.101562 10.097656 6.09375 9.675781 6.339844 9.40625 C 8.042969 7.648438 11.390625 6.730469 14.703125 8.859375 L 14.941406 9.011719 C 16.261719 9.859375 17.621094 10.734375 19.117188 10.84375 C 20.488281 10.949219 21.835938 10.449219 22.828125 9.46875 C 22.988281 9.273438 23.246094 9.183594 23.488281 9.242188 C 23.734375 9.300781 23.925781 9.496094 23.984375 9.746094 C 24.046875 9.996094 23.964844 10.257812 23.777344 10.429688 C 22.613281 11.589844 21.054688 12.230469 19.433594 12.21875 Z M 19.433594 12.21875 "/>
</g>
<mask id="mask1">
  <g filter="url(#alpha)">
<rect x="0" y="0" width="24" height="19" style="fill:rgb(0%,0%,0%);fill-opacity:0.74902;stroke:none;"/>
  </g>
</mask>
<clipPath id="clip2">
  <rect x="0" y="0" width="24" height="19"/>
</clipPath>
<g id="surface8" clip-path="url(#clip2)">
<path style=" stroke:none;fill-rule:nonzero;fill:rgb(93.333333%,93.333333%,93.333333%);fill-opacity:1;" d="M 19.433594 15.566406 C 19.300781 15.566406 19.164062 15.566406 19.027344 15.550781 C 17.199219 15.429688 15.625 14.40625 14.234375 13.523438 L 14 13.371094 C 12.109375 12.15625 9.199219 11.75 7.28125 13.722656 C 7.019531 13.976562 6.609375 13.96875 6.355469 13.707031 C 6.101562 13.445312 6.09375 13.023438 6.339844 12.753906 C 8.042969 10.988281 11.390625 10.074219 14.703125 12.207031 L 14.941406 12.359375 C 16.261719 13.207031 17.621094 14.082031 19.117188 14.191406 C 20.484375 14.292969 21.835938 13.796875 22.828125 12.816406 C 23.089844 12.582031 23.484375 12.59375 23.734375 12.84375 C 23.984375 13.09375 24.003906 13.5 23.777344 13.777344 C 22.613281 14.933594 21.054688 15.578125 19.433594 15.566406 Z M 19.433594 15.566406 "/>
</g>
<mask id="mask2">
  <g filter="url(#alpha)">
<rect x="0" y="0" width="24" height="19" style="fill:rgb(0%,0%,0%);fill-opacity:0.901961;stroke:none;"/>
  </g>
</mask>
<clipPath id="clip3">
  <rect x="0" y="0" width="24" height="19"/>
</clipPath>
<g id="surface11" clip-path="url(#clip3)">
<path style=" stroke:none;fill-rule:nonzero;fill:rgb(93.333333%,93.333333%,93.333333%);fill-opacity:1;" d="M 19.433594 18.914062 C 19.300781 18.914062 19.164062 18.914062 19.027344 18.898438 C 17.199219 18.777344 15.625 17.753906 14.238281 16.871094 L 14 16.710938 C 12.109375 15.496094 9.199219 15.089844 7.28125 17.0625 C 7.019531 17.316406 6.609375 17.308594 6.355469 17.046875 C 6.101562 16.785156 6.09375 16.363281 6.339844 16.09375 C 8.042969 14.335938 11.390625 13.417969 14.703125 15.546875 L 14.945312 15.699219 C 16.261719 16.546875 17.609375 17.421875 19.117188 17.53125 C 20.488281 17.636719 21.835938 17.136719 22.828125 16.15625 C 23.085938 15.886719 23.511719 15.882812 23.773438 16.152344 C 24.035156 16.417969 24.035156 16.851562 23.777344 17.121094 C 22.613281 18.28125 21.054688 18.925781 19.433594 18.914062 Z M 19.433594 18.914062 "/>
</g>
<mask id="mask3">
  <g filter="url(#alpha)">
<rect x="0" y="0" width="24" height="19" style="fill:rgb(0%,0%,0%);fill-opacity:0.74902;stroke:none;"/>
  </g>
</mask>
<clipPath id="clip4">
  <rect x="0" y="0" width="24" height="19"/>
</clipPath>
<g id="surface14" clip-path="url(#clip4)">
<path style=" stroke:none;fill-rule:nonzero;fill:rgb(93.333333%,93.333333%,93.333333%);fill-opacity:1;" d="M 8.949219 9.925781 C 8.949219 10.179688 8.75 10.382812 8.503906 10.382812 C 8.257812 10.382812 8.058594 10.179688 8.058594 9.925781 C 8.058594 9.671875 8.257812 9.46875 8.503906 9.46875 C 8.75 9.46875 8.949219 9.671875 8.949219 9.925781 Z M 8.949219 9.925781 "/>
</g>
<mask id="mask4">
  <g filter="url(#alpha)">
<rect x="0" y="0" width="24" height="19" style="fill:rgb(0%,0%,0%);fill-opacity:0.74902;stroke:none;"/>
  </g>
</mask>
<clipPath id="clip5">
  <rect x="0" y="0" width="24" height="19"/>
</clipPath>
<g id="surface17" clip-path="url(#clip5)">
<path style=" stroke:none;fill-rule:nonzero;fill:rgb(93.333333%,93.333333%,93.333333%);fill-opacity:1;" d="M 11.839844 17.199219 C 11.839844 17.453125 11.640625 17.660156 11.394531 17.660156 C 11.148438 17.660156 10.949219 17.453125 10.949219 17.199219 C 10.949219 16.949219 11.148438 16.742188 11.394531 16.742188 C 11.640625 16.742188 11.839844 16.949219 11.839844 17.199219 Z M 11.839844 17.199219 "/>
</g>
<mask id="mask5">
  <g filter="url(#alpha)">
<rect x="0" y="0" width="24" height="19" style="fill:rgb(0%,0%,0%);fill-opacity:0.74902;stroke:none;"/>
  </g>
</mask>
<clipPath id="clip6">
  <rect x="0" y="0" width="24" height="19"/>
</clipPath>
<g id="surface20" clip-path="url(#clip6)">
<path style=" stroke:none;fill-rule:nonzero;fill:rgb(93.333333%,93.333333%,93.333333%);fill-opacity:1;" d="M 17.761719 13.539062 C 17.761719 13.789062 17.5625 13.996094 17.316406 13.996094 C 17.074219 13.996094 16.875 13.789062 16.875 13.539062 C 16.875 13.285156 17.074219 13.082031 17.316406 13.082031 C 17.5625 13.082031 17.761719 13.285156 17.761719 13.539062 Z M 17.761719 13.539062 "/>
</g>
<mask id="mask6">
  <g filter="url(#alpha)">
<rect x="0" y="0" width="24" height="19" style="fill:rgb(0%,0%,0%);fill-opacity:0.74902;stroke:none;"/>
  </g>
</mask>
<clipPath id="clip7">
  <rect x="0" y="0" width="24" height="19"/>
</clipPath>
<g id="surface23" clip-path="url(#clip7)">
<path style=" stroke:none;fill-rule:nonzero;fill:rgb(93.333333%,93.333333%,93.333333%);fill-opacity:1;" d="M 22.78125 16.515625 C 22.78125 16.765625 22.582031 16.972656 22.335938 16.972656 C 22.089844 16.972656 21.890625 16.765625 21.890625 16.515625 C 21.890625 16.261719 22.089844 16.054688 22.335938 16.054688 C 22.582031 16.054688 22.78125 16.261719 22.78125 16.515625 Z M 22.78125 16.515625 "/>
</g>
<mask id="mask7">
  <g filter="url(#alpha)">
<rect x="0" y="0" width="24" height="19" style="fill:rgb(0%,0%,0%);fill-opacity:0.74902;stroke:none;"/>
  </g>
</mask>
<clipPath id="clip8">
  <rect x="0" y="0" width="24" height="19"/>
</clipPath>
<g id="surface26" clip-path="url(#clip8)">
<path style=" stroke:none;fill-rule:nonzero;fill:rgb(93.333333%,93.333333%,93.333333%);fill-opacity:1;" d="M 21.074219 8.535156 C 21.074219 8.789062 20.875 8.992188 20.628906 8.992188 C 20.382812 8.992188 20.183594 8.789062 20.183594 8.535156 C 20.183594 8.285156 20.382812 8.078125 20.628906 8.078125 C 20.875 8.078125 21.074219 8.285156 21.074219 8.535156 Z M 21.074219 8.535156 "/>
</g>
</defs>
<g id="surface1">
<path style=" stroke:none;fill-rule:nonzero;fill:rgb(60%,60%,60%);fill-opacity:1;" d="M 16.722656 4.402344 C 16.59375 4.402344 16.464844 4.402344 16.335938 4.417969 C 15.734375 2.574219 14.058594 1.332031 12.167969 1.328125 C 11.914062 1.332031 11.660156 1.34375 11.410156 1.375 C 10.410156 0.484375 9.136719 -0.00390625 7.816406 0 C 4.925781 0 2.566406 2.125 2.0625 5.117188 C 0.8125 5.9375 0 7.304688 0 8.640625 C 0.0273438 11.003906 1.90625 12.902344 4.199219 12.878906 L 16.722656 12.878906 C 19.109375 12.878906 21.125 10.941406 21.125 8.640625 C 21.125 6.34375 19.109375 4.402344 16.722656 4.402344 Z M 16.722656 4.402344 "/>
<path style=" stroke:none;fill-rule:evenodd;fill:rgb(46.666667%,46.666667%,46.666667%);fill-opacity:1;" d="M 19.445312 10.558594 C 19.207031 11.066406 18.898438 11.535156 18.527344 11.949219 C 19.292969 11.5625 19.910156 10.921875 20.28125 10.132812 C 21.136719 8.28125 20.300781 6.144531 18.425781 5.214844 C 19.917969 6.285156 20.390625 8.507812 19.445312 10.558594 Z M 19.445312 10.558594 "/>
<use xlink:href="#surface5" mask="url(#mask0)"/>
<use xlink:href="#surface8" mask="url(#mask1)"/>
<use xlink:href="#surface11" mask="url(#mask2)"/>
<use xlink:href="#surface14" mask="url(#mask3)"/>
<use xlink:href="#surface17" mask="url(#mask4)"/>
<use xlink:href="#surface20" mask="url(#mask5)"/>
<use xlink:href="#surface23" mask="url(#mask6)"/>
<use xlink:href="#surface26" mask="url(#mask7)"/>
<path style=" stroke:none;fill-rule:nonzero;fill:rgb(0%,73.72549%,83.137255%);fill-opacity:1;" d="M 3.632812 15.546875 C 3.515625 16.011719 3.058594 16.296875 2.605469 16.1875 C 2.164062 16.046875 1.90625 15.570312 2.027344 15.109375 C 2.277344 14.164062 4.019531 10.773438 4.019531 10.773438 C 4.019531 10.773438 3.914062 14.464844 3.632812 15.546875 Z M 3.632812 15.546875 "/>
<path style=" stroke:none;fill-rule:nonzero;fill:rgb(0%,73.72549%,83.137255%);fill-opacity:1;" d="M 5.921875 18.234375 C 5.804688 18.703125 5.34375 18.988281 4.890625 18.875 C 4.445312 18.734375 4.1875 18.257812 4.308594 17.792969 C 4.554688 16.847656 6.308594 13.457031 6.308594 13.457031 C 6.308594 13.457031 6.203125 17.152344 5.921875 18.234375 Z M 5.921875 18.234375 "/>
<path style=" stroke:none;fill-rule:nonzero;fill:rgb(0%,73.72549%,83.137255%);fill-opacity:1;" d="M 9.453125 15.546875 C 9.390625 15.855469 9.164062 16.105469 8.871094 16.191406 C 8.574219 16.277344 8.257812 16.191406 8.042969 15.964844 C 7.832031 15.738281 7.753906 15.410156 7.847656 15.109375 C 8.09375 14.164062 9.847656 10.773438 9.847656 10.773438 C 9.847656 10.773438 9.734375 14.464844 9.453125 15.546875 Z M 9.453125 15.546875 "/>
<path style=" stroke:none;fill-rule:nonzero;fill:rgb(0%,73.72549%,83.137255%);fill-opacity:1;" d="M 11.886719 18.269531 C 11.820312 18.578125 11.597656 18.820312 11.300781 18.90625 C 11.007812 18.992188 10.691406 18.90625 10.480469 18.679688 C 10.265625 18.457031 10.191406 18.128906 10.28125 17.828125 C 10.527344 16.882812 12.269531 13.492188 12.269531 13.492188 C 12.269531 13.492188 12.167969 17.1875 11.886719 18.269531 Z M 11.886719 18.269531 "/>
<path style=" stroke:none;fill-rule:nonzero;fill:rgb(100%,89.411765%,12.156863%);fill-opacity:1;" d="M 14.21875 12 L 17.285156 12 L 16.039062 14.109375 L 17.324219 14.109375 L 14.683594 17.621094 L 15.207031 15.53125 L 12.738281 15.53125 Z M 14.21875 12 "/>
</g>
</svg>
